<svg width="24" height="25" viewBox="0 0 24 25" fill="none" xmlns="http://www.w3.org/2000/svg">
<path d="M17.987 10.596C17.987 13.9023 15.3067 16.5827 12.0003 16.5827C8.694 16.5827 6.01367 13.9023 6.01367 10.596C6.01367 9.66433 6.23267 8.786 6.612 8H0V22C0 23.2833 1.05 24.3333 2.33333 24.3333H21.6667C22.95 24.3333 24 23.2833 24 22V8H17.3883C17.768 8.786 17.987 9.66433 17.987 10.596Z" fill="url(#paint0_linear_4_69)"/>
<path d="M21.6667 0H2.33333C1.05 0 0 1.05 0 2.33333V7H7.22167C8.31433 5.55033 10.045 4.60933 12 4.60933C13.955 4.60933 15.6857 5.55033 16.7783 7H24V2.33333C24 1.05 22.95 0 21.6667 0ZM1.91867 5.90533H1.05V2.54033C1.05 1.95167 1.40867 1.44733 1.919 1.233V5.90533H1.91867ZM3.342 5.90533H2.519V1.12267H3.342V5.90533ZM4.765 5.90533H3.942V1.12267H4.765V5.90533ZM6.187 2.54033V4.48767V5.90533H5.365V1.12267H6.187V2.54033ZM22.7837 4.48767C22.7837 5.271 22.149 5.90533 21.3667 5.90533H19.0637C18.281 5.90533 17.6463 5.271 17.6463 4.48767V2.54033C17.6463 1.757 18.281 1.12267 19.0637 1.12267H21.3667C22.1493 1.12267 22.7837 1.757 22.7837 2.54033V4.48767Z" fill="url(#paint1_linear_4_69)"/>
<path d="M12.0003 15.8826C14.9123 15.8826 17.273 13.521 17.273 10.6096C17.273 7.69797 14.9127 5.3363 12.0003 5.3363C9.08766 5.3363 6.72699 7.69797 6.72699 10.6096C6.72699 13.5206 9.08766 15.8826 12.0003 15.8826V15.8826ZM12 6.4083C14.32 6.4083 16.2013 8.2893 16.2013 10.6096C16.2013 12.9296 14.3203 14.811 12 14.811C9.67966 14.811 7.79866 12.93 7.79866 10.6096C7.79899 8.28897 9.67999 6.4083 12 6.4083Z" fill="url(#paint2_linear_4_69)"/>
<defs>
<linearGradient id="paint0_linear_4_69" x1="11.4815" y1="16.7012" x2="9.50035" y2="24.214" gradientUnits="userSpaceOnUse">
<stop stop-color="#8A3AB9"/>
<stop offset="0.474023" stop-color="#E95950"/>
<stop offset="0.686898" stop-color="#BC2A8D" stop-opacity="0.72"/>
<stop offset="1" stop-color="#FCCC63"/>
</linearGradient>
<linearGradient id="paint1_linear_4_69" x1="11.4815" y1="3.72907" x2="11.0972" y2="7.12933" gradientUnits="userSpaceOnUse">
<stop stop-color="#8A3AB9"/>
<stop offset="0.474023" stop-color="#E95950"/>
<stop offset="0.686898" stop-color="#BC2A8D" stop-opacity="0.72"/>
<stop offset="1" stop-color="#FCCC63"/>
</linearGradient>
<linearGradient id="paint2_linear_4_69" x1="11.7721" y1="10.9546" x2="10.0242" y2="15.4656" gradientUnits="userSpaceOnUse">
<stop stop-color="#8A3AB9"/>
<stop offset="0.474023" stop-color="#E95950"/>
<stop offset="0.686898" stop-color="#BC2A8D" stop-opacity="0.72"/>
<stop offset="1" stop-color="#FCCC63"/>
</linearGradient>
</defs>
</svg>
