<svg width="17" height="16" viewBox="0 0 17 16" fill="none" xmlns="http://www.w3.org/2000/svg">
<path fill-rule="evenodd" clip-rule="evenodd" d="M8.7345 2.63438C8.88452 2.4844 9.08797 2.40015 9.3001 2.40015C9.51223 2.40015 9.71567 2.4844 9.8657 2.63438L14.6657 7.43438C14.8157 7.5844 14.8999 7.78784 14.8999 7.99998C14.8999 8.21211 14.8157 8.41555 14.6657 8.56558L9.8657 13.3656C9.71482 13.5113 9.51273 13.5919 9.30298 13.5901C9.09322 13.5883 8.89257 13.5042 8.74424 13.3558C8.59592 13.2075 8.51178 13.0069 8.50996 12.7971C8.50814 12.5873 8.58877 12.3853 8.7345 12.2344L12.1689 8.79998H2.9001C2.68792 8.79998 2.48444 8.71569 2.33441 8.56566C2.18438 8.41563 2.1001 8.21215 2.1001 7.99998C2.1001 7.7878 2.18438 7.58432 2.33441 7.43429C2.48444 7.28426 2.68792 7.19998 2.9001 7.19998H12.1689L8.7345 3.76558C8.58452 3.61555 8.50027 3.41211 8.50027 3.19998C8.50027 2.98784 8.58452 2.7844 8.7345 2.63438V2.63438Z" fill="white"/>
</svg>
