<svg width="17" height="16" viewBox="0 0 17 16" fill="none" xmlns="http://www.w3.org/2000/svg">
<path fill-rule="evenodd" clip-rule="evenodd" d="M8.73438 2.63441C8.8844 2.48443 9.08784 2.40018 9.29998 2.40018C9.51211 2.40018 9.71555 2.48443 9.86557 2.63441L14.6656 7.43441C14.8156 7.58443 14.8998 7.78787 14.8998 8.00001C14.8998 8.21214 14.8156 8.41558 14.6656 8.56561L9.86557 13.3656C9.71469 13.5113 9.51261 13.592 9.30285 13.5901C9.0931 13.5883 8.89245 13.5042 8.74412 13.3559C8.59579 13.2075 8.51166 13.0069 8.50984 12.7971C8.50801 12.5874 8.58865 12.3853 8.73438 12.2344L12.1688 8.80001H2.89998C2.6878 8.80001 2.48432 8.71572 2.33429 8.56569C2.18426 8.41566 2.09998 8.21218 2.09998 8.00001C2.09998 7.78783 2.18426 7.58435 2.33429 7.43432C2.48432 7.28429 2.6878 7.20001 2.89998 7.20001H12.1688L8.73438 3.76561C8.5844 3.61558 8.50015 3.41214 8.50015 3.20001C8.50015 2.98787 8.5844 2.78443 8.73438 2.63441V2.63441Z" fill="white"/>
</svg>
