<svg width="17" height="16" viewBox="0 0 17 16" fill="none" xmlns="http://www.w3.org/2000/svg">
<path fill-rule="evenodd" clip-rule="evenodd" d="M8.73438 2.63438C8.8844 2.4844 9.08784 2.40015 9.29998 2.40015C9.51211 2.40015 9.71555 2.4844 9.86557 2.63438L14.6656 7.43438C14.8156 7.5844 14.8998 7.78784 14.8998 7.99998C14.8998 8.21211 14.8156 8.41555 14.6656 8.56558L9.86557 13.3656C9.71469 13.5113 9.51261 13.5919 9.30285 13.5901C9.0931 13.5883 8.89245 13.5042 8.74412 13.3558C8.59579 13.2075 8.51166 13.0069 8.50984 12.7971C8.50801 12.5873 8.58865 12.3853 8.73438 12.2344L12.1688 8.79998H2.89998C2.6878 8.79998 2.48432 8.71569 2.33429 8.56566C2.18426 8.41563 2.09998 8.21215 2.09998 7.99998C2.09998 7.7878 2.18426 7.58432 2.33429 7.43429C2.48432 7.28426 2.6878 7.19998 2.89998 7.19998H12.1688L8.73438 3.76558C8.5844 3.61555 8.50015 3.41211 8.50015 3.19998C8.50015 2.98784 8.5844 2.7844 8.73438 2.63438V2.63438Z" fill="white"/>
</svg>
