<svg width="17" height="16" viewBox="0 0 17 16" fill="none" xmlns="http://www.w3.org/2000/svg">
<path fill-rule="evenodd" clip-rule="evenodd" d="M8.7345 2.63441C8.88452 2.48443 9.08797 2.40018 9.3001 2.40018C9.51223 2.40018 9.71567 2.48443 9.8657 2.63441L14.6657 7.43441C14.8157 7.58443 14.8999 7.78787 14.8999 8.00001C14.8999 8.21214 14.8157 8.41558 14.6657 8.56561L9.8657 13.3656C9.71482 13.5113 9.51273 13.592 9.30298 13.5901C9.09322 13.5883 8.89257 13.5042 8.74424 13.3559C8.59592 13.2075 8.51178 13.0069 8.50996 12.7971C8.50814 12.5874 8.58877 12.3853 8.7345 12.2344L12.1689 8.80001H2.9001C2.68792 8.80001 2.48444 8.71572 2.33441 8.56569C2.18438 8.41566 2.1001 8.21218 2.1001 8.00001C2.1001 7.78783 2.18438 7.58435 2.33441 7.43432C2.48444 7.28429 2.68792 7.20001 2.9001 7.20001H12.1689L8.7345 3.76561C8.58452 3.61558 8.50027 3.41214 8.50027 3.20001C8.50027 2.98787 8.58452 2.78443 8.7345 2.63441V2.63441Z" fill="white"/>
</svg>
