<svg width="20" height="21" viewBox="0 0 20 21" fill="none" xmlns="http://www.w3.org/2000/svg">
<path fill-rule="evenodd" clip-rule="evenodd" d="M5.293 7.84965C5.48053 7.66217 5.73484 7.55686 6 7.55686C6.26516 7.55686 6.51947 7.66217 6.707 7.84965L10 11.1426L13.293 7.84965C13.3852 7.75414 13.4956 7.67795 13.6176 7.62554C13.7396 7.57314 13.8708 7.54555 14.0036 7.5444C14.1364 7.54324 14.2681 7.56854 14.391 7.61882C14.5139 7.6691 14.6255 7.74336 14.7194 7.83725C14.8133 7.93114 14.8875 8.0428 14.9378 8.16569C14.9881 8.28859 15.0134 8.42027 15.0123 8.55305C15.0111 8.68583 14.9835 8.81705 14.9311 8.93905C14.8787 9.06105 14.8025 9.1714 14.707 9.26365L10.707 13.2636C10.5195 13.4511 10.2652 13.5564 10 13.5564C9.73484 13.5564 9.48053 13.4511 9.293 13.2636L5.293 9.26365C5.10553 9.07612 5.00021 8.82181 5.00021 8.55665C5.00021 8.29148 5.10553 8.03717 5.293 7.84965V7.84965Z" fill="#9CA3AF"/>
</svg>
