<svg width="118" height="45" viewBox="0 0 118 45" fill="none" xmlns="http://www.w3.org/2000/svg">
<g clip-path="url(#clip0_1_1215)">
<path d="M40.3526 10.8183H35.1877L31.2695 18.2985M44.4489 31.2998H20.4055M63.8618 38.6018H38.2154M27.1732 38.6018H20.7617V21.6824L32.8724 5.11912H43.5584M81.1374 31.4779V38.7799H74.9039M74.9039 38.6018C74.8121 40.0821 74.1468 41.4682 73.0494 42.4658C71.952 43.4635 70.5089 43.994 69.0266 43.9448C68.3011 43.8995 67.5916 43.7114 66.9389 43.3912C66.2863 43.071 65.7033 42.6251 65.2234 42.079C64.7435 41.5329 64.3762 40.8975 64.1425 40.2091C63.9089 39.5207 63.8134 38.7929 63.8618 38.0675C63.8841 37.35 64.0507 36.6443 64.3518 35.9926C64.653 35.3409 65.0823 34.7566 65.6142 34.2745C66.1462 33.7924 66.7698 33.4225 67.4479 33.1868C68.126 32.9511 68.8447 32.8545 69.5609 32.9027C71.0099 32.9934 72.3696 33.6337 73.3625 34.6928C74.3555 35.7519 74.9068 37.1501 74.9039 38.6018ZM38.2154 38.4237C38.2154 39.5157 37.8916 40.5832 37.2849 41.4911C36.6783 42.399 35.816 43.1067 34.8072 43.5246C33.7983 43.9424 32.6882 44.0518 31.6172 43.8387C30.5462 43.6257 29.5625 43.0999 28.7903 42.3277C28.0182 41.5556 27.4924 40.5718 27.2793 39.5009C27.0663 38.4299 27.1756 37.3198 27.5935 36.3109C28.0114 35.3021 28.719 34.4398 29.627 33.8331C30.5349 33.2265 31.6024 32.9027 32.6943 32.9027C34.1586 32.9027 35.5629 33.4843 36.5983 34.5197C37.6337 35.5551 38.2154 36.9595 38.2154 38.4237V38.4237ZM81.1374 31.2998H44.0927V1.20093H81.1374V31.2998Z" stroke="white" stroke-width="1.20217" stroke-miterlimit="10" stroke-linecap="round"/>
</g>
<defs>
<clipPath id="clip0_1_1215">
<rect width="61.9787" height="43.8125" fill="white" transform="translate(19.8712 0.666748)"/>
</clipPath>
</defs>
</svg>
