<svg width="118" height="63" viewBox="0 0 118 63" fill="none" xmlns="http://www.w3.org/2000/svg">
<g clip-path="url(#clip0_1_1223)">
<path d="M81.3684 6.96631H20.3525V61.8412H81.3684V6.96631Z" stroke="white" stroke-width="0.984127" stroke-miterlimit="10"/>
<path d="M20.3525 19.4451H81.3684" stroke="white" stroke-width="0.984127" stroke-miterlimit="10"/>
<path d="M38.4605 0.825195H32.2211V11.8277H38.4605V0.825195Z" stroke="white" stroke-width="0.984127" stroke-miterlimit="10"/>
<path d="M69.2046 0.825195H62.9652V11.8277H69.2046V0.825195Z" stroke="white" stroke-width="0.984127" stroke-miterlimit="10"/>
<path d="M29.4065 42.8081L32.6147 42.4932C32.8116 43.5757 33.2052 44.363 33.7957 44.8748C34.3862 45.3865 35.1932 45.6424 36.197 45.6424C37.2598 45.6424 38.0668 45.4259 38.5982 44.9732C39.1297 44.5205 39.4052 43.9891 39.4052 43.3986C39.4052 43.0049 39.2871 42.69 39.0706 42.4145C38.8541 42.1389 38.4408 41.9027 37.8897 41.7059C37.496 41.5681 36.63 41.3319 35.2522 40.9973C33.4808 40.5643 32.2408 40.0132 31.5322 39.3834C30.5284 38.478 30.0363 37.3954 30.0363 36.0964C30.0363 35.2697 30.2725 34.4824 30.7449 33.7542C31.2173 33.0259 31.9062 32.4748 32.7919 32.1008C33.6776 31.7269 34.7601 31.53 36.0001 31.53C38.0471 31.53 39.6021 31.9827 40.6255 32.8881C41.649 33.7935 42.2001 34.9942 42.2592 36.49L38.9525 36.6278C38.8147 35.7815 38.4998 35.191 38.0471 34.817C37.5944 34.443 36.8859 34.2659 35.9608 34.2659C35.0357 34.2659 34.2484 34.4627 33.717 34.8564C33.3627 35.1123 33.1855 35.4469 33.1855 35.8799C33.1855 36.2735 33.343 36.5884 33.6776 36.864C34.0909 37.2183 35.1144 37.5726 36.7087 37.9662C38.303 38.3599 39.5036 38.7338 40.2713 39.1472C41.0389 39.5605 41.649 40.1116 42.082 40.8005C42.5151 41.4894 42.7316 42.3751 42.7316 43.3986C42.7316 44.3434 42.4757 45.2094 41.9443 46.0361C41.4128 46.8627 40.6846 47.4532 39.7398 47.8665C38.7951 48.2799 37.5944 48.457 36.1773 48.457C34.1106 48.457 32.5163 47.9846 31.4141 47.0202C30.3119 46.0557 29.6427 44.678 29.4262 42.8475L29.4065 42.8081Z" fill="white"/>
<path d="M60.2294 48.1223H56.6471L55.2103 44.4023H48.6757L47.3176 48.1223H43.8141L50.1913 31.7661H53.6751L60.2294 48.1223V48.1223ZM54.1475 41.6467L51.9036 35.5845L49.6992 41.6467H54.1671H54.1475Z" fill="white"/>
<path d="M63.9494 48.1223V34.5413H59.1075V31.7661H72.0979V34.5413H67.256V48.1223H63.9494Z" fill="white"/>
</g>
<defs>
<clipPath id="clip0_1_1223">
<rect width="62" height="62" fill="white" transform="translate(19.8605 0.333252)"/>
</clipPath>
</defs>
</svg>
