<svg width="118" height="61" viewBox="0 0 118 61" fill="none" xmlns="http://www.w3.org/2000/svg">
<g clip-path="url(#clip0_1_1237)">
<path d="M52.0563 18.0296V36.4271H42.1217M65.6705 54.6406L70.2698 59.24M36.4185 54.6406L31.8191 59.24M78.1807 20.9732C80.0272 18.829 81.0108 16.075 80.9404 13.2462C80.9404 11.6275 80.6215 10.0247 80.0021 8.52916C79.3826 7.03366 78.4747 5.67482 77.3301 4.53022C76.1855 3.38562 74.8266 2.47767 73.3311 1.85821C71.8356 1.23876 70.2328 0.919922 68.6141 0.919922C65.8039 0.9591 63.0863 1.9297 60.8871 3.67954M23.5402 20.9732C22.0849 19.1643 21.1699 16.9813 20.9008 14.6753C20.6316 12.3693 21.0191 10.0342 22.0188 7.93876C23.0184 5.84336 24.5895 4.07287 26.5512 2.83113C28.5128 1.58939 30.7853 0.926897 33.1069 0.919922C35.917 0.9591 38.6347 1.9297 40.8339 3.67954M76.8929 33.6675C76.8929 38.7616 75.3823 43.7413 72.5522 47.977C69.722 52.2126 65.6994 55.5139 60.993 57.4633C56.2866 59.4128 51.1079 59.9228 46.1116 58.929C41.1153 57.9352 36.526 55.4821 32.9239 51.88C29.3218 48.2779 26.8687 43.6886 25.8749 38.6923C24.8811 33.696 25.3911 28.5172 27.3406 23.8109C29.29 19.1045 32.5913 15.0819 36.8269 12.2517C41.0625 9.42156 46.0423 7.91097 51.1364 7.91097C57.9675 7.91097 64.5188 10.6246 69.349 15.4549C74.1793 20.2851 76.8929 26.8364 76.8929 33.6675V33.6675Z" stroke="white" stroke-width="1.83975" stroke-miterlimit="10" stroke-linecap="round"/>
</g>
<defs>
<clipPath id="clip0_1_1237">
<rect width="61.9995" height="60.3437" fill="white" transform="translate(19.8607)"/>
</clipPath>
</defs>
</svg>
