<svg width="118" height="56" viewBox="0 0 118 56" fill="none" xmlns="http://www.w3.org/2000/svg">
<g clip-path="url(#clip0_1_1245)">
<path d="M33.6802 20.5234H20.7302V54.2797H33.6802V20.5234Z" stroke="white" stroke-width="1.72666" stroke-miterlimit="10" stroke-linecap="round"/>
<path d="M29.7089 48.8406C29.6221 49.1527 29.4399 49.43 29.1878 49.6335C28.9357 49.837 28.6263 49.9567 28.3029 49.9757C27.9794 49.9947 27.6582 49.9122 27.3839 49.7396C27.1097 49.567 26.8963 49.3131 26.7735 49.0132C26.811 48.6597 26.9686 48.3298 27.22 48.0784C27.4714 47.827 27.8013 47.6694 28.1549 47.6319C28.3365 47.6078 28.5211 47.62 28.6979 47.6679C28.8748 47.7158 29.0403 47.7984 29.1849 47.9108C29.3296 48.0233 29.4504 48.1635 29.5403 48.3231C29.6303 48.4827 29.6876 48.6586 29.7089 48.8406" fill="white"/>
<path d="M69.9401 42.9701C70.9631 43.0146 71.9294 43.4526 72.6372 44.1926C73.3451 44.9326 73.7397 45.9174 73.7387 46.9414C73.7621 47.4546 73.6811 47.9672 73.5007 48.4482C73.3203 48.9291 73.0442 49.3685 72.6891 49.7398C72.334 50.111 71.9073 50.4064 71.4348 50.608C70.9623 50.8096 70.4538 50.9132 69.9401 50.9127H47.6661C42.9902 51.0144 38.3278 50.3733 33.8528 49.0134M72.3574 35.2001C73.4107 35.2001 74.4208 35.6185 75.1655 36.3633C75.9103 37.108 76.3287 38.1182 76.3287 39.1714C76.3287 40.2247 75.9103 41.2348 75.1655 41.9796C74.4208 42.7243 73.4107 43.1427 72.3574 43.1427H70.8034M74.4294 27.9481C75.0079 27.8255 75.6066 27.8336 76.1816 27.9719C76.7566 28.1102 77.2935 28.3752 77.753 28.7475C78.2125 29.1198 78.5831 29.5901 78.8376 30.1239C79.0922 30.6577 79.2243 31.2417 79.2243 31.8331C79.2243 32.4245 79.0922 33.0085 78.8376 33.5423C78.5831 34.0762 78.2125 34.5464 77.753 34.9187C77.2935 35.291 76.7566 35.556 76.1816 35.6943C75.6066 35.8326 75.0079 35.8407 74.4294 35.7181M33.8528 25.1855C33.8528 25.1855 45.0761 25.0128 48.8748 9.81817C52.6735 -5.37645 58.7168 3.25686 58.7168 3.25686C59.5955 8.9075 58.3665 14.684 55.2634 19.4875H77.192C78.2447 19.7484 79.1841 20.344 79.8692 21.1847C80.5542 22.0254 80.9478 23.0658 80.9907 24.1495C81.0381 24.6396 80.9851 25.1343 80.835 25.6033C80.6849 26.0723 80.4408 26.5058 80.1177 26.8774C79.7946 27.249 79.3991 27.5509 78.9555 27.7647C78.5119 27.9785 78.0294 28.0996 77.5374 28.1208H75.8107" stroke="white" stroke-width="1.72666" stroke-miterlimit="10" stroke-linecap="round"/>
</g>
<defs>
<clipPath id="clip0_1_1245">
<rect width="61.9871" height="54.5625" fill="white" transform="translate(19.8669 0.666748)"/>
</clipPath>
</defs>
</svg>
