<svg width="301" height="70" viewBox="0 0 301 70" fill="none" xmlns="http://www.w3.org/2000/svg">
<g clip-path="url(#clip0_1_1265)">
<g clip-path="url(#clip1_1_1265)">
<path d="M77.3105 34.5047C79.8778 34.1413 82.4451 33.749 85.0239 33.4259C85.6239 33.3509 85.9412 33.1028 86.2066 32.5778C87.32 30.3394 88.4739 28.1125 89.7142 25.6895C90.1296 26.5087 90.4758 27.1664 90.7988 27.8413C91.5661 29.4279 92.345 31.0144 93.0603 32.624C93.3373 33.2413 93.7296 33.4894 94.3815 33.5817C96.6776 33.9105 98.9622 34.297 101.253 34.6663C101.42 34.6951 101.587 34.7355 101.754 34.7701C100.958 35.6066 100.214 36.4259 99.4353 37.1931C98.4891 38.1278 97.5487 39.0739 96.5276 39.922C95.8295 40.5046 95.7372 41.1046 95.8988 41.9469C96.2968 44.0411 96.6026 46.1584 96.9314 48.2642C96.9661 48.5007 96.9314 48.743 96.9314 49.1238C95.6161 48.4199 94.3642 47.7507 93.1238 47.0815C92.1431 46.5507 91.1508 46.043 90.1931 45.4777C89.6796 45.1719 89.2527 45.195 88.7335 45.4661C86.87 46.4469 84.9893 47.3815 83.1143 48.3334C82.7336 48.5295 82.3413 48.7142 81.7874 48.9795C82.1336 47.0873 82.4509 45.3507 82.7682 43.6085C82.8201 43.3373 82.8201 43.0431 82.9239 42.7892C83.6047 41.0989 82.9932 39.9162 81.6547 38.8085C80.1201 37.5335 78.7471 36.0682 77.299 34.6893V34.5047H77.3105Z" stroke="#E5281E" stroke-width="1.63267" stroke-miterlimit="10"/>
<path d="M137.385 38.5661C137.846 36.0853 138.273 33.8123 138.694 31.5392C139.035 29.7162 139.341 27.8816 139.716 26.0643C139.842 25.4412 139.669 25.0316 139.231 24.5989C136.473 21.8874 133.744 19.1471 131.004 16.4183C130.791 16.2048 130.594 15.9741 130.254 15.6048C132.256 15.3394 134.102 15.0914 135.948 14.8433C138.25 14.5375 140.546 14.2029 142.848 13.9375C143.512 13.8625 143.875 13.6029 144.175 13.0029C145.94 9.49529 147.74 6.00495 149.535 2.50884C149.644 2.29538 149.777 2.09346 149.973 1.74731C150.971 3.83575 151.917 5.79726 152.858 7.75878C153.74 9.59914 154.594 11.4568 155.535 13.2683C155.719 13.626 156.21 13.9895 156.608 14.0587C160.542 14.7221 164.482 15.3279 168.423 15.951C168.659 15.9856 168.884 16.0664 169.265 16.1644C167.517 17.826 165.861 19.3952 164.206 20.9644C162.815 22.2855 161.442 23.624 160.017 24.9105C159.567 25.3143 159.446 25.7066 159.544 26.2893C160.161 30.0739 160.756 33.8642 161.35 37.6545C161.408 38.0065 161.448 38.3641 161.517 38.9007C160.704 38.4738 160.052 38.1392 159.411 37.793C156.365 36.143 153.313 34.5046 150.285 32.8315C149.725 32.52 149.287 32.5604 148.744 32.8431C145.225 34.6546 141.689 36.4373 138.158 38.2257C137.967 38.3238 137.771 38.393 137.373 38.5661H137.385Z" stroke="#E5281E" stroke-width="1.63267" stroke-miterlimit="10"/>
<path d="M167.673 25.2683C171.054 24.8183 174.204 24.374 177.365 23.9933C178.08 23.9067 178.513 23.676 178.848 22.9952C180.1 20.4395 181.421 17.9184 182.719 15.3857C182.88 15.0626 183.065 14.7511 183.342 14.2434C183.815 15.2069 184.207 15.9972 184.588 16.7876C185.592 18.8818 186.613 20.9645 187.571 23.076C187.876 23.751 188.309 24.0221 189.024 24.126C191.84 24.5298 194.649 24.9913 197.459 25.4413C197.811 25.499 198.163 25.5913 198.699 25.7125C197.43 26.924 196.276 28.0259 195.122 29.1221C193.934 30.2528 192.763 31.4009 191.534 32.4855C190.998 32.9585 190.894 33.4374 191.009 34.1124C191.505 37.0085 191.955 39.9161 192.417 42.818C192.457 43.0892 192.469 43.3603 192.503 43.793C190.738 42.8469 189.088 41.9584 187.438 41.07C186.186 40.395 184.923 39.7373 183.688 39.0277C183.203 38.7508 182.817 38.7508 182.321 39.0104C179.661 40.395 176.978 41.7392 174.302 43.095C174.036 43.2276 173.759 43.343 173.338 43.5276C173.829 40.8565 174.129 38.295 174.804 35.8431C175.38 33.7432 175.034 32.272 173.309 30.8643C171.544 29.4278 170.032 27.674 168.411 26.0529C168.204 25.8452 168.007 25.6144 167.673 25.2567V25.2683Z" stroke="#E5281E" stroke-width="1.63267" stroke-miterlimit="10"/>
<path d="M107.287 43.5448C107.57 41.9699 107.812 40.5737 108.066 39.1834C108.395 37.418 108.712 35.6526 109.081 33.8988C109.22 33.2296 109.104 32.7681 108.585 32.2661C106.474 30.2239 104.414 28.1297 102.331 26.047C102.124 25.8393 101.928 25.6085 101.61 25.2624C104.097 24.9336 106.416 24.622 108.729 24.3163C109.468 24.2182 110.201 24.0278 110.933 24.0393C112.029 24.0566 112.543 23.4913 112.993 22.5682C114.32 19.8452 115.733 17.1683 117.21 14.2837C117.458 14.7106 117.648 14.9933 117.793 15.3048C119.05 17.924 120.32 20.5432 121.548 23.1797C121.808 23.7393 122.148 24.0163 122.777 24.1086C125.985 24.5874 129.187 25.1182 132.596 25.6662C132.273 26.0124 132.071 26.2547 131.846 26.4681C129.718 28.4931 127.589 30.5239 125.437 32.5258C124.952 32.9758 124.808 33.3854 124.923 34.0546C125.477 37.2507 125.956 40.4584 126.487 43.8391C124.635 42.841 122.927 41.9295 121.225 41.0122C120.002 40.3545 118.797 39.6507 117.539 39.0507C117.193 38.8834 116.633 38.8834 116.287 39.0507C113.622 40.3545 110.979 41.716 108.331 43.0545C108.037 43.2045 107.731 43.3314 107.264 43.5506L107.287 43.5448Z" stroke="#E5281E" stroke-width="1.63267" stroke-miterlimit="10"/>
<path d="M222.52 34.0605C220.945 35.5605 219.526 37.0777 217.928 38.37C216.63 39.42 216.284 40.4873 216.682 42.1084C217.166 44.0815 217.351 46.1295 217.691 48.3391C217.264 48.143 216.941 48.0103 216.641 47.8488C214.818 46.8622 212.972 45.9219 211.19 44.8661C210.393 44.393 209.77 44.4392 208.986 44.8661C207.082 45.8988 205.138 46.8507 203.205 47.8314C203.015 47.9295 202.819 47.9988 202.438 48.1603C202.744 46.4872 203.026 44.9584 203.297 43.4296C203.511 42.2123 204.117 40.8796 203.799 39.8123C203.499 38.7912 202.247 38.0412 201.399 37.1874C200.274 36.0624 199.132 34.9489 197.828 33.6682C200.522 33.3162 202.928 32.9586 205.345 32.699C206.147 32.6124 206.597 32.3066 206.949 31.574C208.011 29.3817 209.159 27.224 210.365 24.876C211.23 26.6702 212.176 28.2452 212.765 29.9413C213.486 32.0355 214.72 33.0336 216.965 33.1201C218.713 33.1893 220.443 33.6451 222.186 33.9278C222.243 33.9393 222.301 33.9739 222.526 34.0662L222.52 34.0605Z" stroke="#E5281E" stroke-width="1.63267" stroke-miterlimit="10"/>
</g>
</g>
<defs>
<clipPath id="clip0_1_1265">
<rect width="272.535" height="70" fill="white" transform="translate(14.3577)"/>
</clipPath>
<clipPath id="clip1_1_1265">
<rect width="147.5" height="50.4859" fill="white" transform="translate(76.4913 0.00219727)"/>
</clipPath>
</defs>
</svg>
