<svg width="301" height="70" viewBox="0 0 301 70" fill="none" xmlns="http://www.w3.org/2000/svg">
<g clip-path="url(#clip0_1_1278)">
<g clip-path="url(#clip1_1_1278)">
<path d="M125.136 61.0167C129.256 61.0167 132.595 57.6769 132.595 53.5569C132.595 49.437 129.256 46.0972 125.136 46.0972C121.016 46.0972 117.676 49.437 117.676 53.5569C117.676 57.6769 121.016 61.0167 125.136 61.0167Z" stroke="#E5281E" stroke-width="2.67094" stroke-linecap="round" stroke-linejoin="round"/>
<path d="M177.354 61.0167C181.474 61.0167 184.814 57.6769 184.814 53.5569C184.814 49.437 181.474 46.0972 177.354 46.0972C173.234 46.0972 169.894 49.437 169.894 53.5569C169.894 57.6769 173.234 61.0167 177.354 61.0167Z" stroke="#E5281E" stroke-width="2.67094" stroke-linecap="round" stroke-linejoin="round"/>
<path d="M117.67 53.557H108.35V33.0442L115.809 25.5844L125.136 8.79839H141.922V1.33862H194.14V53.557H184.814" stroke="#E5281E" stroke-width="2.67094" stroke-linecap="round" stroke-linejoin="round"/>
<path d="M132.595 53.5569H169.894" stroke="#E5281E" stroke-width="2.67094" stroke-linecap="round" stroke-linejoin="round"/>
<path d="M134.456 16.2581H128.862L123.269 27.4446" stroke="#E5281E" stroke-width="2.67094" stroke-linecap="round" stroke-linejoin="round"/>
<path d="M141.922 8.79834V46.0972" stroke="#E5281E" stroke-width="2.67094" stroke-linecap="round" stroke-linejoin="round"/>
<path d="M108.35 46.0972H194.14" stroke="#E5281E" stroke-width="2.67094" stroke-linecap="round" stroke-linejoin="round"/>
</g>
</g>
<defs>
<clipPath id="clip0_1_1278">
<rect width="272.535" height="70" fill="white" transform="translate(14.6077)"/>
</clipPath>
<clipPath id="clip1_1_1278">
<rect width="88.4734" height="62.3554" fill="white" transform="translate(107.008)"/>
</clipPath>
</defs>
</svg>
