<svg width="301" height="70" viewBox="0 0 301 70" fill="none" xmlns="http://www.w3.org/2000/svg">
<g clip-path="url(#clip0_1_1294)">
<g clip-path="url(#clip1_1_1294)">
<path d="M111.714 17.1454L120.156 19.4218L117.026 9.96835C131.728 6.63954 146.316 3.33332 161.036 0C161.782 2.55645 162.513 5.06773 163.304 7.79582C164.849 5.73169 166.276 3.82564 167.793 1.79765C174.659 6.99185 181.479 12.1499 188.376 17.3622C187.324 18.7669 186.325 20.0993 185.327 21.4317C184.672 22.308 184.072 23.2339 183.335 24.0379C182.414 25.0496 182.152 26.1743 182.134 27.5202C182.016 35.2438 181.809 42.9628 181.66 50.6864C181.646 51.3548 181.515 51.6936 180.788 51.8788C171.109 54.381 161.438 56.9149 151.768 59.4442C147.36 60.596 142.947 61.7478 138.543 62.9221C137.952 63.0802 137.545 62.9853 137.093 62.5291C131.845 57.2446 126.574 51.9736 121.294 46.7207C120.824 46.2555 120.63 45.7857 120.635 45.1218C120.657 39.3133 120.635 33.5049 120.666 27.6964C120.666 27.0008 120.463 26.504 119.989 26.0071C117.36 23.2655 114.758 20.4922 112.152 17.728C112.035 17.6016 111.944 17.4525 111.714 17.1454H111.714ZM179.279 27.8138C178.895 27.9041 178.579 27.9674 178.268 28.0487C166.465 31.0839 154.659 34.083 142.875 37.186C140.052 37.9267 137.274 38.4642 134.356 37.9357C133.462 37.7731 132.532 37.8318 131.633 37.6963C131.222 37.6376 130.752 37.4479 130.463 37.1634C129.298 36.0071 128.196 34.7921 127.066 33.5997C125.969 32.4434 124.867 31.2917 123.634 29.9999C123.593 30.3974 123.561 30.5645 123.561 30.7361C123.561 35.2347 123.543 39.7379 123.579 44.2365C123.579 44.6295 123.828 45.1128 124.117 45.4018C128.674 50.0043 133.272 54.5662 137.821 59.1778C138.417 59.783 138.936 59.8869 139.727 59.6791C152.482 56.3322 165.241 53.0079 178.006 49.6972C178.697 49.5165 178.891 49.2004 178.904 48.5138C179.026 41.8878 179.18 35.2573 179.325 28.6313C179.329 28.3965 179.302 28.1571 179.279 27.8138V27.8138ZM126.565 21.8021C126.818 22.1318 126.895 22.2628 126.999 22.3667C131.19 26.513 135.391 30.6548 139.564 34.8192C140.011 35.2664 140.409 35.1399 140.883 35.0134C147.717 33.1842 154.546 31.3504 161.384 29.5482C162.12 29.354 162.423 29.0469 162.419 28.2519C162.387 23.4823 162.409 18.7082 162.4 13.934C162.4 13.5953 162.31 13.2565 162.26 12.8952C150.341 15.8717 138.543 18.812 126.57 21.8021H126.565ZM120.761 12.0867C120.842 12.4074 120.892 12.6422 120.964 12.8636C121.615 14.8238 122.319 16.7705 122.897 18.7533C123.155 19.6341 123.561 19.7154 124.347 19.5121C130.345 17.9584 136.357 16.4498 142.36 14.9051C148.218 13.401 154.063 11.8563 159.925 10.3703C160.765 10.158 161.091 9.91866 160.788 8.97016C160.214 7.17703 159.799 5.33422 159.311 3.51399C159.252 3.28815 159.139 3.07587 159.04 2.83197C146.285 5.91687 133.584 8.98823 120.761 12.0867V12.0867ZM164.83 10.5284C169.957 14.9141 175.016 19.2456 180.142 23.6314C181.61 21.6711 183.001 19.8147 184.419 17.9223C179.004 13.8256 173.715 9.82833 168.358 5.77685C167.148 7.4119 166.014 8.93402 164.83 10.5284V10.5284ZM117.342 20.6323C117.599 20.962 117.708 21.1336 117.848 21.2736C122.265 25.7949 126.687 30.3161 131.113 34.8328C131.28 35.0044 131.475 35.2302 131.678 35.2618C133.209 35.4741 134.745 35.6412 136.479 35.849C136.24 35.5599 136.172 35.4606 136.086 35.3793C131.533 30.9936 126.981 26.6033 122.419 22.2221C122.224 22.037 121.999 21.8337 121.755 21.766C120.355 21.3866 118.945 21.0433 117.337 20.6368L117.342 20.6323Z" fill="#E5281E"/>
<path d="M171.316 38.8481C172.373 38.5365 173.254 38.3152 174.103 38.008C174.306 37.9312 174.46 37.5834 174.537 37.326C174.605 37.1092 174.528 36.8472 174.514 36.6033C174.43 35.1279 175.195 34.2998 176.809 34.1191C176.827 34.3811 176.858 34.6386 176.863 34.9005C176.895 37.2989 176.881 39.7018 176.976 42.1001C177.007 42.9041 176.764 43.2835 176 43.41C175.53 43.4868 175.074 43.6223 174.496 43.7578V40.2302C173.471 40.5238 172.572 40.7497 171.7 41.0523C171.538 41.111 171.407 41.4814 171.398 41.7162C171.371 42.3847 171.375 43.0577 171.447 43.7216C171.524 44.4172 171.307 44.8192 170.589 44.9457C170.088 45.0315 169.6 45.185 168.986 45.3386C168.986 44.9276 168.986 44.6295 168.986 44.3359C168.972 41.933 168.986 39.5347 168.923 37.1363C168.904 36.4181 169.103 36.0749 169.817 35.971C170.291 35.9032 170.752 35.7226 171.321 35.5645V38.8572L171.316 38.8481Z" fill="#E5281E"/>
<path d="M149.311 50.8535C149.311 49.2682 149.32 47.8499 149.311 46.4272C149.298 45.1535 149.293 43.8752 149.216 42.606C149.18 42.0008 149.392 41.7163 149.952 41.5672C150.946 41.2962 151.926 40.9665 152.92 40.7C155.332 40.0541 156.596 41.2917 156.014 43.7307C155.933 44.0785 155.838 44.5076 155.598 44.7244C154.659 45.56 155.011 46.3459 155.544 47.1905C155.847 47.6693 156.091 48.1887 156.443 48.8436C155.625 49.083 154.921 49.3179 154.203 49.4759C154.067 49.5076 153.796 49.2682 153.71 49.092C153.462 48.6087 153.272 48.0938 153.069 47.588C152.902 47.1679 152.721 46.8246 152.148 46.9601C151.551 47.1047 151.624 47.5338 151.646 47.9583C151.664 48.3513 151.646 48.7578 151.727 49.1372C151.917 49.9773 151.574 50.3838 150.761 50.5148C150.318 50.587 149.889 50.718 149.316 50.858L149.311 50.8535ZM151.583 45.2348C153.046 45.2483 153.891 44.6024 153.828 43.5862C153.796 43.0848 153.611 42.6602 153.024 42.7009C152.45 42.737 151.709 42.6106 151.597 43.4552C151.52 44.0424 151.583 44.6431 151.583 45.2348Z" fill="#E5281E"/>
<path d="M162.572 41.3594C162.649 41.4995 162.676 41.5266 162.676 41.5537C162.661 42.8424 162.047 43.6584 160.833 44.0017C160.512 44.092 160.097 44.0966 159.894 44.3043C159.65 44.5482 159.582 44.9728 159.442 45.3206C159.713 45.42 160.016 45.6503 160.251 45.5916C161.185 45.3703 162.098 45.0631 163.177 44.7379C163.087 45.4967 163.037 46.1246 162.915 46.7388C162.875 46.933 162.658 47.1905 162.473 47.2402C160.72 47.7235 158.963 48.1706 157.053 48.6629C157.053 48.2519 157.053 47.9358 157.053 47.6151C157.03 45.2438 157.026 42.8725 156.958 40.5058C156.94 39.8464 157.075 39.5392 157.771 39.3811C159.13 39.0695 160.463 38.6314 161.809 38.252C162.062 38.1797 162.319 38.139 162.694 38.0532C162.753 38.6314 162.866 39.1101 162.825 39.5754C162.802 39.8193 162.55 40.1716 162.324 40.2438C161.606 40.4787 160.851 40.6142 160.106 40.7678C159.519 40.8852 159.194 41.233 159.438 41.784C159.519 41.9647 160.079 42.055 160.381 41.9918C161.118 41.8427 161.831 41.5762 162.568 41.3549L162.572 41.3594Z" fill="#E5281E"/>
<path d="M148.277 42.0007C148.354 42.5744 148.475 43.1073 148.462 43.6403C148.457 43.8435 148.182 44.1552 147.965 44.2229C147.242 44.4443 146.488 44.5707 145.752 44.7514C144.831 44.9772 144.722 45.2031 145.038 46.3142C145.978 46.0387 146.922 45.7586 148.06 45.4244C148.06 46.1742 148.101 46.8246 148.033 47.4614C148.015 47.6285 147.672 47.8137 147.446 47.895C146.624 48.1841 145.467 48.1976 145.043 48.7667C144.618 49.3358 144.871 50.4515 144.921 51.3232C144.952 51.9239 144.772 52.2356 144.18 52.344C143.652 52.4388 143.137 52.5788 142.468 52.7324C142.468 52.2627 142.468 51.9375 142.468 51.6123C142.432 49.2455 142.405 46.8742 142.351 44.5075C142.342 44.0558 142.328 43.6855 142.888 43.5229C144.519 43.0531 146.14 42.5427 147.766 42.0504C147.902 42.0098 148.055 42.0188 148.277 42.0007V42.0007Z" fill="#E5281E"/>
<path d="M166.967 36.4995C167.175 36.9105 167.342 37.2267 167.495 37.5519C167.586 37.7371 167.658 37.9313 167.73 38.1029C167.667 38.1888 167.644 38.261 167.599 38.2836C165.996 39.0018 165.869 39.5438 167.021 40.8175C168.141 42.055 168.277 43.2113 167.346 44.5979C166.949 45.1942 166.429 45.7362 165.869 46.1878C164.79 47.0595 164.496 46.9421 163.846 45.7045C163.602 45.2393 163.688 44.9999 164.13 44.7696C164.447 44.6025 164.763 44.3902 165.011 44.1327C165.517 43.6043 165.625 42.9629 165.074 42.4344C164.221 41.6124 163.548 40.7452 163.945 39.4805C164.406 38.0081 165.517 37.159 166.967 36.5085V36.4995Z" fill="#E5281E"/>
</g>
</g>
<defs>
<clipPath id="clip0_1_1294">
<rect width="272.535" height="70" fill="white" transform="translate(13.8577)"/>
</clipPath>
<clipPath id="clip1_1_1294">
<rect width="76.6687" height="62.9944" fill="white" transform="translate(111.711)"/>
</clipPath>
</defs>
</svg>
