<svg width="301" height="70" viewBox="0 0 301 70" fill="none" xmlns="http://www.w3.org/2000/svg">
<g clip-path="url(#clip0_1_1308)">
<g clip-path="url(#clip1_1_1308)">
<path d="M173.668 35.7496C169.787 34.0803 165.902 32.4305 162.026 30.7562C160.567 30.1266 159.219 30.2388 157.901 31.1467C155.944 32.489 153.953 33.7728 151.995 35.1053C151.561 35.3982 151.214 35.4421 150.741 35.1932C146.841 33.1577 143.868 30.2095 141.813 26.3193C141.554 25.8263 141.584 25.4651 141.886 25.0062C143.243 22.9903 144.556 20.9451 145.894 18.9146C146.704 17.6845 146.821 16.4056 146.24 15.0536C144.527 11.0657 142.819 7.07289 141.1 3.085C140.329 1.2985 138.831 0.454059 136.922 0.746928C134.389 1.13742 132.09 2.09901 130.108 3.73419C126.276 6.90694 124.592 11.0315 124.817 15.9712L124.651 16.0005C125.007 18.3581 125.217 20.7499 125.754 23.0684C127.98 32.7038 133.266 40.2891 141.423 45.8438C146.611 49.3778 152.381 51.4181 158.629 51.9648C160.523 52.1308 162.475 52.204 164.349 51.9404C170.378 51.1008 175.083 46.3808 176.147 40.3379C176.543 38.1072 175.757 36.638 173.677 35.7448L173.668 35.7496ZM172.984 40.0255C171.886 45.3753 167.361 49.0361 161.914 48.9922C161.596 48.9922 161.274 48.9922 160.957 48.9922C146.572 47.7914 136.219 40.8407 130.425 27.4907C128.644 23.3906 127.926 19.0268 127.956 14.5508C127.995 9.38168 132.031 4.7153 137.147 3.90503C137.733 3.81229 138.055 3.95384 138.299 4.52982C139.934 8.40057 141.589 12.2616 143.258 16.1177C143.453 16.5716 143.434 16.923 143.16 17.3331C141.857 19.2904 140.608 21.2819 139.28 23.2197C138.23 24.7475 138.162 26.2265 139.041 27.8617C141.481 32.3865 144.961 35.818 149.55 38.1316C150.951 38.8394 152.269 38.7174 153.557 37.8583C155.544 36.5257 157.54 35.2176 159.517 33.8704C159.991 33.5482 160.386 33.4848 160.937 33.724C164.696 35.3689 168.469 36.9748 172.237 38.5905C173.131 38.9761 173.179 39.0639 172.984 40.0353V40.0255Z" fill="#E5281E" stroke="white" stroke-width="1.38136" stroke-miterlimit="10"/>
<path d="M157.95 2.71878C158.209 2.78223 158.624 2.86033 159.014 2.99212C166.585 5.54008 171.603 10.6067 174.034 18.2213C174.107 18.4458 174.17 18.6801 174.209 18.9144C174.331 19.7247 173.863 20.4471 173.101 20.6668C172.311 20.8962 171.51 20.5154 171.212 19.7247C170.89 18.8705 170.656 17.9772 170.295 17.1377C167.815 11.3877 163.539 7.64874 157.555 5.84759C156.588 5.55473 156.1 4.88601 156.247 4.0074C156.374 3.23618 157.008 2.70414 157.955 2.70902" fill="#E5281E"/>
<path d="M157.95 2.71878C158.209 2.78223 158.624 2.86033 159.014 2.99212C166.585 5.54008 171.603 10.6067 174.034 18.2213C174.107 18.4458 174.17 18.6801 174.209 18.9144C174.331 19.7247 173.863 20.4471 173.101 20.6668C172.311 20.8962 171.51 20.5154 171.212 19.7247C170.89 18.8705 170.656 17.9772 170.295 17.1377C167.815 11.3877 163.539 7.64874 157.555 5.84759C156.588 5.55473 156.1 4.88601 156.247 4.0074C156.374 3.23618 157.008 2.70414 157.955 2.70902" stroke="white" stroke-width="1.38136" stroke-miterlimit="10"/>
<path d="M156.037 10.8655C156.627 11.09 157.545 11.3683 158.399 11.7832C162.226 13.6331 164.75 16.6155 165.98 20.6864C166.282 21.6919 165.897 22.5412 165.033 22.8243C164.115 23.1269 163.3 22.673 162.978 21.6284C162.031 18.5387 160.166 16.2152 157.277 14.746C156.569 14.3897 155.798 14.1652 155.061 13.8723C154.299 13.5697 153.909 12.8668 154.065 12.1151C154.236 11.3097 154.875 10.8167 156.037 10.8606V10.8655Z" fill="#E5281E" stroke="white" stroke-width="1.38136" stroke-miterlimit="10"/>
</g>
</g>
<defs>
<clipPath id="clip0_1_1308">
<rect width="272.535" height="70" fill="white" transform="translate(14.1077)"/>
</clipPath>
<clipPath id="clip1_1_1308">
<rect width="53.081" height="52.8043" fill="white" transform="translate(123.856)"/>
</clipPath>
</defs>
</svg>
