<svg width="24" height="28" viewBox="0 0 24 28" fill="none" xmlns="http://www.w3.org/2000/svg">
<path d="M24 6.66668C24 9.24002 21.9067 11.3333 19.3333 11.3333C16.76 11.3333 14.6667 9.24002 14.6667 6.66668C14.6667 4.09335 16.76 2.00002 19.3333 2.00002C21.9067 2.00002 24 4.09335 24 6.66668ZM11.3333 27.3333C12.8133 27.3333 14 26.1467 14 24.6667H8.66666C8.66666 25.3739 8.94761 26.0522 9.44771 26.5523C9.94781 27.0524 10.6261 27.3333 11.3333 27.3333ZM20 14H19.3333C18.6667 14 18 13.8933 17.3333 13.72V20.6667H5.33333V12C5.33333 8.66668 7.99999 6.00002 11.3333 6.00002C11.5733 6.00002 11.8 6.04002 12 6.06668C12.1333 4.74668 12.6 3.52002 13.3333 2.49335C13.2267 1.46669 12.3733 0.666687 11.3333 0.666687C10.2267 0.666687 9.33333 1.56002 9.33333 2.66669V3.57335C5.50666 4.48002 2.66666 7.90668 2.66666 12V19.3333L0 22V23.3333H22.6666V22L20 19.3333V14Z" fill="#696969"/>
<circle cx="19.2021" cy="6.50444" r="4.79784" fill="#FBA403"/>
</svg>
