<svg width="33" height="32" viewBox="0 0 33 32" fill="none" xmlns="http://www.w3.org/2000/svg">
<path d="M25.0195 12.9426C24.9454 13.4531 24.6088 14.1465 24.2227 14.7495C23.7355 15.5102 22.9623 16.0431 22.0775 16.2281L18.1798 17.0431C17.5534 17.1741 16.9853 17.502 16.5588 17.9787L14.0032 20.8354C13.5228 21.3723 13.1871 21.2443 13.1871 20.5242C13.1813 20.5509 11.9188 23.8069 15.2647 25.7369C16.5503 26.4784 18.401 26.212 19.6866 25.4704L26.4984 21.5413C29.046 20.0719 30.8446 17.5861 31.4425 14.7086C31.4661 14.5948 31.4844 14.4806 31.5041 14.3664L25.0195 12.9426Z" fill="url(#paint0_linear_18_9675)"/>
<path d="M23.2529 9.01798C24.5386 9.75953 25.0638 10.8635 25.0638 12.3466C25.0638 12.5479 25.048 12.7469 25.0195 12.9427L27.7643 14.1218L31.5041 14.3665C31.983 11.595 31.0445 8.74226 29.3621 6.47469C28.096 4.76825 26.4668 3.28738 24.5082 2.15762C22.9172 1.2399 21.2638 0.635249 19.6026 0.303467L17.7362 2.72047L17.1466 5.49584L23.2529 9.01798Z" fill="url(#paint1_linear_18_9675)"/>
<path d="M1.2836 11.0518C1.2829 11.054 1.28483 11.0546 1.28556 11.0524C1.42958 10.6205 1.61018 10.1385 1.83564 9.62369C3.01334 6.9343 5.28286 5.14062 8.07492 4.22608C10.867 3.31156 13.9155 3.63212 16.4601 5.09988L17.1465 5.49578L19.6025 0.303412C11.791 -1.25676 3.80728 3.33253 1.29353 11.0217C1.29233 11.0254 1.28796 11.0382 1.2836 11.0518Z" fill="url(#paint2_linear_18_9675)"/>
<path d="M19.4198 25.4704C18.1342 26.212 16.5502 26.212 15.2646 25.4704C15.0901 25.3697 14.9256 25.2566 14.77 25.134L12.509 26.6885L10.5602 29.8376C12.7232 31.6377 15.532 32.2164 18.3388 31.8945C20.4511 31.6523 22.5494 30.9832 24.508 29.8534C26.0991 28.9357 27.4499 27.8075 28.5681 26.5361L27.4062 23.7128L25.5261 21.9482L19.4198 25.4704Z" fill="url(#paint3_linear_18_9675)"/>
<path d="M14.77 25.1341C13.7795 24.3539 13.187 23.1572 13.187 21.8754V21.7476V11.0724C13.187 10.4687 13.3649 10.3661 13.8882 10.668C13.0822 10.203 11.2202 8.60701 8.92105 9.93314C7.63545 10.6747 6.57678 12.3116 6.57678 13.7946V21.6529C6.57678 24.5917 8.09894 27.6573 10.2944 29.6133C10.3812 29.6906 10.4711 29.7636 10.5602 29.8377L14.77 25.1341Z" fill="url(#paint4_linear_18_9675)"/>
<path d="M28.4104 5.3123C28.4089 5.3106 28.4073 5.31197 28.4089 5.31368C28.7113 5.65428 29.0388 6.0515 29.3723 6.50399C31.1148 8.86764 31.7658 11.8613 31.1626 14.7343C30.5593 17.6072 28.7571 20.0846 26.2125 21.5523L25.5261 21.9482L28.5681 26.5361C33.8264 20.5576 33.84 11.3554 28.4315 5.33594C28.4289 5.33306 28.42 5.32287 28.4104 5.3123Z" fill="url(#paint5_linear_18_9675)"/>
<path d="M6.84355 13.7946C6.84354 12.3115 7.63551 10.9411 8.92113 10.1995C9.09565 10.0989 9.27601 10.0131 9.46002 9.93976L9.24304 7.20627L7.71861 4.07886C5.07671 5.05029 2.9397 7.0579 1.81528 9.64732C0.969097 11.596 0.50001 13.746 0.5 16.0055C0.5 17.8409 0.802549 19.5738 1.34553 21.1769L4.37391 21.5833L6.84355 20.8389V13.7946V13.7946Z" fill="url(#paint6_linear_18_9675)"/>
<path d="M9.46003 9.93976C10.6316 9.47288 11.9652 9.55864 13.0763 10.1995L13.1871 10.2634L22.0825 15.3943C22.7065 15.7543 22.6498 16.1084 21.9445 16.2559L22.4577 16.1486C23.1329 16.0074 23.7498 15.6623 24.2215 15.1595C25.0327 14.2949 25.3304 13.2518 25.3304 12.3465C25.3304 10.8634 24.5385 9.49299 23.2529 8.75144L16.441 4.82233C13.8935 3.35292 10.8394 3.03959 8.0461 3.96107C7.9356 3.99752 7.82744 4.03885 7.71863 4.07886L9.46003 9.93976Z" fill="url(#paint7_linear_18_9675)"/>
<path d="M19.8222 31.6523C19.8245 31.6518 19.8241 31.6498 19.8218 31.6503C19.3753 31.7417 18.8673 31.8264 18.3083 31.8888C15.3881 32.2145 12.4676 31.2809 10.2788 29.3225C8.08999 27.3641 6.84359 24.5662 6.8436 21.6307L6.84359 20.8389L1.34558 21.1769C3.89893 28.7156 11.869 33.3285 19.7912 31.6588C19.795 31.658 19.8083 31.6553 19.8222 31.6523Z" fill="url(#paint8_linear_18_9675)"/>
<defs>
<linearGradient id="paint0_linear_18_9675" x1="20.5601" y1="23.7699" x2="23.7076" y2="12.8067" gradientUnits="userSpaceOnUse">
<stop stop-color="#1724C9"/>
<stop offset="1" stop-color="#1C64F2"/>
</linearGradient>
<linearGradient id="paint1_linear_18_9675" x1="27.8094" y1="10.4004" x2="19.5298" y2="2.14987" gradientUnits="userSpaceOnUse">
<stop stop-color="#1C64F2"/>
<stop offset="1" stop-color="#0092FF"/>
</linearGradient>
<linearGradient id="paint2_linear_18_9675" x1="16.6645" y1="5.02115" x2="4.17432" y2="5.8104" gradientUnits="userSpaceOnUse">
<stop stop-color="#0092FF"/>
<stop offset="1" stop-color="#45B2FF"/>
</linearGradient>
<linearGradient id="paint3_linear_18_9675" x1="15.8197" y1="28.6626" x2="27.0365" y2="25.6359" gradientUnits="userSpaceOnUse">
<stop stop-color="#1C64F2"/>
<stop offset="1" stop-color="#0092FF"/>
</linearGradient>
<linearGradient id="paint4_linear_18_9675" x1="7.76869" y1="15.6827" x2="15.7323" y2="23.9347" gradientUnits="userSpaceOnUse">
<stop stop-color="#1724C9"/>
<stop offset="1" stop-color="#1C64F2"/>
</linearGradient>
<linearGradient id="paint5_linear_18_9675" x1="25.9504" y1="21.6356" x2="31.5069" y2="10.4345" gradientUnits="userSpaceOnUse">
<stop stop-color="#0092FF"/>
<stop offset="1" stop-color="#45B2FF"/>
</linearGradient>
<linearGradient id="paint6_linear_18_9675" x1="5.86387" y1="9.13092" x2="2.89054" y2="20.3065" gradientUnits="userSpaceOnUse">
<stop stop-color="#1C64F2"/>
<stop offset="1" stop-color="#0092FF"/>
</linearGradient>
<linearGradient id="paint7_linear_18_9675" x1="21.0431" y1="8.59936" x2="10.1777" y2="11.3046" gradientUnits="userSpaceOnUse">
<stop stop-color="#1724C9"/>
<stop offset="1" stop-color="#1C64F2"/>
</linearGradient>
<linearGradient id="paint8_linear_18_9675" x1="6.90679" y1="21.3566" x2="13.8326" y2="31.7745" gradientUnits="userSpaceOnUse">
<stop stop-color="#0092FF"/>
<stop offset="1" stop-color="#45B2FF"/>
</linearGradient>
</defs>
</svg>
