<svg width="20" height="21" viewBox="0 0 20 21" fill="none" xmlns="http://www.w3.org/2000/svg">
<path fill-rule="evenodd" clip-rule="evenodd" d="M2.94 6.52471C2.65235 6.70449 2.41515 6.95448 2.25071 7.25117C2.08627 7.54786 2 7.8815 2 8.22071V16.1127C2 16.6431 2.21071 17.1518 2.58579 17.5269C2.96086 17.902 3.46957 18.1127 4 18.1127H16C16.5304 18.1127 17.0391 17.902 17.4142 17.5269C17.7893 17.1518 18 16.6431 18 16.1127V8.22071C18 7.8815 17.9137 7.54786 17.7493 7.25117C17.5848 6.95448 17.3476 6.70449 17.06 6.52471L11.06 2.77471C10.7421 2.57604 10.3748 2.4707 10 2.4707C9.62516 2.4707 9.25786 2.57604 8.94 2.77471L2.94 6.52471ZM5.555 8.94771C5.44574 8.87482 5.32319 8.82417 5.19436 8.79865C5.06553 8.77313 4.93293 8.77323 4.80413 8.79895C4.67534 8.82467 4.55287 8.87551 4.44372 8.94856C4.33457 9.02161 4.24088 9.11545 4.168 9.22471C4.09512 9.33397 4.04447 9.45651 4.01894 9.58535C3.99342 9.71418 3.99352 9.84678 4.01924 9.97558C4.07119 10.2357 4.22434 10.4645 4.445 10.6117L9.445 13.9447C9.60933 14.0543 9.80245 14.1129 10 14.1129C10.1975 14.1129 10.3907 14.0543 10.555 13.9447L15.555 10.6117C15.7757 10.4645 15.9288 10.2357 15.9808 9.97558C16.0327 9.71546 15.9792 9.44537 15.832 9.22471C15.6848 9.00405 15.456 8.8509 15.1959 8.79895C14.9358 8.747 14.6657 8.80051 14.445 8.94771L10 11.9107L5.555 8.94771Z" fill="#111928"/>
</svg>
