<svg width="30" height="23" viewBox="0 0 30 23" fill="none" xmlns="http://www.w3.org/2000/svg">
<path d="M3.1019 22.9005C3.03526 22.8709 2.97483 22.8071 2.94911 22.7392C2.93555 22.7034 2.9298 20.8081 2.9298 16.3937V10.0992H1.96053H0.991272V9.00207V7.90491L1.07867 7.81088C1.12674 7.75916 1.68778 7.15839 2.32542 6.47583C2.96306 5.79327 3.63302 5.07591 3.8142 4.88168L4.14363 4.52856V3.83925C4.14363 3.07887 4.149 3.03097 4.25665 2.82898C4.33024 2.69091 4.48946 2.53172 4.62764 2.45809C4.84323 2.3432 4.79707 2.34577 6.65383 2.34547L8.33971 2.3452L8.36212 2.2117C8.51544 1.29923 10.1366 0.509718 12.568 0.163464C13.4059 0.0441448 14.0907 0 15.1044 0C15.9066 0 16.2467 0.0139839 16.8617 0.0724154C18.9835 0.27394 20.6819 0.815255 21.433 1.52937C21.6831 1.76718 21.8056 1.97144 21.8464 2.21855L21.8673 2.34516L23.5541 2.34543C25.4118 2.34573 25.3656 2.34316 25.5812 2.45806C25.7193 2.53172 25.8786 2.69088 25.9521 2.82895C26.0598 3.03096 26.0652 3.07877 26.0652 3.83968V4.52945L26.2599 4.73755C26.4183 4.9068 28.7901 7.44487 29.1178 7.79582L29.2085 7.89293L29.2134 8.99607L29.2184 10.0992H28.2488H27.2792L27.2746 16.4207L27.27 22.7422L27.2326 22.7922C27.2121 22.8198 27.1728 22.8591 27.1452 22.8796L27.0952 22.917L15.1257 22.9208C5.17857 22.924 3.14707 22.9206 3.10191 22.9005L3.1019 22.9005ZM26.7174 16.2318V10.0992H15.1044H3.49142V16.2318V22.3644H15.1044H26.7174V16.2318ZM4.2686 21.5805C4.23473 21.5579 4.19278 21.511 4.17536 21.4763C4.14543 21.4167 4.14369 21.1214 4.14373 16.0778C4.14376 10.7858 4.14406 10.7419 4.17978 10.6833C4.19959 10.6509 4.24235 10.6081 4.27483 10.5882C4.33322 10.5525 4.36523 10.5521 7.18247 10.5567L10.0311 10.5613L10.0945 10.6247C10.1401 10.6703 10.1628 10.7135 10.1755 10.7787C10.2007 10.9076 10.2002 21.295 10.175 21.4043C10.1647 21.4491 10.1384 21.5049 10.1166 21.5283C10.0241 21.6274 10.2043 21.6217 7.15465 21.6217H4.33016L4.2686 21.5806L4.2686 21.5805ZM9.62402 16.0869V11.1047L7.16464 11.1001L4.70526 11.0955V16.0869V21.0782L7.16464 21.0736L9.62402 21.069V16.0869ZM11.2002 19.6559C11.1119 19.6246 11.0537 19.5607 11.0286 19.4675C11.0156 19.4195 11.0111 18.0324 11.0143 15.0789C11.019 10.7815 11.0192 10.7602 11.0557 10.6971C11.0774 10.6595 11.1251 10.6171 11.1727 10.5929L11.2532 10.5522H18.5195H25.7858L25.8655 10.5929C25.9094 10.6153 25.9621 10.6567 25.9826 10.6848L26.0199 10.736V15.1144V19.4929L25.9777 19.5521C25.9545 19.5846 25.9097 19.6254 25.8781 19.6426C25.8239 19.6723 25.4118 19.6743 18.5467 19.6779C12.3078 19.6811 11.2624 19.678 11.2002 19.6559L11.2002 19.6559ZM25.4673 15.1176V11.1138H18.5195H11.5716V15.1176V19.1215H18.5195H25.4673V15.1176ZM8.72723 8.93426V7.84176L9.43599 6.11254C9.82581 5.16147 10.1488 4.36498 10.1537 4.34256L10.1627 4.30177H8.59577H7.02884L5.86297 5.99119C5.22175 6.92036 4.67041 7.72014 4.63777 7.76847L4.57844 7.85635V8.92947C4.57844 9.51969 4.58388 10.008 4.59053 10.0147C4.59718 10.0213 5.53065 10.0268 6.66493 10.0268H8.72725L8.72723 8.93426ZM16.8756 8.96692L16.8804 7.91613L16.6713 6.14973C16.5564 5.1782 16.4582 4.36493 16.4533 4.34245L16.4443 4.3016L14.8736 4.30613L13.3029 4.31067L13.2093 4.96288C13.1579 5.32159 13.0414 6.12871 12.9505 6.75646L12.7851 7.89783L12.7853 8.96228L12.7854 10.0267L14.8281 10.0221L16.8708 10.0175L16.8756 8.96673L16.8756 8.96692ZM25.0144 8.93347V7.84021L24.143 6.49222C23.6637 5.75083 23.1488 4.95468 22.9987 4.72301L22.7259 4.30179H21.1616C19.9143 4.30179 19.5974 4.30633 19.5974 4.32485C19.5974 4.33732 19.727 4.68594 19.8853 5.09935C20.0436 5.51275 20.3453 6.30032 20.5556 6.84952L20.9381 7.84805V8.9375V10.027H22.9762H25.0144V8.93347ZM12.5318 3.22092C12.8202 3.14245 12.9837 2.9308 12.9622 2.66372C12.9409 2.39749 12.8041 2.27787 12.374 2.14919C12.1035 2.06827 12.0245 2.01774 12.0245 1.92575C12.0245 1.77037 12.3499 1.7816 12.6803 1.94843L12.7849 2.00119L12.8465 1.87877C12.8803 1.81146 12.9211 1.72517 12.937 1.68707L12.9659 1.61779L12.827 1.55362C12.3888 1.35115 11.873 1.39185 11.6488 1.64659C11.4804 1.83791 11.4875 2.13264 11.6648 2.30594C11.7434 2.38281 11.8628 2.43758 12.1056 2.50818C12.3523 2.57988 12.4371 2.62213 12.4617 2.68555C12.485 2.74557 12.4534 2.81341 12.3863 2.84731C12.2528 2.91489 11.923 2.83182 11.6912 2.67247C11.6467 2.64186 11.6058 2.61684 11.6002 2.61684C11.5946 2.61684 11.5495 2.69772 11.4998 2.79659L11.4096 2.97635L11.5074 3.0412C11.8047 3.23857 12.2072 3.30914 12.5318 3.22081L12.5318 3.22092ZM16.2951 3.24057C16.7525 3.14608 17.0429 2.79834 17.0429 2.34518C17.0429 1.90287 16.7588 1.55539 16.3171 1.45744C16.1675 1.42418 15.8466 1.44156 15.7141 1.48994C15.3578 1.61984 15.1315 1.91431 15.1086 2.27751C15.0849 2.65425 15.2743 2.9913 15.6001 3.15188C15.8278 3.26414 16.0465 3.29207 16.2951 3.24074V3.24057ZM15.8689 2.80557C15.6816 2.71221 15.5835 2.53416 15.597 2.31196C15.6058 2.1674 15.6481 2.07257 15.7484 1.97207C15.9299 1.79035 16.2425 1.79644 16.4215 1.9853C16.6561 2.23267 16.5769 2.67717 16.273 2.81818C16.1617 2.86981 15.9867 2.86441 15.8689 2.80571L15.8689 2.80557ZM13.6732 2.90682V2.56258H14.0355H14.3978V2.90682V3.25106H14.6334H14.8689V2.34521V1.43936H14.6334H14.3978V1.81077V2.18219H14.0355H13.6732V1.81077V1.43936H13.4376H13.2021V2.34521V3.25106H13.4376H13.6732V2.90682ZM17.7495 2.99934V2.74763L18.0258 2.73969C18.2552 2.73326 18.3194 2.72495 18.4044 2.69184C18.6858 2.58186 18.8409 2.28506 18.7855 1.96214C18.758 1.80178 18.7158 1.7198 18.611 1.62323C18.4411 1.46661 18.3083 1.43955 17.7087 1.43936L17.2784 1.43922V2.34508V3.25093H17.514H17.7495L17.7495 2.99934ZM17.7495 2.08965V1.81597L17.9656 1.8224C18.1493 1.82769 18.1893 1.83449 18.2328 1.86635C18.3863 1.97898 18.3809 2.21626 18.2224 2.32216C18.1674 2.35882 18.1388 2.36328 17.9551 2.36328H17.7495L17.7495 2.08965Z" fill="white"/>
</svg>
