<svg width="86" height="19" viewBox="0 0 86 19" fill="none" xmlns="http://www.w3.org/2000/svg">
<g clip-path="url(#clip0_11_772)">
<path d="M19 9.5C19 4.25329 14.7467 0 9.5 0C4.25329 0 0 4.25329 0 9.5C0 14.2416 3.47399 18.1719 8.01563 18.8846V12.2461H5.60352V9.5H8.01563V7.40703C8.01563 5.02609 9.43395 3.71094 11.6039 3.71094C12.643 3.71094 13.7305 3.89648 13.7305 3.89648V6.23437H12.5326C11.3525 6.23437 10.9844 6.96673 10.9844 7.71875V9.5H13.6191L13.1979 12.2461H10.9844V18.8846C15.526 18.1719 19 14.2416 19 9.5Z" fill="#1877F2"/>
<path d="M13.1979 12.2461L13.6191 9.5H10.9844V7.71875C10.9844 6.96747 11.3525 6.23438 12.5326 6.23438H13.7305V3.89648C13.7305 3.89648 12.6434 3.71094 11.6039 3.71094C9.43395 3.71094 8.01563 5.02609 8.01563 7.40703V9.5H5.60352V12.2461H8.01563V18.8846C8.99923 19.0385 10.0008 19.0385 10.9844 18.8846V12.2461H13.1979Z" fill="white"/>
</g>
<path d="M39.9751 17.2193C47.145 17.2193 51.0666 11.2791 51.0666 6.12781C51.0666 5.95909 51.0666 5.79113 51.0552 5.62393C51.8181 5.0721 52.4766 4.38884 53 3.60613C52.2886 3.92153 51.5339 4.12828 50.761 4.21945C51.5749 3.73233 52.1839 2.96607 52.4748 2.06333C51.7097 2.51744 50.8725 2.83744 49.9995 3.00953C49.4118 2.38457 48.6345 1.97074 47.7878 1.83207C46.9412 1.69341 46.0725 1.83764 45.3161 2.24245C44.5597 2.64726 43.9578 3.29008 43.6035 4.07143C43.2492 4.85279 43.1624 5.72911 43.3564 6.56481C41.8065 6.48707 40.2904 6.08429 38.9063 5.38263C37.5222 4.68097 36.3012 3.69611 35.3224 2.49197C34.8239 3.35013 34.6712 4.36603 34.8955 5.3328C35.1197 6.29958 35.7039 7.14456 36.5293 7.69569C35.9089 7.67751 35.302 7.51015 34.76 7.20777V7.25717C34.7602 8.15718 35.0718 9.02939 35.6418 9.72588C36.2118 10.4224 37.0052 10.9002 37.8874 11.0785C37.3135 11.235 36.7114 11.2579 36.1272 11.1453C36.3764 11.9198 36.8614 12.5971 37.5144 13.0825C38.1674 13.5679 38.9557 13.8371 39.7692 13.8525C38.9609 14.4877 38.0354 14.9575 37.0454 15.2347C36.0555 15.5119 35.0206 15.5913 34 15.4682C35.7827 16.6122 37.8569 17.219 39.9751 17.2162" fill="#1DA1F2"/>
<g clip-path="url(#clip1_11_772)">
<path d="M76.5 1.71074C79.0383 1.71074 79.3389 1.72187 80.3371 1.76641C81.2648 1.80723 81.7658 1.96309 82.0998 2.09297C82.5414 2.26367 82.8605 2.47148 83.1908 2.80176C83.5248 3.13574 83.7289 3.45117 83.8996 3.89277C84.0295 4.22676 84.1854 4.73145 84.2262 5.65547C84.2707 6.65742 84.2818 6.95801 84.2818 9.49258C84.2818 12.0309 84.2707 12.3314 84.2262 13.3297C84.1854 14.2574 84.0295 14.7584 83.8996 15.0924C83.7289 15.534 83.5211 15.8531 83.1908 16.1834C82.8568 16.5174 82.5414 16.7215 82.0998 16.8922C81.7658 17.0221 81.2611 17.1779 80.3371 17.2188C79.3352 17.2633 79.0346 17.2744 76.5 17.2744C73.9617 17.2744 73.6611 17.2633 72.6629 17.2188C71.7352 17.1779 71.2342 17.0221 70.9002 16.8922C70.4586 16.7215 70.1395 16.5137 69.8092 16.1834C69.4752 15.8494 69.2711 15.534 69.1004 15.0924C68.9705 14.7584 68.8146 14.2537 68.7738 13.3297C68.7293 12.3277 68.7182 12.0271 68.7182 9.49258C68.7182 6.9543 68.7293 6.65371 68.7738 5.65547C68.8146 4.72773 68.9705 4.22676 69.1004 3.89277C69.2711 3.45117 69.4789 3.13203 69.8092 2.80176C70.1432 2.46777 70.4586 2.26367 70.9002 2.09297C71.2342 1.96309 71.7389 1.80723 72.6629 1.76641C73.6611 1.72187 73.9617 1.71074 76.5 1.71074ZM76.5 0C73.9209 0 73.598 0.0111328 72.585 0.0556641C71.5756 0.100195 70.8816 0.263477 70.2805 0.497266C69.6533 0.742187 69.1227 1.06504 68.5957 1.5957C68.065 2.12266 67.7422 2.65332 67.4973 3.27676C67.2635 3.88164 67.1002 4.57187 67.0557 5.58125C67.0111 6.59805 67 6.9209 67 9.5C67 12.0791 67.0111 12.402 67.0557 13.415C67.1002 14.4244 67.2635 15.1184 67.4973 15.7195C67.7422 16.3467 68.065 16.8773 68.5957 17.4043C69.1227 17.9313 69.6533 18.2578 70.2768 18.499C70.8816 18.7328 71.5719 18.8961 72.5813 18.9406C73.5943 18.9852 73.9172 18.9963 76.4963 18.9963C79.0754 18.9963 79.3982 18.9852 80.4113 18.9406C81.4207 18.8961 82.1147 18.7328 82.7158 18.499C83.3393 18.2578 83.8699 17.9313 84.3969 17.4043C84.9238 16.8773 85.2504 16.3467 85.4916 15.7232C85.7254 15.1184 85.8887 14.4281 85.9332 13.4188C85.9777 12.4057 85.9889 12.0828 85.9889 9.50371C85.9889 6.92461 85.9777 6.60176 85.9332 5.58867C85.8887 4.5793 85.7254 3.88535 85.4916 3.28418C85.2578 2.65332 84.935 2.12266 84.4043 1.5957C83.8773 1.06875 83.3467 0.742188 82.7232 0.500977C82.1184 0.267187 81.4281 0.103906 80.4188 0.059375C79.402 0.0111328 79.0791 0 76.5 0Z" fill="#000100"/>
<path d="M76.5 4.62012C73.8059 4.62012 71.6201 6.80586 71.6201 9.5C71.6201 12.1941 73.8059 14.3799 76.5 14.3799C79.1941 14.3799 81.3799 12.1941 81.3799 9.5C81.3799 6.80586 79.1941 4.62012 76.5 4.62012ZM76.5 12.6654C74.7521 12.6654 73.3346 11.2479 73.3346 9.5C73.3346 7.75215 74.7521 6.33457 76.5 6.33457C78.2479 6.33457 79.6654 7.75215 79.6654 9.5C79.6654 11.2479 78.2479 12.6654 76.5 12.6654Z" fill="#000100"/>
<path d="M82.7121 4.4271C82.7121 5.05796 82.2 5.56636 81.5729 5.56636C80.942 5.56636 80.4336 5.05425 80.4336 4.4271C80.4336 3.79624 80.9457 3.28784 81.5729 3.28784C82.2 3.28784 82.7121 3.79995 82.7121 4.4271Z" fill="#000100"/>
</g>
<defs>
<clipPath id="clip0_11_772">
<rect width="19" height="19" fill="white"/>
</clipPath>
<clipPath id="clip1_11_772">
<rect width="19" height="19" fill="white" transform="translate(67)"/>
</clipPath>
</defs>
</svg>
