<svg width="78" height="14" viewBox="0 0 78 14" fill="none" xmlns="http://www.w3.org/2000/svg">
<g clip-path="url(#clip0_23_50)">
<path d="M71.4206 0.612671L73.4598 4.58649L78.02 5.22256L74.7203 8.31703L75.4994 12.6841L71.4206 10.6227L67.3414 12.6841L68.1205 8.31656L64.8208 5.22303L69.381 4.58696L71.4206 0.612671Z" fill="#F7CC39" stroke="#EDBE27" stroke-width="0.928571"/>
</g>
<g clip-path="url(#clip1_23_50)">
<path d="M55.4206 0.612671L57.4598 4.58649L62.02 5.22256L58.7203 8.31703L59.4994 12.6841L55.4206 10.6227L51.3414 12.6841L52.1205 8.31656L48.8208 5.22303L53.381 4.58696L55.4206 0.612671Z" fill="#F7CC39" stroke="#EDBE27" stroke-width="0.928571"/>
</g>
<g clip-path="url(#clip2_23_50)">
<path d="M39.4206 0.612671L41.4598 4.58649L46.02 5.22256L42.7203 8.31703L43.4994 12.6841L39.4206 10.6227L35.3414 12.6841L36.1205 8.31656L32.8208 5.22303L37.381 4.58696L39.4206 0.612671Z" fill="#F7CC39" stroke="#EDBE27" stroke-width="0.928571"/>
</g>
<g clip-path="url(#clip3_23_50)">
<path d="M23.4206 0.612671L25.4598 4.58649L30.02 5.22256L26.7203 8.31703L27.4994 12.6841L23.4206 10.6227L19.3414 12.6841L20.1205 8.31656L16.8208 5.22303L21.381 4.58696L23.4206 0.612671Z" fill="#F7CC39" stroke="#EDBE27" stroke-width="0.928571"/>
</g>
<g clip-path="url(#clip4_23_50)">
<path d="M7.42062 0.612671L9.45977 4.58649L14.02 5.22256L10.7203 8.31703L11.4994 12.6841L7.42062 10.6227L3.34141 12.6841L4.12048 8.31656L0.820801 5.22303L5.38101 4.58696L7.42062 0.612671Z" fill="#F7CC39" stroke="#EDBE27" stroke-width="0.928571"/>
</g>
<defs>
<clipPath id="clip0_23_50">
<rect width="13" height="12.0714" fill="white" transform="translate(64.9703 0.612671)"/>
</clipPath>
<clipPath id="clip1_23_50">
<rect width="13" height="12.0714" fill="white" transform="translate(48.9703 0.612671)"/>
</clipPath>
<clipPath id="clip2_23_50">
<rect width="13" height="12.0714" fill="white" transform="translate(32.9703 0.612671)"/>
</clipPath>
<clipPath id="clip3_23_50">
<rect width="13" height="12.0714" fill="white" transform="translate(16.9703 0.612671)"/>
</clipPath>
<clipPath id="clip4_23_50">
<rect width="13" height="12.0714" fill="white" transform="translate(0.970337 0.612671)"/>
</clipPath>
</defs>
</svg>
