<svg width="78" height="14" viewBox="0 0 78 14" fill="none" xmlns="http://www.w3.org/2000/svg">
<g clip-path="url(#clip0_23_153)">
<path d="M71.4206 0.612793L73.4598 4.58661L78.02 5.22269L74.7203 8.31715L75.4994 12.6842L71.4206 10.6228L67.3414 12.6842L68.1205 8.31669L64.8208 5.22315L69.381 4.58708L71.4206 0.612793Z" fill="#F7CC39" stroke="#EDBE27" stroke-width="0.928571"/>
</g>
<g clip-path="url(#clip1_23_153)">
<path d="M55.4206 0.612793L57.4598 4.58661L62.02 5.22269L58.7203 8.31715L59.4994 12.6842L55.4206 10.6228L51.3414 12.6842L52.1205 8.31669L48.8208 5.22315L53.381 4.58708L55.4206 0.612793Z" fill="#F7CC39" stroke="#EDBE27" stroke-width="0.928571"/>
</g>
<g clip-path="url(#clip2_23_153)">
<path d="M39.4206 0.612793L41.4598 4.58661L46.02 5.22269L42.7203 8.31715L43.4994 12.6842L39.4206 10.6228L35.3414 12.6842L36.1205 8.31669L32.8208 5.22315L37.381 4.58708L39.4206 0.612793Z" fill="#F7CC39" stroke="#EDBE27" stroke-width="0.928571"/>
</g>
<g clip-path="url(#clip3_23_153)">
<path d="M23.4206 0.612793L25.4598 4.58661L30.02 5.22269L26.7203 8.31715L27.4994 12.6842L23.4206 10.6228L19.3414 12.6842L20.1205 8.31669L16.8208 5.22315L21.381 4.58708L23.4206 0.612793Z" fill="#F7CC39" stroke="#EDBE27" stroke-width="0.928571"/>
</g>
<g clip-path="url(#clip4_23_153)">
<path d="M7.42062 0.612793L9.45977 4.58661L14.02 5.22269L10.7203 8.31715L11.4994 12.6842L7.42062 10.6228L3.34141 12.6842L4.12048 8.31669L0.820801 5.22315L5.38101 4.58708L7.42062 0.612793Z" fill="#F7CC39" stroke="#EDBE27" stroke-width="0.928571"/>
</g>
<defs>
<clipPath id="clip0_23_153">
<rect width="13" height="12.0714" fill="white" transform="translate(64.9703 0.612793)"/>
</clipPath>
<clipPath id="clip1_23_153">
<rect width="13" height="12.0714" fill="white" transform="translate(48.9703 0.612793)"/>
</clipPath>
<clipPath id="clip2_23_153">
<rect width="13" height="12.0714" fill="white" transform="translate(32.9703 0.612793)"/>
</clipPath>
<clipPath id="clip3_23_153">
<rect width="13" height="12.0714" fill="white" transform="translate(16.9703 0.612793)"/>
</clipPath>
<clipPath id="clip4_23_153">
<rect width="13" height="12.0714" fill="white" transform="translate(0.970337 0.612793)"/>
</clipPath>
</defs>
</svg>
