<svg width="78" height="14" viewBox="0 0 78 14" fill="none" xmlns="http://www.w3.org/2000/svg">
<g clip-path="url(#clip0_23_187)">
<path d="M71.4207 0.612793L73.4598 4.58661L78.02 5.22269L74.7204 8.31715L75.4994 12.6842L71.4207 10.6228L67.3415 12.6842L68.1205 8.31669L64.8209 5.22315L69.3811 4.58708L71.4207 0.612793Z" fill="#F7CC39" stroke="#EDBE27" stroke-width="0.928571"/>
</g>
<g clip-path="url(#clip1_23_187)">
<path d="M55.4207 0.612793L57.4598 4.58661L62.02 5.22269L58.7204 8.31715L59.4994 12.6842L55.4207 10.6228L51.3415 12.6842L52.1205 8.31669L48.8209 5.22315L53.3811 4.58708L55.4207 0.612793Z" fill="#F7CC39" stroke="#EDBE27" stroke-width="0.928571"/>
</g>
<g clip-path="url(#clip2_23_187)">
<path d="M39.4207 0.612793L41.4598 4.58661L46.02 5.22269L42.7204 8.31715L43.4994 12.6842L39.4207 10.6228L35.3415 12.6842L36.1205 8.31669L32.8209 5.22315L37.3811 4.58708L39.4207 0.612793Z" fill="#F7CC39" stroke="#EDBE27" stroke-width="0.928571"/>
</g>
<g clip-path="url(#clip3_23_187)">
<path d="M23.4207 0.612793L25.4598 4.58661L30.02 5.22269L26.7204 8.31715L27.4994 12.6842L23.4207 10.6228L19.3415 12.6842L20.1205 8.31669L16.8209 5.22315L21.3811 4.58708L23.4207 0.612793Z" fill="#F7CC39" stroke="#EDBE27" stroke-width="0.928571"/>
</g>
<g clip-path="url(#clip4_23_187)">
<path d="M7.42068 0.612793L9.45983 4.58661L14.02 5.22269L10.7204 8.31715L11.4994 12.6842L7.42068 10.6228L3.34147 12.6842L4.12054 8.31669L0.820862 5.22315L5.38108 4.58708L7.42068 0.612793Z" fill="#F7CC39" stroke="#EDBE27" stroke-width="0.928571"/>
</g>
<defs>
<clipPath id="clip0_23_187">
<rect width="13" height="12.0714" fill="white" transform="translate(64.9703 0.612793)"/>
</clipPath>
<clipPath id="clip1_23_187">
<rect width="13" height="12.0714" fill="white" transform="translate(48.9703 0.612793)"/>
</clipPath>
<clipPath id="clip2_23_187">
<rect width="13" height="12.0714" fill="white" transform="translate(32.9703 0.612793)"/>
</clipPath>
<clipPath id="clip3_23_187">
<rect width="13" height="12.0714" fill="white" transform="translate(16.9703 0.612793)"/>
</clipPath>
<clipPath id="clip4_23_187">
<rect width="13" height="12.0714" fill="white" transform="translate(0.970337 0.612793)"/>
</clipPath>
</defs>
</svg>
