<svg width="21" height="20" viewBox="0 0 21 20" fill="none" xmlns="http://www.w3.org/2000/svg">
<path d="M9.549 2.92702C9.849 2.00602 11.152 2.00602 11.451 2.92702L12.521 6.21902C12.5864 6.41951 12.7135 6.5942 12.8841 6.71812C13.0547 6.84205 13.2601 6.90886 13.471 6.90902H16.933C17.902 6.90902 18.304 8.14902 17.521 8.71902L14.721 10.753C14.55 10.877 14.4227 11.052 14.3573 11.2529C14.2919 11.4537 14.2918 11.6701 14.357 11.871L15.427 15.163C15.727 16.084 14.672 16.851 13.887 16.281L11.087 14.247C10.9162 14.123 10.7106 14.0562 10.4995 14.0562C10.2884 14.0562 10.0828 14.123 9.912 14.247L7.112 16.281C6.328 16.851 5.274 16.084 5.573 15.163L6.643 11.871C6.70818 11.6701 6.70806 11.4537 6.64267 11.2529C6.57728 11.052 6.44997 10.877 6.279 10.753L3.48 8.72002C2.697 8.15002 3.1 6.91002 4.068 6.91002H7.529C7.74005 6.91007 7.94571 6.84336 8.11653 6.71942C8.28735 6.59548 8.41458 6.42067 8.48 6.22002L9.55 2.92802L9.549 2.92702Z" fill="#FACA15"/>
</svg>
