<svg width="21" height="20" viewBox="0 0 21 20" fill="none" xmlns="http://www.w3.org/2000/svg">
<path d="M9.549 2.927C9.849 2.006 11.152 2.006 11.451 2.927L12.521 6.219C12.5864 6.41949 12.7135 6.59418 12.8841 6.71811C13.0547 6.84203 13.2601 6.90885 13.471 6.909H16.933C17.902 6.909 18.304 8.149 17.521 8.719L14.721 10.753C14.55 10.877 14.4227 11.052 14.3573 11.2529C14.2919 11.4537 14.2918 11.6701 14.357 11.871L15.427 15.163C15.727 16.084 14.672 16.851 13.887 16.281L11.087 14.247C10.9162 14.123 10.7106 14.0562 10.4995 14.0562C10.2884 14.0562 10.0828 14.123 9.912 14.247L7.112 16.281C6.328 16.851 5.274 16.084 5.573 15.163L6.643 11.871C6.70818 11.6701 6.70806 11.4537 6.64267 11.2529C6.57728 11.052 6.44997 10.877 6.279 10.753L3.48 8.72C2.697 8.15 3.1 6.91 4.068 6.91H7.529C7.74005 6.91006 7.94571 6.84334 8.11653 6.7194C8.28735 6.59546 8.41458 6.42065 8.48 6.22L9.55 2.928L9.549 2.927Z" fill="#FACA15"/>
</svg>
