<svg width="16" height="16" viewBox="0 0 16 16" fill="none" xmlns="http://www.w3.org/2000/svg">
<g clip-path="url(#clip0_1_296)">
<path d="M13.8004 7.19663H8.77914V2.19338C8.77914 1.76888 8.39964 1.42163 7.97589 1.42163C7.55214 1.42163 7.17264 1.76888 7.17264 2.19338V7.19663H2.21889C1.79439 7.19663 1.44714 7.57613 1.44714 7.99988C1.44714 8.42363 1.79439 8.80313 2.21889 8.80313H7.17264V13.7749C7.17264 14.1994 7.55214 14.5466 7.97589 14.5466C8.39964 14.5466 8.77914 14.1994 8.77914 13.7749V8.80313H13.8004C14.2249 8.80313 14.5721 8.42363 14.5721 7.99988C14.5721 7.57613 14.2249 7.19663 13.8004 7.19663Z" fill="black"/>
</g>
<defs>
<clipPath id="clip0_1_296">
<rect width="15" height="15" fill="white" transform="translate(0.743652 0.5)"/>
</clipPath>
</defs>
</svg>
