<svg width="60" height="61" viewBox="0 0 60 61" fill="none" xmlns="http://www.w3.org/2000/svg">
<path d="M29.9999 0.40625C24.0665 0.40625 18.2663 2.16572 13.3328 5.46216C8.39931 8.7586 4.55413 13.444 2.28351 18.9257C0.0128765 24.4075 -0.581224 30.4395 0.576333 36.259C1.73389 42.0784 4.59111 47.4239 8.78669 51.6194C12.9823 55.815 18.3278 58.6723 24.1472 59.8298C29.9666 60.9874 35.9986 60.3933 41.4804 58.1226C46.9622 55.852 51.6475 52.0068 54.944 47.0734C58.2404 42.1399 59.9999 36.3397 59.9999 30.4062C59.9937 22.4516 56.831 14.8246 51.2063 9.19985C45.5815 3.57509 37.9545 0.412409 29.9999 0.40625ZM29.9999 2.66206C37.221 2.67149 44.1538 5.49592 49.3257 10.5353C54.4976 15.5748 57.5009 22.432 57.6976 29.6504H2.32547C2.52207 22.4361 5.52213 15.5822 10.689 10.5434C15.8559 5.50465 22.7829 2.67753 29.9999 2.66206Z" fill="#E5281E"/>
<path d="M22.4883 43.1853C22.4838 43.1467 22.4838 43.1077 22.4883 43.069C22.4999 43.0312 22.4999 42.9906 22.4883 42.9528L22.372 42.4411C22.3666 42.3443 22.3666 42.2473 22.372 42.1504C22.3646 42.0537 22.3646 41.9565 22.372 41.8597C22.372 41.79 22.372 41.7086 22.4301 41.6156V41.3597C22.4359 41.2784 22.4359 41.1968 22.4301 41.1156C22.4353 41.0498 22.4353 40.9837 22.4301 40.9179L22.5231 40.8132L22.6162 40.7202C22.6486 40.6924 22.6727 40.6562 22.6859 40.6156C22.6942 40.5694 22.6942 40.5222 22.6859 40.476L22.9301 40.2202L23.0464 40.1621C23.0693 40.1675 23.0932 40.1675 23.1162 40.1621L23.1859 40.0458L23.2673 39.9179C23.2848 39.8829 23.3084 39.8514 23.3371 39.8249L23.8487 39.476C24.0282 39.3635 24.2146 39.2625 24.4069 39.1737H24.4766C24.5143 39.187 24.5553 39.187 24.5929 39.1737H26.3487L26.6511 39.2435L26.9534 39.3249H27.1394C27.2252 39.3892 27.3033 39.4634 27.372 39.5458C27.4407 39.6282 27.5187 39.7023 27.6045 39.7667L27.7441 39.8597L27.8836 39.9295L28.0115 39.9993L28.1511 40.0923L28.279 40.2202V40.3597C28.2701 40.3941 28.2701 40.4301 28.279 40.4644L28.3604 40.5574C28.3942 40.5854 28.4254 40.6166 28.4534 40.6504C28.4807 40.6757 28.5008 40.7078 28.5115 40.7435L28.5929 40.883L28.6859 41.069C28.72 41.1278 28.7473 41.1902 28.7673 41.2551C28.7716 41.3093 28.7716 41.3637 28.7673 41.4179V41.6853C28.7642 41.724 28.7642 41.7629 28.7673 41.8016C28.7611 41.8323 28.7611 41.8639 28.7673 41.8946V41.9993C28.7743 42.0416 28.7743 42.0848 28.7673 42.1272C28.7618 42.1462 28.7618 42.1663 28.7673 42.1853V42.4993C28.7728 42.5183 28.7728 42.5384 28.7673 42.5574V42.6272C28.7747 42.7123 28.7747 42.7979 28.7673 42.883C28.774 42.9332 28.774 42.984 28.7673 43.0342C28.7356 43.1262 28.6968 43.2156 28.6511 43.3016C28.613 43.3853 28.5703 43.4668 28.5231 43.5458C28.476 43.6247 28.4333 43.7063 28.3952 43.79C28.3435 43.8785 28.3006 43.972 28.2673 44.069H28.0929C28.0958 44.0883 28.0958 44.1079 28.0929 44.1272V44.3597H27.9301C27.9221 44.3823 27.9221 44.4069 27.9301 44.4295L27.8371 44.5342L27.7092 44.6853L27.5813 44.8249L27.4766 44.9179H27.4069L26.9069 45.0923C26.9069 45.0923 26.9069 45.0923 26.9069 45.1504H26.5464L26.2208 45.29H24.7092C24.6008 45.2891 24.4938 45.2654 24.3952 45.2202L24.3255 45.1272H24.0697C24.0272 45.1324 23.9842 45.1324 23.9418 45.1272C23.9041 45.1145 23.8715 45.09 23.8487 45.0574C23.8066 45.0168 23.7713 44.9697 23.7441 44.9179L23.6627 44.8249L23.558 44.7435L23.3836 44.6621H23.2441L23.2557 44.5923C23.2105 44.543 23.1714 44.4883 23.1394 44.4295L23.0348 44.2435C22.9908 44.1786 22.9556 44.1083 22.9301 44.0342C22.9301 43.976 22.872 43.9063 22.8487 43.8597L22.7906 43.7435C22.773 43.6798 22.7365 43.6231 22.6859 43.5807L22.5697 43.4993C22.5325 43.4659 22.501 43.4266 22.4766 43.383C22.4702 43.3169 22.4741 43.2502 22.4883 43.1853ZM23.4418 42.1737C23.4308 42.2313 23.4308 42.2905 23.4418 42.3481L23.5231 42.4993L23.6045 42.6388C23.6162 42.6924 23.6162 42.748 23.6045 42.8016V43.0225C23.5989 43.0533 23.5989 43.0848 23.6045 43.1156C23.5957 43.1499 23.5957 43.1859 23.6045 43.2202C23.5998 43.2432 23.5998 43.267 23.6045 43.29H23.7208C23.7245 43.3209 23.7245 43.3521 23.7208 43.383V43.4644C23.7143 43.5068 23.7143 43.5499 23.7208 43.5923C23.7208 43.5923 23.7208 43.5923 23.7906 43.5923C23.8171 43.5842 23.8455 43.5842 23.872 43.5923C23.9117 43.6923 23.9583 43.7894 24.0115 43.883C24.0599 43.9671 24.1229 44.042 24.1976 44.1039L24.5231 44.3481L24.8604 44.5574L25.2325 44.7086C25.3714 44.727 25.5121 44.727 25.6511 44.7086H26.5929L26.8022 44.569L27.0348 44.4411C27.1115 44.3964 27.1818 44.3417 27.2441 44.2783C27.3111 44.2241 27.3665 44.1569 27.4069 44.0807L27.6394 43.6039C27.686 43.5751 27.7194 43.5292 27.7325 43.476C27.7374 43.4296 27.7374 43.3829 27.7325 43.3365C27.7325 43.2783 27.7325 43.2318 27.7325 43.1737C27.744 43.1256 27.768 43.0815 27.8022 43.0458L27.8952 42.4179C27.9015 42.3716 27.9015 42.3246 27.8952 42.2783C27.889 42.2281 27.889 42.1774 27.8952 42.1272L27.9534 41.976C27.9623 41.9182 27.9623 41.8594 27.9534 41.8016L27.872 41.5923L27.7673 41.383L27.6859 41.2086V41.0109C27.7489 41.0628 27.8257 41.0951 27.9069 41.1039C27.909 41.073 27.909 41.0419 27.9069 41.0109L27.8487 40.9295C27.8387 40.8953 27.8387 40.859 27.8487 40.8249V40.6039C27.8097 40.4957 27.7549 40.3938 27.6859 40.3016C27.5956 40.1874 27.4985 40.0787 27.3952 39.976C27.2995 39.8699 27.1944 39.7726 27.0813 39.6853C26.9956 39.6194 26.9018 39.5647 26.8022 39.5225H26.4185L26.3022 39.3714H25.4883L25.1859 39.4295L24.9185 39.5225C24.8454 39.5462 24.7807 39.5906 24.7325 39.6504V39.7202H24.5813C24.5622 39.7153 24.5422 39.7153 24.5231 39.7202C24.5167 39.7349 24.5134 39.7507 24.5134 39.7667C24.5134 39.7827 24.5167 39.7986 24.5231 39.8132H24.372V39.883L24.2906 39.9644C24.1686 40.0376 24.0683 40.1419 23.9999 40.2667C23.9269 40.3941 23.8721 40.5311 23.8371 40.6737C23.7977 40.8185 23.7705 40.9663 23.7557 41.1156C23.7557 41.2667 23.7557 41.4179 23.7557 41.5458V41.8714C23.7636 41.9019 23.7636 41.9339 23.7557 41.9644C23.7213 41.9484 23.6835 41.9415 23.6457 41.9444C23.6079 41.9473 23.5715 41.9599 23.5399 41.9809C23.5084 42.0019 23.4828 42.0307 23.4656 42.0644C23.4484 42.0982 23.4402 42.1358 23.4418 42.1737Z" fill="white"/>
<path d="M31.2324 28.0342V28.4179C31.2324 29.2667 31.2324 30.1039 31.2324 30.9528C31.2315 31.2065 31.153 31.4538 31.0075 31.6616C30.8621 31.8694 30.6565 32.0278 30.4185 32.1156C30.1801 32.2047 29.9191 32.2131 29.6754 32.1396C29.4318 32.0661 29.219 31.9147 29.0697 31.7086C28.9155 31.4596 28.8275 31.1755 28.8138 30.883C28.8138 30.069 28.8138 29.2551 28.8138 28.4411V28.0574C28.6976 28.1504 28.6278 28.1853 28.5697 28.2435C28.2906 28.5342 27.9999 28.8249 27.7092 29.1039C27.4779 29.3352 27.1642 29.4652 26.8371 29.4652C26.51 29.4652 26.1963 29.3352 25.965 29.1039C25.7337 28.8726 25.6038 28.5589 25.6038 28.2318C25.6038 27.9047 25.7337 27.591 25.965 27.3597L28.6045 24.7202C28.6721 24.6559 28.7256 24.5782 28.7616 24.4922C28.7977 24.4061 28.8154 24.3135 28.8138 24.2202C28.8138 23.1737 28.8138 22.1272 28.8138 21.0923V20.7318C28.7174 20.7712 28.6241 20.8178 28.5348 20.8714C27.5813 21.4179 26.6394 21.9528 25.6976 22.5109C25.5843 22.599 25.5027 22.7214 25.465 22.8597C25.1278 24.0225 24.8255 25.2435 24.4999 26.4411C24.4707 26.6033 24.4093 26.758 24.3194 26.896C24.2294 27.034 24.1127 27.1526 23.9761 27.2448C23.8395 27.3369 23.6858 27.4007 23.5241 27.4325C23.3625 27.4642 23.1961 27.4632 23.0348 27.4295C22.8777 27.4073 22.7268 27.3532 22.5914 27.2705C22.456 27.1878 22.3389 27.0783 22.2474 26.9487C22.1559 26.8191 22.0919 26.6721 22.0593 26.5168C22.0268 26.3615 22.0263 26.2012 22.058 26.0458C22.1511 25.6156 22.279 25.1853 22.3836 24.7551C22.3836 24.6504 22.4418 24.5574 22.4766 24.3946L22.2208 24.5109C21.4883 24.9411 20.7557 25.3714 20.0231 25.7783C19.8198 25.9349 19.5704 26.0197 19.3138 26.0197C19.0573 26.0197 18.8079 25.9349 18.6045 25.7783C18.4215 25.669 18.2699 25.514 18.1646 25.3285C18.0594 25.1431 18.0041 24.9335 18.0041 24.7202C18.0041 24.507 18.0594 24.2974 18.1646 24.1119C18.2699 23.9264 18.4215 23.7714 18.6045 23.6621L20.8255 22.383L21.1394 22.1737C20.5813 22.0225 20.0929 21.9063 19.6162 21.7551C19.3258 21.6932 19.0702 21.5227 18.9015 21.2784C18.7329 21.0341 18.6641 20.7345 18.7092 20.4411C18.7293 20.2567 18.7903 20.0791 18.8879 19.9213C18.9855 19.7635 19.1172 19.6295 19.2733 19.5292C19.4293 19.4288 19.6059 19.3647 19.7899 19.3414C19.974 19.3181 20.161 19.3363 20.3371 19.3946C21.372 19.6621 22.4069 19.9295 23.4417 20.2318C23.6719 20.3207 23.9202 20.3523 24.1653 20.3239C24.4104 20.2956 24.6449 20.2081 24.8487 20.069C25.6162 19.569 26.4301 19.1388 27.2324 18.6853L27.4534 18.5342L27.2092 18.3597C26.279 17.8249 25.3604 17.29 24.4185 16.7667C24.257 16.7081 24.08 16.7081 23.9185 16.7667C22.7557 17.069 21.5348 17.3946 20.3487 17.7202C20.1034 17.805 19.8375 17.8102 19.5891 17.7351C19.3406 17.6599 19.1222 17.5082 18.965 17.3016C18.8388 17.1404 18.7547 16.9503 18.7203 16.7485C18.686 16.5467 18.7024 16.3395 18.7682 16.1456C18.834 15.9518 18.947 15.7774 19.0971 15.6381C19.2472 15.4989 19.4296 15.3992 19.6278 15.3481L21.1278 14.9411L20.9301 14.7202L18.7208 13.476C18.5734 13.399 18.4428 13.2934 18.3366 13.1655C18.2304 13.0375 18.1506 12.8898 18.1019 12.7307C18.0532 12.5717 18.0366 12.4046 18.053 12.2391C18.0695 12.0736 18.1186 11.9131 18.1976 11.7667C18.2788 11.6187 18.3899 11.4892 18.5238 11.3864C18.6576 11.2835 18.8114 11.2095 18.9753 11.1691C19.1392 11.1287 19.3097 11.1227 19.4761 11.1515C19.6424 11.1803 19.801 11.2433 19.9417 11.3365C20.6627 11.7318 21.372 12.1621 22.0929 12.569L22.4301 12.7435C22.3022 12.2783 22.1859 11.8946 22.0929 11.4993C22.0256 11.2335 21.9982 10.9592 22.0115 10.6853C22.0543 10.4199 22.1878 10.1775 22.3892 9.99946C22.5906 9.82137 22.8475 9.71858 23.1162 9.70858C23.3878 9.67472 23.6627 9.73779 23.8924 9.88668C24.1221 10.0356 24.292 10.2607 24.372 10.5225C24.5464 11.0458 24.6743 11.5807 24.8138 12.1156C25.0115 12.8597 25.1976 13.6039 25.4069 14.3365C25.4405 14.4518 25.5097 14.5535 25.6045 14.6272L28.5813 16.3481L28.7557 16.4062V16.0807C28.7557 15.0225 28.7557 13.976 28.7557 12.9179C28.7575 12.8308 28.7408 12.7443 28.7067 12.6641C28.6727 12.584 28.622 12.5119 28.558 12.4528L25.9417 9.8016C25.722 9.57832 25.5945 9.28036 25.5849 8.96722C25.5752 8.65408 25.684 8.34882 25.8896 8.11241C26.0952 7.876 26.3824 7.72584 26.6938 7.69194C27.0053 7.65803 27.318 7.74287 27.5697 7.9295C27.8836 8.20857 28.1627 8.5109 28.4534 8.81323C28.5144 8.89809 28.5688 8.9875 28.6162 9.08067L28.7441 9.0109C28.738 8.9141 28.738 8.81701 28.7441 8.7202C28.7441 7.85974 28.7441 7.0109 28.7441 6.16206C28.7239 5.8788 28.8022 5.59727 28.9656 5.36506C29.1291 5.13284 29.3677 4.9642 29.6412 4.88763C29.9146 4.81106 30.2062 4.83127 30.4664 4.94483C30.7267 5.0584 30.9398 5.25836 31.0697 5.5109C31.1883 5.73711 31.252 5.98806 31.2557 6.24346C31.2557 7.05741 31.2557 7.87137 31.2557 8.68532V9.06904L31.4999 8.87137L32.3836 7.98764C32.4895 7.84693 32.6243 7.73053 32.7789 7.64629C32.9335 7.56204 33.1044 7.5119 33.28 7.49926C33.4557 7.48661 33.632 7.51174 33.7971 7.57296C33.9622 7.63417 34.1122 7.73006 34.2372 7.85415C34.3621 7.97824 34.459 8.12767 34.5213 8.29235C34.5837 8.45704 34.61 8.63317 34.5985 8.80889C34.587 8.9846 34.5381 9.15582 34.4549 9.31101C34.3717 9.46621 34.2562 9.60177 34.1162 9.70858L31.3952 12.4062C31.3259 12.4692 31.2712 12.5466 31.235 12.633C31.1988 12.7194 31.1821 12.8127 31.1859 12.9062C31.1859 13.9528 31.1859 14.9993 31.1859 16.0342V16.3946L31.465 16.2551L34.279 14.6272C34.4052 14.5369 34.4957 14.4052 34.5348 14.2551C34.872 13.0923 35.1743 11.8714 35.4999 10.6853C35.5276 10.5146 35.5912 10.3517 35.6866 10.2075C35.782 10.0632 35.9069 9.94088 36.0531 9.84854C36.1993 9.75619 36.3635 9.69596 36.5347 9.67183C36.706 9.6477 36.8804 9.66023 37.0464 9.70858C37.1992 9.73507 37.3451 9.79186 37.4757 9.87561C37.6062 9.95935 37.7186 10.0684 37.8064 10.1962C37.8942 10.3241 37.9555 10.4682 37.9867 10.6201C38.0179 10.772 38.0185 10.9286 37.9883 11.0807C37.9069 11.5342 37.779 11.9644 37.6627 12.4062C37.6627 12.4993 37.6627 12.5923 37.5929 12.7318L37.8255 12.6272L40.0929 11.3132C40.3299 11.1767 40.6053 11.1221 40.8764 11.1579C41.1476 11.1936 41.3994 11.3177 41.5929 11.5109C41.7946 11.6971 41.924 11.9487 41.958 12.2211C41.9921 12.4935 41.9286 12.7691 41.779 12.9993C41.6392 13.2029 41.4566 13.3735 41.2441 13.4993C40.558 13.9179 39.8604 14.3132 39.1627 14.6621L38.8371 14.8714L39.4534 15.0458L40.3836 15.3016C40.6858 15.3936 40.9412 15.5981 41.097 15.8729C41.2528 16.1477 41.2971 16.4718 41.2208 16.7783C41.1905 16.9396 41.1264 17.0925 41.0328 17.2272C40.9391 17.3619 40.818 17.4753 40.6775 17.5598C40.5369 17.6444 40.38 17.6983 40.2171 17.7179C40.0543 17.7375 39.8891 17.7225 39.7324 17.6737C38.5115 17.3714 37.2906 17.0342 36.0813 16.6969C35.9825 16.6665 35.8782 16.658 35.7758 16.672C35.6733 16.6861 35.5752 16.7224 35.4883 16.7783L32.8022 18.3365L32.558 18.5458L32.7673 18.6969C33.7092 19.2435 34.6511 19.8016 35.6045 20.3365C35.771 20.3891 35.9497 20.3891 36.1162 20.3365L39.6045 19.383C39.7667 19.2922 39.9472 19.2388 40.1327 19.2269C40.3182 19.215 40.504 19.2448 40.6764 19.3141C40.8489 19.3834 41.0037 19.4904 41.1293 19.6274C41.255 19.7644 41.3484 19.9278 41.4026 20.1056C41.4568 20.2833 41.4705 20.471 41.4427 20.6548C41.4148 20.8386 41.3462 21.0138 41.2418 21.1676C41.1373 21.3213 40.9998 21.4497 40.8392 21.5434C40.6786 21.637 40.4991 21.6934 40.3138 21.7086C40.1976 21.7557 40.0768 21.7907 39.9534 21.8132L39.1627 22.0225L38.8487 22.1272L39.1511 22.3249C39.9069 22.7667 40.6627 23.1853 41.4069 23.6504C41.6105 23.7769 41.7701 23.9632 41.8637 24.1838C41.9574 24.4045 41.9806 24.6487 41.9301 24.883C41.8959 25.1155 41.792 25.3322 41.6322 25.5045C41.4723 25.6768 41.2641 25.7966 41.0348 25.8481C40.8595 25.8917 40.6772 25.8987 40.4992 25.8687C40.3211 25.8387 40.1511 25.7723 39.9999 25.6737L37.8604 24.4295L37.5813 24.29C37.6976 24.7318 37.8022 25.1156 37.8952 25.4528C37.9574 25.6729 37.9964 25.8989 38.0115 26.1272C38.0151 26.4059 37.9185 26.6766 37.7392 26.89C37.5599 27.1035 37.3099 27.2454 37.0348 27.29C36.7589 27.3602 36.4668 27.3268 36.2139 27.1961C35.9611 27.0653 35.7649 26.8464 35.6627 26.5807C35.4883 26.0923 35.372 25.5923 35.2324 25.1039C35.0115 24.29 34.8022 23.4644 34.5813 22.6504C34.5511 22.546 34.4852 22.4555 34.3952 22.3946L31.3952 20.8016L31.2208 20.7435V21.069C31.2208 22.1388 31.2208 23.1969 31.2208 24.2551C31.2236 24.4117 31.286 24.5614 31.3952 24.6737C32.279 25.5807 33.1976 26.476 34.0813 27.383C34.2463 27.5297 34.3684 27.7184 34.4347 27.9291C34.501 28.1397 34.5089 28.3644 34.4575 28.5791C34.4062 28.7939 34.2977 28.9907 34.1434 29.1486C33.989 29.3066 33.7948 29.4197 33.5813 29.476C33.3773 29.5348 33.1611 29.5367 32.9561 29.4813C32.7511 29.426 32.5652 29.3156 32.4185 29.1621L31.4999 28.3132C31.416 28.2153 31.3267 28.1222 31.2324 28.0342Z" fill="#E5281E"/>
</svg>
