<svg width="109" height="109" viewBox="0 0 109 109" fill="none" xmlns="http://www.w3.org/2000/svg">
<path d="M54.7305 108.328C84.6445 108.328 108.895 84.078 108.895 54.1641C108.895 24.2501 84.6445 0 54.7305 0C24.8165 0 0.566406 24.2501 0.566406 54.1641C0.566406 84.078 24.8165 108.328 54.7305 108.328Z" fill="#258C37"/>
<path d="M34.9005 81.6648C34.9005 81.5643 34.934 81.4973 34.9675 81.3968C35.0009 81.2963 35.0344 81.2294 35.0344 81.1289L34.7665 80.0235C34.7665 79.8225 34.7665 79.6215 34.8 79.387C34.8335 79.1526 34.867 78.9516 34.9005 78.7506C34.9675 78.5831 35.001 78.4156 35.0344 78.2147C35.0679 78.0137 35.1014 77.8462 35.1014 77.6452C35.1349 77.4442 35.1349 77.2767 35.1349 77.1093C35.1349 76.9418 35.1349 76.8078 35.1349 76.6738C35.2019 76.5733 35.2689 76.5063 35.3694 76.4393C35.4364 76.3723 35.5034 76.3053 35.5704 76.2383C35.6374 76.1714 35.6709 76.1044 35.7044 76.0039C35.7379 75.9034 35.7714 75.8029 35.8049 75.7024L36.3408 75.133L36.6088 74.999C36.6758 74.9655 36.7093 74.932 36.7428 74.865C36.8098 74.798 36.8433 74.6975 36.9103 74.597C36.9772 74.4965 37.0107 74.396 37.0777 74.329C37.1112 74.262 37.1782 74.1951 37.2452 74.1281C37.6137 73.8601 37.9821 73.5921 38.3506 73.3911C38.7191 73.1902 39.121 72.9222 39.5565 72.7212C39.59 72.7212 39.6235 72.6877 39.657 72.6877L39.7575 72.6542H39.8245C39.925 72.6542 39.9919 72.6207 40.0924 72.5872L40.2934 72.4867C40.3604 72.4532 40.4274 72.4197 40.4944 72.3862C40.5614 72.3527 40.6619 72.3527 40.7624 72.3527L41.2313 72.4197L41.3988 72.3527L41.7673 72.2523C42.0687 72.2188 42.3367 72.1853 42.6382 72.1853H43.5091C43.6766 72.1853 43.8106 72.2188 43.9781 72.2523C44.179 72.2857 44.4135 72.3527 44.648 72.3862C44.8825 72.4197 45.0834 72.4867 45.2844 72.5537C45.4184 72.5872 45.5524 72.6207 45.6864 72.6877C45.8874 72.8217 46.0548 72.9892 46.1888 73.1567C46.3228 73.3241 46.4903 73.4916 46.6913 73.6256C46.7918 73.6926 46.8923 73.7596 46.9927 73.8266L47.2942 73.9941C47.3947 74.0276 47.4952 74.0946 47.5957 74.1616C47.6962 74.2286 47.7967 74.2955 47.8972 74.3625C47.9307 74.396 47.9641 74.396 48.0311 74.4295C48.0646 74.463 48.1316 74.4965 48.1651 74.5635L48.3996 74.798L48.4666 75.0995C48.4666 75.1665 48.5001 75.2669 48.5671 75.3339C48.6341 75.4009 48.7011 75.4679 48.7681 75.5349L48.969 75.7359C49.036 75.8029 49.0695 75.8699 49.103 75.9369C49.17 76.0374 49.237 76.1379 49.2705 76.2383C49.3375 76.3723 49.4045 76.5063 49.4715 76.6403C49.5385 76.7743 49.6055 76.9083 49.639 77.0423C49.6725 77.1428 49.706 77.2767 49.7395 77.3772V77.9467C49.773 78.0472 49.773 78.1142 49.8065 78.2147C49.84 78.2816 49.8735 78.3486 49.907 78.4156C49.9405 78.4826 49.9404 78.5496 49.9739 78.6166C50.0074 78.7171 50.0074 78.7841 50.0074 78.8846V78.9516C50.0074 78.9851 50.0074 79.0186 49.9739 79.0521V79.1526C49.9739 79.1861 49.9739 79.2196 49.9739 79.2196L50.0744 79.4875L50.0409 79.923C50.0409 79.9565 50.0409 79.99 50.0409 80.057V80.2244C50.0409 80.4254 50.0409 80.5929 50.0074 80.7939C50.0074 80.8944 49.9739 80.9949 49.9404 81.0954C49.8735 81.2963 49.773 81.4973 49.706 81.6648C49.6055 81.8323 49.505 82.0333 49.4045 82.2008C49.304 82.3682 49.2035 82.5357 49.103 82.7367C49.0025 82.9377 48.9021 83.1387 48.8351 83.3396C48.8016 83.3731 48.7681 83.4066 48.7011 83.4401L48.5671 83.4736C48.5336 83.4736 48.5001 83.5071 48.4331 83.5406C48.3996 83.5741 48.3661 83.6076 48.3326 83.6411C48.3326 83.6746 48.2991 83.7081 48.2656 83.7751C48.2321 83.8421 48.2321 83.8756 48.1986 83.9426C48.1651 84.0096 48.1316 84.0766 48.0981 84.1436C48.0646 84.2105 48.0311 84.244 47.9976 84.2775L47.7967 84.4115C47.7297 84.4115 47.6962 84.445 47.6627 84.4785C47.6292 84.512 47.5957 84.5455 47.5957 84.6125L47.3947 84.847C47.2942 84.9475 47.2272 85.048 47.1267 85.182C47.0262 85.3159 46.9258 85.3829 46.8253 85.4834C46.7583 85.5504 46.6913 85.6174 46.5908 85.6844L46.4568 85.7514L46.3563 85.7849C46.3228 85.7849 46.3228 85.7849 46.2893 85.8184L45.1839 86.1868C45.1504 86.2203 45.1169 86.2538 45.0834 86.3208C45.0499 86.3543 45.0499 86.3543 45.0164 86.3878L44.9495 86.4213L44.8155 86.4548L44.179 86.5218L43.4756 86.8233L43.3081 86.8568H42.9731C42.8727 86.8568 42.8057 86.8568 42.7052 86.8233L42.0352 86.6893L41.7338 86.6223C41.5998 86.5888 41.4658 86.5553 41.3318 86.5553H40.7624C40.4944 86.5553 40.2599 86.5553 40.0254 86.5218C39.791 86.4883 39.5565 86.4548 39.3555 86.3543L39.2215 86.1534C39.1545 86.1199 39.054 86.1199 38.9536 86.1199C38.8531 86.1199 38.7526 86.0864 38.6521 86.0864C38.5516 86.0864 38.4511 86.0529 38.3506 86.0194C38.2836 85.9859 38.1831 85.9524 38.1496 85.8519C38.0491 85.7179 37.9822 85.6509 37.9152 85.5504C37.8482 85.4834 37.8147 85.3829 37.7477 85.3159C37.6807 85.2489 37.6137 85.1819 37.5132 85.1485C37.3792 85.0815 37.2787 85.0145 37.1447 84.9475L36.8433 84.8805C36.7428 84.847 36.6758 84.7465 36.6088 84.6795C36.5083 84.579 36.4413 84.4785 36.3743 84.3445C36.3073 84.2105 36.2068 84.0766 36.1398 83.9091C36.0393 83.7751 35.9724 83.6076 35.9054 83.4736C35.8384 83.3396 35.7714 83.2057 35.7379 83.1052L35.6039 82.8372C35.5704 82.7032 35.4699 82.6027 35.3694 82.5022L35.1014 82.3012C35.0344 82.2342 34.934 82.1338 34.9005 82.0333C34.9005 82.0333 34.867 81.8323 34.9005 81.6648ZM36.9772 79.454C36.9772 79.588 37.0107 79.6885 37.0442 79.8225C37.1112 79.9565 37.1447 80.057 37.2117 80.1575C37.2787 80.2579 37.3457 80.3584 37.3792 80.4589C37.4462 80.5594 37.4797 80.6934 37.4797 80.7939C37.5132 80.8274 37.5132 80.8609 37.5132 80.9279L37.4797 81.3968C37.4797 81.4638 37.4797 81.5308 37.5132 81.5978C37.5467 81.6648 37.5802 81.7653 37.6137 81.8323C37.6472 81.8993 37.6807 81.9328 37.7477 81.9998C37.7812 82.0333 37.8482 82.0668 37.8817 82.1003C37.9152 82.1338 37.9822 82.1673 38.0156 82.2008C38.0491 82.2677 38.0826 82.3347 38.1161 82.4017V82.8037C38.1161 82.9042 38.1161 83.0047 38.1831 83.0717C38.2166 83.1387 38.2501 83.2057 38.3171 83.2057C38.3841 83.2391 38.4511 83.2726 38.4846 83.3396C38.5516 83.5741 38.6521 83.7751 38.7861 83.9761C38.8866 84.1436 39.0205 84.311 39.188 84.445C39.4225 84.646 39.657 84.8135 39.8915 84.981C40.1259 85.1485 40.3939 85.3159 40.6284 85.4499C40.8964 85.5839 41.1643 85.7179 41.4323 85.7849C41.7338 85.8519 42.0352 85.8854 42.3367 85.8854C42.4037 85.8854 42.4707 85.8854 42.5712 85.8519L42.7387 85.8184L42.9062 85.7514C42.9731 85.7179 43.0401 85.7179 43.1406 85.6844L43.7771 85.5839C43.978 85.5504 44.2125 85.5169 44.4135 85.5169C44.5475 85.4164 44.715 85.3159 44.8825 85.2154C45.0499 85.115 45.2174 85.0145 45.3849 84.914C45.5524 84.8135 45.7199 84.713 45.8539 84.579C45.9878 84.445 46.1218 84.311 46.1888 84.1436L46.7248 83.0717C46.8253 83.0047 46.8923 82.9042 46.9258 82.8037C46.9592 82.7032 46.9927 82.5692 47.0262 82.4687C47.0597 82.3682 47.0932 82.2342 47.0932 82.1338C47.1267 82.0333 47.1602 81.9328 47.2607 81.8323L47.4617 80.4589C47.4617 80.3584 47.4617 80.2579 47.4282 80.1575C47.3947 80.057 47.3947 79.923 47.3947 79.8225L47.5287 79.4875C47.5287 79.3535 47.4952 79.2195 47.4617 79.1191C47.4282 78.9851 47.3612 78.8176 47.2942 78.6501C47.2272 78.4826 47.1602 78.3486 47.0932 78.1812L46.8923 77.8127L46.7918 77.6452L46.8253 77.3772C46.8253 77.2767 46.8253 77.2098 46.7918 77.1093C46.7583 77.0423 46.7248 76.9753 46.6913 76.9083L46.5573 76.7073C46.5238 76.6403 46.4903 76.5733 46.4903 76.5063L46.3898 76.0374C46.2893 75.8029 46.1888 75.5684 46.0213 75.4009C45.8204 75.133 45.6194 74.8985 45.3849 74.664C45.1839 74.4295 44.916 74.2286 44.6815 74.0276C44.514 73.8936 44.313 73.7596 44.0785 73.6926C43.9446 73.6591 43.8106 73.6256 43.6766 73.6256H43.2746L43.0066 73.3241C42.9397 73.2906 42.8392 73.2572 42.7722 73.2237L42.4037 73.1232C42.2697 73.0897 42.1357 73.0562 42.0352 73.0227C41.9348 72.9892 41.8343 72.9892 41.7338 72.9892C41.5663 72.9892 41.3988 73.0227 41.2313 73.0227C41.0303 73.0562 40.7959 73.0897 40.5949 73.1567C40.3939 73.1902 40.1929 73.2571 39.9919 73.3576C39.8245 73.4246 39.6905 73.5251 39.59 73.6256L39.5565 73.7931C39.4895 73.8266 39.456 73.8601 39.389 73.8936C39.322 73.9271 39.2885 73.9271 39.2215 73.9606C39.1545 73.9941 39.121 74.0276 39.0875 74.0611C39.054 74.1281 39.0205 74.1951 38.987 74.262C38.8866 74.2955 38.7861 74.329 38.6856 74.3625C38.6521 74.396 38.5851 74.4295 38.5516 74.463L38.4846 74.597C38.4511 74.664 38.3841 74.731 38.3171 74.798C38.0491 74.9655 37.8482 75.2 37.6807 75.4679C37.5132 75.7359 37.4127 76.0374 37.3122 76.3388C37.2452 76.6738 37.1782 76.9753 37.1447 77.3102C37.1112 77.6452 37.1112 77.9467 37.1112 78.2482L37.1447 78.9516C37.1447 79.0186 37.1112 79.0856 37.0777 79.1526C37.0107 79.2865 36.9772 79.3535 36.9772 79.454Z" fill="white"/>
<path d="M61.5303 74.6975L61.0613 74.1951C60.9273 74.0611 60.7599 73.9606 60.5924 73.8266C60.4584 73.7261 60.3244 73.6591 60.1569 73.5921C60.0229 73.5251 59.889 73.4916 59.7215 73.4916C59.554 73.4581 59.42 73.4581 59.2525 73.4581C59.219 73.4581 59.1855 73.4581 59.152 73.4916H58.4821C58.4486 73.4916 58.4151 73.4916 58.3481 73.4916H57.5777C57.4772 73.5251 57.3432 73.5586 57.2427 73.5586H56.3383C56.2378 73.5586 56.1373 73.5921 56.0368 73.6256C55.9698 73.6591 55.9029 73.6926 55.9029 73.7261C55.9029 73.7596 55.8694 73.7931 55.8694 73.8266C55.8694 73.9271 55.8694 74.0276 55.8024 74.1281C55.7354 74.1951 55.6684 74.262 55.5679 74.329C55.5344 74.329 55.5344 74.3625 55.5344 74.4295C55.5344 74.4965 55.5009 74.53 55.5009 74.597C55.5009 74.664 55.4674 74.731 55.4674 74.798V74.9655C55.4674 75.0995 55.5009 75.2669 55.5344 75.4009C55.5679 75.5349 55.6014 75.7024 55.6014 75.8699L55.5009 76.5063C55.5009 76.6738 55.5344 76.8078 55.6014 76.9753C55.6684 77.1428 55.7019 77.3102 55.7019 77.4777L55.5344 78.9516C55.5344 79.0186 55.5679 79.0856 55.6014 79.1526C55.6349 79.2196 55.6684 79.2865 55.7354 79.32C55.9363 79.3535 56.1373 79.387 56.3718 79.4205C56.5728 79.454 56.7738 79.4875 57.0082 79.4875C57.0417 79.4875 57.0752 79.4875 57.1422 79.4875C57.1757 79.4875 57.2092 79.454 57.2427 79.3535L57.5107 79.32H58.4486C58.6496 79.32 58.8506 79.32 59.0515 79.2865C59.219 79.2865 59.42 79.253 59.5875 79.2196C59.7215 79.1861 59.8555 79.1526 59.9894 79.0521C60.0899 78.9851 60.1569 78.9181 60.1904 78.7841C60.2574 78.6836 60.2909 78.5496 60.2909 78.4156C60.3244 78.2816 60.3244 78.1477 60.3579 78.0137C60.3914 77.8797 60.3914 77.7792 60.4584 77.6787C60.4919 77.5782 60.5589 77.4777 60.6259 77.4107C60.6929 77.3437 60.8269 77.3102 60.9273 77.3102C60.9608 77.3102 60.9943 77.3102 61.0278 77.3437C61.0613 77.3437 61.0948 77.4107 61.1283 77.4777V77.8797C61.1283 78.1812 61.0948 78.4826 61.0278 78.7841C60.9943 79.0186 60.9608 79.2196 60.9273 79.4205C60.8938 79.6215 60.8939 79.789 60.8939 79.99C60.8939 80.1575 60.9273 80.3249 60.9608 80.4589C60.9943 80.6264 61.0613 80.7604 61.1283 80.9279C61.1953 81.0619 61.2288 81.2293 61.2958 81.3633C61.3293 81.4973 61.3628 81.6648 61.3628 81.8323V82.0668C61.3628 82.1003 61.3628 82.1338 61.3293 82.1673L61.2623 82.3012C61.2623 82.3347 61.2288 82.3347 61.1618 82.3347C61.0613 82.3347 60.9943 82.3012 60.9273 82.2342C60.8604 82.1673 60.7934 82.1003 60.7264 81.9998L60.5924 81.6983L60.3914 81.2293C60.3244 81.0954 60.2574 80.9614 60.1569 80.8274C60.0564 80.6934 59.9559 80.5594 59.8555 80.4589C59.7215 80.3249 59.5875 80.2244 59.42 80.1575H58.2476C58.0466 80.1575 57.8122 80.124 57.6112 80.0905L57.0082 79.99C56.8073 79.99 56.6398 80.0235 56.4388 80.0905C56.2378 80.1575 56.0703 80.1909 55.8694 80.1909L55.6684 80.4589C55.6014 80.5594 55.5679 80.6599 55.5344 80.7939C55.6349 81.2963 55.7354 81.7653 55.8024 82.2342C55.8694 82.7032 55.9029 83.1722 55.9029 83.6411C55.9029 83.7751 55.9029 83.9426 55.8694 84.0766C55.8694 84.1436 55.8359 84.2105 55.8359 84.2775C55.8694 84.4115 55.9698 84.579 56.0703 84.713C56.1708 84.847 56.2713 84.9475 56.4053 85.048C56.5393 85.1484 56.6733 85.2489 56.8073 85.3159C56.9412 85.3829 57.0752 85.4499 57.2092 85.5169C57.2092 85.5169 57.2427 85.5504 57.2762 85.5839C57.3097 85.6174 57.3432 85.6509 57.3432 85.6509C57.4102 85.6844 57.4772 85.6844 57.5107 85.6844H57.8122C57.8457 85.6844 57.9127 85.6844 57.9461 85.6509H58.3481C58.3816 85.6509 58.4486 85.6509 58.4821 85.6509C58.5156 85.6509 58.5826 85.6844 58.6161 85.6844H58.7166C58.7501 85.7179 58.7836 85.7514 58.8506 85.7849C58.9175 85.8184 58.951 85.8519 58.9845 85.9189C59.018 85.9524 59.0515 86.0194 59.085 86.0529C59.1185 86.1199 59.1185 86.1868 59.1185 86.2203C59.1185 86.2873 59.085 86.3878 59.085 86.4548C59.0515 86.5218 59.018 86.6223 58.951 86.6558C58.8841 86.7228 58.8506 86.7898 58.7501 86.8233C58.6831 86.8568 58.6161 86.8903 58.5491 86.8903H58.5156C58.4486 86.8903 58.3481 86.9238 58.2811 86.9238H57.7787C57.7117 86.9238 57.5777 86.9238 57.4437 86.8903L57.2427 86.8568C57.1087 86.7898 57.0082 86.7228 56.8743 86.6893C56.7403 86.6558 56.5728 86.5888 56.4388 86.5553C56.3048 86.5218 56.1373 86.4883 56.0033 86.4883C55.8694 86.4883 55.7354 86.4548 55.6014 86.4548H55.2329C55.0989 86.4883 54.9649 86.4883 54.831 86.5218C54.6635 86.5553 54.5295 86.5553 54.362 86.5888C54.1945 86.5888 54.0605 86.5888 53.8931 86.5888C53.7256 86.5888 53.5581 86.5888 53.4241 86.5888C53.2566 86.5888 53.0891 86.5553 52.9551 86.5218C52.8547 86.5553 52.7877 86.5888 52.7207 86.6558C52.6537 86.7228 52.5532 86.7563 52.4527 86.7898L52.3187 86.7563C52.2852 86.7563 52.2517 86.7563 52.1847 86.7563C52.1512 86.7563 52.0842 86.7898 52.0507 86.7898H51.6823C51.5483 86.7563 51.4143 86.6893 51.3138 86.6223C51.2133 86.5553 51.1128 86.4548 51.1128 86.3208C51.1128 86.0864 51.2468 85.8854 51.4478 85.7849C51.6488 85.7514 51.8498 85.7179 52.0507 85.6509C52.3187 85.5839 52.5532 85.4834 52.7877 85.3494C53.0221 85.2489 53.2231 85.0815 53.4241 84.914C53.5916 84.78 53.6921 84.579 53.6921 84.378C53.6921 84.0431 53.6921 83.7416 53.6586 83.4736C53.6251 83.2056 53.6251 82.9712 53.5916 82.7367C53.5581 82.5022 53.5581 82.2342 53.5246 81.9998C53.5246 81.7318 53.4911 81.4303 53.4911 81.0619C53.4911 80.9614 53.4911 80.8274 53.5246 80.7269L53.5916 80.3919C53.6251 80.2914 53.6251 80.1575 53.6586 80.057C53.6921 79.9565 53.6921 79.8225 53.6921 79.722C53.6921 79.6885 53.6921 79.655 53.6921 79.655C53.6921 79.6215 53.6921 79.588 53.6921 79.5545C53.6921 79.521 53.6921 79.454 53.6921 79.4205L53.5581 78.9851V78.2147C53.5581 78.1142 53.5581 77.9802 53.5246 77.8797C53.4911 77.7792 53.4576 77.6452 53.4576 77.5447C53.4241 77.4442 53.3906 77.3102 53.3906 77.2097C53.3571 77.1093 53.3571 76.9753 53.3571 76.8748C53.3571 76.8413 53.3571 76.7743 53.3571 76.7408C53.3571 76.7073 53.3906 76.6403 53.3906 76.6068C53.4241 76.4728 53.4241 76.3388 53.4576 76.2048C53.4911 76.0709 53.4911 75.9369 53.4911 75.8029C53.4911 75.6689 53.4911 75.5349 53.4576 75.4009C53.4576 75.2669 53.4241 75.133 53.3906 74.999C53.3906 74.865 53.3571 74.7645 53.3236 74.664C53.2566 74.53 53.1896 74.4295 53.0891 74.329C52.9886 74.2286 52.8882 74.1281 52.7877 74.0611C52.6872 73.9941 52.5867 73.9271 52.4862 73.8936C52.3187 73.8266 52.1512 73.8266 52.0172 73.7931C51.8163 73.7931 51.6153 73.7596 51.4143 73.7261C51.2133 73.6926 51.0458 73.6256 50.8784 73.5251C50.7109 73.4246 50.6439 73.2571 50.6439 73.0897V72.9557C50.7779 72.8887 50.9119 72.8217 51.0458 72.7547C51.1798 72.6877 51.3138 72.6542 51.4478 72.6542H51.6823C51.7828 72.6542 51.8498 72.6542 51.9502 72.6877C52.0507 72.7212 52.1177 72.7547 52.1847 72.8217C52.2852 72.8552 52.4192 72.8552 52.5197 72.8552C52.6202 72.8552 52.7542 72.8887 52.8547 72.8887C52.9551 72.8887 53.0891 72.8887 53.1896 72.8552C53.3236 72.8552 53.4241 72.8217 53.5581 72.8217C53.5916 72.7882 53.5916 72.7547 53.6251 72.7212C53.6586 72.7212 53.6921 72.7212 53.7256 72.7212C53.8596 72.7212 53.9935 72.7547 54.1275 72.7882C54.2615 72.8552 54.429 72.8552 54.5965 72.8552H55.0319C55.1324 72.8552 55.1994 72.8217 55.2999 72.7882C55.5679 72.8217 55.8359 72.8552 56.0703 72.8552C56.3383 72.8552 56.6063 72.8217 56.8743 72.7882C57.1087 72.6877 57.3767 72.6542 57.6447 72.6542C57.9126 72.6542 58.2141 72.6542 58.5156 72.6207L58.951 72.5872H59.6545L59.9894 72.6207C60.0229 72.6542 60.0564 72.6542 60.0899 72.6877L60.2239 72.7882C60.2574 72.8217 60.2909 72.8552 60.3579 72.8887C60.3914 72.9222 60.4249 72.9222 60.4584 72.9222C60.5254 72.9222 60.5589 72.9222 60.6259 72.8887L60.7934 72.8217C60.8939 72.7882 61.0278 72.7882 61.1283 72.7547H61.4633C61.6643 72.7547 61.8653 72.7882 62.0662 72.8217C62.0662 72.8217 62.0997 72.8552 62.1667 72.8887L62.5017 73.1567L62.5687 73.2237V74.6305C62.7027 74.932 62.7697 75.2669 62.7697 75.6019V75.8364C62.7697 75.9034 62.7362 76.0039 62.7362 76.0709C62.7027 76.1379 62.6692 76.2049 62.6357 76.2383C62.5687 76.2718 62.5017 76.3053 62.4012 76.3053C62.3677 76.2718 62.3007 76.2048 62.2672 76.1379L61.9322 75.7359C61.8988 75.6689 61.8318 75.6019 61.7983 75.5684C61.7983 75.5349 61.7648 75.5014 61.7648 75.4679C61.7313 75.4009 61.6978 75.3339 61.6643 75.2669L61.5638 75.066C61.5303 75.0325 61.5303 74.999 61.4968 74.932C61.4633 74.8985 61.4633 74.8315 61.4633 74.7645C61.5638 74.7645 61.5303 74.6975 61.5303 74.6975Z" fill="white"/>
<path d="M74.393 74.6975L73.924 74.1951C73.7901 74.0611 73.6226 73.9606 73.4551 73.8266C73.3211 73.7261 73.1871 73.6591 73.0196 73.5921C72.8857 73.5251 72.7517 73.4916 72.5842 73.4916C72.4167 73.4581 72.2827 73.4581 72.1152 73.4581C72.0817 73.4581 72.0482 73.4581 72.0147 73.4916H71.3783C71.3448 73.4916 71.2778 73.4916 71.2443 73.4916H70.4739C70.3734 73.5251 70.2394 73.5586 70.1389 73.5586H69.2345C69.134 73.5586 69.0335 73.5921 68.933 73.6256C68.8661 73.6591 68.8326 73.6926 68.7991 73.7261C68.7991 73.7596 68.7656 73.7931 68.7656 73.8266C68.7656 73.9271 68.7656 74.0276 68.6986 74.1281C68.6316 74.1951 68.5646 74.2955 68.4641 74.329C68.4306 74.329 68.4306 74.3625 68.4306 74.4295C68.4306 74.4965 68.3971 74.53 68.3971 74.597C68.3971 74.664 68.3636 74.731 68.3636 74.798V74.9655C68.3636 75.0995 68.3971 75.2669 68.4306 75.4009C68.4641 75.5349 68.4976 75.7024 68.4976 75.8699L68.3971 76.5063C68.3971 76.6738 68.4306 76.8078 68.4976 76.9753C68.5646 77.1428 68.5981 77.3102 68.5981 77.4777L68.4306 78.9516C68.4306 79.0186 68.4641 79.0856 68.4976 79.1526C68.5646 79.2196 68.5981 79.2865 68.6316 79.32C68.8326 79.3535 69.0335 79.387 69.268 79.4205C69.469 79.454 69.67 79.4875 69.9044 79.4875C69.9379 79.4875 70.0049 79.4875 70.0384 79.4875C70.0719 79.4875 70.1054 79.454 70.1389 79.3535L70.4069 79.32H71.3448C71.5458 79.32 71.7468 79.32 71.9477 79.2865C72.1152 79.2865 72.3162 79.253 72.4837 79.2196C72.6177 79.1861 72.7517 79.1526 72.8856 79.0521C72.9861 78.9851 73.0531 78.8846 73.0866 78.7841C73.1536 78.6836 73.1871 78.5496 73.1871 78.4156C73.2206 78.2816 73.2206 78.1477 73.2541 78.0137C73.2876 77.8797 73.2876 77.7792 73.3211 77.6452C73.3546 77.5447 73.4216 77.4442 73.4886 77.3772C73.5556 77.3102 73.6896 77.2767 73.7901 77.2767C73.8236 77.2767 73.8571 77.2767 73.8905 77.3102C73.924 77.3102 73.9575 77.3772 73.991 77.4442V77.8462C73.991 78.1477 73.9575 78.4491 73.8905 78.7506C73.8571 78.9851 73.8236 79.1861 73.7901 79.387C73.7566 79.588 73.7566 79.7555 73.7566 79.9565C73.7566 80.124 73.7901 80.2914 73.8236 80.4254C73.8571 80.5929 73.924 80.7269 73.991 80.8944C74.058 81.0284 74.0915 81.1959 74.1585 81.3298C74.192 81.4638 74.2255 81.6313 74.2255 81.7988V82.0333C74.2255 82.0668 74.192 82.1003 74.192 82.1338C74.1585 82.2008 74.125 82.2342 74.125 82.2677C74.125 82.3012 74.0915 82.3012 74.0245 82.3012C73.924 82.3012 73.8571 82.2677 73.7901 82.2007C73.7231 82.1338 73.6896 82.0333 73.6226 81.9663L73.4886 81.6648C73.4216 81.4973 73.3546 81.3633 73.2876 81.1958C73.2206 81.0619 73.1536 80.9279 73.0531 80.7939C72.9526 80.6599 72.8522 80.5259 72.7517 80.4254C72.6177 80.2914 72.4837 80.1909 72.3162 80.124H71.1438C70.9428 80.124 70.7084 80.0905 70.5074 80.057L69.9044 79.9565C69.7035 79.9565 69.536 79.99 69.335 80.057C69.134 80.124 68.9665 80.1575 68.7656 80.1575C68.6986 80.2244 68.6316 80.3249 68.5646 80.4254C68.4976 80.5259 68.4306 80.6264 68.4306 80.7604C68.5311 81.2628 68.6316 81.7318 68.6986 82.2007C68.7656 82.6697 68.7991 83.1387 68.7991 83.6076C68.7991 83.7416 68.7991 83.9091 68.7991 84.0431C68.7991 84.1101 68.7656 84.177 68.7656 84.244C68.7991 84.378 68.8995 84.5455 69 84.6795C69.1005 84.8135 69.201 84.914 69.335 85.0145C69.469 85.115 69.603 85.2154 69.737 85.2824C69.8709 85.3494 70.0049 85.4164 70.1389 85.4834C70.1389 85.4834 70.1724 85.5169 70.2059 85.5504C70.2394 85.5839 70.2729 85.6174 70.2729 85.6174C70.3399 85.6509 70.4069 85.6509 70.4404 85.6509H70.7419C70.7754 85.6509 70.8089 85.6509 70.8758 85.6174H71.2778C71.3113 85.6174 71.3783 85.6174 71.4118 85.6174C71.4453 85.6174 71.5123 85.6509 71.5458 85.6509H71.6798C71.7133 85.6844 71.7468 85.7179 71.8138 85.7514C71.8472 85.7849 71.9142 85.8184 71.9477 85.8854C71.9812 85.9189 72.0147 85.9859 72.0482 86.0194C72.0817 86.0864 72.0817 86.1533 72.0817 86.1868C72.0817 86.2538 72.0482 86.3543 72.0482 86.4213C72.0147 86.4883 71.9812 86.5888 71.9142 86.6223C71.8807 86.6893 71.8138 86.7563 71.7468 86.7898C71.6798 86.8233 71.6128 86.8568 71.5458 86.8568H71.5793C71.5123 86.8568 71.4118 86.8903 71.3448 86.8903H70.8424C70.7754 86.8903 70.6414 86.8903 70.5074 86.8568L70.3064 86.8233C70.1724 86.7563 70.0719 86.6893 69.9379 86.6558C69.804 86.6223 69.6365 86.5553 69.5025 86.5218C69.3685 86.4883 69.201 86.4548 69.067 86.4548C68.933 86.4548 68.7991 86.4213 68.6651 86.4213H68.2966C68.1626 86.4213 68.0286 86.4548 67.8946 86.4883C67.7272 86.5218 67.5932 86.5218 67.4257 86.5553C67.2582 86.5553 67.0907 86.5553 66.9567 86.5553C66.8228 86.5553 66.6218 86.5553 66.4878 86.5553C66.3203 86.5553 66.1528 86.5218 66.0188 86.4883C65.9518 86.5218 65.8514 86.5553 65.7844 86.6223C65.7174 86.6893 65.6169 86.7228 65.5164 86.7563L65.3824 86.7228C65.3489 86.7228 65.3154 86.7228 65.2484 86.7228C65.2149 86.7228 65.1479 86.7563 65.1144 86.7563H64.746C64.612 86.7228 64.478 86.6558 64.3775 86.5888C64.277 86.5218 64.21 86.4213 64.1765 86.2873C64.1765 86.0529 64.3105 85.8519 64.5115 85.7514C64.7125 85.7179 64.9134 85.6844 65.1144 85.6174C65.3824 85.5504 65.6169 85.4499 65.8513 85.3159C66.0858 85.2154 66.2868 85.048 66.4543 84.8805C66.6218 84.7465 66.7223 84.5455 66.7223 84.3445C66.7223 84.0096 66.7223 83.7081 66.6888 83.4401C66.6553 83.1722 66.6553 82.9377 66.6218 82.7032C66.5883 82.4687 66.5883 82.2007 66.5548 81.9663C66.5548 81.6983 66.5213 81.3968 66.5213 81.0284C66.5213 80.9279 66.5213 80.7939 66.5548 80.6934L66.6888 80.0235C66.7223 79.923 66.7223 79.789 66.7223 79.6885V79.6215C66.7223 79.588 66.7223 79.5545 66.7223 79.521C66.7223 79.4875 66.7223 79.4205 66.7223 79.387L66.5883 78.9516V78.1812C66.5883 78.0807 66.5883 77.9467 66.5548 77.8462C66.5213 77.7457 66.4878 77.6117 66.4878 77.5112C66.4543 77.4107 66.4208 77.2767 66.4208 77.1763C66.3873 77.0758 66.3873 76.9418 66.3873 76.8413C66.3873 76.8078 66.3873 76.7408 66.3873 76.7073C66.3873 76.6738 66.4208 76.6068 66.4208 76.5733C66.4543 76.4393 66.4543 76.3053 66.4878 76.1714C66.5213 76.0374 66.5213 75.9034 66.5213 75.7694C66.5213 75.6354 66.5213 75.5014 66.4878 75.3674C66.4878 75.2334 66.4543 75.0995 66.4208 74.9655C66.4208 74.8315 66.3873 74.731 66.3538 74.6305C66.2868 74.4965 66.2198 74.396 66.1528 74.2955C66.0523 74.1951 65.9518 74.0946 65.8513 74.0276C65.7509 73.9606 65.6504 73.8936 65.5499 73.8601C65.3824 73.7931 65.2149 73.7931 65.0809 73.7596C64.88 73.7596 64.679 73.7261 64.478 73.6926C64.277 73.6591 64.1095 73.5921 63.942 73.4916C63.8081 73.3911 63.7076 73.2237 63.7076 73.0562V72.9222C63.8416 72.8552 63.9755 72.7882 64.1095 72.7212C64.2435 72.6542 64.3775 72.6207 64.5115 72.6207H64.746C64.8465 72.6207 64.9134 72.6207 65.0139 72.6542C65.1144 72.6877 65.1814 72.7212 65.2484 72.7882L65.5834 72.8217C65.6839 72.8217 65.8179 72.8552 65.9184 72.8552C66.0188 72.8552 66.1528 72.8552 66.2533 72.8217C66.3873 72.8217 66.4878 72.7882 66.6218 72.7882C66.6553 72.7547 66.6553 72.7212 66.6888 72.6877C66.7223 72.6877 66.7558 72.6877 66.7893 72.6877C66.9232 72.6877 67.0572 72.7212 67.1912 72.7547C67.3252 72.8217 67.4927 72.8217 67.6602 72.8217H68.0956C68.1961 72.8217 68.2631 72.7882 68.3636 72.7547C68.6316 72.7882 68.8661 72.8217 69.134 72.8217C69.402 72.8217 69.67 72.7882 69.9379 72.7547C70.1724 72.6877 70.4404 72.6207 70.7084 72.6207C70.9763 72.6207 71.2778 72.6207 71.5793 72.5872L72.0147 72.5537H72.7182L73.0531 72.5872C73.0866 72.6207 73.1201 72.6207 73.1536 72.6542C73.1871 72.6877 73.2541 72.7212 73.2876 72.7547C73.3211 72.7882 73.3546 72.8217 73.4216 72.8552C73.4551 72.8887 73.4886 72.8887 73.5221 72.8887C73.5891 72.8887 73.6226 72.8887 73.6896 72.8552L73.857 72.7882C73.9575 72.7547 74.0915 72.7547 74.192 72.7212H74.527C74.728 72.7212 74.9289 72.7547 75.1299 72.7882C75.1299 72.7882 75.1634 72.8217 75.2304 72.8552C75.2639 72.8887 75.3309 72.9557 75.3979 72.9892L75.5654 73.1232C75.5989 73.1567 75.6324 73.1567 75.6324 73.1902V74.6305C75.7664 74.932 75.8334 75.2669 75.8334 75.6019V75.8364C75.8334 75.9034 75.7999 76.0039 75.7999 76.0709C75.7664 76.1379 75.7329 76.2049 75.6994 76.2383C75.6324 76.2718 75.5654 76.3053 75.4984 76.3053L75.3644 76.1379L75.0294 75.7359C74.9959 75.6689 74.9289 75.6019 74.8954 75.5684C74.8954 75.5349 74.862 75.5014 74.862 75.4679C74.8285 75.4009 74.795 75.3339 74.7615 75.2669L74.661 75.066C74.6275 75.0325 74.6275 74.999 74.594 74.932C74.5605 74.8985 74.5605 74.8315 74.5605 74.7645C74.393 74.7645 74.393 74.6975 74.393 74.6975Z" fill="white"/>
<path d="M15.9079 59.2221C15.9079 59.1216 15.9749 58.9541 16.0753 58.6861C16.1758 58.4181 16.2763 58.1837 16.3433 58.0162C16.4103 57.9157 16.5108 57.8152 16.7118 57.6812C16.8793 57.5472 17.0802 57.4467 17.2812 57.3127C17.4822 57.1788 17.6832 57.0783 17.9177 56.9778C18.1186 56.8773 18.2526 56.7768 18.3531 56.6763C18.6211 56.4418 18.8891 56.2409 19.1905 56.0734C19.492 55.9059 19.76 55.7049 20.0614 55.5374C20.3629 55.3364 20.6644 55.169 20.9324 54.968C21.2338 54.767 21.5018 54.5325 21.7363 54.2646C22.2052 53.7956 22.7412 53.2597 23.2436 52.5897C23.7796 51.9198 24.2485 51.2164 24.684 50.4794C25.1194 49.709 25.4879 48.9386 25.7559 48.1347C26.0238 47.3307 26.1913 46.5603 26.1913 45.8234C26.1913 45.4549 26.1243 45.12 25.9569 44.785C25.7894 44.45 25.5884 44.1486 25.3204 43.8806C25.0525 43.6126 24.751 43.4116 24.416 43.2442C24.081 43.0767 23.7126 42.9762 23.3441 42.9762L22.4397 43.3112H21.6693C21.5353 43.3112 21.3678 43.3111 21.2338 43.3446C21.0663 43.3781 20.9324 43.4786 20.7984 43.6796C20.5639 43.8806 20.3629 44.1151 20.1619 44.4165C19.961 44.718 19.7935 45.0195 19.5925 45.3209C19.3915 45.6224 19.1905 45.8569 18.9561 46.0579C18.7216 46.2589 18.4201 46.3928 18.0851 46.3928C17.9177 46.3928 17.7502 46.3928 17.5827 46.3593C17.4152 46.3258 17.2812 46.2589 17.1472 46.0914V45.3544C17.1472 44.8855 17.1807 44.5505 17.2477 44.3495C17.3147 44.1151 17.4152 43.9476 17.5492 43.8136C17.6832 43.6796 17.8172 43.5456 17.9847 43.4116C18.1521 43.2777 18.3196 43.0767 18.5206 42.7752L18.8556 42.3397C19.224 41.8373 19.5925 41.3349 19.9945 40.8994C20.3964 40.4304 20.8989 40.0955 21.5353 39.8945L23.3106 39.6265L24.4495 39.3586C24.818 39.3586 25.2534 39.392 25.7894 39.459C26.2918 39.526 26.8278 39.6265 27.3302 39.794C27.8662 39.9615 28.3351 40.1625 28.8041 40.3969C29.273 40.6314 29.6415 40.9664 29.943 41.3349C30.0434 41.5023 30.1439 41.6698 30.2109 41.8373C30.2779 42.0383 30.3449 42.1388 30.4119 42.1388L31.1488 43.4451V46.3593C31.1488 46.6943 31.0483 46.9623 30.8474 47.2303C30.6464 47.4982 30.4454 47.7327 30.2779 47.9672C30.2779 48.0007 30.2444 48.0342 30.2444 48.0677C30.2444 48.1347 30.2109 48.2017 30.1439 48.3356C30.1104 48.4696 30.0434 48.6706 29.943 48.9051C29.876 49.1396 29.742 49.441 29.608 49.8095C29.608 49.843 29.5745 49.8765 29.5745 49.8765C29.541 49.91 29.5075 49.9435 29.5075 49.9435C29.34 50.0775 29.206 50.178 29.139 50.3119C29.072 50.4459 29.0051 50.5799 28.9381 50.7474C28.8711 50.8814 28.8376 51.0489 28.7706 51.1829C28.7036 51.3168 28.6031 51.4508 28.4691 51.5848C28.3016 51.7523 28.1341 51.8528 27.9667 51.9198C27.7992 51.9868 27.6652 52.0538 27.4977 52.0873C27.3302 52.1208 27.1627 52.1543 26.9953 52.1878C26.8278 52.2213 26.6603 52.2882 26.5263 52.3887C26.5263 52.3887 26.4593 52.4222 26.3588 52.5227C26.2583 52.6232 26.1578 52.7237 26.0239 52.8577C25.9234 52.9917 25.7894 53.0922 25.6889 53.1927C25.5884 53.2932 25.5214 53.3601 25.4879 53.3601C25.4879 53.3601 25.3874 53.3936 25.2869 53.4941C25.1529 53.5946 25.019 53.6951 24.885 53.7956C24.751 53.8961 24.617 54.0301 24.483 54.1306C24.349 54.2311 24.282 54.298 24.282 54.298C24.215 54.365 24.081 54.4655 23.9471 54.633C23.8131 54.8005 23.6791 54.9345 23.5451 55.102C23.4111 55.2695 23.3106 55.4369 23.2101 55.6044C23.1096 55.7719 23.0761 55.9059 23.0761 55.9729C23.0761 56.0734 23.1096 56.1069 23.2101 56.1069H23.9471C24.349 56.1069 24.7175 56.1404 25.0859 56.1739C25.4209 56.2074 25.7559 56.3078 26.0573 56.4753H27.2632C28.1006 56.4753 28.9381 56.4083 29.7755 56.2743C30.6129 56.1404 31.4168 55.8724 32.1537 55.5039C32.2877 55.4034 32.3882 55.3029 32.3882 55.2025C32.3882 55.0685 32.4552 54.968 32.4887 54.834C32.7232 54.5325 32.9912 54.298 33.2926 54.0636C33.6276 53.8291 33.9626 53.6281 34.264 53.4606L34.599 54.767C34.599 55.0685 34.532 55.3364 34.4315 55.6379C34.2975 55.9394 34.1635 56.2409 33.9961 56.5758C33.9626 56.7098 33.8956 56.9108 33.8621 57.2123C33.8286 57.5137 33.7616 57.8487 33.6611 58.1502C33.5606 58.4851 33.4266 58.7531 33.2926 59.0211C33.1251 59.289 32.9242 59.3895 32.6897 59.3895L32.2877 59.4565C31.6848 59.557 31.0818 59.624 30.5124 59.7245C29.943 59.825 29.34 59.892 28.7371 59.892C28.5361 59.892 28.3686 59.8585 28.2011 59.7915C28.0337 59.7245 27.8327 59.6575 27.6652 59.557C27.4977 59.4565 27.3302 59.3895 27.1627 59.3225C26.9953 59.2556 26.8278 59.2221 26.6603 59.2221C26.3253 59.2221 25.9569 59.2556 25.5549 59.289C25.1529 59.356 24.818 59.3895 24.55 59.4565C24.483 59.4565 24.3825 59.49 24.2485 59.5905C24.1145 59.691 24.0141 59.758 23.9471 59.8585L21.8033 59.1886C21.6023 59.1886 21.4348 59.2556 21.2673 59.356C21.0998 59.49 20.8989 59.557 20.6644 59.5905C20.3629 59.624 20.0949 59.6575 19.827 59.691C19.559 59.7245 19.291 59.758 19.0231 59.758C18.7551 59.7915 18.4536 59.7915 18.1856 59.825C17.8842 59.825 17.5827 59.8585 17.2142 59.8585C16.9463 59.8585 16.6783 59.825 16.4103 59.7245C16.1423 59.624 15.9749 59.4565 15.9749 59.1551V59.2221H15.9079Z" fill="white"/>
<path d="M40.2264 54.9345C39.7575 53.9296 39.4225 53.1257 39.2215 52.4892C38.9871 51.8528 38.8866 51.2834 38.8866 50.7474C38.8866 49.5415 38.9536 48.4026 39.054 47.3642C39.1545 46.3258 39.456 45.4214 39.9585 44.584L41.5663 41.7703C41.7338 41.5358 42.0352 41.2344 42.4372 40.8994C42.8392 40.5644 43.3081 40.2295 43.7771 39.8945C44.246 39.593 44.7485 39.3251 45.2174 39.0906C45.6864 38.8561 46.0883 38.7556 46.3563 38.7556C46.6243 38.8561 46.8253 38.8896 46.9928 38.9231C47.1602 38.9566 47.2942 38.9901 47.3947 38.9901C47.5287 38.9901 47.6292 38.9566 47.6962 38.9231C47.7632 38.8561 47.8302 38.8226 47.8972 38.7556H49.0695C49.639 38.7556 50.1414 38.8226 50.5769 38.9566C51.0123 39.0906 51.4813 39.392 51.9837 39.8275L53.4911 41.4353L54.3955 41.9043C54.697 42.1388 54.9315 42.3732 55.0319 42.7082C55.1324 43.0432 55.2329 43.3446 55.2999 43.6796C55.3669 44.0146 55.4339 44.3495 55.5009 44.6845C55.5679 45.0195 55.7019 45.321 55.9029 45.5554C56.0703 45.8234 56.2378 45.9909 56.3383 46.0914C56.4723 46.1919 56.5728 46.2924 56.6733 46.4263C56.7738 46.5268 56.8743 46.6608 56.9412 46.7948C57.0082 46.9623 57.0752 47.1968 57.1422 47.4982C57.1422 47.6322 57.1422 47.8332 57.1757 48.0677C57.1757 48.3022 57.2092 48.5701 57.2092 48.8716C57.2092 49.1731 57.2427 49.4745 57.2427 49.776C57.2427 50.0775 57.2427 50.3454 57.2427 50.6134C57.2427 50.7474 57.2092 50.9484 57.1422 51.2499C57.0752 51.5178 56.9747 51.8193 56.9078 52.0873C56.8073 52.3887 56.7403 52.6232 56.6398 52.8577C56.5393 53.0922 56.5058 53.2262 56.4723 53.2262C56.4388 53.4271 56.3383 53.6616 56.1708 54.0301C56.0368 54.365 55.8694 54.7 55.7019 55.0685C55.5344 55.4034 55.3669 55.7384 55.2329 56.0399C55.0654 56.3413 54.9649 56.5423 54.8645 56.6763C54.496 56.8773 54.1945 57.0448 53.9935 57.2458C53.7926 57.4467 53.5916 57.6477 53.4576 57.8487C53.2901 58.0497 53.1561 58.2172 52.9886 58.3846C52.8547 58.5521 52.6537 58.6861 52.3857 58.7531C52.1512 58.8871 51.9503 58.9876 51.7158 59.0881C51.4813 59.1551 51.2468 59.2221 50.9788 59.289C50.7444 59.356 50.4764 59.423 50.2419 59.4565C50.0074 59.5235 49.7395 59.5905 49.505 59.691H48.3326C47.2607 59.691 46.3563 59.5905 45.6529 59.356C44.9495 59.1216 44.2795 58.8201 43.7101 58.3846C43.1406 57.9827 42.6047 57.4802 42.0687 56.8773C41.5663 56.3413 40.9634 55.6714 40.2264 54.9345ZM40.8294 48.9386C40.8294 49.3071 40.9299 49.8095 41.0973 50.4124C41.2648 51.0154 41.4993 51.6518 41.7673 52.2883C42.0352 52.9247 42.3367 53.5276 42.6717 54.0636C43.0066 54.5995 43.3416 55.035 43.6431 55.2695C44.0115 55.5374 44.447 55.8054 44.983 56.0064C45.5189 56.2409 46.0883 56.4418 46.6578 56.6093C47.2272 56.7768 47.7967 56.9108 48.3661 57.0113C48.9356 57.1118 49.4045 57.1453 49.8065 57.1453C49.907 57.1453 50.0074 57.1118 50.0744 57.0783C50.1414 57.0113 50.2084 56.9778 50.2754 56.9108C50.3424 56.8438 50.4094 56.7768 50.4764 56.7098C50.5434 56.6428 50.6439 56.5758 50.7444 56.5423C50.9788 56.4418 51.1463 56.3748 51.2803 56.3078C51.4143 56.2409 51.5483 56.1739 51.6823 56.1404C51.7828 56.0734 51.8833 56.0064 51.9837 55.8724C52.0842 55.7719 52.2182 55.6044 52.3522 55.4034C52.4862 55.1355 52.6537 54.9345 52.8547 54.767C53.0556 54.5995 53.2231 54.432 53.3906 54.2646C53.5581 54.0971 53.7256 53.9296 53.8596 53.7286C53.9935 53.5276 54.1275 53.2931 54.161 52.9917C54.161 52.9247 54.1945 52.8577 54.1945 52.7237C54.1945 52.5897 54.228 52.4892 54.228 52.3887C54.228 52.2883 54.2615 52.1878 54.2615 52.0873C54.2615 51.9868 54.295 51.9533 54.295 51.9198C54.3285 51.6853 54.3955 51.5178 54.4625 51.3503C54.5295 51.1829 54.563 51.0154 54.63 50.8814C54.697 50.7474 54.7305 50.5464 54.7305 50.3789C54.764 50.2115 54.764 49.977 54.764 49.7425C54.764 49.2066 54.7305 48.7041 54.63 48.2687C54.5295 47.8332 54.2615 47.4312 53.8261 47.0628C53.7591 46.8283 53.7256 46.6943 53.7256 46.5938C53.7256 46.4933 53.7256 46.3928 53.7256 46.3259C53.7256 46.0579 53.6921 45.8234 53.6251 45.6224C53.5581 45.4214 53.4576 45.254 53.3571 45.0865C53.2566 44.919 53.0891 44.7515 52.9551 44.584C52.7877 44.4165 52.6202 44.2156 52.4527 43.9811C52.0842 43.4116 51.7493 43.0097 51.4813 42.7752C51.1798 42.5407 50.8784 42.3732 50.6104 42.2393C50.3089 42.1388 50.0074 42.0383 49.706 41.9378C49.371 41.8373 49.0025 41.6698 48.6006 41.3683H46.3898C46.3898 41.3683 46.3228 41.4018 46.1888 41.4353C46.0883 41.5023 45.9209 41.5693 45.7534 41.6363C45.5859 41.7368 45.4184 41.8038 45.2509 41.9043C45.0834 42.0048 44.9495 42.0718 44.8155 42.1723C44.3465 42.4402 43.9111 42.8422 43.4421 43.3781C42.9732 43.9141 42.5712 44.517 42.1692 45.187C41.7673 45.8569 41.4658 46.4933 41.2313 47.1968C40.9299 47.8332 40.8294 48.4361 40.8294 48.9386Z" fill="white"/>
<path d="M63.7076 42.2393C63.4396 41.6363 63.2386 41.1674 63.1046 40.7654C62.9706 40.3969 62.9037 40.0285 62.9037 39.727C62.9037 38.9901 62.9371 38.3202 63.0041 37.6837C63.0711 37.0473 63.2386 36.5113 63.5736 36.0089L64.545 34.3341C64.6455 34.1666 64.8465 33.9991 65.0809 33.7981C65.3154 33.5971 65.5834 33.3961 65.8848 33.2287C66.1863 33.0277 66.4543 32.8937 66.7558 32.7597C67.0237 32.6257 67.2582 32.5587 67.4257 32.5587C67.5932 32.6257 67.7272 32.6592 67.8277 32.6592C67.9281 32.6927 67.9951 32.6927 68.0621 32.6927C68.1291 32.6927 68.1961 32.6927 68.2631 32.6592C68.2966 32.6257 68.3636 32.5922 68.3971 32.5587H69.1005C69.469 32.5587 69.7705 32.5922 70.0049 32.6927C70.2394 32.7932 70.5409 32.9607 70.8424 33.2287L71.7468 34.2001L72.2492 34.468C72.4502 34.602 72.5842 34.7695 72.6512 34.937C72.7182 35.1045 72.7852 35.3055 72.8186 35.5064C72.8521 35.7074 72.8856 35.9084 72.9191 36.1094C72.9526 36.3104 73.0531 36.4778 73.1536 36.6453C73.2541 36.8128 73.3211 36.9133 73.4216 36.9803C73.4886 37.0473 73.5556 37.1143 73.6226 37.1813C73.6896 37.2483 73.7231 37.3153 73.7901 37.4157C73.857 37.5162 73.8905 37.6502 73.8905 37.8512C73.8905 38.0187 73.924 38.2867 73.924 38.6886C73.924 39.0906 73.9575 39.4255 73.9575 39.727C73.9575 39.8275 73.924 39.928 73.8905 40.0955C73.857 40.263 73.7901 40.4304 73.7231 40.5979C73.6561 40.7654 73.6226 40.9329 73.5556 41.0669C73.5221 41.2009 73.4886 41.2679 73.4551 41.2679C73.4216 41.4018 73.3546 41.5358 73.2876 41.7368C73.1871 41.9378 73.1201 42.1388 73.0196 42.3397C72.9191 42.5407 72.8187 42.7417 72.7182 42.9427C72.6177 43.1437 72.5507 43.2442 72.4837 43.3112C72.2492 43.4116 72.0817 43.5121 71.9477 43.6461C71.8138 43.7801 71.7133 43.8806 71.6128 44.0146C71.5123 44.1486 71.4453 44.2491 71.3448 44.3495C71.2443 44.45 71.1438 44.517 70.9763 44.584C70.7419 44.7515 70.4404 44.852 70.1389 44.919C69.8375 44.9525 69.536 45.053 69.268 45.1535H68.5646C67.8947 45.1535 67.3587 45.0865 66.9232 44.9525C66.4878 44.8185 66.1193 44.651 65.7844 44.383C65.4494 44.1486 65.1144 43.8471 64.813 43.4786C64.5115 43.1102 64.143 42.6747 63.7076 42.2393ZM64.076 38.6551C64.076 38.8896 64.143 39.1576 64.2435 39.526C64.344 39.8945 64.478 40.263 64.6455 40.6314C64.813 40.9999 64.9804 41.3683 65.1814 41.7033C65.3824 42.0383 65.5834 42.2728 65.7509 42.4402C65.9853 42.6077 66.2533 42.7752 66.5548 42.9092C66.8897 43.0432 67.2247 43.1772 67.5597 43.2777C67.8947 43.3781 68.2631 43.4451 68.5981 43.5121C68.933 43.5791 69.2345 43.6126 69.469 43.6126C69.603 43.6126 69.7035 43.5456 69.737 43.4451C69.804 43.3446 69.9044 43.2777 70.0049 43.2442C70.1389 43.1772 70.2729 43.1437 70.3399 43.1102C70.4404 43.0767 70.5074 43.0432 70.5744 43.0097C70.6414 42.9762 70.7084 42.9092 70.7754 42.8422C70.8424 42.7752 70.9093 42.6747 70.9763 42.5407C71.0768 42.3732 71.1773 42.2728 71.2778 42.1723C71.3783 42.0718 71.5123 41.9713 71.6128 41.8708C71.7133 41.7703 71.8138 41.6698 71.9142 41.5358C72.0147 41.4018 72.0482 41.2679 72.0817 41.0669C72.0817 40.9999 72.1152 40.8659 72.1152 40.6984C72.1152 40.5309 72.1487 40.4304 72.1487 40.4304C72.2157 40.1625 72.2827 39.9615 72.3497 39.8275C72.4167 39.66 72.4502 39.459 72.4502 39.1241C72.4502 38.7891 72.4167 38.4876 72.3832 38.2197C72.3162 37.9517 72.1822 37.7172 71.9142 37.4827C71.8807 37.3488 71.8473 37.2483 71.8473 37.1813C71.8473 37.1143 71.8473 37.0808 71.8473 37.0473C71.8473 36.7123 71.7803 36.4443 71.6128 36.2769C71.4788 36.1094 71.2778 35.8749 71.0768 35.6069C70.8424 35.272 70.6749 35.0375 70.5074 34.87C70.3399 34.736 70.1724 34.6355 69.9714 34.5685C69.804 34.5015 69.603 34.4345 69.4355 34.401C69.268 34.3676 69.0335 34.2336 68.7656 34.0661H67.4257C67.4257 34.0661 67.2917 34.1331 67.0572 34.2336C66.8228 34.3341 66.6218 34.4345 66.4878 34.5685C66.2198 34.736 65.9518 34.9705 65.6839 35.272C65.4159 35.6069 65.1479 35.9419 64.9135 36.3439C64.679 36.7458 64.5115 37.1478 64.344 37.5497C64.143 37.9517 64.076 38.3202 64.076 38.6551ZM65.6169 64.1796C65.6504 63.8781 65.7174 63.6436 65.8179 63.4426C65.9183 63.2416 66.0188 63.0407 66.1193 62.8732C66.2198 62.7057 66.3538 62.5047 66.4878 62.3372C66.6218 62.1698 66.7223 61.9353 66.8562 61.7008L67.1912 60.9974C67.2582 60.7294 67.3252 60.5284 67.4592 60.3609C67.5597 60.1935 67.6602 60.026 67.7607 59.7915L68.2631 58.5856C68.2631 58.5521 68.2966 58.5186 68.3636 58.4516C68.4306 58.3846 68.4976 58.3511 68.5981 58.2841C68.6986 58.2172 68.7656 58.1837 68.8326 58.1502C68.8996 58.1167 68.9665 58.0832 68.9665 58.0497L69.1675 56.9443C69.201 56.7433 69.3015 56.5758 69.402 56.4083C69.5025 56.2744 69.6365 56.1404 69.737 55.9729C69.8709 55.8389 69.9714 55.7049 70.1054 55.5709C70.2394 55.4369 70.3064 55.303 70.4069 55.1355C70.4739 55.0685 70.5409 54.9345 70.6749 54.767C70.7754 54.5995 70.8759 54.432 70.9763 54.2311C71.0768 54.0636 71.1773 53.8961 71.2443 53.7286C71.3113 53.5611 71.3783 53.4606 71.3783 53.3936C71.3783 53.3266 71.4788 53.1592 71.6463 52.7907C71.8138 52.4557 71.9812 52.0538 72.1822 51.6853C72.3832 51.2834 72.6177 50.9149 72.8521 50.6134C73.0866 50.2785 73.2541 50.1445 73.4216 50.1445C73.8905 49.575 74.259 48.9386 74.5605 48.1682C74.8619 47.4312 75.1634 46.7278 75.4314 46.0914L76.8717 43.9141C77.1732 43.1772 77.4077 42.6077 77.5752 42.1723C77.7427 41.7368 77.9101 41.4353 78.0106 41.2009C78.1111 40.9999 78.2116 40.8324 78.2786 40.7654C78.3456 40.6984 78.4126 40.6314 78.4461 40.5979C78.6136 40.129 78.8481 39.6265 79.1495 39.0571C79.451 38.4876 79.7525 37.9182 80.0874 37.3153C80.4224 36.7123 80.7574 36.1429 81.1258 35.5399C81.4608 34.937 81.7958 34.401 82.0972 33.8651C82.3987 33.3627 82.6667 32.8602 82.9011 32.4582C83.1356 32.0228 83.2696 31.6878 83.3701 31.4533C83.5376 31.0514 83.7051 30.7164 83.906 30.4149C84.107 30.1135 84.4085 29.9795 84.8774 29.9795C85.0784 29.9795 85.3129 30.013 85.5474 30.0465C85.7484 30.08 85.9493 30.1805 86.1168 30.3145C86.3178 30.4484 86.5188 30.6494 86.7533 30.8839L86.5188 32.2238C86.4853 32.2573 86.4183 32.3578 86.3178 32.4917C86.2173 32.6257 86.1503 32.7262 86.1168 32.7597C85.9493 33.0612 85.8488 33.3961 85.8153 33.7311C85.7818 34.0661 85.6814 34.4345 85.5139 34.7695C85.4134 35.004 85.2794 35.138 85.1119 35.205C84.9444 35.272 84.7435 35.4059 84.5425 35.5399C84.4755 35.6739 84.442 35.7744 84.4085 35.8749C84.375 35.9754 84.3415 36.2099 84.308 36.5113C83.839 37.3487 83.4371 38.0187 83.1356 38.4876C82.8342 38.9566 82.5997 39.2916 82.3987 39.526C82.2312 39.7605 82.0972 39.861 82.0302 39.8945C81.9632 39.928 81.9297 39.928 81.9297 39.928C81.9297 39.928 81.9297 39.928 81.9632 39.9615C81.9967 39.995 81.9967 40.0955 81.9967 40.263C81.9297 40.5309 81.8627 40.7654 81.7958 40.8994C81.7288 41.0669 81.6618 41.2009 81.5948 41.2679C81.5278 41.3683 81.4608 41.4353 81.3938 41.5023C81.3268 41.5693 81.2598 41.6363 81.1928 41.7033C81.1593 41.8038 81.0923 41.9043 80.9918 42.0383C80.8913 42.1723 80.8244 42.3397 80.7239 42.5072C80.6234 42.6747 80.5564 42.8422 80.4894 43.0097C80.4224 43.1772 80.3889 43.3112 80.3889 43.4451C80.3219 43.8806 80.1879 44.2491 80.0539 44.517C79.8864 44.785 79.7525 45.0195 79.585 45.187C79.451 45.3544 79.2835 45.4884 79.183 45.5889C79.049 45.6894 78.982 45.7899 78.9485 45.8569C78.9485 45.9239 78.915 46.0244 78.8146 46.1249C78.7141 46.2254 78.6471 46.2924 78.6136 46.3259C78.5131 46.6608 78.4126 46.9623 78.2786 47.1968C78.1446 47.4312 78.0106 47.6657 77.8431 47.8667C77.6757 48.0677 77.5082 48.2687 77.3072 48.4361C77.1062 48.6371 76.9052 48.8381 76.7043 49.0391C76.5703 49.2066 76.4698 49.374 76.4028 49.5415C76.3358 49.7425 76.2688 49.91 76.1683 50.044C76.1013 50.5799 76.0678 50.9484 76.0008 51.1829C75.9673 51.3838 75.9003 51.5513 75.8334 51.6853C75.5319 51.9198 75.3309 52.1543 75.1969 52.4222C75.0629 52.6902 74.9959 52.8577 74.9624 52.8912C74.9624 52.9582 74.8954 52.9917 74.795 53.0587C74.6945 53.1257 74.594 53.1927 74.4935 53.2597C74.393 53.3266 74.2925 53.3601 74.192 53.4271C74.0915 53.4941 74.0245 53.4941 73.991 53.4941C73.8905 53.6281 73.7901 53.8291 73.6896 54.0971C73.5891 54.3985 73.4886 54.7 73.4216 55.035C73.3211 55.3699 73.2206 55.6714 73.1536 55.9729C73.0531 56.2744 72.9526 56.4753 72.8521 56.5758C72.8187 56.6428 72.7517 56.6763 72.6847 56.7433C72.6177 56.8103 72.5172 56.8438 72.4502 56.9108C72.3832 56.9778 72.3162 57.0113 72.2492 57.0783C72.1822 57.1453 72.1822 57.1788 72.1822 57.2123C72.2157 57.3462 72.2157 57.4132 72.2157 57.4802C72.2157 57.5472 72.2157 57.6142 72.2157 57.6812C72.2157 57.7817 72.2157 57.8487 72.1822 57.9157C72.1152 58.3176 71.9477 58.5856 71.7133 58.7866C71.4788 58.9876 71.3113 59.1216 71.1773 59.1551C71.0433 59.49 70.9428 59.758 70.9093 59.959C70.8759 60.16 70.7419 60.2605 70.5744 60.3274C70.5744 60.3944 70.5409 60.4949 70.5409 60.6624C70.5409 60.8299 70.4739 60.9974 70.4069 61.1649C70.3734 61.4328 70.3399 61.6338 70.2729 61.8013C70.2059 61.9688 70.1389 62.1363 70.0719 62.2702C69.9714 62.4042 69.8709 62.5382 69.737 62.6722C69.603 62.8062 69.4355 62.9067 69.2345 63.0407C69.134 63.1077 69.0335 63.2082 69 63.3086C68.933 63.4091 68.8995 63.5431 68.8995 63.6771C68.866 63.8111 68.8661 63.9451 68.8326 64.0791C68.7991 64.2131 68.7656 64.347 68.7321 64.481C68.5981 64.682 68.4976 64.7825 68.4306 64.8495C68.3301 64.9165 68.2631 64.95 68.1961 65.017C68.1291 65.0505 68.0621 65.1175 67.9951 65.2179C67.9281 65.3184 67.8612 65.4524 67.7942 65.6869L66.4208 65.8544C66.3203 65.8209 66.2198 65.7204 66.1193 65.5194C66.0188 65.3184 65.9183 65.1175 65.8513 64.9165C65.7844 64.682 65.7174 64.481 65.6504 64.3135C65.6169 64.3135 65.5834 64.2131 65.6169 64.1796ZM82.3652 57.0113C82.0972 56.4083 81.8962 55.9394 81.7623 55.5374C81.6283 55.169 81.5613 54.8005 81.5613 54.499C81.5613 53.7621 81.5948 53.0922 81.6618 52.4557C81.7288 51.8193 81.8962 51.2834 82.2312 50.7809L83.2026 49.1061C83.3031 48.9386 83.5041 48.7711 83.7386 48.5701C83.973 48.3691 84.241 48.1682 84.5425 48.0007C84.8439 47.7997 85.1119 47.6657 85.4134 47.5317C85.6814 47.3977 85.9158 47.3307 86.0833 47.3307C86.2508 47.3977 86.3513 47.4312 86.4853 47.4312C86.5858 47.4647 86.6528 47.4647 86.7198 47.4647C86.7868 47.4647 86.8537 47.4647 86.9207 47.4312C86.9542 47.3977 87.0212 47.3642 87.0212 47.3307H87.7247C88.0931 47.3307 88.3946 47.3642 88.6291 47.4647C88.8635 47.5652 89.165 47.7327 89.4665 48.0007L90.3709 48.9721L90.8733 49.2401C91.0743 49.374 91.2083 49.5415 91.2753 49.709C91.3423 49.8765 91.4093 50.0775 91.4428 50.2785C91.4763 50.4794 91.5098 50.6804 91.5433 50.8814C91.5768 51.0824 91.6773 51.2499 91.7777 51.4173C91.8782 51.5848 91.9452 51.6853 92.0457 51.7523C92.1127 51.8193 92.1797 51.8863 92.2467 51.9533C92.3137 52.0203 92.3472 52.0873 92.4142 52.1878C92.4477 52.2883 92.5147 52.4222 92.5147 52.6232C92.5147 52.7907 92.5482 53.0587 92.5482 53.4606C92.5482 53.8626 92.5817 54.1976 92.5817 54.499C92.5817 54.5995 92.5482 54.7 92.5147 54.8675C92.4812 55.035 92.4142 55.2025 92.3472 55.3699C92.2802 55.5374 92.2467 55.7049 92.1797 55.8389C92.1462 55.9729 92.1127 56.0399 92.0792 56.0399C92.0457 56.1739 91.9787 56.3078 91.9117 56.5088C91.8113 56.7098 91.7443 56.9108 91.6438 57.1118C91.5433 57.3127 91.4428 57.5137 91.3423 57.7147C91.2418 57.9157 91.1748 58.0162 91.1078 58.0832C90.8733 58.1837 90.7059 58.2841 90.5719 58.4181C90.4379 58.5521 90.3374 58.6526 90.2369 58.7866C90.1364 58.9206 90.0694 59.0211 89.9689 59.1216C89.8684 59.2221 89.7679 59.289 89.6005 59.356C89.366 59.5235 89.0645 59.624 88.763 59.691C88.4616 59.7245 88.1601 59.825 87.8921 59.9255H87.1887C86.5188 59.9255 85.9828 59.8585 85.5474 59.7245C85.1119 59.5905 84.7435 59.423 84.4085 59.1551C84.0735 58.9206 83.7386 58.6191 83.4371 58.2506C83.2026 57.8822 82.8007 57.4467 82.3652 57.0113ZM82.7337 53.4271C82.7337 53.6616 82.8006 53.9296 82.9011 54.298C83.0016 54.6665 83.1356 55.035 83.3031 55.4034C83.4706 55.7719 83.6381 56.1404 83.8391 56.4753C84.04 56.8103 84.241 57.0448 84.4085 57.2123C84.643 57.3797 84.9109 57.5472 85.2124 57.6812C85.5474 57.8152 85.8823 57.9492 86.2173 58.0497C86.5523 58.1502 86.9207 58.2172 87.2557 58.2841C87.5907 58.3511 87.8921 58.3846 88.1266 58.3846C88.2606 58.3846 88.3611 58.3176 88.3946 58.2172C88.4616 58.1167 88.5621 58.0497 88.6626 58.0162C88.7965 57.9492 88.9305 57.9157 88.9975 57.8822C89.098 57.8487 89.165 57.8152 89.232 57.7817C89.299 57.7482 89.366 57.6812 89.433 57.6142C89.5 57.5472 89.567 57.4467 89.634 57.3127C89.7345 57.1453 89.8349 57.0448 89.9354 56.9443C90.0359 56.8438 90.1699 56.7433 90.2704 56.6428C90.3709 56.5423 90.4714 56.4418 90.5719 56.3078C90.6724 56.1739 90.7059 56.0399 90.7394 55.8389C90.7394 55.7719 90.7729 55.6379 90.7729 55.4704C90.7729 55.3029 90.8063 55.2025 90.8063 55.2025C90.8733 54.9345 90.9403 54.7335 91.0073 54.5995C91.0743 54.432 91.1078 54.2311 91.1078 53.8961C91.1078 53.5611 91.0743 53.2597 91.0408 52.9917C90.9738 52.7237 90.8398 52.4892 90.5719 52.2548C90.5384 52.1208 90.5049 52.0203 90.5049 51.9533C90.5049 51.8863 90.5049 51.8528 90.5049 51.8193C90.5049 51.4843 90.4379 51.2164 90.2704 51.0489C90.1364 50.8814 89.9354 50.6469 89.7345 50.3789C89.5 50.044 89.3325 49.8095 89.165 49.642C88.9975 49.508 88.83 49.4075 88.6291 49.3405C88.4616 49.2736 88.2606 49.2066 88.0931 49.1731C87.8921 49.1061 87.6912 49.0056 87.4232 48.8381H86.0833C86.0833 48.8381 85.9493 48.9051 85.7149 49.0056C85.4804 49.1061 85.2794 49.2066 85.1454 49.3405C84.8774 49.508 84.6095 49.7425 84.3415 50.044C84.0735 50.3789 83.8056 50.7139 83.5711 51.1159C83.3366 51.5178 83.1691 51.9198 83.0016 52.3217C82.8007 52.7237 82.7337 53.0922 82.7337 53.4271Z" fill="white"/>
</svg>
