<svg width="57" height="14" viewBox="0 0 57 14" fill="none" xmlns="http://www.w3.org/2000/svg">
<path fill-rule="evenodd" clip-rule="evenodd" d="M5.38121 3.30734H9.21513C11.2723 3.30734 12.0516 4.36697 11.9269 5.94037C11.7399 8.54128 10.2126 9.98624 8.18651 9.98624H7.15791C6.87738 9.98624 6.69035 10.1789 6.62801 10.6927L6.19164 13.6789C6.16047 13.8716 6.06696 14 5.91111 14H3.51102C3.29283 14 3.19932 13.8073 3.26166 13.422L4.72665 3.85321C4.78899 3.5 4.976 3.30734 5.38121 3.30734Z" fill="#009EE3"/>
<path fill-rule="evenodd" clip-rule="evenodd" d="M21.9948 3.11468C23.2728 3.11468 24.4884 3.8211 24.3014 5.61927C24.1144 7.77064 22.9923 8.9266 21.2467 8.95871H19.7194C19.5012 8.95871 19.4077 9.15138 19.3454 9.5367L19.0337 11.4633C19.0025 11.7523 18.8466 11.9128 18.6285 11.9128H17.1946C16.9765 11.9128 16.8829 11.7523 16.9453 11.4312L18.1297 3.66055C18.1921 3.27523 18.3168 3.14679 18.5661 3.14679L21.9948 3.11468ZM19.6882 7.28899H20.8415C21.5584 7.25688 22.0572 6.74312 22.0883 5.81193C22.1195 5.23394 21.7455 4.81651 21.1532 4.81651H20.0623L19.6882 7.28899ZM28.1976 11.3028C28.3223 11.1743 28.447 11.1101 28.447 11.2706L28.4158 11.6239C28.3847 11.8165 28.4782 11.9128 28.634 11.9128H29.912C30.1302 11.9128 30.2237 11.8165 30.286 11.4954L31.0653 6.45413C31.0965 6.19725 31.0341 6.06881 30.8471 6.06881H29.4444C29.3198 6.06881 29.2574 6.13303 29.2263 6.32569L29.1639 6.64679C29.1328 6.80734 29.0704 6.83945 29.0081 6.6789C28.7587 6.10092 28.1665 5.84404 27.3249 5.87615C25.3612 5.90826 24.052 7.44954 23.9274 9.40826C23.8338 10.9174 24.8625 12.1055 26.2651 12.1055C27.2314 12.1055 27.6989 11.7844 28.1976 11.3028ZM27.1379 10.5321C26.2963 10.5321 25.704 9.82569 25.8287 8.99082C25.9534 8.15596 26.7327 7.44954 27.5742 7.44954C28.4158 7.44954 29.0081 8.15596 28.8834 8.99082C28.7587 9.8578 27.9795 10.5321 27.1379 10.5321ZM33.4965 6.06881H32.2186C31.9692 6.06881 31.8445 6.26147 31.938 6.51835L33.5277 11.3349L31.9692 13.6147C31.8445 13.8073 31.9381 13.9679 32.1251 13.9679H33.5589C33.7459 14 33.9018 13.9037 33.9953 13.7431L38.889 6.48624C39.0448 6.26147 38.9825 6.0367 38.7331 6.0367H37.3616C37.1123 6.0367 37.0188 6.13303 36.8941 6.32569L34.8369 9.37615L33.9329 6.32569C33.9018 6.16514 33.7459 6.06881 33.4965 6.06881Z" fill="#113984"/>
<path fill-rule="evenodd" clip-rule="evenodd" d="M44.0008 3.11468C45.2788 3.11468 46.4944 3.8211 46.3074 5.61927C46.1204 7.77064 44.9983 8.9266 43.2528 8.95871H41.7254C41.5072 8.95871 41.4137 9.15138 41.3514 9.5367L41.0397 11.4633C41.0085 11.7523 40.8527 11.9128 40.6345 11.9128H39.2007C38.9825 11.9128 38.889 11.7523 38.9513 11.4312L40.1358 3.66055C40.1981 3.27523 40.3228 3.14679 40.5721 3.14679L44.0008 3.11468ZM41.6631 7.28899H42.8164C43.5333 7.25688 44.032 6.74312 44.0632 5.81193C44.0943 5.23394 43.7203 4.81651 43.1281 4.81651H42.0371L41.6631 7.28899ZM50.2037 11.3028C50.3283 11.1743 50.453 11.1101 50.453 11.2706L50.4219 11.6239C50.3907 11.8165 50.4842 11.9128 50.64 11.9128H51.918C52.1362 11.9128 52.2297 11.8165 52.2921 11.4954L53.0713 6.45413C53.1025 6.19725 53.0401 6.06881 52.8531 6.06881H51.4505C51.3258 6.06881 51.2634 6.13303 51.2323 6.32569L51.1699 6.64679C51.1388 6.80734 51.0764 6.83945 51.0141 6.6789C50.7647 6.10092 50.1725 5.84404 49.3309 5.87615C47.3672 5.90826 46.0581 7.44954 45.9334 9.40826C45.8399 10.9174 46.8685 12.1055 48.2711 12.1055C49.2374 12.1055 49.6738 11.7844 50.2037 11.3028ZM49.1439 10.5321C48.3023 10.5321 47.7101 9.82569 47.8347 8.99082C47.9594 8.15596 48.7387 7.44954 49.5803 7.44954C50.4219 7.44954 51.0141 8.15596 50.8894 8.99082C50.7647 9.8578 49.9855 10.5321 49.1439 10.5321ZM54.9727 11.945H53.5077C53.4142 11.945 53.3207 11.8807 53.3207 11.7844V11.7523L54.5986 3.37156C54.6298 3.24312 54.7233 3.1789 54.848 3.1789H56.313C56.4065 3.1789 56.5 3.24312 56.5 3.33945V3.37156L55.222 11.7523C55.1909 11.8486 55.0974 11.945 54.9727 11.945Z" fill="#009EE3"/>
<path fill-rule="evenodd" clip-rule="evenodd" d="M3.0123 0H6.84621C7.93716 0 9.21512 0.0321101 10.0567 0.802752C10.6178 1.31651 10.9295 2.15138 10.8671 3.05046C10.6178 6.06881 8.87226 7.73853 6.53451 7.73853H4.63314C4.32144 7.73853 4.10325 7.9633 4.00974 8.54128L3.47985 12.0092C3.44868 12.2339 3.35517 12.3624 3.16815 12.3945H0.79923C0.54987 12.3945 0.456362 12.2018 0.518702 11.7523L2.20188 0.674311C2.29539 0.22477 2.54475 0 3.0123 0Z" fill="#113984"/>
<path fill-rule="evenodd" clip-rule="evenodd" d="M4.07208 8.22018L4.72665 3.85321C4.78899 3.46789 4.976 3.27523 5.38121 3.27523H9.21513C9.83853 3.27523 10.3684 3.37156 10.7736 3.56422C10.3996 6.26147 8.7164 7.73853 6.50333 7.73853L4.63314 7.73853C4.35261 7.77064 4.16559 7.89908 4.07208 8.22018Z" fill="#172C70"/>
</svg>
