<svg width="50" height="18" viewBox="0 0 50 18" fill="none" xmlns="http://www.w3.org/2000/svg">
<path d="M46.7902 7.05494C46.8221 6.52747 47.2365 6.13187 47.7466 6.13187C48.2567 6.16483 48.6392 6.5934 48.6392 7.12088C48.6073 7.61538 48.2248 8.04395 47.7147 8.04395C47.2046 8.04395 46.7902 7.61538 46.7902 7.05494ZM47.7147 7.84615C48.1292 7.87912 48.4798 7.54945 48.4798 7.12088C48.4798 6.69231 48.1929 6.32967 47.7785 6.32967C47.364 6.2967 47.0133 6.62637 47.0133 7.05494V7.08791C47.0133 7.48351 47.3321 7.81318 47.7147 7.84615ZM47.6191 7.51648H47.4278V6.62637H47.7785C47.8422 6.62637 47.9379 6.62637 48.0016 6.65934C48.0654 6.72527 48.0973 6.79121 48.0973 6.89011C48.0973 6.98901 48.0335 7.08791 47.9697 7.12088L48.1291 7.51648H47.906L47.7785 7.15384H47.6509L47.6191 7.51648ZM47.6191 7.02198H47.7147C47.7466 7.02198 47.8103 7.02198 47.8422 6.98901C47.8741 6.95604 47.906 6.92307 47.8741 6.89011C47.8741 6.85714 47.8422 6.82417 47.8422 6.79121C47.8103 6.79121 47.7785 6.75824 47.7147 6.79121H47.6191V7.02198Z" fill="#E52521"/>
<path d="M33.6236 0.395604L33.3686 2.10989C32.9542 1.84615 32.476 1.71428 31.9659 1.68132C30.8182 1.68132 30.0212 2.9011 30.0212 4.61538C30.0212 5.8022 30.595 6.52747 31.4558 6.52747C31.934 6.4945 32.3803 6.36263 32.7629 6.13187L32.476 7.91208C32.0296 8.04395 31.5833 8.14285 31.1051 8.14285C29.4154 8.14285 28.3953 6.85714 28.3953 4.74725C28.3953 1.94505 29.8299 0 31.8702 0C32.0934 0 32.3484 0.0329668 32.5716 0.0989008L33.2092 0.263736C33.4324 0.32967 33.4961 0.32967 33.6236 0.395604Z" fill="#E52521"/>
<path d="M28.491 1.58242C28.4272 1.58242 28.3954 1.54945 28.3316 1.54945C27.8215 1.54945 27.5346 1.84616 27.0564 2.57143L27.1839 1.61539H25.813L24.8566 8.01099H26.4188C26.9926 4.12088 27.1201 3.46154 27.8534 3.46154C27.8853 3.46154 27.9171 3.46154 27.9809 3.46154C28.0765 2.8022 28.2678 2.20879 28.5547 1.61539L28.491 1.58242Z" fill="#E52521"/>
<path d="M19.2776 7.91209C18.9269 8.04396 18.5443 8.10989 18.1618 8.10989C17.3648 8.10989 16.9503 7.61539 16.9503 6.69231C16.9503 6.49451 16.9503 6.29671 16.9822 6.09891L17.0778 5.47253L17.1416 4.97803L17.8111 0.626381H19.3413L19.1501 1.58242H19.9471L19.7239 3.13188H18.9588L18.5443 5.8022C18.5443 5.93407 18.5124 6.00001 18.5124 6.06594C18.5124 6.39561 18.6719 6.52748 19.0225 6.52748C19.1501 6.52748 19.3095 6.52748 19.437 6.46154L19.2776 7.91209Z" fill="#E52521"/>
<path d="M13.1884 3.62637C13.1884 4.41758 13.539 4.97802 14.3679 5.40659C15.0055 5.73626 15.1012 5.83516 15.1012 6.0989C15.1012 6.4945 14.8142 6.69231 14.2085 6.69231C13.7303 6.69231 13.284 6.59341 12.8377 6.42857L12.6145 7.91209H12.6783L12.9652 7.97802C13.0608 8.01099 13.1884 8.01099 13.3796 8.04395C13.7622 8.07692 14.0172 8.10989 14.2085 8.10989C15.8344 8.10989 16.5677 7.45055 16.5677 5.96703C16.6314 5.17582 16.1851 4.48352 15.4837 4.18681C14.8461 3.85714 14.7824 3.79121 14.7824 3.4945C14.7824 3.13187 15.0374 2.96703 15.5475 2.96703C15.9301 2.96703 16.2807 3 16.6633 3.06593L16.8865 1.58242C16.4401 1.51648 15.9938 1.45055 15.5475 1.45055C13.7622 1.48352 13.1884 2.47253 13.1884 3.62637Z" fill="#E52521"/>
<path d="M45.8976 8.01098H44.4311L44.4949 7.3846C44.1442 7.84614 43.6341 8.10988 43.0602 8.07691C41.9444 8.07691 41.1793 7.02197 41.1793 5.43955C41.1793 3.32966 42.327 1.51647 43.6979 1.51647C44.3036 1.51647 44.7499 1.78021 45.1644 2.37362L45.515 0.131858H47.0453L45.8976 8.01098ZM43.6341 6.49449C44.3674 6.49449 44.8456 5.60438 44.8456 4.35164C44.8456 3.52746 44.5586 3.09889 44.0167 3.09889C43.3153 3.09889 42.8052 3.989 42.8052 5.24175C42.8371 6.06592 43.124 6.49449 43.6341 6.49449Z" fill="#E52521"/>
<path d="M24.1552 7.84616C23.6452 8.011 23.1032 8.1099 22.5612 8.1099C20.8397 8.1099 19.947 7.12089 19.947 5.27473C19.947 3.09891 21.0947 1.48353 22.6569 1.48353C23.9321 1.48353 24.7291 2.37363 24.7291 3.79122C24.7291 4.31869 24.6653 4.84616 24.5378 5.37363H21.4773C21.4773 5.43957 21.4773 5.5055 21.4773 5.57144C21.4773 6.32968 21.9236 6.69231 22.8482 6.69231C23.3901 6.69231 23.964 6.56045 24.4422 6.29671L24.1552 7.84616ZM23.2945 4.05495C23.2945 3.92308 23.2945 3.82418 23.2945 3.72528C23.2945 3.19781 23.0075 2.90111 22.5612 2.90111C22.1149 2.90111 21.7323 3.29671 21.5729 4.05495H23.2945Z" fill="#E52521"/>
<path d="M7.00364 8.01098H5.44149L6.33416 1.97802L4.35757 8.01098H3.30553L3.178 2.01099L2.25346 8.01098H0.786976L1.99842 0.164834H4.23005L4.29381 5.01099L5.79219 0.164834H8.18321L7.00364 8.01098Z" fill="#E52521"/>
<path d="M10.9568 5.14286C10.8293 5.10989 10.7337 5.10989 10.6061 5.10989C9.74536 5.10989 9.29905 5.43956 9.29905 6.06594C9.26717 6.39561 9.49033 6.65934 9.77725 6.72528C9.80913 6.72528 9.84102 6.72528 9.84102 6.72528C10.4786 6.75824 10.9249 6.0989 10.9568 5.14286ZM12.0726 7.97803H10.7974L10.8293 7.31869C10.4467 7.84616 9.84102 8.14286 9.20341 8.07693C8.37452 8.07693 7.80067 7.35165 7.80067 6.32967C7.80067 4.78022 8.78896 3.85715 10.5105 3.85715C10.7337 3.85715 10.9249 3.85715 11.1481 3.89011C11.18 3.75825 11.2119 3.62638 11.2119 3.46154C11.2119 3.03297 10.9249 2.86814 10.2236 2.86814C9.77724 2.86814 9.3628 2.93407 8.94835 3.06594L8.72521 3.13187L8.59768 3.16484L8.82084 1.71429C9.42657 1.48352 10.0323 1.38462 10.6699 1.38462C12.0089 1.38462 12.7102 2.04396 12.7102 3.26374C12.7102 3.69231 12.6465 4.12088 12.5827 4.51649L12.2639 6.75825L12.2001 7.15385L12.1683 7.48352L12.1364 7.71429L12.0726 7.97803Z" fill="#E52521"/>
<path d="M36.2698 5.14286C36.1423 5.10989 36.0467 5.10989 35.9191 5.10989C35.0584 5.10989 34.612 5.43956 34.612 6.06594C34.5801 6.39561 34.8033 6.65934 35.0902 6.72528C35.1221 6.72528 35.154 6.72528 35.154 6.72528C35.7916 6.75824 36.2379 6.0989 36.2698 5.14286ZM37.3856 7.97803H36.1104L36.1423 7.31869C35.7597 7.84616 35.154 8.14286 34.5164 8.07693C33.6875 8.07693 33.1137 7.35165 33.1137 6.32967C33.1137 4.78022 34.102 3.85715 35.8235 3.85715C36.0467 3.85715 36.2379 3.85715 36.4611 3.89011C36.493 3.75825 36.5248 3.62638 36.5248 3.46154C36.5248 3.03297 36.2379 2.86814 35.5366 2.86814C35.0902 2.86814 34.6758 2.93407 34.2613 3.06594L34.0382 3.13187L33.9107 3.16484L34.1338 1.71429C34.7395 1.48352 35.3453 1.38462 35.9829 1.38462C37.3219 1.38462 38.0232 2.04396 38.0232 3.26374C38.0232 3.69231 37.9595 4.12088 37.8957 4.51649L37.5769 6.75825L37.545 7.15385L37.5131 7.48352L37.4813 7.71429L37.3856 7.97803Z" fill="#E52521"/>
<path d="M41.7214 1.58242C41.6576 1.58242 41.6257 1.54945 41.562 1.54945C41.0519 1.54945 40.765 1.84616 40.2868 2.57143L40.4143 1.61539H39.0115L38.0551 8.01099H39.5854C40.1592 4.12088 40.2868 3.46154 41.02 3.46154C41.0519 3.46154 41.0838 3.46154 41.1156 3.46154C41.2113 2.8022 41.4026 2.20879 41.6895 1.61539L41.7214 1.58242Z" fill="#E52521"/>
<path d="M35.2176 14.1758C35.2176 15.6264 34.7713 16.4835 34.1018 16.4835C33.5917 16.4835 33.3048 15.9231 33.3048 15.0659C33.3048 14.044 33.7511 12.8901 34.4525 12.8901C35.0582 12.8901 35.2176 13.5165 35.2176 14.1758ZM36.7479 14.2088C36.7479 12.5934 35.9828 11.3407 34.5481 11.3407C32.8904 11.3407 31.8064 12.8571 31.8064 15.0989C31.8064 16.7143 32.444 18 34.0062 18C35.6002 18 36.7479 16.8462 36.7479 14.2088Z" fill="#F07F1A"/>
<path d="M32.3166 10.2198L32.0934 11.9011C31.7109 11.6374 31.2645 11.5055 30.8182 11.4725C29.7343 11.4725 29.001 12.6923 29.001 14.4066C29.001 15.5934 29.5111 16.3187 30.34 16.3187C30.7863 16.2857 31.2008 16.1538 31.5514 15.9231L31.2964 17.7033C30.882 17.8352 30.4675 17.9341 30.0212 17.9341C28.4591 17.9341 27.5026 16.6483 27.5026 14.5385C27.5026 11.7363 28.8416 9.79121 30.7544 9.79121C30.9776 9.79121 31.2008 9.82417 31.392 9.89011L31.9659 10.0549C32.1572 10.1209 32.1891 10.1538 32.3166 10.2198Z" fill="#F07F1A"/>
<path d="M22.7845 11.3736C22.7207 11.3736 22.6888 11.3407 22.6251 11.3407C22.1468 11.3407 21.8918 11.6374 21.4455 12.3626L21.573 11.4066H20.2659L19.3733 17.7692H20.8079C21.318 13.8791 21.4774 13.1868 22.1468 13.1868C22.1787 13.1868 22.2106 13.1868 22.2425 13.1868C22.3381 12.5604 22.5294 11.9341 22.8163 11.3407L22.7845 11.3736Z" fill="#F07F1A"/>
<path d="M41.5939 17.7363H40.223L40.2868 17.1099C39.968 17.5385 39.4898 17.8022 38.9478 17.8022C37.8957 17.8022 37.1944 16.7472 37.1944 15.1648C37.1944 13.0549 38.2783 11.2417 39.5535 11.2417C40.1274 11.2417 40.5418 11.5385 40.9244 12.0989L41.2432 9.85713H42.6459L41.5939 17.7363ZM39.4579 16.2527C40.1274 16.2527 40.6056 15.3626 40.6056 14.1099C40.6056 13.2857 40.3186 12.8571 39.8404 12.8571C39.171 12.8571 38.7246 13.7472 38.7246 15C38.7246 15.8242 38.9797 16.2527 39.4579 16.2527Z" fill="#F07F1A"/>
<path d="M9.26714 17.7033C8.78894 17.8681 8.27886 17.967 7.80066 17.967C6.17476 17.967 5.34587 16.978 5.34587 15.0989C5.34587 12.9231 6.42981 11.3077 7.86442 11.3077C9.04399 11.3077 9.80911 12.1978 9.80911 13.6154C9.80911 14.1428 9.74536 14.6703 9.61784 15.1978H6.74861C6.74861 15.2967 6.74861 15.3297 6.74861 15.3956C6.74861 16.1209 7.16305 16.5165 8.02382 16.5165C8.53391 16.5165 9.07588 16.3846 9.5222 16.1209L9.26714 17.7033ZM8.43826 13.9121C8.43826 13.7802 8.43826 13.6813 8.43826 13.5824C8.43826 13.0549 8.18323 12.7582 7.76878 12.7582C7.35434 12.7582 6.97177 13.1538 6.84425 13.9121H8.43826Z" fill="#F07F1A"/>
<path d="M26.3868 17.7033C25.9086 17.8681 25.3986 17.967 24.9204 17.967C23.2945 17.967 22.4656 16.978 22.4656 15.0989C22.4656 12.9231 23.5495 11.3077 24.9841 11.3077C26.1637 11.3077 26.9288 12.1978 26.9288 13.6154C26.9288 14.1428 26.8651 14.6703 26.7375 15.1978H23.8683C23.8683 15.2967 23.8683 15.3297 23.8683 15.3956C23.8683 16.1209 24.2828 16.5165 25.1435 16.5165C25.6536 16.5165 26.1956 16.3846 26.6419 16.1209L26.3868 17.7033ZM25.5898 13.9121C25.5898 13.7802 25.5898 13.6813 25.5898 13.5824C25.5898 13.0549 25.3348 12.7582 24.9204 12.7582C24.5059 12.7582 24.1233 13.1538 23.9958 13.9121H25.5898Z" fill="#F07F1A"/>
<path d="M46.5033 17.7033C46.0251 17.8681 45.515 17.967 45.0368 17.967C43.4109 17.967 42.582 16.978 42.582 15.0989C42.582 12.9231 43.6659 11.3077 45.1005 11.3077C46.2801 11.3077 47.0452 12.1978 47.0452 13.6154C47.0452 14.1428 46.9815 14.6703 46.854 15.1978H43.9847C43.9847 15.2637 43.9847 15.3297 43.9847 15.3956C43.9847 16.1209 44.3992 16.5165 45.2599 16.5165C45.77 16.5165 46.312 16.3846 46.7583 16.1209L46.5033 17.7033ZM45.7063 13.9121C45.7063 13.7802 45.7063 13.6813 45.7063 13.5824C45.7063 13.0549 45.4512 12.7582 45.0368 12.7582C44.6223 12.7582 44.2398 13.1538 44.1123 13.9121H45.7063Z" fill="#F07F1A"/>
<path d="M4.99514 11.6703C4.64445 11.4396 4.23001 11.3077 3.78369 11.3077C3.20984 11.3077 2.73162 11.4396 2.73162 12.0659C2.73162 13.1868 4.86761 12.7912 4.86761 15.1978C4.86761 17.4066 3.46488 17.967 2.18967 17.967C1.61583 17.9341 1.04197 17.8022 0.5 17.5385L0.850695 15.9231C1.23326 16.2198 1.71147 16.3846 2.18967 16.3846C2.636 16.3846 3.36923 16.2527 3.36923 15.4286C3.36923 14.1428 1.23326 14.6374 1.23326 12.3626C1.23326 10.3187 2.47659 9.6923 3.65616 9.6923C4.32564 9.6923 4.96325 9.7912 5.34581 10.0549L4.99514 11.6703Z" fill="#F07F1A"/>
<path d="M13.4754 17.7033C13.061 17.9011 12.6465 17.967 12.2002 17.9341C10.9569 17.9341 10.1599 16.6483 10.1599 15.033C10.1599 12.956 11.2757 11.3077 12.9653 11.3077C13.4435 11.3407 13.9217 11.4725 14.3362 11.7363L14.0174 13.2527C13.7305 13.0549 13.4117 12.9231 13.061 12.9231C12.2958 12.9231 11.7539 13.6483 11.7539 14.967C11.7539 15.7253 12.1683 16.3516 12.774 16.3516C13.1247 16.3516 13.4435 16.2527 13.7304 16.0549L13.4754 17.7033Z" fill="#F07F1A"/>
<path d="M18.8632 16.1209C18.7994 16.6813 18.7357 17.2088 18.6719 17.7692H17.2692L17.3967 16.7472C16.9504 17.4396 16.504 17.9341 15.707 17.9341C14.8463 17.9341 14.3681 16.978 14.3681 15.7582C14.3681 15.2967 14.3999 14.8681 14.4956 14.4396L14.8781 11.5055H16.4084L15.994 14.4725C15.9302 14.8022 15.8983 15.0989 15.8983 15.4286C15.8983 15.7912 16.0577 16.1868 16.4722 16.1538C17.1098 16.1538 17.4923 15.3626 17.588 14.4066L18.0024 11.5055H19.5008L18.8632 16.1209Z" fill="#F07F1A"/>
<path d="M47.938 17.6703H47.7148V16.6154H47.3641V16.3846H48.2568V16.6154H47.9061L47.938 17.6703Z" fill="#F07F1A"/>
<path d="M49.5 17.6703H49.2768V16.6154L49.0537 17.6703H48.8305L48.6392 16.6154V17.6703H48.4161V16.3846H48.7668L48.958 17.4066L49.1493 16.3846H49.5V17.6703Z" fill="#F07F1A"/>
</svg>
