<svg width="61" height="60" viewBox="0 0 61 60" fill="none" xmlns="http://www.w3.org/2000/svg">
<path d="M30.5 0C13.9535 0 0.5 13.4535 0.5 30C0.5 46.5465 13.9535 60 30.5 60C47.0465 60 60.5 46.5465 60.5 30C60.5 13.4535 47.0465 0 30.5 0ZM30.5 2.25581C45.5465 2.25581 57.8023 14.3023 58.1977 29.2442H2.80233C3.19767 14.3023 15.4535 2.25581 30.5 2.25581Z" fill="#E5281E"/>
<path d="M9.48837 38.1047C9.48837 38.1047 9.48837 38.0581 9.5 38.0465C9.51163 38.0349 9.51163 38 9.51163 37.9651C9.51163 37.9302 9.51163 37.9186 9.48837 37.907C9.46512 37.8953 9.45349 37.8721 9.4186 37.8488C9.4186 37.7907 9.40698 37.7326 9.40698 37.686V37.3488C9.40698 37.3488 9.40698 37.2907 9.40698 37.2674C9.40698 37.2442 9.40698 37.2093 9.40698 37.186C9.43023 37.1628 9.44186 37.1395 9.44186 37.1279C9.44186 37.1163 9.44186 37.1047 9.44186 37.0814L9.38372 36.8721L9.44186 36.6047C9.44186 36.6047 9.44186 36.5349 9.4186 36.5C9.39535 36.4651 9.39535 36.4419 9.39535 36.407C9.39535 36.3837 9.39535 36.3605 9.4186 36.3488C9.44186 36.3372 9.44186 36.314 9.46512 36.2907L9.51163 36.2326C9.51163 36.2326 9.53488 36.1977 9.54651 36.1744L9.59302 36.0349C9.63953 35.8721 9.7093 35.7326 9.80232 35.6047C9.89535 35.4767 10.0116 35.3605 10.1512 35.2442C10.1512 35.186 10.186 35.1163 10.2326 35.0465C10.2791 34.9767 10.3488 34.9186 10.4186 34.8488C10.4884 34.7791 10.5814 34.7209 10.6628 34.6628C10.7442 34.6047 10.8488 34.5465 10.9419 34.5C11.0349 34.4535 11.1163 34.407 11.1977 34.3605C11.2791 34.314 11.3488 34.2907 11.407 34.2674C11.4767 34.2442 11.5465 34.2209 11.6163 34.2093C11.686 34.1977 11.7674 34.1744 11.8488 34.1395C11.8721 34.1395 11.9302 34.1279 12.0116 34.1163C12.093 34.1047 12.1744 34.093 12.2674 34.0814C12.3605 34.0698 12.4419 34.0581 12.5233 34.0465C12.6047 34.0349 12.6628 34.0349 12.6977 34.0233C12.7442 34.0233 12.7791 34.0233 12.814 34.0233C12.8488 34.0233 12.8837 34.0233 12.9186 34.0233H13.4767C13.4767 34.0233 13.5581 34.0233 13.593 34.0233C13.6279 34.0465 13.686 34.0698 13.7442 34.093C13.8023 34.1163 13.8837 34.1395 13.9535 34.1628C14.0233 34.186 14.1047 34.1977 14.1744 34.2209C14.2442 34.2442 14.3023 34.2442 14.3488 34.2442C14.407 34.2442 14.4651 34.2326 14.5 34.1977C14.5349 34.1628 14.5698 34.1395 14.593 34.1047C14.6163 34.0698 14.6512 34.0349 14.686 34.0116C14.7209 33.9884 14.7558 33.9651 14.814 33.9651C14.8488 33.9651 14.8837 33.9651 14.9186 34C14.9535 34.0349 14.9651 34.0465 14.9884 34.0698C15.0116 34.093 15.0116 34.1279 15.0233 34.1628C15.0349 34.1977 15.0233 34.2209 15.0233 34.2442L15.0465 34.7209C15.0465 34.7209 15.0698 34.7674 15.0814 34.7907C15.093 34.814 15.0814 34.8256 15.0814 34.8372C15.0814 34.8953 15.0814 34.9302 15.093 34.9419C15.093 34.9651 15.093 34.9884 15.093 35.0349C15.093 35.0814 15.1047 35.1163 15.1163 35.1628C15.1279 35.2093 15.1279 35.2442 15.1395 35.2674C15.1512 35.2907 15.1395 35.314 15.1395 35.314C15.1395 35.3605 15.1512 35.407 15.1628 35.4419C15.1744 35.4767 15.186 35.5116 15.1977 35.5349C15.2093 35.5581 15.2209 35.6047 15.2326 35.6279C15.2442 35.6512 15.2442 35.6977 15.2442 35.7558C15.2442 35.7558 15.2442 35.7791 15.2209 35.7907C15.1977 35.8023 15.1977 35.814 15.1744 35.8256C15.1512 35.8372 15.1395 35.8488 15.1279 35.8605C15.1163 35.8721 15.093 35.8721 15.093 35.8721C15.0233 35.8721 14.9535 35.8488 14.8837 35.8023C14.814 35.7558 14.7558 35.6977 14.6977 35.6279C14.6395 35.5581 14.593 35.4884 14.5465 35.407C14.5 35.3256 14.4651 35.2674 14.4419 35.1977L14.407 35.1395L14.3837 35.0233L14.2326 34.8837C14.2326 34.8837 14.2093 34.8605 14.1977 34.8372C14.186 34.814 14.1628 34.7907 14.1512 34.7674C14.1395 34.7442 14.1163 34.7209 14.093 34.6977C14.0698 34.6744 14.0581 34.6512 14.0465 34.6395C14.0116 34.593 13.9651 34.5581 13.9186 34.5233C13.8721 34.4884 13.8023 34.4767 13.7442 34.4651C13.686 34.4535 13.6163 34.4419 13.5581 34.4186C13.5 34.3953 13.4419 34.3837 13.3837 34.3605C13.3372 34.3372 13.3023 34.314 13.2674 34.3023C13.2326 34.2907 13.2093 34.2674 13.1744 34.2558C13.1395 34.2442 13.1163 34.2326 13.0698 34.2209C13.0233 34.2093 12.9884 34.2209 12.9302 34.2209C12.8605 34.2209 12.7907 34.2442 12.7326 34.2791C12.6744 34.314 12.6047 34.3372 12.5349 34.3488L12.2093 34.3721C12.0698 34.3953 11.9419 34.4419 11.814 34.5116C11.686 34.5814 11.5698 34.6628 11.4651 34.7558C11.3605 34.8488 11.2442 34.9535 11.1512 35.0581C11.0581 35.1628 10.9535 35.2674 10.8721 35.3721C10.8488 35.407 10.8256 35.4535 10.8256 35.5116C10.8256 35.5698 10.814 35.6163 10.7907 35.6628C10.7674 35.7326 10.7326 35.8023 10.686 35.8605C10.6395 35.9186 10.6046 36 10.5581 36.0698C10.5116 36.1395 10.4767 36.2093 10.4535 36.2791C10.4302 36.3488 10.407 36.4186 10.407 36.5C10.407 36.5116 10.407 36.5465 10.407 36.5814C10.407 36.6163 10.407 36.6744 10.407 36.7209C10.407 36.7674 10.407 36.8256 10.407 36.8954C10.407 36.9651 10.407 37.0116 10.407 37.0698V37.2209L10.4651 37.3256V37.5814C10.4767 37.7442 10.5 37.907 10.5233 38.0581C10.5465 38.2093 10.6047 38.3605 10.6744 38.5C10.7093 38.5581 10.7442 38.6163 10.7907 38.6628C10.8372 38.7093 10.8721 38.7558 10.9186 38.8023C10.9651 38.8488 11 38.8954 11.0465 38.9419C11.093 38.9884 11.1279 39.0465 11.1628 39.1047C11.1744 39.1279 11.1977 39.1512 11.2326 39.1512C11.2674 39.1512 11.3023 39.1744 11.3256 39.1977C11.4651 39.407 11.6395 39.5698 11.8372 39.6861C12.0349 39.8023 12.2558 39.8837 12.4884 39.9419C12.5465 39.9535 12.6047 39.9651 12.6395 39.9884C12.6744 40.0116 12.7326 40.0233 12.7791 40.0233C12.8023 40.0233 12.8372 40.0233 12.8605 40.0116L12.9186 39.9884C12.9186 39.9884 12.9651 39.9884 13.0116 39.9884C13.0581 39.9884 13.093 39.9884 13.1395 39.9884C13.186 39.9884 13.2326 39.9884 13.2791 39.9767C13.3256 39.9651 13.3605 39.9767 13.3721 39.9651C13.3721 39.9651 13.3953 39.9535 13.4302 39.9302C13.4651 39.907 13.5116 39.8721 13.5698 39.8372C13.6279 39.8023 13.686 39.7558 13.7442 39.7209C13.8023 39.686 13.8721 39.6395 13.9186 39.593C13.9651 39.5465 14.0233 39.5233 14.0581 39.4884C14.093 39.4535 14.1163 39.4419 14.1279 39.4302V39.2907L14.1047 39.0233C14.1047 38.9651 14.1047 38.8954 14.1047 38.8488C14.1047 38.8023 14.1047 38.7442 14.1047 38.7093V38.6163L14.0581 38.5349V38.3023C14.0581 38.3023 14.0349 38.2093 14.0116 38.1628C13.9884 38.1163 13.9535 38.093 13.9302 38.0698C13.907 38.0465 13.8721 38.0116 13.8488 37.9767C13.8256 37.9419 13.8023 37.907 13.8023 37.8721V37.7326L13.7791 37.6047C13.7791 37.6047 13.8023 37.5581 13.8372 37.5465C13.8721 37.5349 13.907 37.5233 13.9535 37.5116C14 37.5 14.0465 37.5 14.093 37.5C14.1395 37.5 14.186 37.5 14.2326 37.5H14.3837L14.7209 37.5581C14.7907 37.5581 14.8605 37.5581 14.9186 37.5465C14.9767 37.5349 15.0349 37.5233 15.0814 37.5116H15.9302C15.9302 37.5116 15.9535 37.5116 15.9767 37.5116C16 37.5116 16.0233 37.5233 16.0465 37.5349C16.0698 37.5465 16.093 37.5581 16.1047 37.5814C16.1163 37.6047 16.1279 37.6163 16.1279 37.6395C16.1279 37.6977 16.093 37.7558 16.0349 37.7907C15.9767 37.8256 15.907 37.8605 15.8256 37.8721C15.7442 37.8837 15.6744 37.907 15.593 37.9302C15.5116 37.9535 15.4651 37.9651 15.4419 37.9884L15.1744 38.3256C15.1744 38.3256 15.1977 38.3837 15.2209 38.4302C15.2442 38.4767 15.2442 38.5116 15.2442 38.5581L15.186 39.0581C15.186 39.0581 15.186 39.1395 15.2209 39.1628C15.2558 39.186 15.2558 39.2093 15.2558 39.2442C15.2558 39.314 15.2558 39.3837 15.2442 39.4651C15.2326 39.5465 15.2093 39.6163 15.186 39.6861C15.1628 39.7558 15.1163 39.8256 15.0698 39.8721C15.0233 39.9186 14.9535 39.9651 14.8837 39.9767L14.6395 40C14.6395 40 14.5465 40.0233 14.4884 40.0465C14.4302 40.0698 14.3721 40.1047 14.314 40.1512C14.2558 40.1977 14.1977 40.2326 14.1512 40.2674C14.1047 40.3023 14.0581 40.3372 14.0116 40.3605C13.9767 40.3837 13.9419 40.3954 13.8953 40.3954C13.8488 40.3954 13.8256 40.3954 13.7907 40.3954H13.6279C13.5698 40.3954 13.5116 40.3954 13.4535 40.3954C13.3953 40.3954 13.3488 40.4186 13.2791 40.4419H12.5233C12.3953 40.407 12.2442 40.3954 12.1046 40.3954C12.0349 40.3954 11.9651 40.3954 11.8953 40.3954C11.8256 40.3954 11.7558 40.3954 11.686 40.3954C11.6512 40.3954 11.6279 40.3954 11.6047 40.3721C11.5814 40.3488 11.5698 40.3488 11.5465 40.3256L11.5 40.2791C11.5 40.2791 11.4651 40.2558 11.4419 40.2442C11.4419 40.2442 11.407 40.2209 11.3721 40.2093C11.3372 40.1977 11.3023 40.186 11.2558 40.1744C11.2093 40.1628 11.1744 40.1512 11.1395 40.1395C11.1047 40.1279 11.0814 40.1279 11.0814 40.1279L10.7907 39.9767C10.7907 39.9767 10.7442 39.9767 10.6977 39.9535C10.6512 39.9302 10.6279 39.9302 10.6046 39.9302C10.5581 39.9302 10.5116 39.8837 10.4302 39.8256C10.3488 39.7674 10.2907 39.686 10.2093 39.6163C10.1279 39.5465 10.0581 39.4535 10 39.3837C9.94186 39.314 9.88372 39.2442 9.86046 39.2093C9.86046 39.1977 9.84884 39.1744 9.81395 39.1395C9.77907 39.1047 9.76744 39.0814 9.75581 39.0698L9.7093 38.9535C9.7093 38.9535 9.68605 38.9302 9.66279 38.9186C9.63953 38.907 9.61628 38.8837 9.59302 38.8721C9.56977 38.8605 9.54651 38.8372 9.53488 38.8256C9.52325 38.814 9.51163 38.8023 9.51163 38.7907L9.46512 38.5C9.46512 38.5 9.44186 38.4419 9.4186 38.407C9.39535 38.3721 9.38372 38.3488 9.36046 38.314C9.33721 38.2791 9.32558 38.2558 9.30233 38.2209C9.27907 38.186 9.27907 38.1512 9.27907 38.1163L9.48837 38.1047Z" fill="white"/>
<path d="M16.5698 40.1861C16.5698 40.1861 16.5698 40.0814 16.6047 40.0349C16.6395 39.9884 16.6628 39.9535 16.7093 39.9535L17.0814 39.9186C17.1628 39.907 17.2326 39.8954 17.3023 39.8721C17.3721 39.8488 17.4419 39.8488 17.5116 39.8256C17.5814 39.8023 17.6395 39.7791 17.7093 39.7442C17.7791 39.7093 17.8256 39.6628 17.8721 39.6047C17.8837 39.5814 17.8953 39.5581 17.907 39.5465C17.9186 39.5349 17.907 39.5 17.907 39.4767C17.907 39.4302 17.9186 39.3837 17.9419 39.3488C17.9419 39.2674 17.9419 39.2093 17.9419 39.1395C17.9419 39.0698 17.9419 39.0116 17.9186 38.9302C17.9186 38.8953 17.9186 38.8605 17.9186 38.8372V38.7791C17.9186 38.7791 17.9186 38.6977 17.9186 38.6744C17.9186 38.6512 17.9302 38.6163 17.9419 38.5698C17.9419 38.4767 17.9419 38.407 17.9419 38.3488C17.9419 38.2907 17.9419 38.2326 17.9419 38.1744C17.9419 38.0698 17.9535 37.9651 17.9884 37.8605L17.9419 37.186C17.9419 37.186 17.9419 37.1512 17.9302 37.1163C17.9186 37.0814 17.9302 37.0581 17.9302 37.0349C17.9419 37 17.9651 36.9535 17.9767 36.9186C17.9884 36.8837 18 36.8256 18 36.7791C18 36.686 17.9884 36.6047 17.9884 36.5233C17.9884 36.4419 17.9884 36.3605 17.9651 36.2674C17.9651 36.2442 17.9535 36.2209 17.9302 36.2093C17.907 36.1977 17.907 36.1744 17.907 36.1512C17.907 36.1163 17.907 36.093 17.9302 36.0814C17.9535 36.0698 17.9535 36.0581 17.9651 36.0349V35.814C17.9651 35.7558 17.9651 35.6744 17.9651 35.593C17.9651 35.5116 17.9651 35.4302 17.9535 35.3488C17.9419 35.2674 17.9302 35.1744 17.9186 35.093C17.907 35.0116 17.8721 34.9186 17.8372 34.8488C17.8256 34.8372 17.8023 34.8256 17.7791 34.8023C17.7558 34.7791 17.7209 34.7674 17.6977 34.7442C17.6744 34.7209 17.6512 34.7093 17.6279 34.686C17.6047 34.6628 17.593 34.6628 17.593 34.6628C17.5698 34.6395 17.5233 34.6279 17.4767 34.6047C17.4302 34.5814 17.3721 34.5698 17.314 34.5581C17.2558 34.5465 17.1977 34.5233 17.1279 34.5116C17.0581 34.5 17.0116 34.4767 16.9535 34.4419C16.8953 34.407 16.8605 34.3837 16.8256 34.3488C16.7907 34.314 16.7791 34.2674 16.7791 34.2209C16.7791 34.1977 16.7791 34.186 16.814 34.1744C16.8488 34.1628 16.8605 34.1512 16.8953 34.1395C16.9302 34.1279 16.9535 34.1279 16.9767 34.1279C17 34.1279 17.0233 34.1279 17.0349 34.1279C17.0698 34.1279 17.093 34.1279 17.1163 34.1279H17.1628C17.1628 34.1279 17.1977 34.1279 17.2093 34.1279C17.314 34.1279 17.4186 34.1279 17.5233 34.1163C17.6279 34.1047 17.7442 34.1163 17.8488 34.1163C17.9535 34.1163 18.0465 34.1163 18.1512 34.1163C18.2558 34.1163 18.3488 34.1163 18.4651 34.1279C18.4767 34.1395 18.4884 34.1512 18.5116 34.1628C18.5349 34.1744 18.5465 34.1628 18.5581 34.1628C18.6977 34.1512 18.814 34.1395 18.907 34.1163C19 34.093 19.093 34.0814 19.1744 34.0698C19.2558 34.0581 19.3372 34.0349 19.407 34.0233C19.4767 34.0116 19.5698 33.9884 19.6512 33.9767H19.7558C19.7558 33.9767 19.8837 33.9767 19.9651 33.9767C20.0465 33.9767 20.1279 33.9884 20.1977 34C20.2674 34.0116 20.3372 34.0349 20.3837 34.0698C20.4302 34.1047 20.4651 34.1395 20.4651 34.1977C20.4651 34.2209 20.4651 34.2558 20.4651 34.2907C20.4651 34.3256 20.4535 34.3605 20.4419 34.3837C20.4302 34.407 20.3837 34.4302 20.3023 34.4419C20.2209 34.4535 20.1512 34.4651 20.0581 34.4767C19.9651 34.4884 19.8837 34.4884 19.8023 34.5C19.7209 34.5116 19.6628 34.5 19.6163 34.5C19.6047 34.5 19.5814 34.5 19.5698 34.5116C19.5581 34.5233 19.5349 34.5116 19.5233 34.5116C19.5116 34.5116 19.5 34.5116 19.4884 34.5116L19.407 34.5349C19.3023 34.5465 19.2093 34.5581 19.1628 34.5698C19.1163 34.5814 19.0581 34.593 19.0349 34.6163C19.0116 34.6395 18.9884 34.6628 18.9767 34.686C18.9651 34.7093 18.9651 34.7558 18.9535 34.814C18.9535 34.8605 18.9535 34.9186 18.9535 34.9651C18.9535 35.0116 18.9535 35.0814 18.9302 35.1395L18.8721 35.2791C18.8721 35.2791 18.8721 35.3605 18.8953 35.407C18.9186 35.4535 18.9302 35.5 18.9419 35.5465C18.9535 35.593 18.9767 35.6395 18.9884 35.6861C19 35.7326 19.0116 35.7791 19.0116 35.8256L18.9767 36.1744L19.0349 36.4651C19.0349 36.5349 19.0349 36.593 19.0116 36.6512C18.9884 36.7093 18.9884 36.7558 18.9651 36.8256C18.9535 36.9186 18.9419 37.0116 18.9419 37.1163C18.9419 37.2209 18.9419 37.314 18.9419 37.407V37.5465C18.9419 37.6279 18.9419 37.6744 18.9767 37.6977V38.6163C18.9767 38.6163 18.9535 38.6628 18.9535 38.6744C18.9535 38.686 18.9535 38.6977 18.9535 38.7209C18.9535 38.7674 18.9535 38.814 18.9884 38.8488C19.0233 38.8837 19.0233 38.9186 19.0233 38.9535C19.0233 39.0116 19.0233 39.0814 19 39.1628C18.9767 39.2442 18.9767 39.3023 18.9535 39.3488C18.9535 39.3488 18.9535 39.3605 18.9535 39.3721V39.4186C18.9535 39.4186 18.9419 39.4535 18.9302 39.4651C18.9302 39.5116 18.9651 39.5581 19.0116 39.6047C19.0581 39.6512 19.1163 39.6977 19.1744 39.7326C19.2326 39.7674 19.3023 39.8023 19.3721 39.8256C19.4419 39.8488 19.5 39.8605 19.5349 39.8605L19.7326 39.814C19.7326 39.814 19.7558 39.814 19.7791 39.8372C19.8023 39.8605 19.8372 39.8605 19.8837 39.8605C19.9186 39.8605 19.9535 39.8605 19.9884 39.8256C20.0233 39.7907 20.0581 39.7907 20.1047 39.7907L20.2442 39.8488L20.5349 39.8721L20.6628 39.907H20.7442C20.8256 39.8954 20.9186 39.8837 21 39.8721C21.0814 39.8605 21.1628 39.8488 21.2442 39.8256C21.3256 39.8023 21.407 39.7907 21.4767 39.7558C21.5465 39.7209 21.6163 39.6861 21.686 39.6279H21.6977C21.6977 39.6279 21.7209 39.593 21.7209 39.5698C21.7326 39.5233 21.7558 39.4767 21.7791 39.4535C21.8023 39.4302 21.8256 39.3954 21.8605 39.3721C21.8954 39.3488 21.9186 39.3256 21.9535 39.3023C21.9884 39.2791 22.0116 39.2558 22.0465 39.2209C22.093 39.186 22.1279 39.1395 22.1628 39.0814C22.1977 39.0233 22.2326 38.9651 22.2791 38.907C22.314 38.8721 22.3488 38.8488 22.3837 38.814C22.4186 38.7791 22.4651 38.7442 22.5116 38.7209C22.5581 38.6977 22.6047 38.6744 22.6512 38.6512C22.6977 38.6279 22.7326 38.6279 22.7674 38.6279C22.7791 38.6279 22.8023 38.6279 22.8256 38.6279C22.8488 38.6279 22.8721 38.6279 22.8953 38.6395C22.9186 38.6512 22.9419 38.6512 22.9535 38.6628C22.9651 38.6744 22.9767 38.686 22.9767 38.6977C22.9767 38.7674 22.9767 38.814 22.9535 38.8605C22.9302 38.907 22.9186 38.9419 22.907 38.9767C22.8954 39.0116 22.8605 39.0465 22.8256 39.0814C22.7907 39.1163 22.7674 39.1512 22.7326 39.1861C22.7209 39.1977 22.7093 39.2209 22.7093 39.2442C22.7093 39.2674 22.7093 39.2907 22.7093 39.314C22.7093 39.3372 22.7093 39.3605 22.7093 39.3837C22.7093 39.407 22.7093 39.4302 22.7093 39.4419C22.7093 39.4767 22.686 39.5233 22.6628 39.5465C22.6395 39.5698 22.6163 39.6047 22.593 39.6395C22.5698 39.6744 22.5465 39.6977 22.5233 39.7209C22.5 39.7442 22.4767 39.7674 22.4651 39.7907L22.4419 39.9302C22.407 40.0814 22.3372 40.1977 22.2442 40.2791C22.1512 40.3605 22.0116 40.3954 21.8605 40.3954L21.5 40.3256L21.3605 40.3954H20.8605C20.8023 40.3605 20.7442 40.3372 20.6977 40.3372C20.6512 40.3372 20.593 40.3372 20.5349 40.3372C20.4651 40.3372 20.3953 40.3488 20.3372 40.3721C20.2791 40.3954 20.2209 40.407 20.1628 40.407H20.1047L19.407 40.314L19.3256 40.2791H18.9186C18.9186 40.2791 18.8605 40.2326 18.8372 40.2209C18.814 40.2093 18.7791 40.2209 18.7442 40.2209C18.7093 40.2209 18.686 40.2209 18.6744 40.2209C18.6628 40.2209 18.6395 40.2326 18.6047 40.2558H17.8721C17.8721 40.2558 17.7558 40.3256 17.6628 40.3488C17.5698 40.3721 17.4651 40.3837 17.3605 40.3954C17.2558 40.407 17.1512 40.4186 17.0465 40.4186C16.9419 40.4186 16.8721 40.4186 16.814 40.4186C16.7791 40.4186 16.7442 40.4186 16.7093 40.3954C16.6744 40.3721 16.6512 40.3488 16.6279 40.3256C16.6047 40.3023 16.593 40.2674 16.5814 40.2326C16.5698 40.1977 16.5581 40.1628 16.5581 40.1279L16.5698 40.1861Z" fill="white"/>
<path d="M24.5581 39.3837C24.5 39.2209 24.4419 39.0698 24.3837 38.907C24.3256 38.7442 24.2674 38.593 24.2093 38.4419C24.2093 38.4419 24.2093 38.4302 24.2093 38.4186V38.3954C24.2093 38.3954 24.1744 38.3721 24.1744 38.3605V37.9186L24.1279 37.8372V37.5C24.1279 37.5 24.1047 37.4535 24.093 37.4419C24.0814 37.4302 24.0581 37.407 24.0465 37.3837C24.0349 37.3605 24.0116 37.3488 24 37.3256C23.9884 37.3023 23.9767 37.2791 23.9767 37.2442C23.9767 37.2093 23.9767 37.1744 23.9767 37.1512V36.9884C23.9767 36.9884 23.9767 36.9419 23.9767 36.9186V36.2907L23.9535 35.9419L23.9767 35.8605L23.9535 35.6512V35.5698L23.9767 35.2558C23.9767 35.2558 23.9767 35.2326 23.9651 35.2093C23.9651 35.1744 23.9651 35.1628 23.9651 35.1512C23.9651 35.1395 23.9535 35.1163 23.9302 35.0814C23.907 35.0465 23.8953 35.0116 23.8837 34.9767C23.8721 34.9419 23.8372 34.8953 23.814 34.8605C23.7907 34.8256 23.7674 34.7907 23.7442 34.7674C23.7209 34.7442 23.686 34.7326 23.6512 34.7093C23.6163 34.686 23.5698 34.6744 23.5116 34.6512C23.4535 34.6279 23.407 34.593 23.3605 34.5698C23.314 34.5465 23.2558 34.5 23.2093 34.4535C23.186 34.4186 23.1512 34.3953 23.1279 34.3837C23.1046 34.3721 23.0698 34.3488 23.0465 34.3372C23.0233 34.3256 23 34.3023 22.9884 34.2907C22.9767 34.2791 22.9651 34.2558 22.9651 34.2326C22.9651 34.186 22.9767 34.1512 23.0116 34.1279C23.0465 34.1047 23.0698 34.0698 23.1163 34.0581C23.1628 34.0465 23.1977 34.0233 23.2558 34.0233C23.314 34.0233 23.3488 34.0233 23.3837 34.0233L23.5349 33.9767L23.7674 34H23.8488C23.9419 34 24.0349 34 24.1279 34.0233C24.2209 34.0465 24.2907 34.0465 24.3488 34.0698H24.6047C24.6047 34.0698 24.6744 34.0698 24.7209 34.0581C24.7674 34.0465 24.8023 34.0581 24.8488 34.0349C24.8953 34.0349 24.9302 34.0233 24.9651 34.0116C25 34 25.0349 34 25.0698 34C25.1279 34 25.186 34 25.2326 34.0233C25.2791 34.0465 25.3256 34.0465 25.3605 34.0465C25.4419 34.0465 25.5116 34.0465 25.5814 34.0233C25.6512 34 25.7326 34 25.814 34H26.0233C26.0233 34 26.0698 34.0349 26.093 34.0465C26.1163 34.0581 26.1512 34.0814 26.186 34.093C26.2209 34.1047 26.2442 34.1279 26.2558 34.1395C26.2674 34.1512 26.2907 34.1744 26.2907 34.186V34.3837C26.2907 34.3837 26.2558 34.4419 26.1977 34.4651C26.1395 34.4884 26.0698 34.5233 26 34.5465C25.9302 34.5698 25.8488 34.593 25.7791 34.6163C25.7093 34.6395 25.6628 34.6512 25.6395 34.6628C25.5698 34.7093 25.4884 34.7558 25.3953 34.814C25.3023 34.8721 25.2326 34.9419 25.1744 35.0233V35.4767L25.1279 35.8372C25.1279 35.8372 25.1279 35.8605 25.1279 35.8837C25.1279 35.907 25.1279 35.9302 25.1279 35.9651C25.1279 36.0233 25.1163 36.0698 25.0814 36.1047V36.686L25.1163 36.8023C25.1163 36.8023 25.1163 36.8372 25.1163 36.8837C25.1163 36.9302 25.1279 36.9767 25.1395 37.0465C25.1512 37.1163 25.1512 37.1744 25.1628 37.2326C25.1744 37.2907 25.1628 37.3488 25.1628 37.3953C25.1628 37.407 25.1512 37.4302 25.1395 37.4419C25.1279 37.4535 25.1395 37.4884 25.1395 37.5349C25.1395 37.5465 25.1395 37.5581 25.1395 37.5698C25.1395 37.5814 25.1628 37.593 25.1977 37.6047V37.9767C25.1977 37.9767 25.1977 38.0349 25.1977 38.0814L25.2674 38.3023L25.5233 38.8256C25.5581 38.8837 25.593 38.9419 25.6279 39.0116C25.6628 39.0814 25.6977 39.1279 25.7326 39.186C25.7674 39.2442 25.814 39.3023 25.8605 39.3488C25.907 39.3954 25.9535 39.4419 26.0116 39.4767L26.2209 39.5233L26.3372 39.6395C26.4302 39.6977 26.5233 39.7326 26.6279 39.7442C26.7326 39.7558 26.8488 39.7558 26.9535 39.7558H27.1047C27.1047 39.7558 27.186 39.7558 27.2326 39.7558C27.2791 39.7558 27.314 39.7558 27.3605 39.7326C27.407 39.7093 27.4651 39.7093 27.5349 39.6977C27.5581 39.6977 27.5698 39.6977 27.593 39.6861C27.6163 39.6744 27.6279 39.6628 27.6395 39.6512C27.6512 39.6395 27.6744 39.6279 27.686 39.6163C27.6977 39.6047 27.7209 39.593 27.7558 39.593C27.8372 39.5814 27.8953 39.5581 27.9419 39.5465C27.9884 39.5349 28.0233 39.5 28.0581 39.4767C28.093 39.4535 28.1279 39.4186 28.1744 39.3837C28.2209 39.3488 28.2674 39.3023 28.3256 39.2442L28.4419 39.186C28.4419 39.186 28.4535 39.1628 28.4767 39.1279C28.5 39.093 28.5116 39.0349 28.5349 38.9767C28.5581 38.9186 28.5814 38.8488 28.6047 38.7791C28.6279 38.7093 28.6512 38.6395 28.6744 38.5698C28.6977 38.5 28.7209 38.4419 28.7442 38.3954C28.7674 38.3488 28.7791 38.3023 28.7907 38.2907C28.814 38.2558 28.8256 38.1977 28.8372 38.1279C28.8488 38.0581 28.8721 37.9767 28.8837 37.8954C28.8953 37.814 28.907 37.7326 28.9186 37.6512C28.9302 37.5698 28.9419 37.5 28.9535 37.4419C28.9535 37.3837 28.9535 37.3256 28.9419 37.2442C28.9302 37.1628 28.9302 37.093 28.9302 37.0349L28.907 36.9302L29 36.7558C29 36.7558 29 36.7209 28.9767 36.686C28.9535 36.6512 28.9419 36.6279 28.9302 36.6163V36.314L28.9884 35.7907L28.9302 35.3605C28.9302 35.3605 28.9302 35.3256 28.9302 35.3023C28.9302 35.2791 28.9302 35.2442 28.9302 35.1977C28.9302 35.186 28.907 35.1628 28.8837 35.1163C28.8605 35.0698 28.8372 35.0349 28.814 34.9884L28.7093 34.814L28.6628 34.7791C28.6628 34.7791 28.6163 34.7558 28.593 34.7326C28.5698 34.7093 28.5465 34.7093 28.5233 34.6977C28.5 34.686 28.4884 34.686 28.4767 34.686C28.4535 34.6744 28.4186 34.6628 28.3837 34.6395C28.3488 34.6163 28.314 34.6047 28.2791 34.593C28.2442 34.5814 28.2093 34.5581 28.1744 34.5465C28.1395 34.5349 28.1047 34.5233 28.0814 34.5116C28.0581 34.5116 28.0233 34.5 27.9767 34.4884C27.9302 34.4767 27.8837 34.4767 27.8256 34.4651C27.7674 34.4535 27.7326 34.4419 27.6977 34.4186C27.6628 34.3953 27.6395 34.3605 27.6395 34.3256V34.2558L27.7907 34.2209L27.9535 34.1395C27.9535 34.1395 28.0581 34.1163 28.1163 34.1163C28.1744 34.1163 28.2326 34.1163 28.2907 34.1163C28.3488 34.1163 28.407 34.1163 28.4535 34.093C28.5 34.0698 28.5581 34.0698 28.6047 34.0349H28.8023C28.907 34.0349 29.0116 34.0349 29.1047 34.0349C29.1977 34.0349 29.3023 34.0349 29.4302 34.0349H29.686C29.8023 33.9767 29.9186 33.9302 30.0465 33.907C30.1744 33.8837 30.3023 33.8605 30.4419 33.8605C30.4535 33.8605 30.4767 33.8605 30.5 33.8605C30.5233 33.8605 30.5465 33.8721 30.5814 33.8837C30.6163 33.8953 30.6279 33.907 30.6512 33.9302C30.6744 33.9535 30.686 33.9767 30.686 34V34.2674L30.6395 34.2907C30.6395 34.2907 30.5233 34.3488 30.4651 34.3488C30.407 34.3488 30.3372 34.3605 30.2791 34.3721C30.2093 34.3721 30.1395 34.3953 30.0698 34.4186C30 34.4419 29.9302 34.4535 29.8605 34.4651C29.7674 34.5349 29.7093 34.6163 29.6628 34.7093C29.6163 34.8023 29.593 34.907 29.5698 35.0116C29.5465 35.1163 29.5349 35.2209 29.5233 35.3256C29.5116 35.4302 29.4767 35.5233 29.4419 35.6047V36.6628L29.3837 36.8372V37.3953C29.3837 37.3953 29.3605 37.4419 29.3605 37.4651C29.3605 37.4884 29.3605 37.5233 29.3605 37.5581C29.3605 37.593 29.3605 37.6279 29.3605 37.6395C29.3605 37.6512 29.3605 37.6977 29.3605 37.7442L29.3023 37.907C29.2907 37.9651 29.2674 38.0233 29.2442 38.0814C29.2209 38.1395 29.2093 38.1977 29.1977 38.2558L29.1047 38.6395C29.0814 38.7209 29.0581 38.7907 29.0233 38.8605C28.9884 38.9302 28.9535 39 28.9186 39.0581C28.907 39.093 28.8837 39.1163 28.8605 39.1395C28.8372 39.1628 28.814 39.186 28.7907 39.2093C28.7674 39.2326 28.7442 39.2558 28.7326 39.2791C28.7209 39.3023 28.6977 39.3372 28.686 39.3605C28.6512 39.4535 28.5698 39.5465 28.4419 39.6395C28.3837 39.686 28.314 39.7442 28.2558 39.8023C28.1977 39.8605 28.1279 39.907 28.0581 39.9535C28.0349 39.9651 28.0116 39.9767 27.9884 40L27.9186 40.0581C27.9186 40.0581 27.8721 40.093 27.8488 40.1047C27.8256 40.1163 27.8023 40.1279 27.7674 40.1395H27.6163L27.407 40.2442C27.407 40.2442 27.3256 40.2674 27.2791 40.2674C27.2326 40.2674 27.186 40.2674 27.1395 40.2674H26.9419L26.6395 40.2907L26.407 40.2674L26.0581 40.2907C26.0581 40.2907 26.0465 40.2791 26.0116 40.2674C25.9767 40.2558 25.9535 40.2442 25.9186 40.2326C25.8837 40.2093 25.8372 40.1977 25.7907 40.1861L25.6628 40.1395L25.5233 40.1047C25.4419 40.0814 25.3837 40.0581 25.314 40.0465C25.2442 40.0349 25.2209 40.0233 25.2093 40.0116C25.186 40 25.1744 39.9767 25.1512 39.9651C25.1279 39.9535 25.1163 39.9186 25.1047 39.8954C25.093 39.8721 25.0814 39.8488 25.0581 39.8256C25.0349 39.8023 25.0233 39.7907 25 39.7791C24.907 39.7326 24.814 39.6861 24.7326 39.6279C24.6512 39.5698 24.5814 39.4884 24.5233 39.3837H24.5581Z" fill="white"/>
<path d="M32.3372 40.2209C32.3372 40.1395 32.3605 40.0698 32.4186 40.0233C32.4767 39.9767 32.5349 39.9535 32.6163 39.9535L32.9186 39.9884C33 39.9884 33.0698 39.9767 33.1512 39.9419C33.2326 39.907 33.3023 39.8721 33.3721 39.8256C33.4419 39.7791 33.5 39.7209 33.5465 39.6512C33.593 39.5814 33.6279 39.5116 33.6512 39.4419V39.1977C33.6628 39.0698 33.686 38.9419 33.7093 38.814C33.7326 38.6861 33.7558 38.5698 33.7558 38.4419L33.6977 38.2442V37.1977C33.6977 37.1977 33.6977 37.1279 33.6977 37.093C33.6977 37.0581 33.6977 37.0233 33.6977 36.9767V36.1512C33.6977 36.1512 33.7209 36.0814 33.7209 36.0349C33.7209 35.9884 33.7209 35.9419 33.7209 35.8837C33.7209 35.8256 33.7209 35.7791 33.7209 35.7326C33.7209 35.686 33.7209 35.6512 33.7209 35.6163L33.7558 35.5698V35.0465C33.7558 35.0465 33.7093 34.9535 33.7093 34.907C33.7093 34.8605 33.686 34.8256 33.6744 34.8023C33.6628 34.7791 33.6395 34.7558 33.6047 34.7326C33.5698 34.7093 33.5349 34.7093 33.4651 34.7093L33.2209 34.7674C33.1395 34.7674 33.0698 34.7558 32.9884 34.7326C32.907 34.7093 32.8256 34.6744 32.7442 34.6512C32.593 34.6512 32.4767 34.6744 32.3721 34.6861C32.2674 34.6977 32.186 34.7093 32.1047 34.7326C32.0233 34.7558 31.9419 34.7791 31.8605 34.814C31.7791 34.8488 31.686 34.8954 31.5814 34.9535C31.5465 35 31.5 35.0698 31.4767 35.1395C31.4535 35.2093 31.407 35.2791 31.3721 35.3488C31.3372 35.4186 31.2907 35.4767 31.2442 35.5233C31.1977 35.5698 31.1395 35.593 31.0698 35.593H31.0116C31.0116 35.593 30.9651 35.593 30.9419 35.593C30.9186 35.593 30.907 35.593 30.8953 35.5698C30.8837 35.5465 30.8721 35.5465 30.8721 35.5349C30.8721 35.4884 30.8721 35.4419 30.8721 35.3954C30.8721 35.3488 30.8837 35.3256 30.907 35.2907C30.9302 35.2558 30.9302 35.2209 30.9419 35.1861C30.9535 35.1512 30.9651 35.1163 30.9651 35.0698V34.7791L31.0349 34.6047C31.0349 34.6047 31.0465 34.5465 31.0581 34.5116C31.0698 34.4767 31.0698 34.4186 31.0814 34.3721C31.093 34.3256 31.093 34.2791 31.1047 34.2326C31.1163 34.1861 31.1279 34.1395 31.1279 34.1163C31.1279 34.0698 31.1512 34.0233 31.1628 33.9767C31.1744 33.9302 31.186 33.8837 31.2093 33.8372C31.2326 33.7907 31.2558 33.7674 31.2907 33.7326C31.3256 33.6977 31.3605 33.6861 31.4186 33.6861C31.4767 33.6861 31.5349 33.7093 31.6047 33.7558C31.6744 33.8023 31.7442 33.8488 31.8023 33.907C31.8605 33.9651 31.9419 34.0233 32 34.0814C32.0581 34.1395 32.1279 34.1744 32.1744 34.1861C32.1977 34.1861 32.2442 34.1977 32.314 34.2093C32.3837 34.2209 32.4535 34.2326 32.5349 34.2442C32.6163 34.2558 32.686 34.2674 32.7558 34.2791C32.8256 34.2907 32.8721 34.2791 32.8954 34.2791C32.9419 34.2791 32.9767 34.2791 33.0233 34.2791C33.0698 34.2791 33.093 34.2674 33.1279 34.2558C33.1628 34.2442 33.1977 34.2326 33.2326 34.2326C33.2674 34.2326 33.314 34.2326 33.3721 34.2326H33.4884C33.5581 34.2326 33.593 34.2326 33.6047 34.2326C33.6163 34.2326 33.6395 34.2558 33.6744 34.2674C33.7093 34.2791 33.7326 34.3023 33.7326 34.3023H33.7558C33.7558 34.3023 33.8605 34.3023 33.907 34.2907C33.9535 34.2791 34 34.2674 34.0465 34.2558C34.093 34.2442 34.1395 34.2326 34.186 34.2209C34.2326 34.2093 34.2907 34.2093 34.3372 34.2093C34.3954 34.2093 34.4651 34.2093 34.5116 34.2326C34.5581 34.2558 34.6163 34.2558 34.6628 34.2558H34.8023C34.9302 34.2558 35.0465 34.2558 35.1628 34.2558C35.2791 34.2558 35.407 34.2442 35.5349 34.2326C35.6628 34.2209 35.7907 34.2093 35.9186 34.2093C36.0465 34.2093 36.186 34.1977 36.3372 34.1861C36.3837 34.1861 36.4186 34.186 36.4419 34.1977C36.4651 34.2093 36.5 34.2093 36.5349 34.2093C36.5698 34.2093 36.6047 34.2093 36.6279 34.1744C36.6512 34.1395 36.6744 34.1279 36.6977 34.1047C36.7209 34.0814 36.7442 34.0581 36.7558 34.0233C36.7674 33.9884 36.8023 33.9767 36.8256 33.9651C36.8605 33.9535 36.907 33.9302 36.9419 33.907C36.9767 33.8837 37.0116 33.8605 37.0465 33.8372C37.0814 33.814 37.1047 33.7907 37.1395 33.7791C37.1744 33.7674 37.2093 33.7558 37.2442 33.7558C37.2791 33.7558 37.3023 33.7791 37.3372 33.814C37.3721 33.8488 37.3837 33.8837 37.407 33.907V33.9302C37.407 33.9302 37.407 33.9767 37.407 34V34.6395C37.407 34.6395 37.407 34.686 37.407 34.6977L37.4419 35.1861V35.2326C37.4419 35.2326 37.4419 35.2791 37.4419 35.3023C37.4419 35.3256 37.4419 35.3488 37.4419 35.3721V35.4186C37.4419 35.4186 37.3837 35.4767 37.3256 35.4767C37.2674 35.4767 37.2209 35.4535 37.186 35.4186C37.1512 35.3837 37.1047 35.3256 37.0698 35.2791C37.0349 35.2326 37 35.1744 36.9651 35.1163C36.9302 35.0581 36.8954 35.0233 36.8488 35C36.7907 34.9535 36.7326 34.907 36.6744 34.8721C36.6163 34.8372 36.5698 34.7907 36.5233 34.7326L36.3605 34.7558L35.2907 34.6744L35.1395 34.7093L34.907 34.6744H34.8256L34.7558 34.7442V34.7907C34.7558 34.7907 34.7558 34.8605 34.7442 34.9186C34.7326 34.9767 34.7442 35.0116 34.7442 35.0581C34.7442 35.1047 34.7442 35.1512 34.7442 35.1744L34.7791 35.6512V36.5581L34.7209 36.8954L34.7791 37.4535C34.7791 37.4535 34.7791 37.5116 34.7791 37.5349C34.7791 37.5581 34.7674 37.5814 34.7558 37.6163C34.7558 37.6512 34.7558 37.7093 34.7558 37.7907C34.7558 37.8721 34.7558 37.9651 34.7558 38.0698C34.7558 38.1628 34.7558 38.2558 34.7558 38.3256C34.7558 38.3954 34.7558 38.4535 34.7558 38.4884L34.7209 38.7209C34.7209 38.7209 34.7209 38.814 34.7209 38.8721C34.7209 38.9302 34.7209 39.0116 34.7326 39.093C34.7442 39.1744 34.7442 39.2558 34.7558 39.3372C34.7674 39.4186 34.7791 39.5 34.8023 39.5698C34.8256 39.6395 34.8488 39.6977 34.8721 39.7442C34.8953 39.7907 34.9302 39.8256 34.9767 39.8372L35.5698 39.9884H35.6744L35.8023 39.9651C35.8023 39.9651 35.8721 39.9651 35.8954 40C35.9186 40.0349 35.9419 40.0465 35.9535 40.0698C35.9651 40.093 35.9767 40.1279 35.9884 40.1628C36 40.1977 35.9884 40.2209 35.9884 40.2558C35.9884 40.3023 35.9884 40.3488 35.9535 40.3721C35.9186 40.3954 35.907 40.4186 35.8721 40.4419C35.8372 40.4651 35.8023 40.4651 35.7558 40.4651C35.7093 40.4651 35.6744 40.4651 35.6395 40.4651C35.6047 40.4651 35.5814 40.4651 35.5465 40.4535C35.5116 40.4419 35.4884 40.4302 35.4535 40.407C35.4302 40.3954 35.3953 40.3837 35.3605 40.3605C35.3256 40.3372 35.2907 40.3372 35.2558 40.3372L35.0233 40.3954C34.9651 40.3954 34.8953 40.3953 34.8023 40.3605C34.7093 40.3256 34.6279 40.3256 34.5465 40.3023H34.5C34.5 40.3023 34.4535 40.314 34.4186 40.3256C34.3837 40.3372 34.3605 40.3372 34.3372 40.3488C34.314 40.3605 34.2907 40.3488 34.2907 40.3488H33.8837C33.814 40.3488 33.7558 40.3605 33.6977 40.3954C33.6395 40.4302 33.5814 40.4302 33.5116 40.4302C33.4884 40.4302 33.4651 40.4186 33.4186 40.407C33.3721 40.3954 33.3605 40.3954 33.3488 40.3954C33.3023 40.3954 33.2674 40.3954 33.2326 40.407L33.1163 40.4419C33.1163 40.4419 33 40.4651 32.9535 40.4767C32.907 40.4884 32.8372 40.5 32.7791 40.5H32.7093C32.7093 40.5 32.6279 40.5 32.593 40.5C32.5581 40.5 32.5116 40.4884 32.4535 40.4651C32.4535 40.4651 32.4535 40.4302 32.4302 40.3721C32.407 40.314 32.3953 40.2791 32.3721 40.2442L32.3372 40.2209Z" fill="white"/>
<path d="M37.7558 40.1395C37.7558 40.1395 37.7791 40.0349 37.8256 40C37.8721 39.9651 37.9186 39.9302 37.9884 39.907C38.0581 39.8837 38.1163 39.8721 38.1744 39.8605C38.2326 39.8488 38.2907 39.8488 38.3372 39.8488H38.7093C38.7093 39.8488 38.7674 39.8256 38.814 39.8023C38.8605 39.7791 38.8954 39.7442 38.9419 39.7093C38.9884 39.6744 39.0233 39.6279 39.0465 39.5814C39.0698 39.5349 39.093 39.4884 39.1047 39.4419C39.1047 39.3837 39.1163 39.314 39.1163 39.2326C39.1163 39.1744 39.1163 39.1163 39.1047 39.0465L39.1628 38.9419C39.1163 38.7907 39.093 38.6279 39.0814 38.4767C39.0698 38.3256 39.0581 38.1744 39.0581 38.0233C39.0581 37.9884 39.0581 37.9535 39.0581 37.907C39.0581 37.8605 39.0581 37.814 39.0814 37.7674C39.1047 37.7209 39.093 37.6744 39.1047 37.6279C39.1163 37.5814 39.1279 37.5465 39.1279 37.5116V37.4767C39.1279 37.4767 39.1628 37.4419 39.1628 37.4302C39.1628 37.407 39.186 37.3837 39.1977 37.3721C39.1977 37.3605 39.2093 37.3372 39.2209 37.3256C39.2326 37.314 39.2209 37.2907 39.2209 37.2907C39.2209 37.2674 39.2093 37.2442 39.1861 37.2326C39.1628 37.2209 39.1395 37.2093 39.1279 37.2093C39.1279 37.1047 39.1279 37.0116 39.1395 36.907C39.1512 36.8023 39.1395 36.7093 39.1395 36.6047C39.1395 36.5 39.1395 36.407 39.1395 36.3023C39.1395 36.1977 39.1395 36.1047 39.1279 36C39.1163 35.9535 39.1047 35.9302 39.1047 35.907C39.1047 35.8837 39.1047 35.8605 39.1047 35.8256L39.1395 35.5581L39.1047 35.0698C39.1047 35.0698 39.093 34.9884 39.0581 34.9419C39.0233 34.8953 38.9884 34.8488 38.9419 34.814C38.8954 34.7791 38.8605 34.7326 38.814 34.7093C38.7674 34.686 38.7326 34.6628 38.7093 34.6628H38.3837L38.3488 34.6395H38.3256C38.3256 34.6395 38.314 34.6163 38.3023 34.6163C38.2558 34.6047 38.2093 34.593 38.1628 34.5814C38.1163 34.5698 38.0581 34.5581 38.0116 34.5465C37.9651 34.5349 37.9302 34.5 37.8954 34.4651C37.8605 34.4302 37.8488 34.3837 37.8488 34.314C37.8488 34.2558 37.8488 34.2209 37.8721 34.186C37.8954 34.1512 37.907 34.1395 37.9419 34.1279C37.9767 34.1163 38 34.1047 38.0465 34.1047C38.093 34.1047 38.1395 34.1047 38.1861 34.1047C38.2674 34.1047 38.3488 34.1047 38.4186 34.1047C38.4884 34.1047 38.5581 34.1279 38.6163 34.1744H38.6628C38.6628 34.1744 38.686 34.1628 38.7093 34.1628H38.7907C38.9302 34.1628 39.0814 34.1628 39.2442 34.1977C39.407 34.2326 39.5465 34.2326 39.6744 34.2442L39.9302 34.2907C39.9302 34.2907 40.0116 34.2907 40.0465 34.2674C40.0814 34.2442 40.1279 34.2442 40.1744 34.2209C40.2209 34.1977 40.2674 34.186 40.3023 34.1744C40.3372 34.1628 40.3837 34.1512 40.4302 34.1512C40.4651 34.1512 40.4884 34.1512 40.5116 34.1744C40.5349 34.1977 40.5698 34.1977 40.6163 34.1977C40.6279 34.1977 40.6512 34.1977 40.6628 34.1744C40.6744 34.1512 40.6977 34.1512 40.7326 34.1512C40.7674 34.1512 40.7907 34.1512 40.8023 34.1512C40.814 34.1512 40.8372 34.1628 40.8488 34.1977H41.0233C41.0814 34.1977 41.1512 34.1977 41.2209 34.1628C41.2907 34.1279 41.3605 34.1279 41.4302 34.1279C41.4767 34.1279 41.5116 34.1279 41.5349 34.1279C41.5581 34.1279 41.593 34.1512 41.6395 34.186L42.4535 34.2326C42.4535 34.2326 42.5349 34.2326 42.5581 34.2442C42.593 34.2442 42.6163 34.2442 42.6512 34.2558C42.686 34.2674 42.7093 34.2558 42.7326 34.2674C42.7442 34.2674 42.7674 34.2674 42.7907 34.2674C42.814 34.2674 42.8372 34.2674 42.8488 34.2907C42.8605 34.314 42.8837 34.314 42.8954 34.3256C42.907 34.3372 42.9186 34.3605 42.9186 34.3837C42.9186 34.407 42.9419 34.4535 42.9419 34.5233C42.9419 34.593 42.9535 34.6512 42.9651 34.7209C42.9768 34.7907 42.9767 34.8605 42.9884 34.9186C43 34.9767 42.9884 35.0233 42.9884 35.0465C43 35.1512 43.0116 35.2558 43.0233 35.3605C43.0349 35.4651 43.0349 35.5698 43.0349 35.6744H42.9651C42.8954 35.6744 42.8488 35.6279 42.8023 35.5233C42.7791 35.4884 42.7558 35.4651 42.7442 35.4535C42.7326 35.4419 42.7209 35.4302 42.7209 35.407C42.6744 35.3488 42.6395 35.2907 42.593 35.2209C42.5465 35.1512 42.5116 35.093 42.4767 35.0233C42.4419 34.9535 42.407 34.907 42.3837 34.8605C42.3605 34.814 42.3372 34.7791 42.3256 34.7558C42.2907 34.7442 42.2558 34.7326 42.2093 34.7209C42.1628 34.7093 42.1279 34.7093 42.093 34.6977C42.0581 34.686 42.0233 34.6744 41.9884 34.6628C41.9535 34.6512 41.9302 34.6279 41.907 34.593C41.8837 34.5465 41.8372 34.5233 41.7674 34.5233C41.7442 34.5233 41.7209 34.5233 41.7209 34.5233C41.7093 34.5233 41.6861 34.5233 41.6628 34.5233C41.6395 34.5233 41.6163 34.5233 41.593 34.5233C41.5465 34.5233 41.4884 34.5233 41.4419 34.5233C41.3954 34.5233 41.3488 34.5233 41.314 34.5233C41.2907 34.5233 41.2791 34.5233 41.2674 34.5233C41.2558 34.5233 41.2558 34.5233 41.2326 34.5233H41.1977C41.1279 34.5 41.0698 34.5 41 34.4884C40.9302 34.4767 40.8721 34.4884 40.8023 34.4884C40.7326 34.4884 40.6744 34.4884 40.6047 34.4884C40.5349 34.4884 40.4767 34.4884 40.407 34.5116C40.3837 34.5116 40.3605 34.5349 40.3372 34.5465C40.314 34.5581 40.2791 34.5814 40.2558 34.6163C40.2326 34.6512 40.2093 34.6628 40.1861 34.6977C40.1628 34.7326 40.1512 34.7558 40.1395 34.7791C40.1163 34.8837 40.1047 35 40.093 35.1279C40.0814 35.2558 40.093 35.3837 40.093 35.5233V36C40.093 36 40.0465 36.0698 40.0465 36.1047C40.0465 36.1395 40.0465 36.186 40.0465 36.2326V36.3954C40.0465 36.4651 40.0465 36.5349 40.0465 36.6047C40.0465 36.6744 40.0581 36.7442 40.0814 36.814C40.1047 36.8837 40.1279 36.9419 40.1628 37.0116C40.1977 37.0814 40.2442 37.1279 40.3023 37.186L41.0349 37.2093C41.0349 37.2093 41.1512 37.2093 41.1977 37.1744C41.2093 37.1744 41.2326 37.1744 41.2558 37.1628C41.2791 37.1512 41.3023 37.1628 41.314 37.1628H41.4884C41.4884 37.1628 41.5814 37.1628 41.6279 37.1163C41.6512 37.1163 41.6744 37.1047 41.7093 37.0814C41.7442 37.0581 41.7674 37.0465 41.8023 37.0233C41.8372 37 41.8605 36.9767 41.8954 36.9535C41.9302 36.9302 41.9419 36.907 41.9535 36.8954C41.9768 36.8605 41.9884 36.8023 42.0116 36.7209C42.0349 36.6395 42.0581 36.5581 42.093 36.4767C42.1279 36.3954 42.1512 36.3256 42.186 36.2558C42.2209 36.186 42.2558 36.1628 42.3023 36.1628C42.3372 36.1628 42.3837 36.186 42.407 36.2442V36.6628C42.407 36.6628 42.407 36.7326 42.407 36.7674C42.407 36.8023 42.3837 36.8372 42.3605 36.8954L42.3023 36.9651L42.3256 37.1163C42.3256 37.1163 42.3256 37.1628 42.3256 37.2209C42.3256 37.2791 42.3372 37.3488 42.3488 37.4302C42.3605 37.5116 42.3605 37.5814 42.3721 37.6628C42.3837 37.7442 42.3721 37.814 42.3721 37.8605L42.3488 38.0233C42.3488 38.0233 42.3488 38.1163 42.3721 38.1512C42.3953 38.186 42.3954 38.2209 42.3954 38.2558C42.3954 38.3372 42.3837 38.407 42.3488 38.4651C42.314 38.5233 42.2674 38.5465 42.186 38.5465C42.1512 38.5465 42.1163 38.5465 42.093 38.5233C42.0698 38.5 42.0581 38.4884 42.0465 38.4767C42.0349 38.4651 42.0349 38.4302 42.0233 38.407C42.0116 38.3837 42.0233 38.3605 42.0233 38.3256V38.2674C42.0233 38.2674 42.0233 38.2326 42.0233 38.2209L41.8954 38V37.8605C41.8954 37.8605 41.8605 37.7791 41.7907 37.7442C41.7209 37.7093 41.6395 37.6744 41.5465 37.6395C41.4535 37.6047 41.3372 37.5814 41.2209 37.5581C41.1047 37.5349 40.9884 37.5116 40.8721 37.5C40.7558 37.4884 40.6512 37.4651 40.5581 37.4535C40.4651 37.4419 40.3953 37.4419 40.3605 37.4419C40.3023 37.4419 40.2558 37.4535 40.2209 37.4884C40.186 37.5233 40.1395 37.5698 40.1163 37.6163C40.093 37.6628 40.0698 37.7209 40.0465 37.7791C40.0233 37.8372 40.0233 37.8837 40.0116 37.9302V38.2907L40.0698 38.9884V39.3837C40.0698 39.4535 40.1047 39.5233 40.1512 39.593C40.1977 39.6628 40.2558 39.7209 40.3256 39.7791C40.3954 39.8372 40.4651 39.8837 40.5465 39.9186C40.6279 39.9535 40.6977 39.9767 40.7558 39.9767L41.0814 40L41.1628 40.0349H41.6512C41.7093 40.0349 41.7674 40.0349 41.8372 40.0349C41.907 40.0349 41.9651 40.0349 42.0233 40.0349C42.0814 40.0349 42.1628 40.0349 42.2442 40.0116L42.6047 39.8721C42.6047 39.8721 42.7093 39.7907 42.7791 39.7326C42.8488 39.6744 42.9186 39.6047 42.9884 39.5349C43.0581 39.4651 43.1163 39.3954 43.1744 39.3256C43.2326 39.2558 43.2791 39.1977 43.3023 39.1512C43.314 39.1512 43.3372 39.1163 43.3488 39.0814C43.3605 39.0465 43.3837 39 43.3954 38.9535C43.407 38.907 43.4419 38.8721 43.4651 38.8372C43.4884 38.8023 43.5233 38.7907 43.5581 38.7907C43.593 38.7907 43.6163 38.8023 43.6279 38.8372C43.6395 38.8721 43.6512 38.8954 43.6512 38.9186L43.5698 39.2093C43.5233 39.3721 43.4767 39.5233 43.4419 39.6861C43.407 39.8488 43.3721 40.0116 43.3605 40.1744C43.3023 40.2674 43.2209 40.3256 43.1163 40.3488C43.0116 40.3721 42.9186 40.3837 42.814 40.3837H42.7093C42.7093 40.3837 42.6512 40.3837 42.6163 40.3837L42.5233 40.407C42.5233 40.407 42.4651 40.407 42.4535 40.407C42.4419 40.407 42.4186 40.3954 42.407 40.3837L42.3605 40.3605C42.3605 40.3605 42.3256 40.3605 42.3023 40.3605L42.0116 40.3954L41.8605 40.3605L41.1628 40.4186C40.9419 40.4186 40.7209 40.4186 40.5 40.3954C40.2791 40.3721 40.0465 40.3721 39.814 40.3721L39.2326 40.4302L38.8256 40.407C38.8256 40.407 38.7209 40.407 38.6628 40.4302C38.6047 40.4535 38.5581 40.4535 38.5116 40.4767C38.4651 40.5 38.4186 40.5 38.3721 40.5233C38.3256 40.5465 38.2791 40.5465 38.2442 40.5465C38.1977 40.5465 38.1395 40.5465 38.0814 40.5233C38.0233 40.5 37.9651 40.4884 37.907 40.4535C37.8488 40.4186 37.814 40.3837 37.7674 40.3372C37.7209 40.2907 37.7093 40.2442 37.7093 40.1744L37.7558 40.1395Z" fill="white"/>
<path d="M44.9535 39.9535L45.0233 39.9302C45.0233 39.9302 45.0698 39.8953 45.0814 39.8721C45.093 39.8488 45.1163 39.814 45.1279 39.7907C45.1395 39.7674 45.1628 39.7326 45.186 39.6977C45.2093 39.6628 45.2326 39.6395 45.2558 39.6163C45.2558 39.5814 45.2558 39.5581 45.2442 39.5465C45.2326 39.5349 45.2326 39.5116 45.2326 39.5L45.3721 39.3256L45.5 38.2442C45.5 38.2442 45.5581 38.1395 45.5698 38.0814C45.5814 38.0233 45.5698 37.9767 45.5698 37.9186L45.5465 37.3837C45.5465 37.3837 45.5465 37.3023 45.5465 37.2674C45.5465 37.2326 45.5581 37.1977 45.5814 37.1512C45.593 37.1279 45.6047 37.093 45.6047 37.0465C45.6047 37 45.6047 36.9651 45.6163 36.9302V36.5116C45.6163 36.5116 45.6163 36.4767 45.6279 36.4535C45.6395 36.4302 45.6395 36.4186 45.6512 36.407V35.8605L45.6744 35.593C45.6744 35.593 45.6744 35.5698 45.686 35.5465V35.5C45.6628 35.407 45.6512 35.3023 45.6395 35.2093C45.6279 35.1163 45.593 35.0233 45.5349 34.9535C45.5349 34.9535 45.5349 34.9535 45.5233 34.9419L45.3372 34.8488L45.1047 34.6163C45.1047 34.6163 45.0465 34.5814 45 34.5698C44.9535 34.5581 44.9186 34.5581 44.8721 34.5465C44.8256 34.5349 44.7791 34.5465 44.7442 34.5233C44.7093 34.5 44.6628 34.5 44.6395 34.4767L44.4884 34.3605C44.4884 34.3605 44.4535 34.3372 44.4302 34.3372C44.407 34.3372 44.3837 34.3372 44.3488 34.3372H44.2326C44.2326 34.3372 44.1512 34.3023 44.1163 34.2674C44.0814 34.2326 44.0581 34.186 44.0465 34.1395C44.0465 34.0814 44.0698 34.0465 44.1163 34.0116C44.1628 33.9767 44.2093 33.9535 44.2674 33.9419C44.3256 33.9302 44.3837 33.9186 44.4535 33.9186C44.5233 33.9186 44.5581 33.9186 44.593 33.9186C44.6512 33.9419 44.7209 33.9535 44.7791 33.9651C44.8372 33.9767 44.8954 33.9767 44.9651 33.9767C45.0349 33.9767 45.093 33.9767 45.1512 33.9767C45.2093 33.9767 45.2791 33.9767 45.3488 33.9884C45.3488 33.9884 45.3605 33.9884 45.3954 33.9884C45.4302 33.9884 45.4419 34 45.4767 34.0116C45.5116 34.0233 45.5349 34.0233 45.5581 34.0349C45.5814 34.0465 45.6047 34.0349 45.6047 34.0349H45.6628L46 33.9302C46 33.9302 46.0465 33.9302 46.0814 33.9535C46.1163 33.9767 46.1395 33.9884 46.1744 34C46.2093 34.0116 46.2326 34.0349 46.2674 34.0581C46.3023 34.0814 46.314 34.093 46.3372 34.1047L46.3605 34.1395C46.3605 34.1395 46.4302 34.2558 46.4767 34.3372C46.5233 34.4186 46.5814 34.4884 46.6395 34.5581C46.6977 34.6279 46.7558 34.6977 46.814 34.7674C46.8721 34.8372 46.9186 34.8837 46.9767 34.9186L47.1977 35.0465C47.1977 35.0465 47.2209 35.0698 47.2442 35.093C47.2674 35.1163 47.2674 35.1279 47.2674 35.1395L47.3023 35.2558C47.3023 35.2558 47.3372 35.314 47.3488 35.3256C47.3605 35.3372 47.3721 35.3605 47.3954 35.3721C47.4186 35.3837 47.4302 35.3954 47.4419 35.407C47.4535 35.4186 47.4884 35.4302 47.5116 35.4535C47.5698 35.5116 47.6163 35.5581 47.6628 35.593C47.7093 35.6279 47.7442 35.6744 47.7674 35.7093C47.7907 35.7442 47.8256 35.7907 47.8488 35.8372C47.8721 35.8837 47.8954 35.9535 47.9302 36.0233C47.9302 36.0233 47.9535 36.0349 48 36.0698C48.0465 36.1047 48.0814 36.1395 48.1279 36.186C48.1744 36.2326 48.2209 36.2674 48.2558 36.3023C48.2907 36.3372 48.314 36.3488 48.3023 36.3488L48.3488 36.4651C48.3488 36.4651 48.3488 36.4884 48.3605 36.5C48.3721 36.5116 48.3837 36.5349 48.3953 36.5465C48.407 36.5581 48.4186 36.5814 48.4302 36.593C48.4419 36.6046 48.4535 36.6163 48.4651 36.6279L48.5698 36.6744C48.6279 36.7326 48.6977 36.7907 48.7674 36.8605C48.8372 36.9302 48.907 37 48.9651 37.0698C49.0233 37.1395 49.0814 37.2209 49.1279 37.2907C49.1744 37.3605 49.2209 37.4419 49.2442 37.5116L49.6977 37.9419C49.7442 38.0698 49.8256 38.186 49.9302 38.2674C50.0349 38.3488 50.1628 38.3954 50.2907 38.3954V38.2093C50.2907 38.2093 50.2907 38.1512 50.2907 38.1163C50.2907 38.0814 50.2907 38.0581 50.3023 38.0233C50.3023 38.0233 50.3023 38.0116 50.3023 38C50.3023 37.9884 50.314 37.9651 50.3256 37.9419C50.3372 37.9186 50.3372 37.8954 50.3488 37.8837C50.3605 37.8721 50.3488 37.8488 50.3488 37.8372C50.3488 37.8023 50.3488 37.7791 50.3256 37.7674C50.3023 37.7558 50.3023 37.7442 50.3023 37.7209L50.3488 37.4651C50.3488 37.3837 50.3488 37.2907 50.3256 37.186C50.3023 37.0814 50.3023 36.9884 50.3023 36.9186V36.8837C50.3023 36.8837 50.3023 36.8488 50.3023 36.8256C50.3023 36.8023 50.3023 36.7791 50.3023 36.7674C50.3023 36.7558 50.3023 36.7326 50.3023 36.7209C50.3023 36.7209 50.3023 36.6628 50.3023 36.6395C50.3023 36.6395 50.3023 36.6279 50.314 36.6163L50.3605 36.5349L50.4419 36.1163C50.4419 36.1163 50.407 36.0465 50.3954 36.0233C50.3837 36 50.3954 35.9651 50.3954 35.9302L50.4186 35.5L50.3954 35.0465C50.3954 35.0465 50.3954 34.9884 50.3954 34.9535C50.3954 34.9186 50.4186 34.907 50.4535 34.8954V34.7791C50.4535 34.7791 50.4535 34.6977 50.4302 34.6512C50.407 34.6046 50.3837 34.5581 50.3605 34.5116C50.3372 34.4651 50.3023 34.4302 50.2558 34.3953C50.2093 34.3605 50.186 34.3372 50.1395 34.3256C50.1395 34.3256 50.1163 34.3256 50.1047 34.3256H50.0465C50.0465 34.3256 50 34.3023 49.9884 34.3023C49.9767 34.3023 49.9535 34.3023 49.9535 34.3023L49.8488 34.2326C49.8488 34.2326 49.8256 34.2326 49.7907 34.2209C49.7558 34.2093 49.7326 34.2209 49.7209 34.2209C49.6628 34.1977 49.6047 34.1744 49.5581 34.1512C49.5116 34.1279 49.4767 34.1047 49.4302 34.0814C49.3837 34.0581 49.3605 34.0233 49.3256 33.9884C49.2907 33.9535 49.2674 33.907 49.2209 33.8605C49.2093 33.8372 49.186 33.8256 49.1744 33.8256C49.1628 33.8256 49.1395 33.8023 49.1279 33.7791C49.1279 33.7558 49.1512 33.7442 49.186 33.7326C49.2209 33.7209 49.2558 33.7093 49.2907 33.7093C49.3256 33.7093 49.3605 33.6977 49.3953 33.6977H49.4767C49.4884 33.6977 49.5116 33.6977 49.5465 33.6977C49.5814 33.6977 49.6047 33.7093 49.6163 33.7209C49.8023 33.7442 49.9884 33.7558 50.1512 33.7791C50.314 33.8023 50.4884 33.814 50.6744 33.814L51.3605 33.7442C51.3605 33.7442 51.4419 33.7442 51.4884 33.7442C51.5349 33.7442 51.5698 33.7442 51.6047 33.7674C51.6395 33.7907 51.6744 33.8023 51.6977 33.8256C51.7209 33.8488 51.7326 33.8953 51.7326 33.9419C51.7326 34.0233 51.7093 34.093 51.6512 34.1279C51.593 34.1628 51.5233 34.1977 51.4535 34.2209C51.3837 34.2442 51.2907 34.2558 51.2093 34.2791C51.1279 34.3023 51.0581 34.314 51 34.3488L50.9535 34.5L50.7326 34.7093C50.7326 34.7093 50.7326 34.7326 50.7209 34.7442C50.7093 34.7558 50.7209 34.7791 50.7209 34.7907C50.7209 34.8023 50.7209 34.8256 50.7442 34.8488C50.7674 34.8721 50.7674 34.8953 50.7791 34.9186C50.7907 34.9419 50.8023 34.9651 50.814 34.9884C50.8256 35.0116 50.8372 35.0349 50.8488 35.0465V35.0698C50.8488 35.0698 50.8488 35.1279 50.8488 35.1628C50.8488 35.1977 50.8372 35.2442 50.8256 35.2907C50.814 35.3372 50.814 35.3721 50.8023 35.4186C50.7907 35.4651 50.8023 35.4767 50.8023 35.4884C50.8023 35.4884 50.8023 35.5116 50.8023 35.5465V35.593C50.8023 35.593 50.8023 35.6163 50.8023 35.6279V35.907C50.8023 35.9651 50.8023 36.0349 50.7907 36.093C50.7791 36.1512 50.7558 36.2093 50.7326 36.2442V36.8023C50.7326 36.8023 50.7326 36.8837 50.7326 36.9302C50.7326 36.9767 50.7326 37.0233 50.7326 37.0698C50.7326 37.1163 50.7209 37.1628 50.7093 37.2093C50.6977 37.2558 50.6744 37.2907 50.6512 37.3256V37.4535C50.6512 37.5698 50.6512 37.6977 50.6279 37.8023C50.6047 37.907 50.6047 38.0349 50.593 38.1628C50.593 38.2209 50.5698 38.2907 50.5581 38.3372C50.5465 38.3837 50.5349 38.4535 50.5349 38.5116V38.7209C50.5349 38.8023 50.5349 38.8721 50.5349 38.9535C50.5349 39.0349 50.5349 39.1163 50.5581 39.186C50.5814 39.2558 50.5814 39.3256 50.593 39.3954C50.6163 39.4535 50.6279 39.5116 50.6395 39.5581C50.6512 39.6047 50.6628 39.6512 50.6744 39.6977C50.6861 39.7442 50.686 39.7907 50.6977 39.8488C50.7093 39.907 50.6977 39.9651 50.6977 40.0349V40.2674C50.6977 40.2674 50.6279 40.3488 50.5698 40.3488C50.5116 40.3488 50.4535 40.3256 50.3954 40.2907C50.3372 40.2558 50.2674 40.1977 50.1977 40.1395C50.1279 40.0814 50.0581 40 49.9884 39.9186C49.9186 39.8372 49.8488 39.7558 49.7907 39.6744C49.7326 39.593 49.6628 39.5233 49.6047 39.4535C49.5465 39.3837 49.4884 39.3256 49.4419 39.2791C49.4419 39.2674 49.4302 39.2442 49.4186 39.1977C49.407 39.1512 49.3954 39.1279 49.3837 39.1163C49.3372 39.0698 49.2791 39 49.2326 38.9302C49.186 38.8605 49.1279 38.8023 49.0698 38.7558C49.0116 38.7093 48.9535 38.6628 48.8953 38.6047C48.8372 38.5465 48.7907 38.5 48.7558 38.4419C48.7209 38.3837 48.6628 38.3256 48.6163 38.2674C48.5698 38.2093 48.5233 38.1512 48.4767 38.093C48.4535 38.0698 48.4419 38.0465 48.4186 38.0349C48.3953 38.0233 48.3721 38 48.3488 37.9884C48.3256 37.9767 48.3023 37.9651 48.2791 37.9419C48.2558 37.9186 48.2442 37.907 48.2326 37.8837C48.1279 37.7442 48.0233 37.6047 47.9186 37.4884C47.814 37.3721 47.686 37.2674 47.5465 37.186C47.5233 37.1744 47.5 37.1628 47.4884 37.1395L47.4419 37.0814C47.4419 37.0814 47.407 37.0465 47.3954 37.0233C47.3837 37 47.3488 36.9884 47.3256 36.9767C47.3256 36.9767 47.3023 36.9419 47.2907 36.9186C47.2791 36.8953 47.2442 36.8488 47.2209 36.814C47.1977 36.7791 47.1744 36.7442 47.1512 36.7093L47.1047 36.6395L47.0465 36.593C47.0349 36.5349 47.0116 36.4767 46.9884 36.4302C46.9651 36.3837 46.9419 36.3488 46.907 36.314C46.8721 36.2791 46.8372 36.2442 46.8023 36.1977C46.7674 36.1512 46.7093 36.1163 46.6628 36.0581L46.6163 36C46.6163 36 46.5814 35.9186 46.5465 35.8837C46.5116 35.8488 46.4884 35.8256 46.4419 35.8023C46.3953 35.7791 46.3721 35.7442 46.3256 35.7209C46.2791 35.6977 46.2558 35.6628 46.2326 35.6279C46.2093 35.6047 46.1977 35.5814 46.1861 35.5581L46.1628 35.4884C46.1628 35.4884 46.1395 35.4535 46.1163 35.4419C46.093 35.4302 46.0698 35.4186 46.0233 35.407C46 35.407 45.9767 35.4186 45.9419 35.4419C45.907 35.4651 45.8837 35.4884 45.8837 35.5116L45.907 35.6395C45.907 35.6395 45.907 35.7093 45.8837 35.7674C45.8605 35.8256 45.8605 35.8605 45.8605 35.907L45.907 36.0465L45.8605 36.1744C45.8605 36.1744 45.8605 36.2674 45.8837 36.3372C45.907 36.407 45.9186 36.4535 45.9419 36.4767C45.9535 36.5233 45.9651 36.5698 45.9767 36.6279C45.9884 36.686 45.9767 36.7326 45.9767 36.7907C45.9767 36.8605 45.9767 36.9186 45.9767 36.9767C45.9767 37.0349 45.9651 37.093 45.9419 37.1512C45.9651 37.1744 45.9767 37.1977 45.9767 37.2209C45.9767 37.2674 45.9767 37.314 45.9651 37.3605C45.9535 37.407 45.9419 37.4419 45.9302 37.4767C45.9186 37.5116 45.907 37.5465 45.8954 37.593C45.8837 37.6395 45.8837 37.6628 45.8837 37.7093V37.8605C45.8837 37.8605 45.8837 37.9419 45.8837 37.9884C45.8837 38.0349 45.8837 38.0814 45.8837 38.1279C45.8837 38.1744 45.8837 38.2093 45.907 38.2442C45.9302 38.2791 45.9186 38.3023 45.9302 38.3256C45.9186 38.3605 45.907 38.3953 45.8954 38.4302C45.8837 38.4651 45.8837 38.4884 45.8721 38.5116C45.8605 38.5349 45.8721 38.5581 45.8605 38.5814C45.8488 38.6047 45.8605 38.6395 45.8605 38.6628C45.8605 38.7558 45.8605 38.8488 45.8837 38.9419C45.907 39.0349 45.9302 39.1279 45.9651 39.2209C46 39.314 46.0465 39.3954 46.1047 39.4767C46.1628 39.5581 46.2326 39.6279 46.314 39.6861C46.3372 39.6977 46.3605 39.7093 46.3954 39.7209L46.4767 39.7442C46.4767 39.7442 46.5349 39.7558 46.5581 39.7674C46.5814 39.7791 46.6047 39.8023 46.6279 39.8256C46.6744 39.8256 46.7326 39.8256 46.7791 39.8256C46.8256 39.8256 46.8837 39.8256 46.9302 39.8488C46.9767 39.8721 47.0233 39.8721 47.0698 39.8837C47.1163 39.8953 47.1512 39.9186 47.1744 39.9419C47.1977 40 47.2209 40.0465 47.2326 40.093C47.2442 40.1395 47.2558 40.1977 47.2558 40.2791C47.2093 40.3488 47.1512 40.3953 47.1047 40.4302C47.0581 40.4651 46.9767 40.4884 46.8954 40.4884H46.814L46.6279 40.3954C46.5349 40.3837 46.4302 40.3721 46.2907 40.3605C46.1512 40.3488 46.0349 40.3488 45.907 40.3488H45.593C45.593 40.3488 45.5233 40.3488 45.4884 40.3488C45.4535 40.3488 45.4186 40.3605 45.3721 40.3721H44.6512C44.6512 40.3721 44.6279 40.3256 44.6047 40.314C44.5814 40.3023 44.5581 40.314 44.5233 40.3023C44.4884 40.2907 44.4767 40.3023 44.4535 40.2907C44.4302 40.2791 44.4186 40.2674 44.4186 40.2442C44.4186 40.1744 44.4302 40.1163 44.4651 40.0698C44.5 40.0233 44.5349 39.9884 44.593 39.9651C44.6512 39.9419 44.6977 39.9186 44.7558 39.907C44.814 39.8954 44.8721 39.8837 44.9302 39.8721H44.9651L44.9535 39.9535Z" fill="white"/>
<path d="M22.7093 46.093L22.4884 45.8605C22.407 45.7907 22.3372 45.7442 22.2791 45.6977C22.2209 45.6512 22.1512 45.6163 22.0814 45.593C22.0116 45.5698 21.9535 45.5465 21.8837 45.5465C21.814 45.5465 21.7442 45.5349 21.6628 45.5349C21.6395 45.5349 21.6163 45.5349 21.6163 45.5349H21.314C21.314 45.5349 21.2674 45.5349 21.2558 45.5349H20.907C20.907 45.5349 20.8023 45.5581 20.7442 45.5581C20.686 45.5581 20.6395 45.5581 20.5814 45.5581C20.4651 45.5581 20.3837 45.5581 20.3256 45.5581C20.2674 45.5581 20.2209 45.5698 20.186 45.593C20.1512 45.6047 20.1279 45.6163 20.1279 45.6395C20.1279 45.6628 20.1279 45.6744 20.1279 45.6861C20.1279 45.7442 20.1279 45.7907 20.1047 45.8256C20.0814 45.8605 20.0581 45.8837 20 45.9186C20 45.9186 19.9884 45.9419 19.9767 45.9651C19.9651 45.9884 19.9767 46.0116 19.9651 46.0465C19.9535 46.0814 19.9651 46.1047 19.9651 46.1395C19.9651 46.1744 19.9651 46.1977 19.9651 46.2093C19.9651 46.2791 19.9651 46.3488 20 46.407C20.0349 46.4651 20.0349 46.5465 20.0349 46.6163L19.9884 46.907C19.9884 46.9767 20 47.0465 20.0349 47.1163C20.0698 47.186 20.0814 47.2558 20.0814 47.3488L20.0116 48.0233C20.0116 48.0233 20.0233 48.0814 20.0465 48.1163C20.0698 48.1512 20.093 48.1744 20.1047 48.1977C20.1977 48.2093 20.2907 48.2326 20.3953 48.2442C20.5 48.2558 20.593 48.2791 20.686 48.2791C20.7093 48.2791 20.7209 48.2791 20.7442 48.2791C20.7674 48.2791 20.7791 48.2558 20.7907 48.2209C20.8256 48.2209 20.8605 48.2209 20.907 48.2209C20.9535 48.2209 21.0116 48.2209 21.0698 48.2209C21.1512 48.2209 21.2442 48.2209 21.3372 48.2209C21.4302 48.2209 21.5233 48.2209 21.6163 48.2093C21.7093 48.1977 21.7907 48.186 21.8605 48.1744C21.9302 48.1628 22 48.1279 22.0349 48.1047C22.0814 48.0814 22.1047 48.0349 22.1279 47.9884C22.1512 47.9419 22.1628 47.8837 22.1744 47.8256C22.186 47.7674 22.1977 47.7093 22.2093 47.6512C22.2209 47.593 22.2326 47.5349 22.2442 47.4884C22.2558 47.4419 22.2907 47.3953 22.314 47.3605C22.3372 47.3256 22.3953 47.314 22.4535 47.314C22.4767 47.314 22.4884 47.314 22.5 47.314C22.5116 47.314 22.5349 47.3372 22.5465 47.3721V47.5581C22.5465 47.6977 22.5349 47.8488 22.5 47.9767C22.4884 48.0814 22.4651 48.1744 22.4535 48.2674C22.4419 48.3605 22.4302 48.4419 22.4302 48.5233C22.4302 48.6047 22.4302 48.6744 22.4651 48.7442C22.5 48.814 22.5116 48.8837 22.5349 48.9535C22.5581 49.0233 22.5814 49.093 22.6047 49.1628C22.6279 49.2326 22.6395 49.3023 22.6395 49.3721C22.6395 49.4186 22.6395 49.4535 22.6395 49.4767C22.6395 49.5 22.6395 49.5116 22.6163 49.5233C22.6047 49.5465 22.593 49.5698 22.5814 49.5814C22.5698 49.593 22.5581 49.6047 22.5349 49.6047C22.4884 49.6047 22.4535 49.593 22.4302 49.5581C22.407 49.5233 22.3837 49.4884 22.3488 49.4535L22.2907 49.314C22.2558 49.2442 22.2209 49.1744 22.1977 49.1047C22.1744 49.0349 22.1279 48.9767 22.093 48.9186C22.0581 48.8605 22 48.8023 21.9535 48.7558C21.907 48.7093 21.8372 48.6512 21.7558 48.6163H21.5465C21.4419 48.6163 21.3372 48.6163 21.2209 48.6163C21.1047 48.6163 21.0116 48.6047 20.9302 48.5814L20.6512 48.5349C20.5698 48.5349 20.4884 48.5465 20.3953 48.5814C20.3023 48.6163 20.2209 48.6279 20.1395 48.6279C20.1163 48.6628 20.0814 48.6977 20.0465 48.7558C20.0116 48.814 19.9884 48.8605 19.9884 48.9186C20.0349 49.1395 20.0814 49.3605 20.1163 49.5814C20.1512 49.8023 20.1628 50.0116 20.1628 50.2326C20.1628 50.3372 20.1628 50.407 20.1628 50.4419C20.1628 50.4767 20.1628 50.5 20.1512 50.5233C20.1744 50.593 20.2093 50.6628 20.2558 50.7209C20.3023 50.7791 20.3488 50.8256 20.407 50.8721C20.4651 50.9186 20.5233 50.9535 20.593 50.9884C20.6628 51.0233 20.7209 51.0581 20.7791 51.093C20.7791 51.093 20.7907 51.093 20.814 51.1163C20.8372 51.1395 20.8372 51.1512 20.8372 51.1512C20.8488 51.1512 20.8721 51.1512 20.9186 51.1628C20.9651 51.1744 20.9884 51.1628 21 51.1628H21.0581C21.0581 51.1628 21.093 51.1628 21.1163 51.1628C21.1395 51.1628 21.1628 51.1628 21.1744 51.1628H21.3023C21.3023 51.1628 21.3488 51.1628 21.3605 51.1628C21.3837 51.1628 21.407 51.1628 21.4186 51.1628H21.4767C21.4767 51.1628 21.5116 51.1977 21.5349 51.2093C21.5581 51.2209 21.5814 51.2442 21.593 51.2674C21.6046 51.2907 21.6279 51.314 21.6395 51.3372C21.6512 51.3605 21.6628 51.3837 21.6628 51.4186C21.6628 51.4535 21.6628 51.4884 21.6395 51.5233C21.6163 51.5581 21.6047 51.593 21.5814 51.6279C21.5581 51.6628 21.5233 51.686 21.5 51.7093C21.4767 51.7326 21.4419 51.7442 21.407 51.7442C21.407 51.7442 21.3372 51.7442 21.2907 51.7442C21.2442 51.7442 21.2093 51.7442 21.186 51.7442C21.1395 51.7442 21.1047 51.7442 21.0698 51.7442C21.0349 51.7442 20.9767 51.7442 20.9186 51.7442L20.8372 51.7209C20.8372 51.7209 20.7326 51.6744 20.6628 51.6512C20.593 51.6279 20.5349 51.6163 20.4651 51.593C20.3953 51.5698 20.3256 51.5698 20.2558 51.5581C20.186 51.5465 20.1279 51.5581 20.0698 51.5581C20.0116 51.5581 19.9535 51.5581 19.907 51.5581C19.8605 51.5581 19.8023 51.5698 19.7209 51.593C19.6512 51.6047 19.5814 51.6163 19.5 51.6163C19.4186 51.6163 19.3488 51.6163 19.2791 51.6163C19.1977 51.6163 19.1279 51.6163 19.0581 51.6163C18.9884 51.6163 18.9186 51.6047 18.8372 51.593C18.8023 51.6047 18.7674 51.6279 18.7326 51.6512C18.6977 51.6744 18.6628 51.6977 18.6047 51.7093H18.5465C18.5465 51.7093 18.5116 51.6861 18.4884 51.6861C18.4767 51.6861 18.4535 51.6861 18.4186 51.6861H18.2442C18.1744 51.6628 18.1163 51.6395 18.0698 51.6163C18.0233 51.593 17.9884 51.5465 17.9767 51.4767C17.9767 51.3837 18.0233 51.3023 18.1279 51.2326C18.1977 51.2326 18.2907 51.2093 18.407 51.1744C18.5233 51.1395 18.6395 51.093 18.7442 51.0465C18.8488 51 18.9419 50.9302 19.0233 50.8488C19.1047 50.7674 19.1395 50.686 19.1395 50.6047C19.1395 50.4419 19.1395 50.3023 19.1395 50.186C19.1395 50.0698 19.1279 49.9535 19.1163 49.8488C19.1047 49.7442 19.093 49.6279 19.093 49.5116C19.093 49.3954 19.093 49.2442 19.093 49.0814C19.093 49.0349 19.093 48.9767 19.1047 48.9302C19.1163 48.8837 19.1279 48.8256 19.1395 48.7791C19.1512 48.7326 19.1628 48.6744 19.1744 48.6279C19.186 48.5814 19.186 48.5233 19.186 48.4767V48.4419C19.186 48.4419 19.186 48.407 19.186 48.3953C19.186 48.3837 19.186 48.3605 19.186 48.3256L19.1279 48.1279V47.7791C19.1279 47.7791 19.1279 47.6744 19.1047 47.6279C19.0814 47.5814 19.0814 47.5233 19.0698 47.4767C19.0581 47.4302 19.0465 47.3721 19.0349 47.3256C19.0233 47.2791 19.0233 47.2326 19.0233 47.1744C19.0233 47.1628 19.0233 47.1395 19.0233 47.1163C19.0233 47.093 19.0233 47.0698 19.0349 47.0581C19.0465 47 19.0581 46.9419 19.0698 46.8721C19.0814 46.8023 19.0698 46.7442 19.0698 46.6861C19.0698 46.6279 19.0698 46.5698 19.0698 46.5116C19.0698 46.4535 19.0581 46.3953 19.0349 46.3372C19.0349 46.2791 19.0233 46.2326 19 46.1744C18.9767 46.1163 18.9419 46.0698 18.8953 46.0233C18.8488 45.9767 18.814 45.9302 18.7558 45.8954C18.6977 45.8605 18.6628 45.8256 18.6163 45.814C18.5581 45.7907 18.4884 45.7791 18.3953 45.7674C18.3023 45.7558 18.2093 45.7558 18.1163 45.7326C18.0233 45.7093 17.9419 45.686 17.8721 45.6512C17.8023 45.6163 17.7674 45.5465 17.7674 45.4535V45.3837C17.7674 45.3837 17.8721 45.3256 17.9419 45.3023C18.0116 45.2791 18.0698 45.2558 18.1279 45.2558H18.2326C18.2326 45.2558 18.314 45.2558 18.3605 45.2674C18.407 45.2791 18.4302 45.3023 18.4651 45.3256C18.5116 45.3256 18.5698 45.3372 18.6163 45.3488C18.6628 45.3605 18.7209 45.3488 18.7674 45.3488C18.814 45.3488 18.8605 45.3488 18.9186 45.3488C18.9767 45.3488 19.0233 45.3372 19.0814 45.3256C19.093 45.3023 19.1047 45.2907 19.1163 45.2791C19.1279 45.2674 19.1395 45.2791 19.1628 45.2791C19.2209 45.2791 19.2907 45.2907 19.3488 45.314C19.407 45.3372 19.4767 45.3488 19.5581 45.3488H19.6628C19.6628 45.3488 19.7326 45.3488 19.7674 45.3488C19.8023 45.3488 19.8488 45.3488 19.8837 45.3256C19.9884 45.3488 20.1163 45.3488 20.2442 45.3488C20.3605 45.3488 20.4884 45.3488 20.6163 45.3256C20.7326 45.2907 20.8488 45.2674 20.9767 45.2674C21.1047 45.2674 21.2326 45.2674 21.3721 45.2442C21.4419 45.2442 21.5116 45.2442 21.5698 45.2326C21.6279 45.2209 21.6977 45.2326 21.7558 45.2326C21.8023 45.2326 21.8488 45.2326 21.8953 45.2326C21.9419 45.2326 21.9884 45.2326 22.0465 45.2442C22.0581 45.2442 22.0698 45.2558 22.093 45.2791C22.1163 45.3023 22.1279 45.3023 22.1512 45.3256C22.1744 45.3488 22.186 45.3488 22.2093 45.3605C22.2326 45.3721 22.2442 45.3721 22.2558 45.3721C22.2791 45.3721 22.3023 45.3721 22.3256 45.3605L22.3953 45.3256C22.3953 45.3256 22.4884 45.3023 22.5465 45.3023C22.6047 45.3023 22.6512 45.3023 22.7093 45.3023C22.8023 45.3023 22.8953 45.3023 22.9884 45.3372C22.9884 45.3372 23.0116 45.3372 23.0349 45.3721C23.0581 45.407 23.0814 45.4186 23.1047 45.4302C23.1279 45.4419 23.1512 45.4767 23.1744 45.4884C23.1977 45.5 23.2093 45.5233 23.2093 45.5233V46.1744C23.2674 46.3256 23.3023 46.4767 23.3023 46.6279C23.3023 46.6628 23.3023 46.6977 23.3023 46.7442C23.3023 46.7907 23.3023 46.814 23.2791 46.8488C23.2558 46.8837 23.2558 46.907 23.2326 46.9302C23.2093 46.9535 23.1744 46.9651 23.1279 46.9651C23.1046 46.9419 23.093 46.9186 23.0698 46.8837C23.0465 46.8488 23.0233 46.8256 23 46.7907C22.9767 46.7558 22.9535 46.7326 22.9302 46.6977C22.907 46.6628 22.8837 46.6395 22.8721 46.6163C22.8721 46.6163 22.8721 46.593 22.8488 46.5698C22.8256 46.5465 22.8256 46.5116 22.8023 46.4767C22.7791 46.4419 22.7674 46.4186 22.7558 46.3837C22.7442 46.3488 22.7326 46.3372 22.7209 46.3256C22.7209 46.3256 22.7209 46.2907 22.7093 46.2558C22.6977 46.2209 22.7093 46.1861 22.7093 46.1861V46.093Z" fill="white"/>
<path d="M28.814 51.407C28.6279 51.2558 28.4651 51.0814 28.3256 50.8954C28.186 50.7093 28.0698 50.5 27.9767 50.2907L27.9186 50.1279C27.9186 50.1279 27.8837 50.0698 27.8605 50.0349C27.8372 50 27.8023 49.9767 27.7791 49.9419C27.7558 49.907 27.7209 49.8837 27.6977 49.8488C27.6744 49.814 27.6512 49.7907 27.6395 49.7674L27.5349 49.6047L27.1977 49.2326C27.1977 49.1395 27.1512 49.0581 27.0698 48.9767C26.9884 48.8954 26.907 48.814 26.8023 48.7558C26.6977 48.6977 26.593 48.6395 26.4767 48.593C26.3605 48.5465 26.2791 48.5349 26.1977 48.5349C26.1628 48.5349 26.1279 48.5349 26.0814 48.5465C26.0349 48.5581 25.9884 48.5698 25.9419 48.593C25.8953 48.6163 25.8605 48.6395 25.8256 48.6628C25.7907 48.686 25.7791 48.7326 25.7791 48.7674L25.814 48.9419C25.814 48.9419 25.814 49.0116 25.8023 49.0349C25.7907 49.0581 25.7907 49.0814 25.7907 49.1047C25.7907 49.1512 25.7907 49.1977 25.7907 49.2209C25.7907 49.2442 25.8023 49.2907 25.814 49.3372L25.7674 50.0581V50.1512C25.7674 50.1512 25.7791 50.2558 25.7791 50.3023V50.593C25.7791 50.593 25.7791 50.6861 25.7791 50.7326C25.7791 50.7558 25.7907 50.7907 25.814 50.8256C25.8372 50.8605 25.8721 50.8837 25.8953 50.907L26.1047 51.0465C26.1047 51.0465 26.1977 51.093 26.2674 51.1047C26.3372 51.1163 26.407 51.1279 26.4767 51.1279C26.5465 51.1279 26.6279 51.1279 26.6977 51.1395C26.7674 51.1512 26.8372 51.1512 26.8954 51.1744C26.9535 51.1977 27 51.2209 27.0349 51.2442C27.0698 51.2674 27.093 51.3256 27.093 51.3837C27.093 51.4302 27.0814 51.4767 27.0465 51.5116C27.0116 51.5465 26.9651 51.5814 26.9186 51.6047C26.8721 51.6279 26.8256 51.6512 26.7674 51.6628C26.7093 51.6744 26.6744 51.6861 26.6395 51.6861C26.593 51.6861 26.5465 51.686 26.5 51.6744C26.4535 51.6628 26.4186 51.6512 26.3721 51.6395C26.3256 51.6279 26.2907 51.6163 26.2442 51.593C26.1977 51.5698 26.1512 51.5698 26.1047 51.5581C26 51.5349 25.8837 51.5233 25.7791 51.5C25.6744 51.4767 25.5465 51.4535 25.4186 51.4186C25.3837 51.4186 25.3488 51.4186 25.314 51.4302C25.2791 51.4419 25.2326 51.4419 25.186 51.4419L24.8605 51.407C24.8605 51.407 24.7907 51.4186 24.7558 51.4535C24.7209 51.4884 24.6744 51.5 24.6395 51.5L23.8953 51.4767C23.8953 51.4767 23.8488 51.4186 23.8488 51.3837C23.8488 51.314 23.8837 51.2558 23.9535 51.2093C24.0233 51.1628 24.1047 51.1279 24.1977 51.1047C24.2907 51.0814 24.3837 51.0581 24.4651 51.0349C24.5465 51.0116 24.6047 51 24.6395 50.9767C24.6744 50.9302 24.686 50.8721 24.686 50.814C24.686 50.7558 24.686 50.6977 24.7093 50.6628C24.7209 50.6628 24.7442 50.6395 24.7558 50.6279C24.7674 50.6163 24.7791 50.6047 24.7907 50.6047C24.814 50.5349 24.8372 50.4651 24.8372 50.3721C24.8372 50.2791 24.8372 50.186 24.8372 50.1047V49.907C24.8372 49.8488 24.8372 49.7907 24.814 49.7442C24.7907 49.6977 24.7907 49.6512 24.7907 49.593L24.8837 48.7791L24.814 48.3372L24.7907 48.2326V48.1628C24.7907 48.1628 24.7907 48.1163 24.7907 48.093C24.7907 48.0698 24.7907 48.0465 24.7907 48.0233C24.7907 48 24.7907 47.9884 24.7907 47.9767C24.8256 47.9651 24.8488 47.9535 24.8488 47.9419C24.8488 47.9302 24.8488 47.9186 24.8488 47.8954L24.7907 47.6163L24.8488 47.3721C24.8488 47.3721 24.8488 47.3488 24.8488 47.3256C24.8488 47.3023 24.8488 47.2791 24.8488 47.2674L24.8256 47.1512V47.0116L24.8488 46.7209L24.7674 46.0349V45.9419C24.6977 45.8605 24.6395 45.7907 24.5698 45.7326C24.5 45.6744 24.4419 45.6279 24.3605 45.5814C24.2791 45.5349 24.2093 45.5 24.1279 45.4767C24.0465 45.4535 23.9535 45.4186 23.8372 45.3954C23.7907 45.3954 23.7791 45.3605 23.7791 45.314C23.7791 45.2674 23.8023 45.2326 23.8605 45.2093C23.9186 45.186 23.9767 45.1512 24.0581 45.1395C24.1395 45.1279 24.1977 45.1047 24.2674 45.093C24.3372 45.0814 24.3837 45.0814 24.407 45.0814L24.6744 45.1047L24.9651 45.0814L25.3605 45.1628C25.4419 45.1628 25.5233 45.1628 25.6047 45.1279C25.686 45.093 25.7674 45.093 25.8605 45.093L26.2326 45.1395L26.6163 45.093C26.7674 45.093 26.9186 45.1047 27.0581 45.1395C27.1977 45.1744 27.3488 45.2093 27.4884 45.2442C27.5581 45.2674 27.6395 45.2907 27.7209 45.3023C27.8023 45.314 27.8721 45.3488 27.9419 45.3837L28.0465 45.4535C28.1628 45.5233 28.2791 45.593 28.3721 45.6628C28.4651 45.7326 28.5581 45.8023 28.6163 45.8837C28.6744 45.9651 28.7442 46.0581 28.7791 46.1628C28.814 46.2674 28.8488 46.407 28.8488 46.5698C28.8488 46.6512 28.8605 46.7209 28.8837 46.7907C28.907 46.8605 28.907 46.9302 28.907 47.0116C28.907 47.0465 28.907 47.0698 28.907 47.093C28.907 47.1163 28.8953 47.1279 28.8721 47.1395C28.8488 47.1512 28.8488 47.1744 28.8372 47.1861C28.8256 47.1977 28.814 47.2209 28.8023 47.2442C28.7907 47.2791 28.7791 47.314 28.7674 47.3488C28.7558 47.3837 28.7558 47.4302 28.7442 47.4767C28.7326 47.5233 28.7326 47.5581 28.7209 47.593C28.7093 47.6279 28.6977 47.6628 28.686 47.686C28.6395 47.7558 28.5698 47.814 28.5 47.8605C28.4302 47.907 28.3605 47.9651 28.3023 48.0233C28.2791 48.0698 28.2326 48.1047 28.1744 48.1395C28.1163 48.1744 28.0581 48.1977 28 48.2209C27.9419 48.2442 27.8954 48.2791 27.8488 48.3256C27.8023 48.3721 27.7791 48.4186 27.7791 48.4884C27.7791 48.5233 27.7791 48.5465 27.8023 48.5581C27.8256 48.5698 27.8256 48.5814 27.8488 48.6047C27.8721 48.6279 27.8837 48.6279 27.8953 48.6395C27.907 48.6512 27.9302 48.6744 27.9419 48.6977C27.9419 48.6977 27.9535 48.7326 27.9884 48.7674C28.0233 48.8023 28.0349 48.8372 28.0698 48.8837C28.1047 48.9302 28.1279 48.9651 28.1512 49C28.1744 49.0349 28.186 49.0581 28.1977 49.0581C28.314 49.1977 28.407 49.3488 28.5 49.5C28.593 49.6512 28.6977 49.7907 28.8023 49.9302C28.8721 50.0116 28.9419 50.093 29.0116 50.1628C29.0814 50.2326 29.1628 50.3023 29.2442 50.3605C29.2674 50.3721 29.2907 50.3953 29.3023 50.4302C29.314 50.4651 29.3372 50.5 29.3488 50.5465C29.3605 50.593 29.3837 50.6279 29.3953 50.6628C29.407 50.6977 29.4302 50.7326 29.4535 50.7558C29.5698 50.8372 29.6744 50.907 29.7791 50.9767C29.8837 51.0465 29.9767 51.1163 30.0814 51.1861C30.1279 51.2209 30.186 51.2442 30.2558 51.2674C30.3256 51.2907 30.3837 51.314 30.4419 51.3488C30.5 51.3837 30.5465 51.4186 30.593 51.4651C30.6395 51.5116 30.6512 51.5581 30.6512 51.6279C30.6512 51.6977 30.6279 51.7326 30.5698 51.7558C30.5116 51.7791 30.4535 51.7791 30.3953 51.7791H29.7326C29.6395 51.7326 29.5465 51.7093 29.4535 51.7093C29.3605 51.7093 29.2558 51.7093 29.1395 51.6861C29.1163 51.6861 29.0814 51.6744 29.0465 51.6512C29.0116 51.6279 28.9651 51.6163 28.9302 51.593C28.8954 51.5698 28.8488 51.5465 28.814 51.5233C28.7791 51.5 28.7442 51.4767 28.7093 51.4535H28.686L28.814 51.407ZM25.7093 47.8721C25.7093 47.9419 25.7209 48 25.7442 48.0581C25.7674 48.1163 25.8023 48.1512 25.8488 48.186C25.8953 48.2209 25.9419 48.2442 26 48.2674C26.0581 48.2907 26.1163 48.2907 26.186 48.2907H26.3488C26.3488 48.2907 26.407 48.1977 26.4884 48.1628C26.5698 48.1279 26.6628 48.093 26.7558 48.0698C26.8488 48.0465 26.9535 48.0233 27.0465 48C27.1395 47.9767 27.2093 47.9651 27.2558 47.9419C27.314 47.9186 27.3721 47.8721 27.4419 47.814C27.5116 47.7558 27.5581 47.6977 27.6047 47.6512L27.7558 47.3605C27.8023 47.2791 27.8372 47.1977 27.8721 47.1163C27.907 47.0349 27.9186 46.9419 27.9186 46.8488C27.9186 46.8256 27.9186 46.8023 27.907 46.7791C27.8953 46.7558 27.8837 46.7326 27.8721 46.7093C27.8605 46.686 27.8488 46.6628 27.8372 46.6395C27.8256 46.6163 27.8256 46.5814 27.8256 46.5465C27.8488 46.4651 27.8488 46.4186 27.8605 46.3954C27.8721 46.3721 27.8605 46.3605 27.8605 46.3488V46.3023C27.8605 46.3023 27.8488 46.2674 27.814 46.2442C27.7791 46.2209 27.7674 46.1977 27.7674 46.1861C27.6977 46.0581 27.6163 45.9419 27.5233 45.8488C27.4302 45.7558 27.3256 45.686 27.2093 45.6395C27.093 45.593 26.9767 45.5465 26.8372 45.5233C26.6977 45.5 26.5581 45.4884 26.407 45.4884C26.3954 45.4884 26.3721 45.4884 26.3256 45.4884C26.2791 45.4884 26.2442 45.5 26.1977 45.5116C26.1512 45.5233 26.1047 45.5233 26.0698 45.5349C26.0349 45.5465 26.0116 45.5465 26 45.5581C26 45.5581 25.9884 45.5698 25.9767 45.593C25.9651 45.6163 25.9535 45.6279 25.9419 45.6395C25.9302 45.6512 25.9186 45.6744 25.907 45.6861L25.8837 45.7209V45.8488C25.8837 46.0116 25.8721 46.1744 25.8372 46.3256C25.8023 46.4767 25.7674 46.6395 25.7326 46.8023L25.6744 46.8954L25.7674 47.0116C25.7674 47.0116 25.7674 47.0581 25.7791 47.1047C25.7907 47.1512 25.7907 47.186 25.8023 47.2209V47.2791C25.8023 47.2791 25.7907 47.2791 25.7791 47.3023C25.7674 47.3256 25.7791 47.3256 25.7791 47.3372C25.7791 47.3372 25.7791 47.3605 25.7791 47.3837C25.7791 47.407 25.7907 47.4186 25.8023 47.4302L25.7093 47.8372V47.8721Z" fill="white"/>
<path d="M30.7674 51.3023C30.7674 51.3023 30.7907 51.1977 30.8372 51.1628C30.8837 51.1279 30.9302 51.093 31 51.0698C31.0698 51.0465 31.1279 51.0349 31.186 51.0233C31.2442 51.0116 31.3023 51.0116 31.3488 51.0116H31.7209C31.7209 51.0116 31.7791 50.9884 31.8256 50.9651C31.8721 50.9419 31.907 50.907 31.9535 50.8721C32 50.8372 32.0349 50.7907 32.0581 50.7442C32.0814 50.6977 32.1047 50.6512 32.1163 50.6047C32.1163 50.5465 32.1279 50.4767 32.1279 50.3954C32.1279 50.3372 32.1279 50.2791 32.1163 50.2093L32.1744 50.1047C32.1279 49.9535 32.1047 49.7907 32.093 49.6395C32.0814 49.4884 32.0698 49.3372 32.0698 49.186C32.0698 49.1512 32.0698 49.1163 32.0698 49.0698C32.0698 49.0233 32.0698 48.9767 32.093 48.9302C32.1163 48.8837 32.1047 48.8372 32.1163 48.7907C32.1279 48.7442 32.1395 48.7093 32.1395 48.6744V48.6395C32.1395 48.6395 32.1744 48.6047 32.1744 48.593C32.1744 48.5698 32.1977 48.5465 32.2093 48.5349C32.2093 48.5233 32.2209 48.5 32.2326 48.4884C32.2442 48.4767 32.2326 48.4535 32.2326 48.4535C32.2326 48.4302 32.2209 48.407 32.1977 48.3954C32.1744 48.3837 32.1512 48.3721 32.1395 48.3721C32.1395 48.2674 32.1395 48.1744 32.1512 48.0698C32.1628 47.9651 32.1512 47.8721 32.1512 47.7674C32.1512 47.6628 32.1512 47.5698 32.1512 47.4651C32.1512 47.3605 32.1512 47.2674 32.1395 47.1628C32.1279 47.1163 32.1163 47.093 32.1163 47.0698C32.1163 47.0465 32.1163 47.0233 32.1163 46.9884L32.1512 46.7209L32.1163 46.2326C32.1163 46.2326 32.1047 46.1512 32.0698 46.1047C32.0349 46.0581 32 46.0116 31.9535 45.9767C31.907 45.9419 31.8721 45.8954 31.8256 45.8721C31.7791 45.8488 31.7442 45.8256 31.7209 45.8256H31.3953L31.3605 45.8023H31.3372C31.3372 45.8023 31.3256 45.7791 31.314 45.7791C31.2674 45.7674 31.2209 45.7558 31.1744 45.7442C31.1279 45.7326 31.0698 45.7209 31.0233 45.7093C30.9767 45.6977 30.9419 45.6628 30.907 45.6279C30.8721 45.593 30.8605 45.5465 30.8605 45.4767C30.8605 45.4186 30.8605 45.3837 30.8837 45.3488C30.907 45.314 30.9186 45.3023 30.9535 45.2907C30.9884 45.2791 31.0116 45.2674 31.0581 45.2674C31.1047 45.2674 31.1512 45.2674 31.1977 45.2674C31.2791 45.2674 31.3605 45.2674 31.4302 45.2674C31.5 45.2674 31.5698 45.2907 31.6279 45.3372H31.6744C31.6744 45.3372 31.6977 45.3256 31.7209 45.3256H31.8023C31.9419 45.3256 32.093 45.3256 32.2558 45.3605C32.4186 45.3953 32.5581 45.3954 32.686 45.407L32.9419 45.4535C32.9419 45.4535 33.0233 45.4535 33.0581 45.4302C33.093 45.407 33.1395 45.407 33.186 45.3837C33.2326 45.3605 33.2791 45.3488 33.314 45.3372C33.3488 45.3256 33.3953 45.314 33.4419 45.314C33.4767 45.314 33.5 45.314 33.5233 45.3372C33.5465 45.3605 33.5814 45.3605 33.6279 45.3605C33.6395 45.3605 33.6628 45.3605 33.6744 45.3372C33.686 45.314 33.7093 45.314 33.7442 45.314C33.7791 45.314 33.8023 45.314 33.814 45.314C33.8256 45.314 33.8488 45.3256 33.8605 45.3605H34.0349C34.093 45.3605 34.1628 45.3605 34.2326 45.3256C34.3023 45.2907 34.3721 45.2907 34.4419 45.2907C34.4884 45.2907 34.5233 45.2907 34.5465 45.2907C34.5698 45.2907 34.6047 45.314 34.6512 45.3488L35.4651 45.3954C35.4651 45.3954 35.5465 45.3954 35.5698 45.407C35.6047 45.407 35.6279 45.407 35.6628 45.4186C35.6977 45.4302 35.7209 45.4186 35.7442 45.4302C35.7558 45.4302 35.7791 45.4302 35.8023 45.4302C35.8256 45.4302 35.8488 45.4302 35.8605 45.4535C35.8721 45.4767 35.8954 45.4767 35.907 45.4884C35.9186 45.5 35.9302 45.5233 35.9302 45.5465C35.9302 45.5698 35.9535 45.6163 35.9535 45.6861C35.9535 45.7558 35.9651 45.814 35.9767 45.8837C35.9884 45.9535 35.9884 46.0233 36 46.0814C36.0116 46.1395 36 46.1861 36 46.2093C36.0116 46.314 36.0233 46.4186 36.0349 46.5233C36.0465 46.6279 36.0465 46.7326 36.0465 46.8372H35.9767C35.907 46.8372 35.8605 46.7907 35.814 46.6861C35.7907 46.6512 35.7674 46.6279 35.7558 46.6163C35.7442 46.6047 35.7326 46.593 35.7326 46.5698C35.686 46.5116 35.6512 46.4535 35.6047 46.3837C35.5581 46.314 35.5233 46.2558 35.4884 46.1861C35.4535 46.1163 35.4186 46.0698 35.3954 46.0233C35.3721 45.9768 35.3488 45.9419 35.3372 45.9186C35.3023 45.907 35.2674 45.8953 35.2209 45.8837C35.1744 45.8721 35.1395 45.8721 35.1047 45.8605C35.0698 45.8488 35.0349 45.8372 35 45.8256C34.9651 45.814 34.9419 45.7907 34.9186 45.7558C34.8953 45.7093 34.8488 45.6861 34.7791 45.6861C34.7558 45.6861 34.7326 45.6861 34.7326 45.6861C34.7209 45.6861 34.6977 45.6861 34.6744 45.6861C34.6512 45.6861 34.6279 45.6861 34.6047 45.6861C34.5581 45.6861 34.5 45.6861 34.4535 45.6861C34.407 45.6861 34.3605 45.6861 34.3256 45.6861C34.3023 45.6861 34.2907 45.6861 34.2791 45.6861C34.2674 45.6861 34.2674 45.6861 34.2442 45.6861H34.2093C34.1395 45.6628 34.0814 45.6628 34.0116 45.6512C33.9419 45.6395 33.8837 45.6512 33.814 45.6512C33.7442 45.6512 33.686 45.6512 33.6163 45.6512C33.5465 45.6512 33.4884 45.6512 33.4186 45.6744C33.3953 45.6744 33.3721 45.6977 33.3488 45.7093C33.3256 45.7209 33.2907 45.7442 33.2674 45.7791C33.2442 45.814 33.2209 45.8256 33.1977 45.8605C33.1744 45.8953 33.1628 45.9186 33.1512 45.9419C33.1279 46.0465 33.1163 46.1628 33.1047 46.2907C33.093 46.4186 33.1047 46.5465 33.1047 46.6861V47.1628C33.1047 47.1628 33.0581 47.2326 33.0581 47.2674C33.0581 47.3023 33.0581 47.3488 33.0581 47.3953V47.5581C33.0581 47.6279 33.0581 47.6977 33.0581 47.7674C33.0581 47.8372 33.0698 47.907 33.093 47.9767C33.1163 48.0465 33.1395 48.1047 33.1744 48.1744C33.2093 48.2442 33.2558 48.2907 33.314 48.3488L34.0465 48.3721C34.0465 48.3721 34.1628 48.3721 34.2093 48.3372C34.2209 48.3372 34.2442 48.3372 34.2674 48.3256C34.2907 48.314 34.314 48.3256 34.3256 48.3256H34.5C34.5 48.3256 34.593 48.3256 34.6395 48.2791C34.6628 48.2791 34.686 48.2674 34.7209 48.2442C34.7558 48.2209 34.7791 48.2093 34.814 48.186C34.8488 48.1628 34.8721 48.1395 34.907 48.1163C34.9419 48.093 34.9535 48.0698 34.9651 48.0581C34.9884 48.0233 35 47.9651 35.0233 47.8837C35.0465 47.8023 35.0698 47.7209 35.1047 47.6395C35.1395 47.5581 35.1628 47.4884 35.1977 47.4186C35.2326 47.3488 35.2674 47.3256 35.314 47.3256C35.3488 47.3256 35.3953 47.3488 35.4186 47.407V47.8256C35.4186 47.8256 35.4186 47.8954 35.4186 47.9302C35.4186 47.9651 35.3953 48 35.3721 48.0581L35.314 48.1279L35.3372 48.2791C35.3372 48.2791 35.3372 48.3256 35.3372 48.3837C35.3372 48.4419 35.3488 48.5116 35.3605 48.593C35.3721 48.6744 35.3721 48.7442 35.3837 48.8256C35.3954 48.907 35.3837 48.9767 35.3837 49.0233L35.3605 49.186C35.3605 49.186 35.3605 49.2791 35.3837 49.314C35.407 49.3488 35.407 49.3837 35.407 49.4186C35.407 49.5 35.3953 49.5698 35.3605 49.6279C35.3256 49.6861 35.2791 49.7093 35.1977 49.7093C35.1628 49.7093 35.1279 49.7093 35.1047 49.6861C35.0814 49.6628 35.0698 49.6512 35.0581 49.6395C35.0465 49.6279 35.0465 49.593 35.0349 49.5698C35.0233 49.5465 35.0349 49.5233 35.0349 49.4884V49.4302C35.0349 49.4302 35.0349 49.3954 35.0349 49.3837L34.907 49.1628V49.0233C34.907 49.0233 34.8721 48.9419 34.8023 48.907C34.7326 48.8721 34.6512 48.8372 34.5581 48.8023C34.4651 48.7674 34.3488 48.7442 34.2326 48.7209C34.1163 48.6977 34 48.6744 33.8837 48.6628C33.7674 48.6512 33.6628 48.6279 33.5698 48.6163C33.4767 48.6047 33.407 48.6047 33.3721 48.6047C33.314 48.6047 33.2674 48.6163 33.2326 48.6512C33.1977 48.686 33.1512 48.7326 33.1279 48.7791C33.1047 48.8256 33.0814 48.8837 33.0581 48.9419C33.0349 49 33.0349 49.0465 33.0233 49.093V49.4535L33.0814 50.1512V50.5465C33.0814 50.6163 33.1163 50.686 33.1628 50.7558C33.2093 50.8256 33.2674 50.8837 33.3372 50.9419C33.407 51 33.4767 51.0465 33.5581 51.0814C33.6395 51.1163 33.7093 51.1395 33.7674 51.1395L34.093 51.1628L34.1744 51.1977H34.6628C34.7209 51.1977 34.7791 51.1977 34.8488 51.1977C34.9186 51.1977 34.9767 51.1977 35.0349 51.1977C35.093 51.1977 35.1744 51.1977 35.2558 51.1744L35.6163 51.0349C35.6163 51.0349 35.7209 50.9535 35.7907 50.8954C35.8605 50.8372 35.9302 50.7674 36 50.6977C36.0698 50.6279 36.1279 50.5581 36.1861 50.4884C36.2442 50.4186 36.2907 50.3605 36.314 50.314C36.3256 50.314 36.3488 50.2791 36.3605 50.2442C36.3721 50.2093 36.3954 50.1628 36.407 50.1163C36.4186 50.0698 36.4535 50.0349 36.4767 50C36.5 49.9651 36.5349 49.9535 36.5698 49.9535C36.6047 49.9535 36.6279 49.9651 36.6395 50C36.6512 50.0349 36.6628 50.0581 36.6628 50.0814L36.5814 50.3721C36.5349 50.5349 36.4884 50.686 36.4535 50.8488C36.4186 51.0116 36.3837 51.1744 36.3721 51.3372C36.314 51.4302 36.2326 51.4884 36.1279 51.5116C36.0233 51.5349 35.9302 51.5465 35.8256 51.5465H35.7209C35.7209 51.5465 35.6628 51.5465 35.6279 51.5465L35.5349 51.5698C35.5349 51.5698 35.4767 51.5698 35.4651 51.5698C35.4535 51.5698 35.4302 51.5581 35.4186 51.5465L35.3721 51.5233C35.3721 51.5233 35.3372 51.5233 35.314 51.5233L35.0233 51.5581L34.8721 51.5233L34.1744 51.5814C33.9535 51.5814 33.7326 51.5814 33.5116 51.5581C33.2907 51.5349 33.0581 51.5349 32.8256 51.5349L32.2442 51.593L31.8372 51.5698C31.8372 51.5698 31.7326 51.5698 31.6744 51.593C31.6163 51.6163 31.5698 51.6163 31.5233 51.6395C31.4767 51.6628 31.4302 51.6628 31.3837 51.6861C31.3372 51.7093 31.2907 51.7093 31.2558 51.7093C31.2093 51.7093 31.1512 51.7093 31.093 51.6861C31.0349 51.6628 30.9767 51.6512 30.9186 51.6163C30.8605 51.5814 30.8256 51.5465 30.7791 51.5C30.7326 51.4535 30.7209 51.407 30.7209 51.3372L30.7674 51.3023Z" fill="white"/>
<path d="M37.2093 51.3023C37.2093 51.3023 37.2326 51.1977 37.2791 51.1628C37.3256 51.1279 37.3721 51.093 37.4419 51.0698C37.5116 51.0465 37.5698 51.0349 37.6279 51.0233C37.6861 51.0116 37.7442 51.0116 37.7907 51.0116H38.1628C38.1628 51.0116 38.2209 50.9884 38.2674 50.9651C38.314 50.9419 38.3488 50.907 38.3954 50.8721C38.4419 50.8372 38.4767 50.7907 38.5 50.7442C38.5233 50.6977 38.5465 50.6512 38.5581 50.6047C38.5581 50.5465 38.5698 50.4767 38.5698 50.3954C38.5698 50.3372 38.5698 50.2791 38.5581 50.2093L38.6163 50.1047C38.5698 49.9535 38.5465 49.7907 38.5349 49.6395C38.5233 49.4884 38.5116 49.3372 38.5116 49.186C38.5116 49.1512 38.5116 49.1163 38.5116 49.0698C38.5116 49.0233 38.5116 48.9767 38.5349 48.9302C38.5581 48.8837 38.5465 48.8372 38.5581 48.7907C38.5698 48.7442 38.5814 48.7093 38.5814 48.6744V48.6395C38.5814 48.6395 38.6163 48.6047 38.6163 48.593C38.6163 48.5698 38.6395 48.5465 38.6512 48.5349C38.6512 48.5233 38.6628 48.5 38.6744 48.4884C38.6861 48.4767 38.6744 48.4535 38.6744 48.4535C38.6744 48.4302 38.6628 48.407 38.6395 48.3954C38.6163 48.3837 38.593 48.3721 38.5814 48.3721C38.5814 48.2674 38.5814 48.1744 38.593 48.0698C38.6046 47.9651 38.593 47.8721 38.593 47.7674C38.593 47.6628 38.593 47.5698 38.593 47.4651C38.593 47.3605 38.593 47.2674 38.5814 47.1628C38.5698 47.1163 38.5581 47.093 38.5581 47.0698C38.5581 47.0465 38.5581 47.0233 38.5581 46.9884L38.593 46.7209L38.5581 46.2326C38.5581 46.2326 38.5465 46.1512 38.5116 46.1047C38.4767 46.0581 38.4419 46.0116 38.3954 45.9767C38.3488 45.9419 38.314 45.8954 38.2674 45.8721C38.2209 45.8488 38.186 45.8256 38.1628 45.8256H37.8372L37.8023 45.8023H37.7791C37.7791 45.8023 37.7674 45.7791 37.7558 45.7791C37.7093 45.7674 37.6628 45.7558 37.6163 45.7442C37.5698 45.7326 37.5116 45.7209 37.4651 45.7093C37.4186 45.6977 37.3837 45.6628 37.3488 45.6279C37.314 45.593 37.3023 45.5465 37.3023 45.4767C37.3023 45.4186 37.3023 45.3837 37.3256 45.3488C37.3488 45.314 37.3605 45.3023 37.3954 45.2907C37.4302 45.2791 37.4535 45.2674 37.5 45.2674C37.5465 45.2674 37.593 45.2674 37.6395 45.2674C37.7209 45.2674 37.8023 45.2674 37.8721 45.2674C37.9419 45.2674 38.0116 45.2907 38.0698 45.3372H38.1163C38.1163 45.3372 38.1395 45.3256 38.1628 45.3256H38.2442C38.3837 45.3256 38.5349 45.3256 38.6977 45.3605C38.8605 45.3953 39 45.3954 39.1279 45.407L39.3837 45.4535C39.3837 45.4535 39.4651 45.4535 39.5 45.4302C39.5349 45.407 39.5814 45.407 39.6279 45.3837C39.6744 45.3605 39.7209 45.3488 39.7558 45.3372C39.7907 45.3256 39.8372 45.314 39.8837 45.314C39.9186 45.314 39.9419 45.314 39.9651 45.3372C39.9884 45.3605 40.0233 45.3605 40.0698 45.3605C40.0814 45.3605 40.1047 45.3605 40.1163 45.3372C40.1279 45.314 40.1512 45.314 40.1861 45.314C40.2209 45.314 40.2442 45.314 40.2558 45.314C40.2674 45.314 40.2907 45.3256 40.3023 45.3605H40.4767C40.5349 45.3605 40.6047 45.3605 40.6744 45.3256C40.7442 45.2907 40.814 45.2907 40.8837 45.2907C40.9302 45.2907 40.9651 45.2907 40.9884 45.2907C41.0116 45.2907 41.0465 45.314 41.093 45.3488L41.907 45.3954C41.907 45.3954 41.9884 45.3954 42.0116 45.407C42.0465 45.407 42.0698 45.407 42.1047 45.4186C42.1395 45.4302 42.1628 45.4186 42.186 45.4302C42.1977 45.4302 42.2209 45.4302 42.2442 45.4302C42.2674 45.4302 42.2907 45.4302 42.3023 45.4535C42.314 45.4767 42.3372 45.4767 42.3488 45.4884C42.3605 45.5 42.3721 45.5233 42.3721 45.5465C42.3721 45.5698 42.3953 45.6163 42.3953 45.6861C42.3953 45.7558 42.407 45.814 42.4186 45.8837C42.4302 45.9535 42.4302 46.0233 42.4419 46.0814C42.4535 46.1395 42.4419 46.1861 42.4419 46.2093C42.4535 46.314 42.4651 46.4186 42.4767 46.5233C42.4884 46.6279 42.4884 46.7326 42.4884 46.8372H42.4186C42.3488 46.8372 42.3023 46.7907 42.2558 46.6861C42.2326 46.6512 42.2093 46.6279 42.1977 46.6163C42.186 46.6047 42.1744 46.593 42.1744 46.5698C42.1279 46.5116 42.093 46.4535 42.0465 46.3837C42 46.314 41.9651 46.2558 41.9302 46.1861C41.8954 46.1163 41.8605 46.0698 41.8372 46.0233C41.814 45.9768 41.7907 45.9419 41.7791 45.9186C41.7442 45.907 41.7093 45.8953 41.6628 45.8837C41.6163 45.8721 41.5814 45.8721 41.5465 45.8605C41.5116 45.8488 41.4767 45.8372 41.4419 45.8256C41.407 45.814 41.3837 45.7907 41.3605 45.7558C41.3372 45.7093 41.2907 45.6861 41.2209 45.6861C41.1977 45.6861 41.1744 45.6861 41.1744 45.6861C41.1628 45.6861 41.1395 45.6861 41.1163 45.6861C41.093 45.6861 41.0698 45.6861 41.0465 45.6861C41 45.6861 40.9419 45.6861 40.8954 45.6861C40.8488 45.6861 40.8023 45.6861 40.7674 45.6861C40.7442 45.6861 40.7326 45.6861 40.7209 45.6861C40.7093 45.6861 40.7093 45.6861 40.6861 45.6861H40.6512C40.5814 45.6628 40.5233 45.6628 40.4535 45.6512C40.3837 45.6395 40.3256 45.6512 40.2558 45.6512C40.186 45.6512 40.1279 45.6512 40.0581 45.6512C39.9884 45.6512 39.9302 45.6512 39.8605 45.6744C39.8372 45.6744 39.814 45.6977 39.7907 45.7093C39.7674 45.7209 39.7326 45.7442 39.7093 45.7791C39.686 45.814 39.6628 45.8256 39.6395 45.8605C39.6163 45.8953 39.6047 45.9186 39.593 45.9419C39.5698 46.0465 39.5581 46.1628 39.5465 46.2907C39.5349 46.4186 39.5465 46.5465 39.5465 46.6861V47.1628C39.5465 47.1628 39.5 47.2326 39.5 47.2674C39.5 47.3023 39.5 47.3488 39.5 47.3953V47.5581C39.5 47.6279 39.5 47.6977 39.5 47.7674C39.5 47.8372 39.5116 47.907 39.5349 47.9767C39.5581 48.0465 39.5814 48.1047 39.6163 48.1744C39.6512 48.2442 39.6977 48.2907 39.7558 48.3488L40.4884 48.3721C40.4884 48.3721 40.6047 48.3721 40.6512 48.3372C40.6628 48.3372 40.686 48.3372 40.7093 48.3256C40.7326 48.314 40.7558 48.3256 40.7674 48.3256H40.9419C40.9419 48.3256 41.0349 48.3256 41.0814 48.2791C41.1047 48.2791 41.1279 48.2674 41.1628 48.2442C41.1977 48.2209 41.2209 48.2093 41.2558 48.186C41.2907 48.1628 41.314 48.1395 41.3488 48.1163C41.3837 48.093 41.3954 48.0698 41.407 48.0581C41.4302 48.0233 41.4419 47.9651 41.4651 47.8837C41.4884 47.8023 41.5116 47.7209 41.5465 47.6395C41.5814 47.5581 41.6047 47.4884 41.6395 47.4186C41.6744 47.3488 41.7093 47.3256 41.7558 47.3256C41.7907 47.3256 41.8372 47.3488 41.8605 47.407V47.8256C41.8605 47.8256 41.8605 47.8954 41.8605 47.9302C41.8605 47.9651 41.8372 48 41.814 48.0581L41.7558 48.1279L41.7791 48.2791C41.7791 48.2791 41.7791 48.3256 41.7791 48.3837C41.7791 48.4419 41.7907 48.5116 41.8023 48.593C41.814 48.6744 41.814 48.7442 41.8256 48.8256C41.8372 48.907 41.8256 48.9767 41.8256 49.0233L41.8023 49.186C41.8023 49.186 41.8023 49.2791 41.8256 49.314C41.8488 49.3488 41.8488 49.3837 41.8488 49.4186C41.8488 49.5 41.8372 49.5698 41.8023 49.6279C41.7674 49.6861 41.7209 49.7093 41.6395 49.7093C41.6047 49.7093 41.5698 49.7093 41.5465 49.6861C41.5233 49.6628 41.5116 49.6512 41.5 49.6395C41.4884 49.6279 41.4884 49.593 41.4767 49.5698C41.4651 49.5465 41.4767 49.5233 41.4767 49.4884V49.4302C41.4767 49.4302 41.4767 49.3954 41.4767 49.3837L41.3488 49.1628V49.0233C41.3488 49.0233 41.314 48.9419 41.2442 48.907C41.1744 48.8721 41.093 48.8372 41 48.8023C40.907 48.7674 40.7907 48.7442 40.6744 48.7209C40.5581 48.6977 40.4419 48.6744 40.3256 48.6628C40.2093 48.6512 40.1047 48.6279 40.0116 48.6163C39.9186 48.6047 39.8488 48.6047 39.814 48.6047C39.7558 48.6047 39.7093 48.6163 39.6744 48.6512C39.6395 48.686 39.593 48.7326 39.5698 48.7791C39.5465 48.8256 39.5233 48.8837 39.5 48.9419C39.4767 49 39.4767 49.0465 39.4651 49.093V49.4535L39.5233 50.1512V50.5465C39.5233 50.6163 39.5581 50.686 39.6047 50.7558C39.6512 50.8256 39.7093 50.8837 39.7791 50.9419C39.8488 51 39.9186 51.0465 40 51.0814C40.0814 51.1163 40.1512 51.1395 40.2093 51.1395L40.5349 51.1628L40.6163 51.1977H41.1047C41.1628 51.1977 41.2209 51.1977 41.2907 51.1977C41.3605 51.1977 41.4186 51.1977 41.4767 51.1977C41.5349 51.1977 41.6163 51.1977 41.6977 51.1744L42.0581 51.0349C42.0581 51.0349 42.1628 50.9535 42.2326 50.8954C42.3023 50.8372 42.3721 50.7674 42.4419 50.6977C42.5116 50.6279 42.5698 50.5581 42.6279 50.4884C42.686 50.4186 42.7326 50.3605 42.7558 50.314C42.7674 50.314 42.7907 50.2791 42.8023 50.2442C42.814 50.2093 42.8372 50.1628 42.8488 50.1163C42.8605 50.0698 42.8953 50.0349 42.9186 50C42.9419 49.9651 42.9767 49.9535 43.0116 49.9535C43.0465 49.9535 43.0698 49.9651 43.0814 50C43.093 50.0349 43.1047 50.0581 43.1047 50.0814L43.0233 50.3721C42.9767 50.5349 42.9302 50.686 42.8954 50.8488C42.8605 51.0116 42.8256 51.1744 42.814 51.3372C42.7558 51.4302 42.6744 51.4884 42.5698 51.5116C42.4651 51.5349 42.3721 51.5465 42.2674 51.5465H42.1628C42.1628 51.5465 42.1047 51.5465 42.0698 51.5465L41.9767 51.5698C41.9767 51.5698 41.9186 51.5698 41.907 51.5698C41.8954 51.5698 41.8721 51.5581 41.8605 51.5465L41.814 51.5233C41.814 51.5233 41.7791 51.5233 41.7558 51.5233L41.4651 51.5581L41.314 51.5233L40.6163 51.5814C40.3953 51.5814 40.1744 51.5814 39.9535 51.5581C39.7326 51.5349 39.5 51.5349 39.2674 51.5349L38.686 51.593L38.2791 51.5698C38.2791 51.5698 38.1744 51.5698 38.1163 51.593C38.0581 51.6163 38.0116 51.6163 37.9651 51.6395C37.9186 51.6628 37.8721 51.6628 37.8256 51.6861C37.7791 51.7093 37.7326 51.7093 37.6977 51.7093C37.6512 51.7093 37.593 51.7093 37.5349 51.6861C37.4767 51.6628 37.4186 51.6512 37.3605 51.6163C37.3023 51.5814 37.2674 51.5465 37.2209 51.5C37.1744 51.4535 37.1628 51.407 37.1628 51.3372L37.2093 51.3023Z" fill="white"/>
<path d="M43.5814 18.6047L52.1977 9.98837L50.6046 8.39535L41.9884 17.0116C42.5581 17.5116 43.093 18.0465 43.5814 18.6047Z" fill="#E5281E"/>
<path d="M19.0116 17L10.3953 8.38372L8.80232 9.97674L17.4186 18.593C17.9186 18.0233 18.4535 17.4884 19.0116 17Z" fill="#E5281E"/>
<path d="M33.407 5.88372C33.1395 5.88372 32.9186 6.10465 32.9186 6.37209V10.1512C32.9186 11.4302 31.9884 12.5 30.7674 12.7209V10.9767C30.7674 10.7093 30.5465 10.4884 30.2791 10.4884C30.0116 10.4884 29.7907 10.7093 29.7907 10.9767V12.7209C28.5698 12.5 27.6395 11.4419 27.6395 10.1512V6.37209C27.6395 6.10465 27.4186 5.88372 27.1512 5.88372C26.8837 5.88372 26.6628 6.10465 26.6628 6.37209V25.0814C26.6628 26.8954 28.0233 28.407 29.7907 28.6279V33.6279C29.7907 33.8954 30.0116 34.1163 30.2791 34.1163C30.5465 34.1163 30.7674 33.8954 30.7674 33.6279V28.6279C32.5233 28.407 33.8954 26.8954 33.8954 25.0814V6.37209C33.8954 6.10465 33.6744 5.88372 33.407 5.88372ZM29.7907 16.4419C28.5698 16.2209 27.6395 15.1628 27.6395 13.8721V12.593C28.1977 13.186 28.9419 13.5814 29.7907 13.686V16.4419ZM29.7907 20.1744C28.5698 19.9535 27.6395 18.8954 27.6395 17.6047V16.3256C28.1977 16.9186 28.9419 17.314 29.7907 17.4186V20.1744ZM29.7907 23.907C28.5698 23.686 27.6395 22.6279 27.6395 21.3372V20.0581C28.1977 20.6512 28.9419 21.0465 29.7907 21.1512V23.907ZM27.6395 25.0814V23.8023C28.1977 24.3954 28.9419 24.7907 29.7907 24.8954V27.6395C28.5698 27.4186 27.6395 26.3605 27.6395 25.0698V25.0814ZM32.9186 25.0814C32.9186 26.3605 31.9884 27.4302 30.7674 27.6512V24.907C31.6047 24.8023 32.3605 24.3954 32.9186 23.814V25.093V25.0814ZM32.9186 21.3023V21.3372C32.9186 22.6163 31.9884 23.686 30.7674 23.907V21.1628C31.6047 21.0581 32.3605 20.6512 32.9186 20.0698V21.314V21.3023ZM32.9186 17.5698V17.6047C32.9186 18.8837 31.9884 19.9535 30.7674 20.1744V17.4302C31.6047 17.3256 32.3605 16.9186 32.9186 16.3372V17.5814V17.5698ZM32.9186 13.8372V13.8721C32.9186 15.1512 31.9884 16.2209 30.7674 16.4419V13.6977C31.6047 13.593 32.3605 13.186 32.9186 12.6047V13.8488V13.8372Z" fill="#E5281E"/>
</svg>
