<svg width="20" height="20" viewBox="0 0 20 20" fill="none" xmlns="http://www.w3.org/2000/svg">
<path d="M9.80382 1.60117C10.3036 2.42777 11.739 4.90756 11.739 4.90756L10.3357 5.6893L15.4811 6.27881L17.4803 1.84467L16.0065 2.62641L14.5776 0.531084C14.5776 0.531084 14.2508 -0.167358 13.0205 0.0376893L8.30441 0.217106C8.30441 0.217106 9.29761 0.780986 9.79741 1.60758H9.80382V1.60117Z" fill="#3FA535"/>
<path d="M7.66364 0.479822C6.11297 0.0505048 5.07492 1.85108 5.07492 1.85108L2.92833 5.45863L7.31762 7.58599L10.0153 3.08136C10.0153 3.08136 9.22072 0.915548 7.66364 0.479822Z" fill="#3FA535"/>
<path d="M17.3457 13.244C16.3781 13.244 13.5139 13.1671 13.5139 13.1671L13.578 11.5652L10.3869 15.6469L13.123 19.671L13.2255 18.005L15.763 17.8832C15.763 17.8832 16.5319 17.9729 16.9997 16.8195L19.3129 12.7058C19.3129 12.7058 18.3133 13.2568 17.3457 13.2504V13.244Z" fill="#3FA535"/>
<path d="M19.6076 9.07258L17.6533 5.3561L13.5459 7.98327L15.9745 12.6417C15.9745 12.6417 18.2364 13.0966 19.4218 11.9945C20.6008 10.8924 19.6076 9.06618 19.6076 9.06618V9.07258Z" fill="#3FA535"/>
<path d="M5.38249 10.7386L6.72811 11.6164L4.85706 6.78502L0 7.07337L1.37766 8.01531L0.185824 10.258C0.185824 10.258 -0.28194 10.8732 0.467764 11.8664L2.81299 15.9609C2.81299 15.9609 2.85144 14.8203 3.35124 13.9937C3.85104 13.1671 5.38249 10.745 5.38249 10.745V10.7386Z" fill="#3FA535"/>
<path d="M4.56871 13.1159C4.56871 13.1159 3.01804 14.8267 3.35765 16.403C3.69726 17.9793 5.77336 18.0626 5.77336 18.0626L9.96401 18.2869L9.81023 13.4106L4.5623 13.1094H4.56871V13.1159Z" fill="#3FA535"/>
</svg>
