<svg width="21" height="15" viewBox="0 0 21 15" fill="none" xmlns="http://www.w3.org/2000/svg">
<path d="M6.08639 12.1581C6.08639 13.0779 5.34075 13.8235 4.42095 13.8235C3.50115 13.8235 2.75551 13.0779 2.75551 12.1581M6.08639 12.1581C6.08639 11.2383 5.34075 10.4926 4.42095 10.4926C3.50115 10.4926 2.75551 11.2383 2.75551 12.1581M6.08639 12.1581H14.4136M2.75551 12.1581H0.673706V7.57812L2.33915 5.91268L4.42095 2.16544H8.16819M17.7445 12.1581C17.7445 13.0779 16.9988 13.8235 16.079 13.8235C15.1592 13.8235 14.4136 13.0779 14.4136 12.1581M17.7445 12.1581C17.7445 11.2383 16.9988 10.4926 16.079 10.4926C15.1592 10.4926 14.4136 11.2383 14.4136 12.1581M17.7445 12.1581H19.8263V0.5H8.16819V2.16544M8.16819 2.16544L8.16819 10.4926M6.50275 3.83088H5.25367L4.00459 6.32904M0.673706 10.4926H19.8263" stroke="#010101" stroke-width="0.832721" stroke-linecap="round" stroke-linejoin="round"/>
</svg>
