<svg width="61" height="60" viewBox="0 0 61 60" fill="none" xmlns="http://www.w3.org/2000/svg">
<path d="M30.5 0C24.5666 0 18.7664 1.75947 13.8329 5.05591C8.89942 8.35235 5.05424 13.0377 2.78361 18.5195C0.512983 24.0013 -0.0811169 30.0333 1.07644 35.8527C2.234 41.6721 5.09122 47.0176 9.28679 51.2132C13.4824 55.4088 18.8279 58.266 24.6473 59.4236C30.4667 60.5811 36.4987 59.987 41.9805 57.7164C47.4623 55.4458 52.1476 51.6006 55.4441 46.6671C58.7405 41.7336 60.5 35.9334 60.5 30C60.4938 22.0454 57.3312 14.4184 51.7064 8.7936C46.0816 3.16884 38.4546 0.0061592 30.5 0ZM30.5 2.25581C37.7211 2.26524 44.6539 5.08967 49.8258 10.1291C54.9977 15.1685 58.001 22.0258 58.1977 29.2442H2.82558C3.02217 22.0298 6.02224 15.176 11.1891 10.1372C16.356 5.0984 23.283 2.27128 30.5 2.25581Z" fill="#E5281E"/>
<path d="M22.9884 42.7791C22.984 42.7404 22.984 42.7014 22.9884 42.6628C23 42.6249 23 42.5844 22.9884 42.5465L22.8721 42.0349C22.8667 41.9381 22.8667 41.841 22.8721 41.7442C22.8647 41.6474 22.8647 41.5502 22.8721 41.4535C22.8721 41.3837 22.8721 41.3023 22.9302 41.2093V40.9535C22.936 40.8722 22.936 40.7906 22.9302 40.7093C22.9354 40.6435 22.9354 40.5774 22.9302 40.5116L23.0233 40.407L23.1163 40.314C23.1487 40.2861 23.1728 40.2499 23.186 40.2093C23.1943 40.1632 23.1943 40.1159 23.186 40.0698L23.4302 39.814L23.5465 39.7558C23.5694 39.7613 23.5933 39.7613 23.6163 39.7558L23.686 39.6395L23.7674 39.5116C23.7849 39.4767 23.8086 39.4452 23.8372 39.4186L24.3488 39.0698C24.5283 38.9573 24.7147 38.8563 24.907 38.7674H24.9767C25.0144 38.7807 25.0554 38.7807 25.093 38.7674H26.8488L27.1512 38.8372L27.4535 38.9186H27.6395C27.7254 38.983 27.8034 39.0571 27.8721 39.1395C27.9408 39.2219 28.0188 39.2961 28.1046 39.3605L28.2442 39.4535L28.3837 39.5233L28.5116 39.593L28.6512 39.6861L28.7791 39.814V39.9535C28.7702 39.9878 28.7702 40.0238 28.7791 40.0581L28.8605 40.1512C28.8943 40.1792 28.9255 40.2103 28.9535 40.2442C28.9808 40.2695 29.0009 40.3016 29.0116 40.3372L29.093 40.4767L29.186 40.6628C29.2201 40.7215 29.2475 40.7839 29.2674 40.8488C29.2717 40.903 29.2717 40.9575 29.2674 41.0116V41.2791C29.2643 41.3178 29.2643 41.3567 29.2674 41.3953C29.2612 41.426 29.2612 41.4577 29.2674 41.4884V41.593C29.2744 41.6354 29.2744 41.6786 29.2674 41.7209C29.2619 41.7399 29.2619 41.7601 29.2674 41.7791V42.093C29.2729 42.112 29.2729 42.1322 29.2674 42.1512V42.2209C29.2748 42.306 29.2748 42.3916 29.2674 42.4767C29.2742 42.5269 29.2742 42.5777 29.2674 42.6279C29.2357 42.72 29.1969 42.8094 29.1512 42.8954C29.1131 42.9791 29.0704 43.0606 29.0233 43.1395C28.9761 43.2185 28.9334 43.3 28.8953 43.3837C28.8436 43.4723 28.8007 43.5658 28.7674 43.6628H28.593C28.5959 43.6821 28.5959 43.7017 28.593 43.7209V43.9535H28.4302C28.4223 43.9761 28.4223 44.0007 28.4302 44.0233L28.3372 44.1279L28.2093 44.2791L28.0814 44.4186L27.9767 44.5116H27.907L27.407 44.6861C27.407 44.6861 27.407 44.686 27.407 44.7442H27.0465L26.7209 44.8837H25.2093C25.1009 44.8829 24.9939 44.8591 24.8953 44.814L24.8256 44.7209H24.5698C24.5273 44.7262 24.4843 44.7262 24.4419 44.7209C24.4042 44.7082 24.3716 44.6838 24.3488 44.6512C24.3067 44.6106 24.2714 44.5634 24.2442 44.5116L24.1628 44.4186L24.0581 44.3372L23.8837 44.2558H23.7442L23.7558 44.1861C23.7106 44.1367 23.6715 44.082 23.6395 44.0233L23.5349 43.8372C23.4909 43.7724 23.4557 43.702 23.4302 43.6279C23.4302 43.5698 23.3721 43.5 23.3488 43.4535L23.2907 43.3372C23.2731 43.2736 23.2366 43.2168 23.186 43.1744L23.0698 43.093C23.0326 43.0597 23.0011 43.0204 22.9767 42.9767C22.9703 42.9107 22.9743 42.844 22.9884 42.7791ZM23.9419 41.7674C23.9309 41.8251 23.9309 41.8842 23.9419 41.9419L24.0233 42.093L24.1046 42.2326C24.1163 42.2862 24.1163 42.3417 24.1046 42.3954V42.6163C24.099 42.647 24.099 42.6786 24.1046 42.7093C24.0958 42.7436 24.0958 42.7796 24.1046 42.814C24.0999 42.837 24.0999 42.8607 24.1046 42.8837H24.2209C24.2246 42.9146 24.2246 42.9458 24.2209 42.9767V43.0581C24.2144 43.1005 24.2144 43.1437 24.2209 43.186C24.2209 43.186 24.2209 43.186 24.2907 43.186C24.3172 43.178 24.3456 43.178 24.3721 43.186C24.4118 43.2861 24.4584 43.3832 24.5116 43.4767C24.56 43.5609 24.623 43.6357 24.6977 43.6977L25.0233 43.9419L25.3605 44.1512L25.7326 44.3023C25.8715 44.3207 26.0122 44.3207 26.1512 44.3023H27.093L27.3023 44.1628L27.5349 44.0349C27.6116 43.9902 27.682 43.9354 27.7442 43.8721C27.8112 43.8179 27.8666 43.7506 27.907 43.6744L28.1395 43.1977C28.1861 43.1688 28.2195 43.1229 28.2326 43.0698C28.2376 43.0234 28.2376 42.9766 28.2326 42.9302C28.2326 42.8721 28.2326 42.8256 28.2326 42.7674C28.2441 42.7194 28.2682 42.6752 28.3023 42.6395L28.3953 42.0116C28.4016 41.9653 28.4016 41.9184 28.3953 41.8721C28.3891 41.8219 28.3891 41.7711 28.3953 41.7209L28.4535 41.5698C28.4624 41.512 28.4624 41.4531 28.4535 41.3953L28.3721 41.186L28.2674 40.9767L28.186 40.8023V40.6047C28.249 40.6565 28.3258 40.6889 28.407 40.6977C28.4091 40.6667 28.4091 40.6356 28.407 40.6047L28.3488 40.5233C28.3388 40.4891 28.3388 40.4528 28.3488 40.4186V40.1977C28.3098 40.0894 28.255 39.9875 28.186 39.8954C28.0957 39.7811 27.9986 39.6724 27.8953 39.5698C27.7996 39.4637 27.6945 39.3664 27.5814 39.2791C27.4957 39.2131 27.4019 39.1584 27.3023 39.1163H26.9186L26.8023 38.9651H25.9884L25.686 39.0233L25.4186 39.1163C25.3455 39.1399 25.2808 39.1844 25.2326 39.2442V39.314H25.0814C25.0623 39.309 25.0423 39.309 25.0233 39.314C25.0169 39.3286 25.0135 39.3445 25.0135 39.3605C25.0135 39.3765 25.0169 39.3923 25.0233 39.407H24.8721V39.4767L24.7907 39.5581C24.6687 39.6314 24.5684 39.7357 24.5 39.8605C24.427 39.9878 24.3722 40.1248 24.3372 40.2674C24.2978 40.4122 24.2706 40.56 24.2558 40.7093C24.2558 40.8605 24.2558 41.0116 24.2558 41.1395V41.4651C24.2637 41.4956 24.2637 41.5276 24.2558 41.5581C24.2215 41.5422 24.1836 41.5353 24.1458 41.5382C24.108 41.541 24.0716 41.5536 24.0401 41.5746C24.0085 41.5956 23.9829 41.6244 23.9657 41.6582C23.9485 41.692 23.9403 41.7296 23.9419 41.7674Z" fill="white"/>
<path d="M31.7326 27.6279V28.0116C31.7326 28.8605 31.7326 29.6977 31.7326 30.5465C31.7316 30.8002 31.6531 31.0475 31.5077 31.2554C31.3622 31.4632 31.1566 31.6216 30.9186 31.7093C30.6802 31.7984 30.4192 31.8069 30.1755 31.7334C29.9319 31.6598 29.7191 31.5084 29.5698 31.3023C29.4157 31.0534 29.3276 30.7692 29.314 30.4767C29.314 29.6628 29.314 28.8488 29.314 28.0349V27.6512C29.1977 27.7442 29.1279 27.7791 29.0698 27.8372C28.7907 28.1279 28.5 28.4186 28.2093 28.6977C27.978 28.929 27.6643 29.0589 27.3372 29.0589C27.0101 29.0589 26.6964 28.929 26.4651 28.6977C26.2338 28.4664 26.1039 28.1527 26.1039 27.8256C26.1039 27.4985 26.2338 27.1848 26.4651 26.9535L29.1046 24.314C29.1722 24.2496 29.2257 24.172 29.2617 24.0859C29.2978 23.9998 29.3155 23.9072 29.314 23.814C29.314 22.7674 29.314 21.7209 29.314 20.686V20.3256C29.2175 20.3649 29.1242 20.4116 29.0349 20.4651C28.0814 21.0116 27.1395 21.5465 26.1977 22.1047C26.0844 22.1927 26.0028 22.3151 25.9651 22.4535C25.6279 23.6163 25.3256 24.8372 25 26.0349C24.9708 26.197 24.9095 26.3517 24.8195 26.4898C24.7295 26.6278 24.6128 26.7464 24.4762 26.8385C24.3396 26.9307 24.1859 26.9945 24.0243 27.0262C23.8626 27.058 23.6962 27.0569 23.5349 27.0233C23.3778 27.0011 23.2269 26.947 23.0915 26.8643C22.9561 26.7816 22.839 26.6721 22.7475 26.5425C22.656 26.4128 22.592 26.2659 22.5594 26.1106C22.5269 25.9553 22.5264 25.795 22.5581 25.6395C22.6512 25.2093 22.7791 24.7791 22.8837 24.3488C22.8837 24.2442 22.9419 24.1512 22.9767 23.9884L22.7209 24.1047C21.9884 24.5349 21.2558 24.9651 20.5233 25.3721C20.3199 25.5286 20.0705 25.6135 19.814 25.6135C19.5574 25.6135 19.308 25.5286 19.1046 25.3721C18.9216 25.2627 18.77 25.1077 18.6648 24.9223C18.5595 24.7368 18.5042 24.5272 18.5042 24.314C18.5042 24.1007 18.5595 23.8911 18.6648 23.7056C18.77 23.5202 18.9216 23.3652 19.1046 23.2558L21.3256 21.9767L21.6395 21.7674C21.0814 21.6163 20.593 21.5 20.1163 21.3488C19.8259 21.287 19.5703 21.1164 19.4016 20.8721C19.233 20.6278 19.1642 20.3283 19.2093 20.0349C19.2294 19.8504 19.2904 19.6728 19.3881 19.515C19.4857 19.3572 19.6173 19.2233 19.7734 19.1229C19.9294 19.0226 20.106 18.9584 20.2901 18.9352C20.4741 18.9119 20.6611 18.9301 20.8372 18.9884C21.8721 19.2558 22.907 19.5233 23.9419 19.8256C24.172 19.9144 24.4203 19.946 24.6654 19.9177C24.9105 19.8893 25.145 19.8018 25.3488 19.6628C26.1163 19.1628 26.9302 18.7326 27.7326 18.2791L27.9535 18.1279L27.7093 17.9535C26.7791 17.4186 25.8605 16.8837 24.9186 16.3605C24.7571 16.3018 24.5801 16.3018 24.4186 16.3605C23.2558 16.6628 22.0349 16.9884 20.8488 17.314C20.6035 17.3988 20.3376 17.404 20.0892 17.3288C19.8407 17.2536 19.6223 17.1019 19.4651 16.8953C19.3389 16.7342 19.2548 16.5441 19.2204 16.3423C19.1861 16.1405 19.2025 15.9333 19.2683 15.7394C19.3341 15.5455 19.4471 15.3711 19.5972 15.2319C19.7473 15.0926 19.9297 14.993 20.1279 14.9419L21.6279 14.5349L21.4302 14.314L19.2209 13.0698C19.0736 12.9927 18.943 12.8871 18.8367 12.7592C18.7305 12.6313 18.6507 12.4835 18.602 12.3245C18.5533 12.1655 18.5367 11.9984 18.5531 11.8329C18.5696 11.6674 18.6187 11.5068 18.6977 11.3605C18.7789 11.2125 18.89 11.083 19.0239 10.9801C19.1578 10.8773 19.3115 10.8033 19.4754 10.7628C19.6393 10.7224 19.8098 10.7164 19.9762 10.7452C20.1425 10.774 20.3011 10.837 20.4419 10.9302C21.1628 11.3256 21.8721 11.7558 22.593 12.1628L22.9302 12.3372C22.8023 11.8721 22.686 11.4884 22.593 11.093C22.5257 10.8272 22.4983 10.5529 22.5116 10.2791C22.5545 10.0137 22.6879 9.77129 22.8893 9.59321C23.0907 9.41512 23.3476 9.31233 23.6163 9.30233C23.8879 9.26847 24.1628 9.33154 24.3925 9.48043C24.6222 9.62932 24.7921 9.85448 24.8721 10.1163C25.0465 10.6395 25.1744 11.1744 25.314 11.7093C25.5116 12.4535 25.6977 13.1977 25.907 13.9302C25.9406 14.0455 26.0098 14.1473 26.1046 14.2209L29.0814 15.9419L29.2558 16V15.6744C29.2558 14.6163 29.2558 13.5698 29.2558 12.5116C29.2576 12.4245 29.2409 12.338 29.2068 12.2579C29.1728 12.1777 29.1221 12.1057 29.0581 12.0465L26.4419 9.39535C26.2221 9.17207 26.0946 8.87411 26.085 8.56097C26.0753 8.24783 26.1841 7.94257 26.3897 7.70616C26.5953 7.46975 26.8825 7.31959 27.1939 7.28569C27.5054 7.25178 27.8181 7.33662 28.0698 7.52325C28.3837 7.80232 28.6628 8.10465 28.9535 8.40698C29.0145 8.49184 29.0689 8.58125 29.1163 8.67442L29.2442 8.60465C29.2381 8.50785 29.2381 8.41076 29.2442 8.31395C29.2442 7.45349 29.2442 6.60465 29.2442 5.75581C29.224 5.47255 29.3023 5.19102 29.4657 4.95881C29.6292 4.72659 29.8678 4.55795 30.1413 4.48138C30.4148 4.40481 30.7063 4.42502 30.9665 4.53858C31.2268 4.65215 31.4399 4.85211 31.5698 5.10465C31.6884 5.33086 31.7521 5.58181 31.7558 5.83721C31.7558 6.65116 31.7558 7.46512 31.7558 8.27907V8.66279L32 8.46512L32.8837 7.58139C32.9896 7.44068 33.1244 7.32428 33.279 7.24004C33.4336 7.15579 33.6045 7.10565 33.7801 7.09301C33.9558 7.08036 34.1321 7.10549 34.2972 7.16671C34.4623 7.22792 34.6124 7.32381 34.7373 7.4479C34.8622 7.57199 34.9591 7.72142 35.0214 7.8861C35.0838 8.05079 35.1101 8.22692 35.0986 8.40264C35.0872 8.57835 35.0382 8.74957 34.955 8.90476C34.8718 9.05996 34.7563 9.19552 34.6163 9.30233L31.8953 12C31.826 12.0629 31.7713 12.1403 31.7351 12.2267C31.6989 12.3131 31.6822 12.4064 31.686 12.5C31.686 13.5465 31.686 14.593 31.686 15.6279V15.9884L31.9651 15.8488L34.7791 14.2209C34.9053 14.1307 34.9958 13.999 35.0349 13.8488C35.3721 12.686 35.6744 11.4651 36 10.2791C36.0277 10.1084 36.0913 9.9455 36.1867 9.80124C36.2821 9.65698 36.407 9.53463 36.5532 9.44229C36.6994 9.34994 36.8636 9.28971 37.0348 9.26558C37.2061 9.24145 37.3805 9.25398 37.5465 9.30233C37.6993 9.32882 37.8453 9.38561 37.9758 9.46936C38.1063 9.5531 38.2187 9.6621 38.3065 9.78995C38.3943 9.9178 38.4556 10.0619 38.4868 10.2138C38.518 10.3657 38.5186 10.5223 38.4884 10.6744C38.407 11.1279 38.2791 11.5581 38.1628 12C38.1628 12.093 38.1628 12.186 38.093 12.3256L38.3256 12.2209L40.593 10.907C40.83 10.7705 41.1054 10.7159 41.3765 10.7516C41.6477 10.7873 41.8995 10.9114 42.093 11.1047C42.2947 11.2909 42.4241 11.5424 42.4581 11.8148C42.4922 12.0872 42.4287 12.3629 42.2791 12.593C42.1393 12.7966 41.9567 12.9672 41.7442 13.093C41.0581 13.5116 40.3605 13.907 39.6628 14.2558L39.3372 14.4651L39.9535 14.6395L40.8837 14.8953C41.1859 14.9873 41.4413 15.1918 41.5971 15.4666C41.7529 15.7414 41.7972 16.0655 41.7209 16.3721C41.6906 16.5333 41.6265 16.6863 41.5329 16.821C41.4392 16.9557 41.3181 17.069 41.1776 17.1536C41.037 17.2382 40.8801 17.292 40.7172 17.3116C40.5544 17.3313 40.3892 17.3162 40.2326 17.2674C39.0116 16.9651 37.7907 16.6279 36.5814 16.2907C36.4826 16.2602 36.3783 16.2517 36.2759 16.2658C36.1734 16.2798 36.0753 16.3161 35.9884 16.3721L33.3023 17.9302L33.0581 18.1395L33.2674 18.2907C34.2093 18.8372 35.1512 19.3953 36.1046 19.9302C36.2711 19.9829 36.4498 19.9829 36.6163 19.9302L40.1047 18.9767C40.2668 18.8859 40.4473 18.8326 40.6328 18.8207C40.8183 18.8087 41.0041 18.8385 41.1765 18.9078C41.349 18.9771 41.5038 19.0842 41.6294 19.2212C41.7551 19.3581 41.8485 19.5215 41.9027 19.6993C41.9569 19.8771 41.9706 20.0648 41.9428 20.2486C41.9149 20.4323 41.8463 20.6075 41.7419 20.7613C41.6374 20.9151 41.4999 21.0435 41.3393 21.1371C41.1787 21.2307 40.9992 21.2872 40.8139 21.3023C40.6977 21.3494 40.5769 21.3845 40.4535 21.407L39.6628 21.6163L39.3488 21.7209L39.6512 21.9186C40.407 22.3605 41.1628 22.7791 41.907 23.2442C42.1106 23.3706 42.2702 23.5569 42.3638 23.7776C42.4575 23.9982 42.4807 24.2424 42.4302 24.4767C42.396 24.7092 42.2921 24.9259 42.1323 25.0982C41.9725 25.2705 41.7642 25.3903 41.5349 25.4419C41.3597 25.4855 41.1773 25.4925 40.9993 25.4625C40.8212 25.4325 40.6513 25.3661 40.5 25.2674L38.3605 24.0233L38.0814 23.8837C38.1977 24.3256 38.3023 24.7093 38.3953 25.0465C38.4575 25.2666 38.4965 25.4927 38.5116 25.7209C38.5152 25.9996 38.4186 26.2704 38.2393 26.4838C38.06 26.6972 37.81 26.8392 37.5349 26.8837C37.259 26.954 36.9669 26.9205 36.714 26.7898C36.4612 26.6591 36.265 26.4401 36.1628 26.1744C35.9884 25.686 35.8721 25.186 35.7326 24.6977C35.5116 23.8837 35.3023 23.0581 35.0814 22.2442C35.0512 22.1398 34.9853 22.0493 34.8953 21.9884L31.8953 20.3953L31.7209 20.3372V20.6628C31.7209 21.7326 31.7209 22.7907 31.7209 23.8488C31.7238 24.0055 31.7861 24.1551 31.8953 24.2674C32.7791 25.1744 33.6977 26.0698 34.5814 26.9767C34.7464 27.1235 34.8685 27.3122 34.9348 27.5228C35.0011 27.7334 35.009 27.9581 34.9577 28.1729C34.9063 28.3876 34.7978 28.5845 34.6435 28.7424C34.4892 28.9003 34.2949 29.0135 34.0814 29.0698C33.8774 29.1286 33.6612 29.1304 33.4562 29.0751C33.2512 29.0197 33.0653 28.9093 32.9186 28.7558L32 27.907C31.9161 27.8091 31.8268 27.7159 31.7326 27.6279Z" fill="#E5281E"/>
</svg>
