<svg width="37" height="20" viewBox="0 0 37 20" fill="none" xmlns="http://www.w3.org/2000/svg">
<path d="M24.6159 18.3988L25.5447 13.1868H26.9859L26.0891 18.3988H24.6159Z" fill="#1A5B9E"/>
<path d="M31.3415 13.3124C30.9252 13.1554 30.4768 13.0926 30.0284 13.0926C28.5872 13.0926 27.5944 13.7834 27.5944 14.8195C27.5944 15.573 28.299 15.9812 28.8755 16.2323C29.452 16.4835 29.6441 16.6405 29.6121 16.8917C29.6121 17.2371 29.1637 17.394 28.7474 17.394C28.267 17.394 27.8186 17.2999 27.3702 17.1115L27.1781 17.0173L26.9859 18.179C27.4983 18.3674 28.0428 18.4615 28.5872 18.4615C30.1245 18.4615 31.0853 17.7708 31.1173 16.6719C31.1173 16.0754 30.733 15.6358 29.9003 15.259C29.3879 15.0079 29.0997 14.8509 29.0997 14.6311C29.0997 14.4113 29.3559 14.1915 29.9323 14.1915C30.3167 14.1915 30.669 14.2543 31.0213 14.3799L31.1494 14.4427L31.3415 13.3124Z" fill="#1A5B9E"/>
<path d="M35.0567 13.2182H33.9357C33.6155 13.1868 33.2952 13.3438 33.1671 13.6578L31.0213 18.4301H32.5266C32.5266 18.4301 32.7828 17.7708 32.8468 17.6452H34.7044C34.7364 17.8336 34.8965 18.4301 34.8965 18.4301H36.2417L35.0567 13.2182ZM33.2632 16.5463L33.8397 15.102C33.8397 15.102 33.9678 14.7881 34.0318 14.5997L34.1279 15.0392C34.1279 15.0392 34.4161 16.2951 34.4802 16.5463H33.2632Z" fill="#1A5B9E"/>
<path d="M23.431 13.2182L22.0218 16.7661L21.8617 16.044C21.5094 15.1021 20.7728 14.3171 19.844 13.8462L21.1571 18.3988H22.6944L24.9683 13.1868L23.431 13.2182Z" fill="#1A5B9E"/>
<path d="M20.6766 13.1868H18.3387V13.3124C20.1642 13.752 21.3493 14.7881 21.8617 16.044L21.3492 13.6578C21.2531 13.3752 20.9969 13.1554 20.6766 13.1868Z" fill="#F7A71C"/>
<path d="M17.506 5.90269H19.0433L18.0825 11.8054H16.5453L17.506 5.90269Z" fill="#1A5B9E"/>
<path d="M12.0935 5.90269H14.4635C15.9688 5.90269 16.3851 6.75041 16.1929 7.78652C16.0648 8.60284 15.4243 9.23078 14.6236 9.41917L16.1289 11.8368H14.1753L13.0543 9.51336L12.67 11.8368H11.1327L12.0935 5.90269ZM13.4707 7.09578L13.2145 8.57144H13.6628C14.1112 8.57144 14.4955 8.25747 14.5916 7.81791C14.6557 7.47254 14.4315 7.15857 14.0792 7.09578C14.0151 7.09578 13.9831 7.09578 13.919 7.09578H13.4707Z" fill="#1A5B9E"/>
<path d="M24.5839 5.90269H26.1532L25.1924 11.8054H23.6231L24.5839 5.90269Z" fill="#1A5B9E"/>
<path d="M27.3383 5.90269H30.7331L30.5409 7.18997H28.6834L28.5233 8.19468H30.2847L30.0606 9.48196H28.2991L28.139 10.5181H29.9965L29.7723 11.8054H26.3775L27.3383 5.90269Z" fill="#1A5B9E"/>
<path d="M7.77002 5.90269H11.1968L10.9727 7.18997H9.11512L8.95498 8.19468H10.7164L10.5243 9.48196H8.73081L8.57068 10.5181H10.4282L10.236 11.8054H6.80922L7.77002 5.90269Z" fill="#1A5B9E"/>
<path d="M20.2284 5.90269H23.6873L23.4631 7.18997H21.5735L21.4134 8.19468H23.1428L22.9186 9.48196H21.1892L20.8369 11.8054H19.2676L20.2284 5.90269Z" fill="#1A5B9E"/>
<path d="M33.6795 5.90269H31.6618L30.701 11.8054H32.7187C34.6723 11.8054 36.1776 10.5181 36.4658 8.85402C36.658 7.69232 36.0815 5.90269 33.6795 5.90269ZM34.8645 8.79122C34.7043 9.85873 33.9037 10.5181 32.9109 10.5181H32.4625L33.039 7.18997H33.3592C34.5122 7.18997 34.9606 8.00629 34.8645 8.79122Z" fill="#1A5B9E"/>
<path d="M0.5 5.08634H3.38239L3.73468 9.38775C5.62424 6.15385 7.57788 3.07692 9.5315 0H10.4603C8.41056 3.89325 6.36086 7.8179 4.37521 11.8053H2.26146L1.74902 7.06436C1.62092 5.90267 1.36472 5.40031 0.5 5.27472V5.08634Z" fill="#1A5B9E"/>
<path d="M1.55679 2.66877L4.02284 3.67348L4.24703 6.34224H4.40716L6.64902 2.66877V2.48039H1.55679V2.66877Z" fill="#F7A71C"/>
<path d="M14.6237 15.1648H15.8407L16.3851 16.8289L17.442 15.1648H18.595L15.5204 20H14.3675L15.6485 17.9592L14.6237 15.1648Z" fill="#1A5B9E"/>
<path d="M13.3427 15.102C12.9583 15.102 12.574 15.259 12.3178 15.5416L12.6701 13.2182H11.6773L10.9087 18.3987H11.9015L11.9655 18.022C12.1577 18.3359 12.478 18.4929 12.8302 18.4929C13.6309 18.4929 14.3995 17.7394 14.5277 16.7975C14.6878 15.8556 14.1433 15.102 13.3427 15.102ZM13.4708 16.7975C13.4388 17.2056 13.0865 17.5196 12.7021 17.551C12.3498 17.5196 12.0936 17.237 12.1257 16.9231C12.1257 16.8917 12.1257 16.8603 12.1577 16.7975C12.1897 16.3893 12.542 16.0754 12.9263 16.044C13.2786 16.0754 13.5348 16.3579 13.5028 16.6719C13.5028 16.7347 13.4708 16.7661 13.4708 16.7975Z" fill="#1A5B9E"/>
</svg>
