<svg width="24" height="20" viewBox="0 0 24 20" fill="none" xmlns="http://www.w3.org/2000/svg">
<path fill-rule="evenodd" clip-rule="evenodd" d="M0.800003 2.00002C0.800003 1.57568 0.968574 1.16871 1.26863 0.868654C1.56869 0.568596 1.97566 0.400024 2.4 0.400024H21.6C22.0244 0.400024 22.4313 0.568596 22.7314 0.868654C23.0314 1.16871 23.2 1.57568 23.2 2.00002C23.2 2.42437 23.0314 2.83134 22.7314 3.13139C22.4313 3.43145 22.0244 3.60002 21.6 3.60002H2.4C1.97566 3.60002 1.56869 3.43145 1.26863 3.13139C0.968574 2.83134 0.800003 2.42437 0.800003 2.00002ZM0.800003 10C0.800003 9.57568 0.968574 9.16871 1.26863 8.86865C1.56869 8.5686 1.97566 8.40002 2.4 8.40002H21.6C22.0244 8.40002 22.4313 8.5686 22.7314 8.86865C23.0314 9.16871 23.2 9.57568 23.2 10C23.2 10.4244 23.0314 10.8313 22.7314 11.1314C22.4313 11.4315 22.0244 11.6 21.6 11.6H2.4C1.97566 11.6 1.56869 11.4315 1.26863 11.1314C0.968574 10.8313 0.800003 10.4244 0.800003 10ZM0.800003 18C0.800003 17.5757 0.968574 17.1687 1.26863 16.8687C1.56869 16.5686 1.97566 16.4 2.4 16.4H21.6C22.0244 16.4 22.4313 16.5686 22.7314 16.8687C23.0314 17.1687 23.2 17.5757 23.2 18C23.2 18.4244 23.0314 18.8313 22.7314 19.1314C22.4313 19.4315 22.0244 19.6 21.6 19.6H2.4C1.97566 19.6 1.56869 19.4315 1.26863 19.1314C0.968574 18.8313 0.800003 18.4244 0.800003 18Z" fill="white"/>
</svg>
