<svg width="60" height="61" viewBox="0 0 60 61" fill="none" xmlns="http://www.w3.org/2000/svg">
<path d="M29.9999 0.40625C13.4534 0.40625 -0.00012207 13.8597 -0.00012207 30.4063C-0.00012207 46.9528 13.4534 60.4063 29.9999 60.4063C46.5464 60.4063 59.9999 46.9528 59.9999 30.4063C59.9999 13.8597 46.5464 0.40625 29.9999 0.40625ZM29.9999 2.66206C45.0464 2.66206 57.3022 14.7086 57.6976 29.6504H2.3022C2.69755 14.7086 14.9534 2.66206 29.9999 2.66206Z" fill="#E5281E"/>
<path d="M8.98825 38.5109C8.98825 38.5109 8.98825 38.4644 8.99988 38.4528C9.0115 38.4411 9.01151 38.4063 9.01151 38.3714C9.01151 38.3365 9.0115 38.3249 8.98825 38.3132C8.96499 38.3016 8.95337 38.2783 8.91848 38.2551C8.91848 38.1969 8.90685 38.1388 8.90685 38.0923V37.7551C8.90685 37.7551 8.90685 37.6969 8.90685 37.6737C8.90685 37.6504 8.90685 37.6156 8.90685 37.5923C8.93011 37.569 8.94174 37.5458 8.94174 37.5342C8.94174 37.5225 8.94174 37.5109 8.94174 37.4876L8.8836 37.2783L8.94174 37.0109C8.94174 37.0109 8.94174 36.9411 8.91848 36.9062C8.89523 36.8714 8.89523 36.8481 8.89523 36.8132C8.89523 36.79 8.89523 36.7667 8.91848 36.7551C8.94174 36.7435 8.94174 36.7202 8.96499 36.6969L9.01151 36.6388C9.01151 36.6388 9.03476 36.6039 9.04639 36.5807L9.0929 36.4411C9.13941 36.2783 9.20918 36.1388 9.3022 36.0109C9.39523 35.883 9.51151 35.7667 9.65104 35.6504C9.65104 35.5923 9.68592 35.5225 9.73244 35.4528C9.77895 35.383 9.84871 35.3249 9.91848 35.2551C9.98825 35.1853 10.0813 35.1272 10.1627 35.069C10.2441 35.0109 10.3487 34.9528 10.4417 34.9062C10.5348 34.8597 10.6162 34.8132 10.6976 34.7667C10.7789 34.7202 10.8487 34.6969 10.9069 34.6737C10.9766 34.6504 11.0464 34.6272 11.1162 34.6156C11.1859 34.6039 11.2673 34.5807 11.3487 34.5458C11.372 34.5458 11.4301 34.5342 11.5115 34.5225C11.5929 34.5109 11.6743 34.4993 11.7673 34.4876C11.8603 34.476 11.9417 34.4644 12.0231 34.4528C12.1045 34.4411 12.1627 34.4411 12.1976 34.4295C12.2441 34.4295 12.2789 34.4295 12.3138 34.4295C12.3487 34.4295 12.3836 34.4295 12.4185 34.4295H12.9766C12.9766 34.4295 13.058 34.4295 13.0929 34.4295C13.1278 34.4528 13.1859 34.476 13.2441 34.4993C13.3022 34.5225 13.3836 34.5458 13.4534 34.569C13.5231 34.5923 13.6045 34.6039 13.6743 34.6272C13.7441 34.6504 13.8022 34.6504 13.8487 34.6504C13.9069 34.6504 13.965 34.6388 13.9999 34.6039C14.0348 34.569 14.0696 34.5458 14.0929 34.5109C14.1162 34.476 14.151 34.4411 14.1859 34.4179C14.2208 34.3946 14.2557 34.3714 14.3138 34.3714C14.3487 34.3714 14.3836 34.3714 14.4185 34.4062C14.4534 34.4411 14.465 34.4528 14.4882 34.476C14.5115 34.4993 14.5115 34.5342 14.5231 34.569C14.5348 34.6039 14.5231 34.6272 14.5231 34.6504L14.5464 35.1272C14.5464 35.1272 14.5696 35.1737 14.5813 35.1969C14.5929 35.2202 14.5813 35.2318 14.5813 35.2435C14.5813 35.3016 14.5813 35.3365 14.5929 35.3481C14.5929 35.3714 14.5929 35.3946 14.5929 35.4411C14.5929 35.4876 14.6045 35.5225 14.6162 35.569C14.6278 35.6156 14.6278 35.6504 14.6394 35.6737C14.651 35.697 14.6394 35.7202 14.6394 35.7202C14.6394 35.7667 14.651 35.8132 14.6627 35.8481C14.6743 35.883 14.6859 35.9179 14.6976 35.9411C14.7092 35.9644 14.7208 36.0109 14.7324 36.0342C14.7441 36.0574 14.7441 36.1039 14.7441 36.1621C14.7441 36.1621 14.7441 36.1853 14.7208 36.1969C14.6976 36.2086 14.6976 36.2202 14.6743 36.2318C14.651 36.2435 14.6394 36.2551 14.6278 36.2667C14.6162 36.2783 14.5929 36.2783 14.5929 36.2783C14.5231 36.2783 14.4534 36.2551 14.3836 36.2086C14.3138 36.1621 14.2557 36.1039 14.1976 36.0342C14.1394 35.9644 14.0929 35.8946 14.0464 35.8132C13.9999 35.7318 13.965 35.6737 13.9417 35.6039L13.9069 35.5458L13.8836 35.4295L13.7324 35.29C13.7324 35.29 13.7092 35.2667 13.6976 35.2435C13.6859 35.2202 13.6627 35.1969 13.651 35.1737C13.6394 35.1504 13.6162 35.1272 13.5929 35.1039C13.5696 35.0807 13.558 35.0574 13.5464 35.0458C13.5115 34.9993 13.465 34.9644 13.4185 34.9295C13.372 34.8946 13.3022 34.883 13.2441 34.8714C13.1859 34.8597 13.1162 34.8481 13.058 34.8249C12.9999 34.8016 12.9417 34.79 12.8836 34.7667C12.8371 34.7435 12.8022 34.7202 12.7673 34.7086C12.7324 34.6969 12.7092 34.6737 12.6743 34.6621C12.6394 34.6504 12.6162 34.6388 12.5696 34.6272C12.5231 34.6156 12.4882 34.6272 12.4301 34.6272C12.3603 34.6272 12.2906 34.6504 12.2324 34.6853C12.1743 34.7202 12.1045 34.7435 12.0348 34.7551L11.7092 34.7783C11.5696 34.8016 11.4417 34.8481 11.3138 34.9179C11.1859 34.9876 11.0696 35.069 10.965 35.1621C10.8603 35.2551 10.7441 35.3597 10.651 35.4644C10.558 35.569 10.4534 35.6737 10.372 35.7783C10.3487 35.8132 10.3255 35.8597 10.3255 35.9179C10.3255 35.976 10.3138 36.0225 10.2906 36.069C10.2673 36.1388 10.2324 36.2086 10.1859 36.2667C10.1394 36.3249 10.1045 36.4063 10.058 36.476C10.0115 36.5458 9.97662 36.6156 9.95337 36.6853C9.93011 36.7551 9.90685 36.8249 9.90685 36.9062C9.90685 36.9179 9.90685 36.9528 9.90685 36.9876C9.90685 37.0225 9.90685 37.0807 9.90685 37.1272C9.90685 37.1737 9.90685 37.2318 9.90685 37.3016C9.90685 37.3714 9.90685 37.4179 9.90685 37.476V37.6272L9.96499 37.7318V37.9876C9.97662 38.1504 9.99988 38.3132 10.0231 38.4644C10.0464 38.6156 10.1045 38.7667 10.1743 38.9063C10.2092 38.9644 10.2441 39.0225 10.2906 39.069C10.3371 39.1156 10.372 39.1621 10.4185 39.2086C10.465 39.2551 10.4999 39.3016 10.5464 39.3481C10.5929 39.3946 10.6278 39.4528 10.6627 39.5109C10.6743 39.5342 10.6976 39.5574 10.7324 39.5574C10.7673 39.5574 10.8022 39.5807 10.8255 39.6039C10.965 39.8132 11.1394 39.976 11.3371 40.0923C11.5348 40.2086 11.7557 40.29 11.9882 40.3481C12.0464 40.3597 12.1045 40.3714 12.1394 40.3946C12.1743 40.4179 12.2324 40.4295 12.2789 40.4295C12.3022 40.4295 12.3371 40.4295 12.3603 40.4179L12.4185 40.3946C12.4185 40.3946 12.465 40.3946 12.5115 40.3946C12.558 40.3946 12.5929 40.3946 12.6394 40.3946C12.6859 40.3946 12.7324 40.3946 12.7789 40.383C12.8255 40.3714 12.8603 40.383 12.872 40.3714C12.872 40.3714 12.8952 40.3597 12.9301 40.3365C12.965 40.3132 13.0115 40.2783 13.0696 40.2435C13.1278 40.2086 13.1859 40.1621 13.2441 40.1272C13.3022 40.0923 13.372 40.0458 13.4185 39.9993C13.465 39.9528 13.5231 39.9295 13.558 39.8946C13.5929 39.8597 13.6162 39.8481 13.6278 39.8365V39.6969L13.6045 39.4295C13.6045 39.3714 13.6045 39.3016 13.6045 39.2551C13.6045 39.2086 13.6045 39.1504 13.6045 39.1156V39.0225L13.558 38.9411V38.7086C13.558 38.7086 13.5348 38.6156 13.5115 38.569C13.4882 38.5225 13.4534 38.4993 13.4301 38.476C13.4069 38.4528 13.372 38.4179 13.3487 38.383C13.3255 38.3481 13.3022 38.3132 13.3022 38.2783V38.1388L13.2789 38.0109C13.2789 38.0109 13.3022 37.9644 13.3371 37.9528C13.372 37.9411 13.4069 37.9295 13.4534 37.9179C13.4999 37.9062 13.5464 37.9062 13.5929 37.9062C13.6394 37.9062 13.6859 37.9062 13.7324 37.9062H13.8836L14.2208 37.9644C14.2906 37.9644 14.3603 37.9644 14.4185 37.9528C14.4766 37.9411 14.5348 37.9295 14.5813 37.9179H15.4301C15.4301 37.9179 15.4534 37.9179 15.4766 37.9179C15.4999 37.9179 15.5231 37.9295 15.5464 37.9411C15.5696 37.9528 15.5929 37.9644 15.6045 37.9876C15.6162 38.0109 15.6278 38.0225 15.6278 38.0458C15.6278 38.1039 15.5929 38.1621 15.5348 38.1969C15.4766 38.2318 15.4069 38.2667 15.3255 38.2783C15.2441 38.29 15.1743 38.3132 15.0929 38.3365C15.0115 38.3597 14.965 38.3714 14.9417 38.3946L14.6743 38.7318C14.6743 38.7318 14.6976 38.79 14.7208 38.8365C14.7441 38.883 14.7441 38.9179 14.7441 38.9644L14.6859 39.4644C14.6859 39.4644 14.6859 39.5458 14.7208 39.569C14.7557 39.5923 14.7557 39.6156 14.7557 39.6504C14.7557 39.7202 14.7557 39.79 14.7441 39.8714C14.7324 39.9528 14.7092 40.0225 14.6859 40.0923C14.6627 40.1621 14.6162 40.2318 14.5696 40.2783C14.5231 40.3249 14.4534 40.3714 14.3836 40.383L14.1394 40.4063C14.1394 40.4063 14.0464 40.4295 13.9882 40.4528C13.9301 40.476 13.872 40.5109 13.8138 40.5574C13.7557 40.6039 13.6976 40.6388 13.651 40.6737C13.6045 40.7086 13.558 40.7435 13.5115 40.7667C13.4766 40.79 13.4417 40.8016 13.3952 40.8016C13.3487 40.8016 13.3255 40.8016 13.2906 40.8016H13.1278C13.0696 40.8016 13.0115 40.8016 12.9534 40.8016C12.8952 40.8016 12.8487 40.8249 12.7789 40.8481H12.0231C11.8952 40.8132 11.7441 40.8016 11.6045 40.8016C11.5348 40.8016 11.465 40.8016 11.3952 40.8016C11.3255 40.8016 11.2557 40.8016 11.1859 40.8016C11.151 40.8016 11.1278 40.8016 11.1045 40.7783C11.0813 40.7551 11.0696 40.7551 11.0464 40.7318L10.9999 40.6853C10.9999 40.6853 10.965 40.6621 10.9417 40.6504C10.9417 40.6504 10.9069 40.6272 10.872 40.6156C10.8371 40.6039 10.8022 40.5923 10.7557 40.5807C10.7092 40.569 10.6743 40.5574 10.6394 40.5458C10.6045 40.5342 10.5813 40.5342 10.5813 40.5342L10.2906 40.383C10.2906 40.383 10.2441 40.383 10.1976 40.3597C10.151 40.3365 10.1278 40.3365 10.1045 40.3365C10.058 40.3365 10.0115 40.29 9.93011 40.2318C9.84871 40.1737 9.79058 40.0923 9.70918 40.0225C9.62778 39.9528 9.55802 39.8597 9.49988 39.79C9.44174 39.7202 9.3836 39.6504 9.36034 39.6156C9.36034 39.6039 9.34871 39.5807 9.31383 39.5458C9.27895 39.5109 9.26732 39.4876 9.25569 39.476L9.20918 39.3597C9.20918 39.3597 9.18592 39.3365 9.16267 39.3249C9.13941 39.3132 9.11616 39.29 9.0929 39.2783C9.06964 39.2667 9.04639 39.2435 9.03476 39.2318C9.02313 39.2202 9.01151 39.2086 9.01151 39.1969L8.96499 38.9063C8.96499 38.9063 8.94174 38.8481 8.91848 38.8132C8.89523 38.7783 8.8836 38.7551 8.86034 38.7202C8.83709 38.6853 8.82546 38.6621 8.8022 38.6272C8.77895 38.5923 8.77895 38.5574 8.77895 38.5225L8.98825 38.5109Z" fill="white"/>
<path d="M16.0696 40.5923C16.0696 40.5923 16.0696 40.4876 16.1045 40.4411C16.1394 40.3946 16.1627 40.3597 16.2092 40.3597L16.5813 40.3249C16.6627 40.3132 16.7324 40.3016 16.8022 40.2783C16.872 40.2551 16.9417 40.2551 17.0115 40.2318C17.0813 40.2086 17.1394 40.1853 17.2092 40.1504C17.2789 40.1156 17.3255 40.069 17.372 40.0109C17.3836 39.9877 17.3952 39.9644 17.4069 39.9528C17.4185 39.9411 17.4069 39.9063 17.4069 39.883C17.4069 39.8365 17.4185 39.79 17.4417 39.7551C17.4417 39.6737 17.4417 39.6156 17.4417 39.5458C17.4417 39.476 17.4417 39.4179 17.4185 39.3365C17.4185 39.3016 17.4185 39.2667 17.4185 39.2435V39.1853C17.4185 39.1853 17.4185 39.1039 17.4185 39.0807C17.4185 39.0574 17.4301 39.0225 17.4417 38.976C17.4417 38.883 17.4417 38.8132 17.4417 38.7551C17.4417 38.6969 17.4417 38.6388 17.4417 38.5807C17.4417 38.476 17.4534 38.3714 17.4883 38.2667L17.4417 37.5923C17.4417 37.5923 17.4417 37.5574 17.4301 37.5225C17.4185 37.4876 17.4301 37.4644 17.4301 37.4411C17.4417 37.4063 17.465 37.3597 17.4766 37.3249C17.4882 37.29 17.4999 37.2318 17.4999 37.1853C17.4999 37.0923 17.4883 37.0109 17.4883 36.9295C17.4883 36.8481 17.4883 36.7667 17.465 36.6737C17.465 36.6504 17.4534 36.6272 17.4301 36.6156C17.4069 36.6039 17.4069 36.5807 17.4069 36.5574C17.4069 36.5225 17.4069 36.4993 17.4301 36.4876C17.4534 36.476 17.4534 36.4644 17.465 36.4411V36.2202C17.465 36.1621 17.465 36.0807 17.465 35.9993C17.465 35.9179 17.465 35.8365 17.4534 35.7551C17.4417 35.6737 17.4301 35.5807 17.4185 35.4993C17.4069 35.4179 17.372 35.3249 17.3371 35.2551C17.3255 35.2435 17.3022 35.2318 17.2789 35.2086C17.2557 35.1853 17.2208 35.1737 17.1976 35.1504C17.1743 35.1272 17.151 35.1156 17.1278 35.0923C17.1045 35.069 17.0929 35.069 17.0929 35.069C17.0696 35.0458 17.0231 35.0342 16.9766 35.0109C16.9301 34.9876 16.872 34.976 16.8138 34.9644C16.7557 34.9528 16.6976 34.9295 16.6278 34.9179C16.558 34.9063 16.5115 34.883 16.4534 34.8481C16.3952 34.8132 16.3603 34.79 16.3255 34.7551C16.2906 34.7202 16.2789 34.6737 16.2789 34.6272C16.2789 34.6039 16.2789 34.5923 16.3138 34.5807C16.3487 34.569 16.3603 34.5574 16.3952 34.5458C16.4301 34.5342 16.4534 34.5342 16.4766 34.5342C16.4999 34.5342 16.5231 34.5342 16.5348 34.5342C16.5696 34.5342 16.5929 34.5342 16.6162 34.5342H16.6627C16.6627 34.5342 16.6976 34.5342 16.7092 34.5342C16.8138 34.5342 16.9185 34.5342 17.0231 34.5225C17.1278 34.5109 17.2441 34.5225 17.3487 34.5225C17.4534 34.5225 17.5464 34.5225 17.651 34.5225C17.7557 34.5225 17.8487 34.5225 17.965 34.5342C17.9766 34.5458 17.9883 34.5574 18.0115 34.569C18.0348 34.5807 18.0464 34.569 18.058 34.569C18.1976 34.5574 18.3138 34.5458 18.4069 34.5225C18.4999 34.4993 18.5929 34.4876 18.6743 34.476C18.7557 34.4644 18.8371 34.4411 18.9069 34.4295C18.9766 34.4179 19.0696 34.3946 19.151 34.383H19.2557C19.2557 34.383 19.3836 34.383 19.465 34.383C19.5464 34.383 19.6278 34.3946 19.6976 34.4062C19.7673 34.4179 19.8371 34.4411 19.8836 34.476C19.9301 34.5109 19.965 34.5458 19.965 34.6039C19.965 34.6272 19.965 34.6621 19.965 34.6969C19.965 34.7318 19.9534 34.7667 19.9417 34.79C19.9301 34.8132 19.8836 34.8365 19.8022 34.8481C19.7208 34.8597 19.651 34.8714 19.558 34.883C19.465 34.8946 19.3836 34.8946 19.3022 34.9062C19.2208 34.9179 19.1627 34.9062 19.1162 34.9062C19.1045 34.9062 19.0813 34.9063 19.0696 34.9179C19.058 34.9295 19.0348 34.9179 19.0231 34.9179C19.0115 34.9179 18.9999 34.9179 18.9883 34.9179L18.9069 34.9411C18.8022 34.9528 18.7092 34.9644 18.6627 34.976C18.6162 34.9876 18.558 34.9993 18.5348 35.0225C18.5115 35.0458 18.4883 35.069 18.4766 35.0923C18.465 35.1156 18.465 35.1621 18.4534 35.2202C18.4534 35.2667 18.4534 35.3249 18.4534 35.3714C18.4534 35.4179 18.4534 35.4876 18.4301 35.5458L18.372 35.6853C18.372 35.6853 18.372 35.7667 18.3952 35.8132C18.4185 35.8597 18.4301 35.9063 18.4417 35.9528C18.4534 35.9993 18.4766 36.0458 18.4883 36.0923C18.4999 36.1388 18.5115 36.1853 18.5115 36.2318L18.4766 36.5807L18.5348 36.8714C18.5348 36.9411 18.5348 36.9993 18.5115 37.0574C18.4883 37.1156 18.4883 37.1621 18.465 37.2318C18.4534 37.3249 18.4417 37.4179 18.4417 37.5225C18.4417 37.6272 18.4417 37.7202 18.4417 37.8132V37.9528C18.4417 38.0342 18.4417 38.0807 18.4766 38.1039V39.0225C18.4766 39.0225 18.4534 39.069 18.4534 39.0807C18.4534 39.0923 18.4534 39.1039 18.4534 39.1272C18.4534 39.1737 18.4534 39.2202 18.4883 39.2551C18.5231 39.29 18.5231 39.3249 18.5231 39.3597C18.5231 39.4179 18.5231 39.4876 18.4999 39.569C18.4766 39.6504 18.4766 39.7086 18.4534 39.7551C18.4534 39.7551 18.4534 39.7667 18.4534 39.7783V39.8249C18.4534 39.8249 18.4417 39.8597 18.4301 39.8714C18.4301 39.9179 18.465 39.9644 18.5115 40.0109C18.558 40.0574 18.6162 40.1039 18.6743 40.1388C18.7324 40.1737 18.8022 40.2086 18.872 40.2318C18.9417 40.2551 18.9999 40.2667 19.0348 40.2667L19.2324 40.2202C19.2324 40.2202 19.2557 40.2202 19.2789 40.2435C19.3022 40.2667 19.3371 40.2667 19.3836 40.2667C19.4185 40.2667 19.4534 40.2667 19.4883 40.2318C19.5231 40.197 19.558 40.197 19.6045 40.197L19.7441 40.2551L20.0348 40.2783L20.1627 40.3132H20.2441C20.3255 40.3016 20.4185 40.29 20.4999 40.2783C20.5813 40.2667 20.6627 40.2551 20.7441 40.2318C20.8255 40.2086 20.9069 40.1969 20.9766 40.1621C21.0464 40.1272 21.1162 40.0923 21.1859 40.0342H21.1976C21.1976 40.0342 21.2208 39.9993 21.2208 39.976C21.2324 39.9295 21.2557 39.883 21.2789 39.8597C21.3022 39.8365 21.3255 39.8016 21.3603 39.7783C21.3952 39.7551 21.4185 39.7318 21.4534 39.7086C21.4883 39.6853 21.5115 39.6621 21.5464 39.6272C21.5929 39.5923 21.6278 39.5458 21.6627 39.4876C21.6976 39.4295 21.7324 39.3714 21.7789 39.3132C21.8138 39.2783 21.8487 39.2551 21.8836 39.2202C21.9185 39.1853 21.965 39.1504 22.0115 39.1272C22.058 39.1039 22.1045 39.0807 22.151 39.0574C22.1976 39.0342 22.2324 39.0342 22.2673 39.0342C22.2789 39.0342 22.3022 39.0342 22.3255 39.0342C22.3487 39.0342 22.372 39.0342 22.3952 39.0458C22.4185 39.0574 22.4417 39.0574 22.4534 39.069C22.465 39.0807 22.4766 39.0923 22.4766 39.1039C22.4766 39.1737 22.4766 39.2202 22.4534 39.2667C22.4301 39.3132 22.4185 39.3481 22.4069 39.383C22.3952 39.4179 22.3603 39.4528 22.3255 39.4876C22.2906 39.5225 22.2673 39.5574 22.2324 39.5923C22.2208 39.6039 22.2092 39.6272 22.2092 39.6504C22.2092 39.6737 22.2092 39.697 22.2092 39.7202C22.2092 39.7435 22.2092 39.7667 22.2092 39.79C22.2092 39.8132 22.2092 39.8365 22.2092 39.8481C22.2092 39.883 22.1859 39.9295 22.1627 39.9528C22.1394 39.976 22.1162 40.0109 22.0929 40.0458C22.0696 40.0807 22.0464 40.1039 22.0231 40.1272C21.9999 40.1504 21.9766 40.1737 21.965 40.197L21.9417 40.3365C21.9069 40.4876 21.8371 40.6039 21.7441 40.6853C21.651 40.7667 21.5115 40.8016 21.3603 40.8016L20.9999 40.7318L20.8603 40.8016H20.3603C20.3022 40.7667 20.2441 40.7435 20.1976 40.7435C20.151 40.7435 20.0929 40.7435 20.0348 40.7435C19.965 40.7435 19.8952 40.7551 19.8371 40.7783C19.7789 40.8016 19.7208 40.8132 19.6627 40.8132H19.6045L18.9069 40.7202L18.8255 40.6853H18.4185C18.4185 40.6853 18.3603 40.6388 18.3371 40.6272C18.3138 40.6156 18.2789 40.6272 18.2441 40.6272C18.2092 40.6272 18.1859 40.6272 18.1743 40.6272C18.1627 40.6272 18.1394 40.6388 18.1045 40.6621H17.372C17.372 40.6621 17.2557 40.7318 17.1627 40.7551C17.0696 40.7783 16.965 40.79 16.8603 40.8016C16.7557 40.8132 16.651 40.8249 16.5464 40.8249C16.4417 40.8249 16.372 40.8249 16.3138 40.8249C16.2789 40.8249 16.2441 40.8249 16.2092 40.8016C16.1743 40.7783 16.151 40.7551 16.1278 40.7318C16.1045 40.7086 16.0929 40.6737 16.0813 40.6388C16.0696 40.6039 16.058 40.569 16.058 40.5342L16.0696 40.5923Z" fill="white"/>
<path d="M24.058 39.79C23.9999 39.6272 23.9417 39.476 23.8836 39.3132C23.8255 39.1504 23.7673 38.9993 23.7092 38.8481C23.7092 38.8481 23.7092 38.8365 23.7092 38.8249V38.8016C23.7092 38.8016 23.6743 38.7783 23.6743 38.7667V38.3249L23.6278 38.2435V37.9062C23.6278 37.9062 23.6045 37.8597 23.5929 37.8481C23.5813 37.8365 23.558 37.8132 23.5464 37.79C23.5348 37.7667 23.5115 37.7551 23.4999 37.7318C23.4882 37.7086 23.4766 37.6853 23.4766 37.6504C23.4766 37.6156 23.4766 37.5807 23.4766 37.5574V37.3946C23.4766 37.3946 23.4766 37.3481 23.4766 37.3249V36.6969L23.4534 36.3481L23.4766 36.2667L23.4534 36.0574V35.976L23.4766 35.6621C23.4766 35.6621 23.4766 35.6388 23.465 35.6156C23.465 35.5807 23.465 35.569 23.465 35.5574C23.465 35.5458 23.4534 35.5225 23.4301 35.4876C23.4069 35.4528 23.3952 35.4179 23.3836 35.383C23.372 35.3481 23.3371 35.3016 23.3138 35.2667C23.2906 35.2318 23.2673 35.1969 23.2441 35.1737C23.2208 35.1504 23.1859 35.1388 23.151 35.1156C23.1162 35.0923 23.0696 35.0807 23.0115 35.0574C22.9534 35.0342 22.9069 34.9993 22.8603 34.976C22.8138 34.9528 22.7557 34.9062 22.7092 34.8597C22.6859 34.8249 22.651 34.8016 22.6278 34.79C22.6045 34.7783 22.5696 34.7551 22.5464 34.7435C22.5231 34.7318 22.4999 34.7086 22.4883 34.6969C22.4766 34.6853 22.465 34.6621 22.465 34.6388C22.465 34.5923 22.4766 34.5574 22.5115 34.5342C22.5464 34.5109 22.5696 34.476 22.6162 34.4644C22.6627 34.4528 22.6976 34.4295 22.7557 34.4295C22.8138 34.4295 22.8487 34.4295 22.8836 34.4295L23.0348 34.383L23.2673 34.4062H23.3487C23.4417 34.4062 23.5348 34.4063 23.6278 34.4295C23.7208 34.4528 23.7906 34.4528 23.8487 34.476H24.1045C24.1045 34.476 24.1743 34.476 24.2208 34.4644C24.2673 34.4528 24.3022 34.4644 24.3487 34.4411C24.3952 34.4411 24.4301 34.4295 24.465 34.4179C24.4999 34.4062 24.5348 34.4062 24.5696 34.4062C24.6278 34.4062 24.6859 34.4063 24.7324 34.4295C24.7789 34.4528 24.8255 34.4528 24.8603 34.4528C24.9417 34.4528 25.0115 34.4528 25.0813 34.4295C25.151 34.4063 25.2324 34.4062 25.3138 34.4062H25.5231C25.5231 34.4062 25.5696 34.4411 25.5929 34.4528C25.6162 34.4644 25.651 34.4876 25.6859 34.4993C25.7208 34.5109 25.7441 34.5342 25.7557 34.5458C25.7673 34.5574 25.7906 34.5807 25.7906 34.5923V34.79C25.7906 34.79 25.7557 34.8481 25.6976 34.8714C25.6394 34.8946 25.5696 34.9295 25.4999 34.9528C25.4301 34.976 25.3487 34.9993 25.2789 35.0225C25.2092 35.0458 25.1627 35.0574 25.1394 35.069C25.0696 35.1156 24.9882 35.1621 24.8952 35.2202C24.8022 35.2783 24.7324 35.3481 24.6743 35.4295V35.883L24.6278 36.2435C24.6278 36.2435 24.6278 36.2667 24.6278 36.29C24.6278 36.3132 24.6278 36.3365 24.6278 36.3714C24.6278 36.4295 24.6162 36.476 24.5813 36.5109V37.0923L24.6162 37.2086C24.6162 37.2086 24.6162 37.2435 24.6162 37.29C24.6162 37.3365 24.6278 37.383 24.6394 37.4528C24.651 37.5225 24.651 37.5807 24.6627 37.6388C24.6743 37.6969 24.6627 37.7551 24.6627 37.8016C24.6627 37.8132 24.651 37.8365 24.6394 37.8481C24.6278 37.8597 24.6394 37.8946 24.6394 37.9411C24.6394 37.9528 24.6394 37.9644 24.6394 37.976C24.6394 37.9876 24.6627 37.9993 24.6976 38.0109V38.383C24.6976 38.383 24.6976 38.4411 24.6976 38.4876L24.7673 38.7086L25.0231 39.2318C25.058 39.29 25.0929 39.3481 25.1278 39.4179C25.1627 39.4876 25.1976 39.5342 25.2324 39.5923C25.2673 39.6504 25.3138 39.7086 25.3603 39.7551C25.4069 39.8016 25.4534 39.8481 25.5115 39.883L25.7208 39.9295L25.8371 40.0458C25.9301 40.1039 26.0231 40.1388 26.1278 40.1504C26.2324 40.1621 26.3487 40.1621 26.4534 40.1621H26.6045C26.6045 40.1621 26.6859 40.1621 26.7324 40.1621C26.7789 40.1621 26.8138 40.1621 26.8603 40.1388C26.9069 40.1155 26.965 40.1156 27.0348 40.1039C27.058 40.1039 27.0696 40.1039 27.0929 40.0923C27.1162 40.0807 27.1278 40.069 27.1394 40.0574C27.151 40.0458 27.1743 40.0342 27.1859 40.0225C27.1976 40.0109 27.2208 39.9993 27.2557 39.9993C27.3371 39.9876 27.3952 39.9644 27.4417 39.9528C27.4882 39.9411 27.5231 39.9063 27.558 39.883C27.5929 39.8597 27.6278 39.8249 27.6743 39.79C27.7208 39.7551 27.7673 39.7086 27.8255 39.6504L27.9417 39.5923C27.9417 39.5923 27.9534 39.569 27.9766 39.5342C27.9999 39.4993 28.0115 39.4411 28.0348 39.383C28.058 39.3249 28.0813 39.2551 28.1045 39.1853C28.1278 39.1156 28.151 39.0458 28.1743 38.976C28.1976 38.9062 28.2208 38.8481 28.2441 38.8016C28.2673 38.7551 28.2789 38.7086 28.2906 38.6969C28.3138 38.6621 28.3255 38.6039 28.3371 38.5342C28.3487 38.4644 28.372 38.383 28.3836 38.3016C28.3952 38.2202 28.4069 38.1388 28.4185 38.0574C28.4301 37.976 28.4417 37.9062 28.4534 37.8481C28.4534 37.79 28.4534 37.7318 28.4417 37.6504C28.4301 37.569 28.4301 37.4993 28.4301 37.4411L28.4069 37.3365L28.4999 37.1621C28.4999 37.1621 28.4999 37.1272 28.4766 37.0923C28.4534 37.0574 28.4417 37.0342 28.4301 37.0225V36.7202L28.4882 36.1969L28.4301 35.7667C28.4301 35.7667 28.4301 35.7318 28.4301 35.7086C28.4301 35.6853 28.4301 35.6504 28.4301 35.6039C28.4301 35.5923 28.4069 35.569 28.3836 35.5225C28.3603 35.476 28.3371 35.4411 28.3138 35.3946L28.2092 35.2202L28.1627 35.1853C28.1627 35.1853 28.1162 35.1621 28.0929 35.1388C28.0696 35.1156 28.0464 35.1156 28.0231 35.1039C27.9999 35.0923 27.9882 35.0923 27.9766 35.0923C27.9534 35.0807 27.9185 35.069 27.8836 35.0458C27.8487 35.0225 27.8138 35.0109 27.7789 34.9993C27.7441 34.9876 27.7092 34.9644 27.6743 34.9528C27.6394 34.9411 27.6045 34.9295 27.5813 34.9179C27.558 34.9179 27.5231 34.9063 27.4766 34.8946C27.4301 34.883 27.3836 34.883 27.3255 34.8714C27.2673 34.8597 27.2324 34.8481 27.1976 34.8249C27.1627 34.8016 27.1394 34.7667 27.1394 34.7318V34.6621L27.2906 34.6272L27.4534 34.5458C27.4534 34.5458 27.558 34.5225 27.6162 34.5225C27.6743 34.5225 27.7324 34.5225 27.7906 34.5225C27.8487 34.5225 27.9069 34.5225 27.9534 34.4993C27.9999 34.476 28.058 34.476 28.1045 34.4411H28.3022C28.4069 34.4411 28.5115 34.4411 28.6045 34.4411C28.6976 34.4411 28.8022 34.4411 28.9301 34.4411H29.1859C29.3022 34.383 29.4185 34.3365 29.5464 34.3132C29.6743 34.29 29.8022 34.2667 29.9417 34.2667C29.9534 34.2667 29.9766 34.2667 29.9999 34.2667C30.0231 34.2667 30.0464 34.2783 30.0813 34.29C30.1162 34.3016 30.1278 34.3132 30.151 34.3365C30.1743 34.3597 30.1859 34.383 30.1859 34.4062V34.6737L30.1394 34.6969C30.1394 34.6969 30.0231 34.7551 29.965 34.7551C29.9069 34.7551 29.8371 34.7667 29.7789 34.7783C29.7092 34.7783 29.6394 34.8016 29.5696 34.8249C29.4999 34.8481 29.4301 34.8597 29.3603 34.8714C29.2673 34.9411 29.2092 35.0225 29.1627 35.1156C29.1162 35.2086 29.0929 35.3132 29.0696 35.4179C29.0464 35.5225 29.0348 35.6272 29.0231 35.7318C29.0115 35.8365 28.9766 35.9295 28.9417 36.0109V37.069L28.8836 37.2435V37.8016C28.8836 37.8016 28.8603 37.8481 28.8603 37.8714C28.8603 37.8946 28.8603 37.9295 28.8603 37.9644C28.8603 37.9993 28.8603 38.0342 28.8603 38.0458C28.8603 38.0574 28.8603 38.1039 28.8603 38.1504L28.8022 38.3132C28.7906 38.3714 28.7673 38.4295 28.7441 38.4876C28.7208 38.5458 28.7092 38.6039 28.6976 38.6621L28.6045 39.0458C28.5813 39.1272 28.558 39.1969 28.5231 39.2667C28.4883 39.3365 28.4534 39.4063 28.4185 39.4644C28.4069 39.4993 28.3836 39.5225 28.3603 39.5458C28.3371 39.569 28.3138 39.5923 28.2906 39.6156C28.2673 39.6388 28.2441 39.6621 28.2324 39.6853C28.2208 39.7086 28.1976 39.7435 28.1859 39.7667C28.151 39.8597 28.0696 39.9528 27.9417 40.0458C27.8836 40.0923 27.8138 40.1504 27.7557 40.2086C27.6976 40.2667 27.6278 40.3132 27.558 40.3597C27.5348 40.3714 27.5115 40.383 27.4882 40.4063L27.4185 40.4644C27.4185 40.4644 27.372 40.4993 27.3487 40.5109C27.3255 40.5225 27.3022 40.5342 27.2673 40.5458H27.1162L26.9069 40.6504C26.9069 40.6504 26.8255 40.6737 26.7789 40.6737C26.7324 40.6737 26.6859 40.6737 26.6394 40.6737H26.4417L26.1394 40.6969L25.9069 40.6737L25.558 40.6969C25.558 40.6969 25.5464 40.6853 25.5115 40.6737C25.4766 40.6621 25.4534 40.6504 25.4185 40.6388C25.3836 40.6155 25.3371 40.6039 25.2906 40.5923L25.1627 40.5458L25.0231 40.5109C24.9417 40.4876 24.8836 40.4644 24.8138 40.4528C24.7441 40.4411 24.7208 40.4295 24.7092 40.4179C24.6859 40.4062 24.6743 40.383 24.651 40.3714C24.6278 40.3597 24.6162 40.3249 24.6045 40.3016C24.5929 40.2783 24.5813 40.2551 24.558 40.2318C24.5348 40.2086 24.5231 40.1969 24.4999 40.1853C24.4069 40.1388 24.3138 40.0923 24.2324 40.0342C24.151 39.976 24.0813 39.8946 24.0231 39.79H24.058Z" fill="white"/>
<path d="M31.8371 40.6272C31.8371 40.5458 31.8603 40.476 31.9185 40.4295C31.9766 40.383 32.0348 40.3597 32.1162 40.3597L32.4185 40.3946C32.4999 40.3946 32.5696 40.383 32.651 40.3481C32.7324 40.3132 32.8022 40.2783 32.872 40.2318C32.9417 40.1853 32.9999 40.1272 33.0464 40.0574C33.0929 39.9876 33.1278 39.9179 33.151 39.8481V39.6039C33.1627 39.476 33.1859 39.3481 33.2092 39.2202C33.2324 39.0923 33.2557 38.976 33.2557 38.8481L33.1976 38.6504V37.6039C33.1976 37.6039 33.1976 37.5342 33.1976 37.4993C33.1976 37.4644 33.1976 37.4295 33.1976 37.383V36.5574C33.1976 36.5574 33.2208 36.4876 33.2208 36.4411C33.2208 36.3946 33.2208 36.3481 33.2208 36.29C33.2208 36.2318 33.2208 36.1853 33.2208 36.1388C33.2208 36.0923 33.2208 36.0574 33.2208 36.0225L33.2557 35.976V35.4528C33.2557 35.4528 33.2092 35.3597 33.2092 35.3132C33.2092 35.2667 33.1859 35.2318 33.1743 35.2086C33.1627 35.1853 33.1394 35.1621 33.1045 35.1388C33.0696 35.1156 33.0348 35.1156 32.965 35.1156L32.7208 35.1737C32.6394 35.1737 32.5696 35.1621 32.4883 35.1388C32.4069 35.1156 32.3255 35.0807 32.2441 35.0574C32.0929 35.0574 31.9766 35.0807 31.872 35.0923C31.7673 35.1039 31.6859 35.1156 31.6045 35.1388C31.5231 35.1621 31.4417 35.1853 31.3603 35.2202C31.2789 35.2551 31.1859 35.3016 31.0813 35.3597C31.0464 35.4063 30.9999 35.476 30.9766 35.5458C30.9534 35.6156 30.9069 35.6853 30.872 35.7551C30.8371 35.8249 30.7906 35.883 30.7441 35.9295C30.6976 35.976 30.6394 35.9993 30.5696 35.9993H30.5115C30.5115 35.9993 30.465 35.9993 30.4417 35.9993C30.4185 35.9993 30.4069 35.9993 30.3952 35.976C30.3836 35.9528 30.372 35.9528 30.372 35.9411C30.372 35.8946 30.372 35.8481 30.372 35.8016C30.372 35.7551 30.3836 35.7318 30.4069 35.697C30.4301 35.6621 30.4301 35.6272 30.4417 35.5923C30.4534 35.5574 30.465 35.5225 30.465 35.476V35.1853L30.5348 35.0109C30.5348 35.0109 30.5464 34.9528 30.558 34.9179C30.5696 34.883 30.5696 34.8249 30.5813 34.7783C30.5929 34.7318 30.5929 34.6853 30.6045 34.6388C30.6162 34.5923 30.6278 34.5458 30.6278 34.5225C30.6278 34.476 30.651 34.4295 30.6627 34.383C30.6743 34.3365 30.6859 34.29 30.7092 34.2435C30.7324 34.1969 30.7557 34.1737 30.7906 34.1388C30.8255 34.1039 30.8603 34.0923 30.9185 34.0923C30.9766 34.0923 31.0348 34.1156 31.1045 34.1621C31.1743 34.2086 31.2441 34.2551 31.3022 34.3132C31.3603 34.3714 31.4417 34.4295 31.4999 34.4876C31.558 34.5458 31.6278 34.5807 31.6743 34.5923C31.6976 34.5923 31.7441 34.6039 31.8138 34.6156C31.8836 34.6272 31.9534 34.6388 32.0348 34.6504C32.1162 34.6621 32.1859 34.6737 32.2557 34.6853C32.3255 34.6969 32.372 34.6853 32.3952 34.6853C32.4417 34.6853 32.4766 34.6853 32.5231 34.6853C32.5696 34.6853 32.5929 34.6737 32.6278 34.6621C32.6627 34.6504 32.6976 34.6388 32.7324 34.6388C32.7673 34.6388 32.8138 34.6388 32.872 34.6388H32.9883C33.058 34.6388 33.0929 34.6388 33.1045 34.6388C33.1162 34.6388 33.1394 34.6621 33.1743 34.6737C33.2092 34.6853 33.2324 34.7086 33.2324 34.7086H33.2557C33.2557 34.7086 33.3603 34.7086 33.4069 34.6969C33.4534 34.6853 33.4999 34.6737 33.5464 34.6621C33.5929 34.6504 33.6394 34.6388 33.6859 34.6272C33.7324 34.6156 33.7906 34.6156 33.8371 34.6156C33.8952 34.6156 33.965 34.6156 34.0115 34.6388C34.058 34.6621 34.1162 34.6621 34.1627 34.6621H34.3022C34.4301 34.6621 34.5464 34.6621 34.6627 34.6621C34.7789 34.6621 34.9069 34.6504 35.0348 34.6388C35.1627 34.6272 35.2906 34.6156 35.4185 34.6156C35.5464 34.6156 35.6859 34.6039 35.8371 34.5923C35.8836 34.5923 35.9185 34.5923 35.9417 34.6039C35.965 34.6156 35.9999 34.6156 36.0348 34.6156C36.0696 34.6156 36.1045 34.6156 36.1278 34.5807C36.151 34.5458 36.1743 34.5342 36.1976 34.5109C36.2208 34.4876 36.2441 34.4644 36.2557 34.4295C36.2673 34.3946 36.3022 34.383 36.3255 34.3714C36.3603 34.3597 36.4069 34.3365 36.4417 34.3132C36.4766 34.29 36.5115 34.2667 36.5464 34.2435C36.5813 34.2202 36.6045 34.1969 36.6394 34.1853C36.6743 34.1737 36.7092 34.1621 36.7441 34.1621C36.7789 34.1621 36.8022 34.1853 36.8371 34.2202C36.872 34.2551 36.8836 34.29 36.9069 34.3132V34.3365C36.9069 34.3365 36.9069 34.383 36.9069 34.4063V35.0458C36.9069 35.0458 36.9069 35.0923 36.9069 35.1039L36.9417 35.5923V35.6388C36.9417 35.6388 36.9417 35.6853 36.9417 35.7086C36.9417 35.7318 36.9417 35.7551 36.9417 35.7783V35.8249C36.9417 35.8249 36.8836 35.883 36.8255 35.883C36.7673 35.883 36.7208 35.8597 36.6859 35.8249C36.651 35.79 36.6045 35.7318 36.5696 35.6853C36.5348 35.6388 36.4999 35.5807 36.465 35.5225C36.4301 35.4644 36.3952 35.4295 36.3487 35.4063C36.2906 35.3597 36.2324 35.3132 36.1743 35.2783C36.1162 35.2435 36.0696 35.197 36.0231 35.1388L35.8603 35.1621L34.7906 35.0807L34.6394 35.1156L34.4069 35.0807H34.3255L34.2557 35.1504V35.1969C34.2557 35.1969 34.2557 35.2667 34.2441 35.3249C34.2324 35.383 34.2441 35.4179 34.2441 35.4644C34.2441 35.5109 34.2441 35.5574 34.2441 35.5807L34.2789 36.0574V36.9644L34.2208 37.3016L34.2789 37.8597C34.2789 37.8597 34.2789 37.9179 34.2789 37.9411C34.2789 37.9644 34.2673 37.9876 34.2557 38.0225C34.2557 38.0574 34.2557 38.1156 34.2557 38.1969C34.2557 38.2783 34.2557 38.3714 34.2557 38.476C34.2557 38.569 34.2557 38.6621 34.2557 38.7318C34.2557 38.8016 34.2557 38.8597 34.2557 38.8946L34.2208 39.1272C34.2208 39.1272 34.2208 39.2202 34.2208 39.2783C34.2208 39.3365 34.2208 39.4179 34.2324 39.4993C34.2441 39.5807 34.2441 39.6621 34.2557 39.7435C34.2673 39.8249 34.2789 39.9063 34.3022 39.976C34.3255 40.0458 34.3487 40.1039 34.372 40.1504C34.3952 40.197 34.4301 40.2318 34.4766 40.2435L35.0696 40.3946H35.1743L35.3022 40.3714C35.3022 40.3714 35.372 40.3714 35.3952 40.4063C35.4185 40.4411 35.4417 40.4528 35.4534 40.476C35.465 40.4993 35.4766 40.5342 35.4883 40.569C35.4999 40.6039 35.4883 40.6272 35.4883 40.6621C35.4883 40.7086 35.4882 40.7551 35.4534 40.7783C35.4185 40.8016 35.4069 40.8249 35.372 40.8481C35.3371 40.8714 35.3022 40.8714 35.2557 40.8714C35.2092 40.8714 35.1743 40.8714 35.1394 40.8714C35.1045 40.8714 35.0813 40.8714 35.0464 40.8597C35.0115 40.8481 34.9882 40.8365 34.9534 40.8132C34.9301 40.8016 34.8952 40.79 34.8603 40.7667C34.8255 40.7435 34.7906 40.7435 34.7557 40.7435L34.5231 40.8016C34.465 40.8016 34.3952 40.8016 34.3022 40.7667C34.2092 40.7318 34.1278 40.7318 34.0464 40.7086H33.9999C33.9999 40.7086 33.9534 40.7202 33.9185 40.7318C33.8836 40.7435 33.8603 40.7435 33.8371 40.7551C33.8138 40.7667 33.7906 40.7551 33.7906 40.7551H33.3836C33.3138 40.7551 33.2557 40.7667 33.1976 40.8016C33.1394 40.8365 33.0813 40.8365 33.0115 40.8365C32.9882 40.8365 32.965 40.8249 32.9185 40.8132C32.872 40.8016 32.8603 40.8016 32.8487 40.8016C32.8022 40.8016 32.7673 40.8016 32.7324 40.8132L32.6162 40.8481C32.6162 40.8481 32.4999 40.8714 32.4534 40.883C32.4069 40.8946 32.3371 40.9063 32.2789 40.9063H32.2092C32.2092 40.9063 32.1278 40.9063 32.0929 40.9063C32.058 40.9063 32.0115 40.8946 31.9534 40.8714C31.9534 40.8714 31.9534 40.8365 31.9301 40.7783C31.9069 40.7202 31.8952 40.6853 31.872 40.6504L31.8371 40.6272Z" fill="white"/>
<path d="M37.2557 40.5458C37.2557 40.5458 37.279 40.4411 37.3255 40.4063C37.372 40.3714 37.4185 40.3365 37.4883 40.3132C37.558 40.29 37.6162 40.2783 37.6743 40.2667C37.7324 40.2551 37.7906 40.2551 37.8371 40.2551H38.2092C38.2092 40.2551 38.2673 40.2318 38.3138 40.2086C38.3603 40.1853 38.3952 40.1504 38.4417 40.1156C38.4883 40.0807 38.5231 40.0342 38.5464 39.9876C38.5697 39.9411 38.5929 39.8946 38.6045 39.8481C38.6045 39.79 38.6162 39.7202 38.6162 39.6388C38.6162 39.5807 38.6162 39.5225 38.6045 39.4528L38.6627 39.3481C38.6162 39.197 38.5929 39.0342 38.5813 38.883C38.5696 38.7318 38.558 38.5807 38.558 38.4295C38.558 38.3946 38.558 38.3597 38.558 38.3132C38.558 38.2667 38.558 38.2202 38.5813 38.1737C38.6045 38.1272 38.5929 38.0807 38.6045 38.0342C38.6162 37.9876 38.6278 37.9528 38.6278 37.9179V37.883C38.6278 37.883 38.6627 37.8481 38.6627 37.8365C38.6627 37.8132 38.6859 37.79 38.6976 37.7783C38.6976 37.7667 38.7092 37.7435 38.7208 37.7318C38.7324 37.7202 38.7208 37.6969 38.7208 37.6969C38.7208 37.6737 38.7092 37.6504 38.6859 37.6388C38.6627 37.6272 38.6394 37.6156 38.6278 37.6156C38.6278 37.5109 38.6278 37.4179 38.6394 37.3132C38.651 37.2086 38.6394 37.1156 38.6394 37.0109C38.6394 36.9063 38.6394 36.8132 38.6394 36.7086C38.6394 36.6039 38.6394 36.5109 38.6278 36.4062C38.6162 36.3597 38.6045 36.3365 38.6045 36.3132C38.6045 36.29 38.6045 36.2667 38.6045 36.2318L38.6394 35.9644L38.6045 35.476C38.6045 35.476 38.5929 35.3946 38.558 35.3481C38.5231 35.3016 38.4883 35.2551 38.4417 35.2202C38.3952 35.1853 38.3603 35.1388 38.3138 35.1156C38.2673 35.0923 38.2324 35.069 38.2092 35.069H37.8836L37.8487 35.0458H37.8255C37.8255 35.0458 37.8138 35.0225 37.8022 35.0225C37.7557 35.0109 37.7092 34.9993 37.6627 34.9876C37.6162 34.976 37.558 34.9644 37.5115 34.9528C37.465 34.9411 37.4301 34.9063 37.3952 34.8714C37.3603 34.8365 37.3487 34.79 37.3487 34.7202C37.3487 34.6621 37.3487 34.6272 37.372 34.5923C37.3952 34.5574 37.4069 34.5458 37.4417 34.5342C37.4766 34.5225 37.4999 34.5109 37.5464 34.5109C37.5929 34.5109 37.6394 34.5109 37.6859 34.5109C37.7673 34.5109 37.8487 34.5109 37.9185 34.5109C37.9883 34.5109 38.058 34.5342 38.1162 34.5807H38.1627C38.1627 34.5807 38.1859 34.569 38.2092 34.569H38.2906C38.4301 34.569 38.5813 34.569 38.7441 34.6039C38.9069 34.6388 39.0464 34.6388 39.1743 34.6504L39.4301 34.6969C39.4301 34.6969 39.5115 34.697 39.5464 34.6737C39.5813 34.6504 39.6278 34.6504 39.6743 34.6272C39.7208 34.6039 39.7673 34.5923 39.8022 34.5807C39.8371 34.569 39.8836 34.5574 39.9301 34.5574C39.965 34.5574 39.9883 34.5574 40.0115 34.5807C40.0348 34.6039 40.0696 34.6039 40.1162 34.6039C40.1278 34.6039 40.151 34.6039 40.1627 34.5807C40.1743 34.5574 40.1976 34.5574 40.2324 34.5574C40.2673 34.5574 40.2906 34.5574 40.3022 34.5574C40.3138 34.5574 40.3371 34.569 40.3487 34.6039H40.5231C40.5813 34.6039 40.651 34.6039 40.7208 34.569C40.7906 34.5342 40.8603 34.5342 40.9301 34.5342C40.9766 34.5342 41.0115 34.5342 41.0348 34.5342C41.058 34.5342 41.0929 34.5574 41.1394 34.5923L41.9534 34.6388C41.9534 34.6388 42.0348 34.6388 42.058 34.6504C42.0929 34.6504 42.1162 34.6504 42.151 34.6621C42.1859 34.6737 42.2092 34.6621 42.2324 34.6737C42.2441 34.6737 42.2673 34.6737 42.2906 34.6737C42.3138 34.6737 42.3371 34.6737 42.3487 34.6969C42.3603 34.7202 42.3836 34.7202 42.3952 34.7318C42.4069 34.7435 42.4185 34.7667 42.4185 34.79C42.4185 34.8132 42.4417 34.8597 42.4417 34.9295C42.4417 34.9993 42.4534 35.0574 42.465 35.1272C42.4766 35.1969 42.4766 35.2667 42.4883 35.3249C42.4999 35.383 42.4883 35.4295 42.4883 35.4528C42.4999 35.5574 42.5115 35.6621 42.5231 35.7667C42.5348 35.8714 42.5348 35.976 42.5348 36.0807H42.465C42.3952 36.0807 42.3487 36.0342 42.3022 35.9295C42.279 35.8946 42.2557 35.8714 42.2441 35.8597C42.2324 35.8481 42.2208 35.8365 42.2208 35.8132C42.1743 35.7551 42.1394 35.6969 42.0929 35.6272C42.0464 35.5574 42.0115 35.4993 41.9766 35.4295C41.9417 35.3597 41.9069 35.3132 41.8836 35.2667C41.8603 35.2202 41.8371 35.1853 41.8255 35.1621C41.7906 35.1504 41.7557 35.1388 41.7092 35.1272C41.6627 35.1156 41.6278 35.1156 41.5929 35.1039C41.558 35.0923 41.5231 35.0807 41.4883 35.069C41.4534 35.0574 41.4301 35.0342 41.4069 34.9993C41.3836 34.9528 41.3371 34.9295 41.2673 34.9295C41.2441 34.9295 41.2208 34.9295 41.2208 34.9295C41.2092 34.9295 41.1859 34.9295 41.1627 34.9295C41.1394 34.9295 41.1162 34.9295 41.0929 34.9295C41.0464 34.9295 40.9883 34.9295 40.9417 34.9295C40.8952 34.9295 40.8487 34.9295 40.8138 34.9295C40.7906 34.9295 40.779 34.9295 40.7673 34.9295C40.7557 34.9295 40.7557 34.9295 40.7324 34.9295H40.6976C40.6278 34.9063 40.5697 34.9063 40.4999 34.8946C40.4301 34.883 40.372 34.8946 40.3022 34.8946C40.2324 34.8946 40.1743 34.8946 40.1045 34.8946C40.0348 34.8946 39.9766 34.8946 39.9069 34.9179C39.8836 34.9179 39.8603 34.9411 39.8371 34.9528C39.8138 34.9644 39.779 34.9876 39.7557 35.0225C39.7324 35.0574 39.7092 35.069 39.6859 35.1039C39.6627 35.1388 39.651 35.1621 39.6394 35.1853C39.6162 35.29 39.6045 35.4062 39.5929 35.5342C39.5813 35.6621 39.5929 35.79 39.5929 35.9295V36.4062C39.5929 36.4062 39.5464 36.476 39.5464 36.5109C39.5464 36.5458 39.5464 36.5923 39.5464 36.6388V36.8016C39.5464 36.8714 39.5464 36.9411 39.5464 37.0109C39.5464 37.0807 39.558 37.1504 39.5813 37.2202C39.6045 37.29 39.6278 37.3481 39.6627 37.4179C39.6976 37.4876 39.7441 37.5342 39.8022 37.5923L40.5348 37.6156C40.5348 37.6156 40.651 37.6156 40.6976 37.5807C40.7092 37.5807 40.7324 37.5807 40.7557 37.569C40.779 37.5574 40.8022 37.569 40.8138 37.569H40.9883C40.9883 37.569 41.0813 37.569 41.1278 37.5225C41.151 37.5225 41.1743 37.5109 41.2092 37.4876C41.2441 37.4644 41.2673 37.4528 41.3022 37.4295C41.3371 37.4063 41.3603 37.383 41.3952 37.3597C41.4301 37.3365 41.4417 37.3132 41.4534 37.3016C41.4766 37.2667 41.4883 37.2086 41.5115 37.1272C41.5348 37.0458 41.558 36.9644 41.5929 36.883C41.6278 36.8016 41.651 36.7318 41.6859 36.6621C41.7208 36.5923 41.7557 36.569 41.8022 36.569C41.8371 36.569 41.8836 36.5923 41.9069 36.6504V37.069C41.9069 37.069 41.9069 37.1388 41.9069 37.1737C41.9069 37.2086 41.8836 37.2435 41.8603 37.3016L41.8022 37.3714L41.8255 37.5225C41.8255 37.5225 41.8255 37.569 41.8255 37.6272C41.8255 37.6853 41.8371 37.7551 41.8487 37.8365C41.8603 37.9179 41.8603 37.9876 41.872 38.069C41.8836 38.1504 41.872 38.2202 41.872 38.2667L41.8487 38.4295C41.8487 38.4295 41.8487 38.5225 41.872 38.5574C41.8952 38.5923 41.8952 38.6272 41.8952 38.6621C41.8952 38.7435 41.8836 38.8132 41.8487 38.8714C41.8138 38.9295 41.7673 38.9528 41.6859 38.9528C41.651 38.9528 41.6162 38.9528 41.5929 38.9295C41.5697 38.9063 41.558 38.8946 41.5464 38.883C41.5348 38.8714 41.5348 38.8365 41.5231 38.8132C41.5115 38.79 41.5231 38.7667 41.5231 38.7318V38.6737C41.5231 38.6737 41.5231 38.6388 41.5231 38.6272L41.3952 38.4063V38.2667C41.3952 38.2667 41.3603 38.1853 41.2906 38.1504C41.2208 38.1156 41.1394 38.0807 41.0464 38.0458C40.9534 38.0109 40.8371 37.9876 40.7208 37.9644C40.6045 37.9411 40.4883 37.9179 40.372 37.9063C40.2557 37.8946 40.151 37.8714 40.058 37.8597C39.965 37.8481 39.8952 37.8481 39.8603 37.8481C39.8022 37.8481 39.7557 37.8597 39.7208 37.8946C39.6859 37.9295 39.6394 37.976 39.6162 38.0225C39.5929 38.069 39.5696 38.1272 39.5464 38.1853C39.5231 38.2435 39.5231 38.29 39.5115 38.3365V38.6969L39.5696 39.3946V39.79C39.5696 39.8597 39.6045 39.9295 39.651 39.9993C39.6976 40.069 39.7557 40.1272 39.8255 40.1853C39.8952 40.2435 39.965 40.29 40.0464 40.3249C40.1278 40.3597 40.1976 40.383 40.2557 40.383L40.5813 40.4063L40.6627 40.4411H41.151C41.2092 40.4411 41.2673 40.4411 41.3371 40.4411C41.4069 40.4411 41.465 40.4411 41.5231 40.4411C41.5813 40.4411 41.6627 40.4411 41.7441 40.4179L42.1045 40.2783C42.1045 40.2783 42.2092 40.1969 42.279 40.1388C42.3487 40.0807 42.4185 40.0109 42.4883 39.9411C42.558 39.8714 42.6162 39.8016 42.6743 39.7318C42.7324 39.6621 42.779 39.6039 42.8022 39.5574C42.8138 39.5574 42.8371 39.5225 42.8487 39.4876C42.8603 39.4528 42.8836 39.4063 42.8952 39.3597C42.9069 39.3132 42.9417 39.2783 42.965 39.2435C42.9883 39.2086 43.0231 39.1969 43.058 39.1969C43.0929 39.1969 43.1162 39.2086 43.1278 39.2435C43.1394 39.2783 43.151 39.3016 43.151 39.3249L43.0696 39.6156C43.0231 39.7783 42.9766 39.9295 42.9417 40.0923C42.9069 40.2551 42.872 40.4179 42.8603 40.5807C42.8022 40.6737 42.7208 40.7318 42.6162 40.7551C42.5115 40.7783 42.4185 40.79 42.3138 40.79H42.2092C42.2092 40.79 42.151 40.79 42.1162 40.79L42.0231 40.8132C42.0231 40.8132 41.965 40.8132 41.9534 40.8132C41.9417 40.8132 41.9185 40.8016 41.9069 40.79L41.8603 40.7667C41.8603 40.7667 41.8255 40.7667 41.8022 40.7667L41.5115 40.8016L41.3603 40.7667L40.6627 40.8249C40.4417 40.8249 40.2208 40.8249 39.9999 40.8016C39.779 40.7783 39.5464 40.7783 39.3138 40.7783L38.7324 40.8365L38.3255 40.8132C38.3255 40.8132 38.2208 40.8132 38.1627 40.8365C38.1045 40.8597 38.058 40.8597 38.0115 40.883C37.965 40.9063 37.9185 40.9063 37.872 40.9295C37.8255 40.9528 37.779 40.9528 37.7441 40.9528C37.6976 40.9528 37.6394 40.9528 37.5813 40.9295C37.5231 40.9063 37.465 40.8946 37.4069 40.8597C37.3487 40.8249 37.3138 40.79 37.2673 40.7435C37.2208 40.6969 37.2092 40.6504 37.2092 40.5807L37.2557 40.5458Z" fill="white"/>
<path d="M44.4534 40.3597L44.5231 40.3365C44.5231 40.3365 44.5696 40.3016 44.5813 40.2783C44.5929 40.2551 44.6162 40.2202 44.6278 40.1969C44.6394 40.1737 44.6627 40.1388 44.6859 40.1039C44.7092 40.069 44.7324 40.0458 44.7557 40.0225C44.7557 39.9876 44.7557 39.9644 44.7441 39.9528C44.7324 39.9411 44.7324 39.9179 44.7324 39.9063L44.872 39.7318L44.9999 38.6504C44.9999 38.6504 45.058 38.5458 45.0696 38.4876C45.0813 38.4295 45.0696 38.383 45.0696 38.3249L45.0464 37.79C45.0464 37.79 45.0464 37.7086 45.0464 37.6737C45.0464 37.6388 45.058 37.6039 45.0813 37.5574C45.0929 37.5342 45.1045 37.4993 45.1045 37.4528C45.1045 37.4063 45.1045 37.3714 45.1162 37.3365V36.9179C45.1162 36.9179 45.1162 36.883 45.1278 36.8597C45.1394 36.8365 45.1394 36.8249 45.151 36.8132V36.2667L45.1743 35.9993C45.1743 35.9993 45.1743 35.976 45.1859 35.9528V35.9062C45.1627 35.8132 45.151 35.7086 45.1394 35.6156C45.1278 35.5225 45.0929 35.4295 45.0348 35.3597C45.0348 35.3597 45.0348 35.3597 45.0231 35.3481L44.8371 35.2551L44.6045 35.0225C44.6045 35.0225 44.5464 34.9876 44.4999 34.976C44.4534 34.9644 44.4185 34.9644 44.372 34.9528C44.3255 34.9411 44.2789 34.9528 44.2441 34.9295C44.2092 34.9063 44.1627 34.9063 44.1394 34.883L43.9883 34.7667C43.9883 34.7667 43.9534 34.7435 43.9301 34.7435C43.9069 34.7435 43.8836 34.7435 43.8487 34.7435H43.7324C43.7324 34.7435 43.651 34.7086 43.6162 34.6737C43.5813 34.6388 43.558 34.5923 43.5464 34.5458C43.5464 34.4876 43.5696 34.4528 43.6162 34.4179C43.6627 34.383 43.7092 34.3597 43.7673 34.3481C43.8255 34.3365 43.8836 34.3249 43.9534 34.3249C44.0231 34.3249 44.058 34.3249 44.0929 34.3249C44.151 34.3481 44.2208 34.3597 44.2789 34.3714C44.3371 34.383 44.3952 34.383 44.465 34.383C44.5348 34.383 44.5929 34.383 44.651 34.383C44.7092 34.383 44.7789 34.383 44.8487 34.3946C44.8487 34.3946 44.8603 34.3946 44.8952 34.3946C44.9301 34.3946 44.9417 34.4062 44.9766 34.4179C45.0115 34.4295 45.0348 34.4295 45.058 34.4411C45.0813 34.4528 45.1045 34.4411 45.1045 34.4411H45.1627L45.4999 34.3365C45.4999 34.3365 45.5464 34.3365 45.5813 34.3597C45.6162 34.383 45.6394 34.3946 45.6743 34.4062C45.7092 34.4179 45.7324 34.4411 45.7673 34.4644C45.8022 34.4876 45.8138 34.4993 45.8371 34.5109L45.8603 34.5458C45.8603 34.5458 45.9301 34.6621 45.9766 34.7435C46.0231 34.8249 46.0813 34.8946 46.1394 34.9644C46.1976 35.0342 46.2557 35.1039 46.3138 35.1737C46.372 35.2435 46.4185 35.29 46.4766 35.3249L46.6976 35.4528C46.6976 35.4528 46.7208 35.476 46.7441 35.4993C46.7673 35.5225 46.7673 35.5342 46.7673 35.5458L46.8022 35.6621C46.8022 35.6621 46.8371 35.7202 46.8487 35.7318C46.8603 35.7435 46.872 35.7667 46.8952 35.7783C46.9185 35.79 46.9301 35.8016 46.9417 35.8132C46.9534 35.8249 46.9883 35.8365 47.0115 35.8597C47.0696 35.9179 47.1162 35.9644 47.1627 35.9993C47.2092 36.0342 47.2441 36.0807 47.2673 36.1156C47.2906 36.1504 47.3255 36.1969 47.3487 36.2435C47.372 36.29 47.3952 36.3597 47.4301 36.4295C47.4301 36.4295 47.4534 36.4411 47.4999 36.476C47.5464 36.5109 47.5813 36.5458 47.6278 36.5923C47.6743 36.6388 47.7208 36.6737 47.7557 36.7086C47.7906 36.7435 47.8138 36.7551 47.8022 36.7551L47.8487 36.8714C47.8487 36.8714 47.8487 36.8946 47.8603 36.9062C47.872 36.9179 47.8836 36.9411 47.8952 36.9528C47.9069 36.9644 47.9185 36.9876 47.9301 36.9993C47.9417 37.0109 47.9534 37.0225 47.965 37.0342L48.0696 37.0807C48.1278 37.1388 48.1976 37.1969 48.2673 37.2667C48.3371 37.3365 48.4069 37.4062 48.465 37.476C48.5231 37.5458 48.5813 37.6272 48.6278 37.6969C48.6743 37.7667 48.7208 37.8481 48.7441 37.9179L49.1976 38.3481C49.2441 38.476 49.3255 38.5923 49.4301 38.6737C49.5348 38.7551 49.6627 38.8016 49.7906 38.8016V38.6156C49.7906 38.6156 49.7906 38.5574 49.7906 38.5225C49.7906 38.4876 49.7906 38.4644 49.8022 38.4295C49.8022 38.4295 49.8022 38.4179 49.8022 38.4062C49.8022 38.3946 49.8138 38.3714 49.8255 38.3481C49.8371 38.3249 49.8371 38.3016 49.8487 38.29C49.8603 38.2783 49.8487 38.2551 49.8487 38.2435C49.8487 38.2086 49.8487 38.1853 49.8255 38.1737C49.8022 38.1621 49.8022 38.1504 49.8022 38.1272L49.8487 37.8714C49.8487 37.79 49.8487 37.6969 49.8255 37.5923C49.8022 37.4876 49.8022 37.3946 49.8022 37.3249V37.29C49.8022 37.29 49.8022 37.2551 49.8022 37.2318C49.8022 37.2086 49.8022 37.1853 49.8022 37.1737C49.8022 37.1621 49.8022 37.1388 49.8022 37.1272C49.8022 37.1272 49.8022 37.069 49.8022 37.0458C49.8022 37.0458 49.8022 37.0342 49.8138 37.0225L49.8603 36.9411L49.9417 36.5225C49.9417 36.5225 49.9069 36.4528 49.8952 36.4295C49.8836 36.4062 49.8952 36.3714 49.8952 36.3365L49.9185 35.9062L49.8952 35.4528C49.8952 35.4528 49.8952 35.3946 49.8952 35.3597C49.8952 35.3249 49.9185 35.3132 49.9534 35.3016V35.1853C49.9534 35.1853 49.9534 35.1039 49.9301 35.0574C49.9069 35.0109 49.8836 34.9644 49.8603 34.9179C49.8371 34.8714 49.8022 34.8365 49.7557 34.8016C49.7092 34.7667 49.6859 34.7435 49.6394 34.7318C49.6394 34.7318 49.6162 34.7318 49.6045 34.7318H49.5464C49.5464 34.7318 49.4999 34.7086 49.4883 34.7086C49.4766 34.7086 49.4534 34.7086 49.4534 34.7086L49.3487 34.6388C49.3487 34.6388 49.3255 34.6388 49.2906 34.6272C49.2557 34.6156 49.2324 34.6272 49.2208 34.6272C49.1627 34.6039 49.1045 34.5807 49.058 34.5574C49.0115 34.5342 48.9766 34.5109 48.9301 34.4876C48.8836 34.4644 48.8603 34.4295 48.8255 34.3946C48.7906 34.3597 48.7673 34.3132 48.7208 34.2667C48.7092 34.2435 48.6859 34.2318 48.6743 34.2318C48.6627 34.2318 48.6394 34.2086 48.6278 34.1853C48.6278 34.1621 48.651 34.1504 48.6859 34.1388C48.7208 34.1272 48.7557 34.1156 48.7906 34.1156C48.8255 34.1156 48.8603 34.1039 48.8952 34.1039H48.9766C48.9883 34.1039 49.0115 34.1039 49.0464 34.1039C49.0813 34.1039 49.1045 34.1156 49.1162 34.1272C49.3022 34.1504 49.4883 34.1621 49.651 34.1853C49.8138 34.2086 49.9883 34.2202 50.1743 34.2202L50.8603 34.1504C50.8603 34.1504 50.9417 34.1504 50.9883 34.1504C51.0348 34.1504 51.0696 34.1504 51.1045 34.1737C51.1394 34.197 51.1743 34.2086 51.1976 34.2318C51.2208 34.2551 51.2324 34.3016 51.2324 34.3481C51.2324 34.4295 51.2092 34.4993 51.151 34.5342C51.0929 34.569 51.0231 34.6039 50.9534 34.6272C50.8836 34.6504 50.7906 34.6621 50.7092 34.6853C50.6278 34.7086 50.558 34.7202 50.4999 34.7551L50.4534 34.9062L50.2324 35.1156C50.2324 35.1156 50.2324 35.1388 50.2208 35.1504C50.2092 35.1621 50.2208 35.1853 50.2208 35.1969C50.2208 35.2086 50.2208 35.2318 50.2441 35.2551C50.2673 35.2783 50.2673 35.3016 50.2789 35.3249C50.2906 35.3481 50.3022 35.3714 50.3138 35.3946C50.3255 35.4179 50.3371 35.4411 50.3487 35.4528V35.476C50.3487 35.476 50.3487 35.5342 50.3487 35.569C50.3487 35.6039 50.3371 35.6504 50.3255 35.6969C50.3138 35.7435 50.3138 35.7783 50.3022 35.8249C50.2906 35.8714 50.3022 35.883 50.3022 35.8946C50.3022 35.8946 50.3022 35.9179 50.3022 35.9528V35.9993C50.3022 35.9993 50.3022 36.0225 50.3022 36.0342V36.3132C50.3022 36.3714 50.3022 36.4411 50.2906 36.4993C50.2789 36.5574 50.2557 36.6156 50.2324 36.6504V37.2086C50.2324 37.2086 50.2324 37.29 50.2324 37.3365C50.2324 37.383 50.2324 37.4295 50.2324 37.476C50.2324 37.5225 50.2208 37.569 50.2092 37.6156C50.1976 37.6621 50.1743 37.6969 50.151 37.7318V37.8597C50.151 37.976 50.151 38.1039 50.1278 38.2086C50.1045 38.3132 50.1045 38.4411 50.0929 38.569C50.0929 38.6272 50.0696 38.6969 50.058 38.7435C50.0464 38.79 50.0348 38.8597 50.0348 38.9179V39.1272C50.0348 39.2086 50.0348 39.2783 50.0348 39.3597C50.0348 39.4411 50.0348 39.5225 50.058 39.5923C50.0813 39.6621 50.0813 39.7318 50.0929 39.8016C50.1162 39.8597 50.1278 39.9179 50.1394 39.9644C50.151 40.0109 50.1627 40.0574 50.1743 40.1039C50.1859 40.1504 50.1859 40.1969 50.1976 40.2551C50.2092 40.3132 50.1976 40.3714 50.1976 40.4411V40.6737C50.1976 40.6737 50.1278 40.7551 50.0696 40.7551C50.0115 40.7551 49.9534 40.7318 49.8952 40.6969C49.8371 40.6621 49.7673 40.6039 49.6976 40.5458C49.6278 40.4876 49.558 40.4063 49.4883 40.3249C49.4185 40.2435 49.3487 40.1621 49.2906 40.0807C49.2324 39.9993 49.1627 39.9295 49.1045 39.8597C49.0464 39.79 48.9882 39.7318 48.9417 39.6853C48.9417 39.6737 48.9301 39.6504 48.9185 39.6039C48.9069 39.5574 48.8952 39.5342 48.8836 39.5225C48.8371 39.476 48.7789 39.4063 48.7324 39.3365C48.6859 39.2667 48.6278 39.2086 48.5696 39.1621C48.5115 39.1156 48.4534 39.069 48.3952 39.0109C48.3371 38.9528 48.2906 38.9063 48.2557 38.8481C48.2208 38.79 48.1627 38.7318 48.1162 38.6737C48.0696 38.6156 48.0231 38.5574 47.9766 38.4993C47.9534 38.476 47.9417 38.4528 47.9185 38.4411C47.8952 38.4295 47.872 38.4062 47.8487 38.3946C47.8255 38.383 47.8022 38.3714 47.7789 38.3481C47.7557 38.3249 47.7441 38.3132 47.7324 38.29C47.6278 38.1504 47.5231 38.0109 47.4185 37.8946C47.3138 37.7783 47.1859 37.6737 47.0464 37.5923C47.0231 37.5807 46.9999 37.569 46.9883 37.5458L46.9417 37.4876C46.9417 37.4876 46.9069 37.4528 46.8952 37.4295C46.8836 37.4063 46.8487 37.3946 46.8255 37.383C46.8255 37.383 46.8022 37.3481 46.7906 37.3249C46.7789 37.3016 46.7441 37.2551 46.7208 37.2202C46.6976 37.1853 46.6743 37.1504 46.651 37.1156L46.6045 37.0458L46.5464 36.9993C46.5348 36.9411 46.5115 36.883 46.4883 36.8365C46.465 36.79 46.4417 36.7551 46.4069 36.7202C46.372 36.6853 46.3371 36.6504 46.3022 36.6039C46.2673 36.5574 46.2092 36.5225 46.1627 36.4644L46.1162 36.4062C46.1162 36.4062 46.0813 36.3249 46.0464 36.29C46.0115 36.2551 45.9882 36.2318 45.9417 36.2086C45.8952 36.1853 45.872 36.1504 45.8255 36.1272C45.7789 36.1039 45.7557 36.069 45.7324 36.0342C45.7092 36.0109 45.6976 35.9876 45.6859 35.9644L45.6627 35.8946C45.6627 35.8946 45.6394 35.8597 45.6162 35.8481C45.5929 35.8365 45.5696 35.8249 45.5231 35.8132C45.4999 35.8132 45.4766 35.8249 45.4417 35.8481C45.4069 35.8714 45.3836 35.8946 45.3836 35.9179L45.4069 36.0458C45.4069 36.0458 45.4069 36.1156 45.3836 36.1737C45.3603 36.2318 45.3603 36.2667 45.3603 36.3132L45.4069 36.4528L45.3603 36.5807C45.3603 36.5807 45.3603 36.6737 45.3836 36.7435C45.4069 36.8132 45.4185 36.8597 45.4417 36.883C45.4534 36.9295 45.465 36.976 45.4766 37.0342C45.4883 37.0923 45.4766 37.1388 45.4766 37.1969C45.4766 37.2667 45.4766 37.3249 45.4766 37.383C45.4766 37.4411 45.465 37.4993 45.4417 37.5574C45.465 37.5807 45.4766 37.6039 45.4766 37.6272C45.4766 37.6737 45.4766 37.7202 45.465 37.7667C45.4534 37.8132 45.4417 37.8481 45.4301 37.883C45.4185 37.9179 45.4069 37.9528 45.3952 37.9993C45.3836 38.0458 45.3836 38.069 45.3836 38.1156V38.2667C45.3836 38.2667 45.3836 38.3481 45.3836 38.3946C45.3836 38.4411 45.3836 38.4876 45.3836 38.5342C45.3836 38.5807 45.3836 38.6156 45.4069 38.6504C45.4301 38.6853 45.4185 38.7086 45.4301 38.7318C45.4185 38.7667 45.4069 38.8016 45.3952 38.8365C45.3836 38.8714 45.3836 38.8946 45.372 38.9179C45.3603 38.9411 45.372 38.9644 45.3603 38.9876C45.3487 39.0109 45.3603 39.0458 45.3603 39.069C45.3603 39.1621 45.3603 39.2551 45.3836 39.3481C45.4069 39.4411 45.4301 39.5342 45.465 39.6272C45.4999 39.7202 45.5464 39.8016 45.6045 39.883C45.6627 39.9644 45.7324 40.0342 45.8138 40.0923C45.8371 40.1039 45.8603 40.1156 45.8952 40.1272L45.9766 40.1504C45.9766 40.1504 46.0348 40.1621 46.058 40.1737C46.0813 40.1853 46.1045 40.2086 46.1278 40.2318C46.1743 40.2318 46.2324 40.2318 46.2789 40.2318C46.3255 40.2318 46.3836 40.2318 46.4301 40.2551C46.4766 40.2783 46.5231 40.2783 46.5696 40.29C46.6162 40.3016 46.651 40.3249 46.6743 40.3481C46.6976 40.4062 46.7208 40.4528 46.7324 40.4993C46.7441 40.5458 46.7557 40.6039 46.7557 40.6853C46.7092 40.7551 46.651 40.8016 46.6045 40.8365C46.558 40.8714 46.4766 40.8946 46.3952 40.8946H46.3138L46.1278 40.8016C46.0348 40.79 45.9301 40.7783 45.7906 40.7667C45.651 40.7551 45.5348 40.7551 45.4069 40.7551H45.0929C45.0929 40.7551 45.0231 40.7551 44.9883 40.7551C44.9534 40.7551 44.9185 40.7667 44.872 40.7783H44.151C44.151 40.7783 44.1278 40.7318 44.1045 40.7202C44.0813 40.7086 44.058 40.7202 44.0231 40.7086C43.9883 40.6969 43.9766 40.7086 43.9534 40.6969C43.9301 40.6853 43.9185 40.6737 43.9185 40.6504C43.9185 40.5807 43.9301 40.5225 43.965 40.476C43.9999 40.4295 44.0348 40.3946 44.0929 40.3714C44.151 40.3481 44.1976 40.3249 44.2557 40.3132C44.3138 40.3016 44.372 40.29 44.4301 40.2783H44.465L44.4534 40.3597Z" fill="white"/>
<path d="M22.2092 46.4993L21.9882 46.2667C21.9069 46.1969 21.8371 46.1504 21.7789 46.1039C21.7208 46.0574 21.651 46.0225 21.5813 45.9993C21.5115 45.976 21.4534 45.9528 21.3836 45.9528C21.3138 45.9528 21.2441 45.9411 21.1627 45.9411C21.1394 45.9411 21.1162 45.9411 21.1162 45.9411H20.8138C20.8138 45.9411 20.7673 45.9411 20.7557 45.9411H20.4069C20.4069 45.9411 20.3022 45.9644 20.2441 45.9644C20.1859 45.9644 20.1394 45.9644 20.0813 45.9644C19.965 45.9644 19.8836 45.9644 19.8255 45.9644C19.7673 45.9644 19.7208 45.976 19.6859 45.9993C19.651 46.0109 19.6278 46.0225 19.6278 46.0458C19.6278 46.069 19.6278 46.0807 19.6278 46.0923C19.6278 46.1504 19.6278 46.1969 19.6045 46.2318C19.5813 46.2667 19.558 46.29 19.4999 46.3249C19.4999 46.3249 19.4882 46.3481 19.4766 46.3714C19.465 46.3946 19.4766 46.4179 19.465 46.4528C19.4534 46.4876 19.465 46.5109 19.465 46.5458C19.465 46.5807 19.465 46.6039 19.465 46.6156C19.465 46.6853 19.465 46.7551 19.4999 46.8132C19.5348 46.8714 19.5348 46.9528 19.5348 47.0225L19.4883 47.3132C19.4883 47.383 19.4999 47.4528 19.5348 47.5225C19.5696 47.5923 19.5813 47.6621 19.5813 47.7551L19.5115 48.4295C19.5115 48.4295 19.5231 48.4876 19.5464 48.5225C19.5696 48.5574 19.5929 48.5807 19.6045 48.6039C19.6976 48.6156 19.7906 48.6388 19.8952 48.6504C19.9999 48.6621 20.0929 48.6853 20.1859 48.6853C20.2092 48.6853 20.2208 48.6853 20.2441 48.6853C20.2673 48.6853 20.2789 48.6621 20.2906 48.6272C20.3255 48.6272 20.3603 48.6272 20.4069 48.6272C20.4534 48.6272 20.5115 48.6272 20.5696 48.6272C20.651 48.6272 20.7441 48.6272 20.8371 48.6272C20.9301 48.6272 21.0231 48.6272 21.1162 48.6156C21.2092 48.6039 21.2906 48.5923 21.3603 48.5807C21.4301 48.569 21.4999 48.5342 21.5348 48.5109C21.5813 48.4876 21.6045 48.4411 21.6278 48.3946C21.651 48.3481 21.6627 48.29 21.6743 48.2318C21.6859 48.1737 21.6976 48.1156 21.7092 48.0574C21.7208 47.9993 21.7324 47.9411 21.7441 47.8946C21.7557 47.8481 21.7906 47.8016 21.8138 47.7667C21.8371 47.7318 21.8952 47.7202 21.9534 47.7202C21.9766 47.7202 21.9883 47.7202 21.9999 47.7202C22.0115 47.7202 22.0348 47.7435 22.0464 47.7783V47.9644C22.0464 48.1039 22.0348 48.2551 21.9999 48.383C21.9883 48.4876 21.965 48.5807 21.9534 48.6737C21.9417 48.7667 21.9301 48.8481 21.9301 48.9295C21.9301 49.0109 21.9301 49.0807 21.965 49.1504C21.9999 49.2202 22.0115 49.29 22.0348 49.3597C22.058 49.4295 22.0813 49.4993 22.1045 49.569C22.1278 49.6388 22.1394 49.7086 22.1394 49.7783C22.1394 49.8249 22.1394 49.8597 22.1394 49.883C22.1394 49.9063 22.1394 49.9179 22.1162 49.9295C22.1045 49.9528 22.0929 49.976 22.0813 49.9876C22.0696 49.9993 22.058 50.0109 22.0348 50.0109C21.9882 50.0109 21.9534 49.9993 21.9301 49.9644C21.9069 49.9295 21.8836 49.8946 21.8487 49.8597L21.7906 49.7202C21.7557 49.6504 21.7208 49.5807 21.6976 49.5109C21.6743 49.4411 21.6278 49.383 21.5929 49.3249C21.558 49.2667 21.4999 49.2086 21.4534 49.1621C21.4069 49.1156 21.3371 49.0574 21.2557 49.0225H21.0464C20.9417 49.0225 20.8371 49.0225 20.7208 49.0225C20.6045 49.0225 20.5115 49.0109 20.4301 48.9876L20.151 48.9411C20.0696 48.9411 19.9883 48.9528 19.8952 48.9876C19.8022 49.0225 19.7208 49.0342 19.6394 49.0342C19.6162 49.069 19.5813 49.1039 19.5464 49.1621C19.5115 49.2202 19.4883 49.2667 19.4883 49.3249C19.5348 49.5458 19.5813 49.7667 19.6162 49.9876C19.651 50.2086 19.6627 50.4179 19.6627 50.6388C19.6627 50.7435 19.6627 50.8132 19.6627 50.8481C19.6627 50.883 19.6627 50.9063 19.651 50.9295C19.6743 50.9993 19.7092 51.069 19.7557 51.1272C19.8022 51.1853 19.8487 51.2318 19.9069 51.2783C19.965 51.3249 20.0231 51.3597 20.0929 51.3946C20.1627 51.4295 20.2208 51.4644 20.2789 51.4993C20.2789 51.4993 20.2906 51.4993 20.3138 51.5225C20.3371 51.5458 20.3371 51.5574 20.3371 51.5574C20.3487 51.5574 20.372 51.5574 20.4185 51.569C20.465 51.5807 20.4882 51.569 20.4999 51.569H20.558C20.558 51.569 20.5929 51.569 20.6162 51.569C20.6394 51.569 20.6627 51.569 20.6743 51.569H20.8022C20.8022 51.569 20.8487 51.569 20.8603 51.569C20.8836 51.569 20.9069 51.569 20.9185 51.569H20.9766C20.9766 51.569 21.0115 51.6039 21.0348 51.6156C21.058 51.6272 21.0813 51.6504 21.0929 51.6737C21.1045 51.697 21.1278 51.7202 21.1394 51.7435C21.151 51.7667 21.1627 51.79 21.1627 51.8249C21.1627 51.8597 21.1627 51.8946 21.1394 51.9295C21.1162 51.9644 21.1045 51.9993 21.0813 52.0342C21.058 52.069 21.0231 52.0923 20.9999 52.1156C20.9766 52.1388 20.9417 52.1504 20.9069 52.1504C20.9069 52.1504 20.8371 52.1504 20.7906 52.1504C20.7441 52.1504 20.7092 52.1504 20.6859 52.1504C20.6394 52.1504 20.6045 52.1504 20.5696 52.1504C20.5348 52.1504 20.4766 52.1504 20.4185 52.1504L20.3371 52.1272C20.3371 52.1272 20.2324 52.0807 20.1627 52.0574C20.0929 52.0342 20.0348 52.0225 19.965 51.9993C19.8952 51.976 19.8255 51.976 19.7557 51.9644C19.6859 51.9528 19.6278 51.9644 19.5696 51.9644C19.5115 51.9644 19.4534 51.9644 19.4069 51.9644C19.3603 51.9644 19.3022 51.976 19.2208 51.9993C19.151 52.0109 19.0813 52.0225 18.9999 52.0225C18.9185 52.0225 18.8487 52.0225 18.7789 52.0225C18.6976 52.0225 18.6278 52.0225 18.558 52.0225C18.4883 52.0225 18.4185 52.0109 18.3371 51.9993C18.3022 52.0109 18.2673 52.0342 18.2324 52.0574C18.1976 52.0807 18.1627 52.1039 18.1045 52.1156H18.0464C18.0464 52.1156 18.0115 52.0923 17.9883 52.0923C17.9766 52.0923 17.9534 52.0923 17.9185 52.0923H17.7441C17.6743 52.069 17.6162 52.0458 17.5696 52.0225C17.5231 51.9993 17.4882 51.9528 17.4766 51.883C17.4766 51.79 17.5231 51.7086 17.6278 51.6388C17.6976 51.6388 17.7906 51.6156 17.9069 51.5807C18.0231 51.5458 18.1394 51.4993 18.2441 51.4528C18.3487 51.4063 18.4417 51.3365 18.5231 51.2551C18.6045 51.1737 18.6394 51.0923 18.6394 51.0109C18.6394 50.8481 18.6394 50.7086 18.6394 50.5923C18.6394 50.476 18.6278 50.3597 18.6162 50.2551C18.6045 50.1504 18.5929 50.0342 18.5929 49.9179C18.5929 49.8016 18.5929 49.6504 18.5929 49.4876C18.5929 49.4411 18.5929 49.383 18.6045 49.3365C18.6162 49.29 18.6278 49.2318 18.6394 49.1853C18.651 49.1388 18.6627 49.0807 18.6743 49.0342C18.6859 48.9876 18.6859 48.9295 18.6859 48.883V48.8481C18.6859 48.8481 18.6859 48.8132 18.6859 48.8016C18.6859 48.79 18.6859 48.7667 18.6859 48.7318L18.6278 48.5342V48.1853C18.6278 48.1853 18.6278 48.0807 18.6045 48.0342C18.5813 47.9876 18.5813 47.9295 18.5696 47.883C18.558 47.8365 18.5464 47.7783 18.5348 47.7318C18.5231 47.6853 18.5231 47.6388 18.5231 47.5807C18.5231 47.569 18.5231 47.5458 18.5231 47.5225C18.5231 47.4993 18.5231 47.476 18.5348 47.4644C18.5464 47.4063 18.558 47.3481 18.5696 47.2783C18.5813 47.2086 18.5696 47.1504 18.5696 47.0923C18.5696 47.0342 18.5696 46.976 18.5696 46.9179C18.5696 46.8597 18.558 46.8016 18.5348 46.7435C18.5348 46.6853 18.5231 46.6388 18.4999 46.5807C18.4766 46.5225 18.4417 46.476 18.3952 46.4295C18.3487 46.383 18.3138 46.3365 18.2557 46.3016C18.1976 46.2667 18.1627 46.2318 18.1162 46.2202C18.058 46.197 17.9883 46.1853 17.8952 46.1737C17.8022 46.1621 17.7092 46.1621 17.6162 46.1388C17.5231 46.1156 17.4417 46.0923 17.372 46.0574C17.3022 46.0225 17.2673 45.9528 17.2673 45.8597V45.79C17.2673 45.79 17.372 45.7318 17.4417 45.7086C17.5115 45.6853 17.5696 45.6621 17.6278 45.6621H17.7324C17.7324 45.6621 17.8138 45.6621 17.8603 45.6737C17.9069 45.6853 17.9301 45.7086 17.965 45.7318C18.0115 45.7318 18.0696 45.7435 18.1162 45.7551C18.1627 45.7667 18.2208 45.7551 18.2673 45.7551C18.3138 45.7551 18.3603 45.7551 18.4185 45.7551C18.4766 45.7551 18.5231 45.7435 18.5813 45.7318C18.5929 45.7086 18.6045 45.6969 18.6162 45.6853C18.6278 45.6737 18.6394 45.6853 18.6627 45.6853C18.7208 45.6853 18.7906 45.697 18.8487 45.7202C18.9069 45.7435 18.9766 45.7551 19.058 45.7551H19.1627C19.1627 45.7551 19.2324 45.7551 19.2673 45.7551C19.3022 45.7551 19.3487 45.7551 19.3836 45.7318C19.4882 45.7551 19.6162 45.7551 19.7441 45.7551C19.8603 45.7551 19.9882 45.7551 20.1162 45.7318C20.2324 45.6969 20.3487 45.6737 20.4766 45.6737C20.6045 45.6737 20.7324 45.6737 20.872 45.6504C20.9417 45.6504 21.0115 45.6504 21.0696 45.6388C21.1278 45.6272 21.1976 45.6388 21.2557 45.6388C21.3022 45.6388 21.3487 45.6388 21.3952 45.6388C21.4417 45.6388 21.4883 45.6388 21.5464 45.6504C21.558 45.6504 21.5696 45.6621 21.5929 45.6853C21.6162 45.7086 21.6278 45.7086 21.651 45.7318C21.6743 45.7551 21.6859 45.7551 21.7092 45.7667C21.7324 45.7783 21.7441 45.7783 21.7557 45.7783C21.7789 45.7783 21.8022 45.7783 21.8255 45.7667L21.8952 45.7318C21.8952 45.7318 21.9882 45.7086 22.0464 45.7086C22.1045 45.7086 22.151 45.7086 22.2092 45.7086C22.3022 45.7086 22.3952 45.7086 22.4883 45.7435C22.4883 45.7435 22.5115 45.7435 22.5348 45.7783C22.558 45.8132 22.5813 45.8249 22.6045 45.8365C22.6278 45.8481 22.651 45.883 22.6743 45.8946C22.6976 45.9063 22.7092 45.9295 22.7092 45.9295V46.5807C22.7673 46.7318 22.8022 46.883 22.8022 47.0342C22.8022 47.069 22.8022 47.1039 22.8022 47.1504C22.8022 47.1969 22.8022 47.2202 22.7789 47.2551C22.7557 47.29 22.7557 47.3132 22.7324 47.3365C22.7092 47.3597 22.6743 47.3714 22.6278 47.3714C22.6045 47.3481 22.5929 47.3249 22.5696 47.29C22.5464 47.2551 22.5231 47.2318 22.4999 47.197C22.4766 47.1621 22.4534 47.1388 22.4301 47.1039C22.4069 47.069 22.3836 47.0458 22.372 47.0225C22.372 47.0225 22.372 46.9993 22.3487 46.976C22.3255 46.9528 22.3255 46.9179 22.3022 46.883C22.2789 46.8481 22.2673 46.8249 22.2557 46.79C22.2441 46.7551 22.2324 46.7435 22.2208 46.7318C22.2208 46.7318 22.2208 46.6969 22.2092 46.6621C22.1976 46.6272 22.2092 46.5923 22.2092 46.5923V46.4993Z" fill="white"/>
<path d="M28.3138 51.8132C28.1278 51.6621 27.965 51.4876 27.8255 51.3016C27.6859 51.1156 27.5696 50.9063 27.4766 50.6969L27.4185 50.5342C27.4185 50.5342 27.3836 50.476 27.3603 50.4411C27.3371 50.4063 27.3022 50.383 27.2789 50.3481C27.2557 50.3132 27.2208 50.29 27.1976 50.2551C27.1743 50.2202 27.151 50.197 27.1394 50.1737L27.0348 50.0109L26.6976 49.6388C26.6976 49.5458 26.651 49.4644 26.5696 49.383C26.4883 49.3016 26.4069 49.2202 26.3022 49.1621C26.1976 49.1039 26.0929 49.0458 25.9766 48.9993C25.8603 48.9528 25.7789 48.9411 25.6976 48.9411C25.6627 48.9411 25.6278 48.9411 25.5813 48.9528C25.5348 48.9644 25.4882 48.976 25.4417 48.9993C25.3952 49.0225 25.3603 49.0458 25.3255 49.069C25.2906 49.0923 25.2789 49.1388 25.2789 49.1737L25.3138 49.3481C25.3138 49.3481 25.3138 49.4179 25.3022 49.4411C25.2906 49.4644 25.2906 49.4876 25.2906 49.5109C25.2906 49.5574 25.2906 49.6039 25.2906 49.6272C25.2906 49.6504 25.3022 49.6969 25.3138 49.7435L25.2673 50.4644V50.5574C25.2673 50.5574 25.2789 50.6621 25.2789 50.7086V50.9993C25.2789 50.9993 25.2789 51.0923 25.2789 51.1388C25.2789 51.1621 25.2906 51.197 25.3138 51.2318C25.3371 51.2667 25.372 51.29 25.3952 51.3132L25.6045 51.4528C25.6045 51.4528 25.6976 51.4993 25.7673 51.5109C25.8371 51.5225 25.9069 51.5342 25.9766 51.5342C26.0464 51.5342 26.1278 51.5342 26.1976 51.5458C26.2673 51.5574 26.3371 51.5574 26.3952 51.5807C26.4534 51.6039 26.4999 51.6272 26.5348 51.6504C26.5696 51.6737 26.5929 51.7318 26.5929 51.79C26.5929 51.8365 26.5813 51.883 26.5464 51.9179C26.5115 51.9528 26.465 51.9877 26.4185 52.0109C26.372 52.0342 26.3255 52.0574 26.2673 52.069C26.2092 52.0807 26.1743 52.0923 26.1394 52.0923C26.0929 52.0923 26.0464 52.0923 25.9999 52.0807C25.9534 52.069 25.9185 52.0574 25.872 52.0458C25.8255 52.0342 25.7906 52.0225 25.7441 51.9993C25.6976 51.976 25.651 51.976 25.6045 51.9644C25.4999 51.9411 25.3836 51.9295 25.2789 51.9063C25.1743 51.883 25.0464 51.8597 24.9185 51.8249C24.8836 51.8249 24.8487 51.8249 24.8138 51.8365C24.7789 51.8481 24.7324 51.8481 24.6859 51.8481L24.3603 51.8132C24.3603 51.8132 24.2906 51.8249 24.2557 51.8597C24.2208 51.8946 24.1743 51.9063 24.1394 51.9063L23.3952 51.883C23.3952 51.883 23.3487 51.8249 23.3487 51.79C23.3487 51.7202 23.3836 51.6621 23.4534 51.6156C23.5231 51.569 23.6045 51.5342 23.6976 51.5109C23.7906 51.4877 23.8836 51.4644 23.965 51.4411C24.0464 51.4179 24.1045 51.4063 24.1394 51.383C24.1743 51.3365 24.1859 51.2783 24.1859 51.2202C24.1859 51.1621 24.1859 51.1039 24.2092 51.069C24.2208 51.069 24.2441 51.0458 24.2557 51.0342C24.2673 51.0225 24.2789 51.0109 24.2906 51.0109C24.3138 50.9411 24.3371 50.8714 24.3371 50.7783C24.3371 50.6853 24.3371 50.5923 24.3371 50.5109V50.3132C24.3371 50.2551 24.3371 50.1969 24.3138 50.1504C24.2906 50.1039 24.2906 50.0574 24.2906 49.9993L24.3836 49.1853L24.3138 48.7435L24.2906 48.6388V48.569C24.2906 48.569 24.2906 48.5225 24.2906 48.4993C24.2906 48.476 24.2906 48.4528 24.2906 48.4295C24.2906 48.4063 24.2906 48.3946 24.2906 48.383C24.3255 48.3714 24.3487 48.3597 24.3487 48.3481C24.3487 48.3365 24.3487 48.3249 24.3487 48.3016L24.2906 48.0225L24.3487 47.7783C24.3487 47.7783 24.3487 47.7551 24.3487 47.7318C24.3487 47.7086 24.3487 47.6853 24.3487 47.6737L24.3255 47.5574V47.4179L24.3487 47.1272L24.2673 46.4411V46.3481C24.1976 46.2667 24.1394 46.197 24.0696 46.1388C23.9999 46.0807 23.9417 46.0342 23.8603 45.9876C23.7789 45.9411 23.7092 45.9063 23.6278 45.883C23.5464 45.8597 23.4534 45.8249 23.3371 45.8016C23.2906 45.8016 23.2789 45.7667 23.2789 45.7202C23.2789 45.6737 23.3022 45.6388 23.3603 45.6156C23.4185 45.5923 23.4766 45.5574 23.558 45.5458C23.6394 45.5342 23.6976 45.5109 23.7673 45.4993C23.8371 45.4876 23.8836 45.4876 23.9069 45.4876L24.1743 45.5109L24.465 45.4876L24.8603 45.569C24.9417 45.569 25.0231 45.569 25.1045 45.5342C25.1859 45.4993 25.2673 45.4993 25.3603 45.4993L25.7324 45.5458L26.1162 45.4993C26.2673 45.4993 26.4185 45.5109 26.558 45.5458C26.6976 45.5807 26.8487 45.6156 26.9882 45.6504C27.058 45.6737 27.1394 45.6969 27.2208 45.7086C27.3022 45.7202 27.372 45.7551 27.4417 45.79L27.5464 45.8597C27.6627 45.9295 27.7789 45.9993 27.872 46.069C27.965 46.1388 28.058 46.2086 28.1162 46.29C28.1743 46.3714 28.2441 46.4644 28.2789 46.569C28.3138 46.6737 28.3487 46.8132 28.3487 46.976C28.3487 47.0574 28.3603 47.1272 28.3836 47.197C28.4069 47.2667 28.4069 47.3365 28.4069 47.4179C28.4069 47.4528 28.4069 47.476 28.4069 47.4993C28.4069 47.5225 28.3952 47.5342 28.372 47.5458C28.3487 47.5574 28.3487 47.5807 28.3371 47.5923C28.3255 47.6039 28.3138 47.6272 28.3022 47.6504C28.2906 47.6853 28.2789 47.7202 28.2673 47.7551C28.2557 47.79 28.2557 47.8365 28.2441 47.883C28.2324 47.9295 28.2324 47.9644 28.2208 47.9993C28.2092 48.0342 28.1976 48.069 28.1859 48.0923C28.1394 48.1621 28.0696 48.2202 27.9999 48.2667C27.9301 48.3132 27.8603 48.3714 27.8022 48.4295C27.7789 48.476 27.7324 48.5109 27.6743 48.5458C27.6162 48.5807 27.558 48.6039 27.4999 48.6272C27.4417 48.6504 27.3952 48.6853 27.3487 48.7318C27.3022 48.7783 27.2789 48.8249 27.2789 48.8946C27.2789 48.9295 27.2789 48.9528 27.3022 48.9644C27.3255 48.976 27.3255 48.9876 27.3487 49.0109C27.372 49.0342 27.3836 49.0342 27.3952 49.0458C27.4069 49.0574 27.4301 49.0807 27.4417 49.1039C27.4417 49.1039 27.4534 49.1388 27.4883 49.1737C27.5231 49.2086 27.5348 49.2435 27.5696 49.29C27.6045 49.3365 27.6278 49.3714 27.651 49.4062C27.6743 49.4411 27.6859 49.4644 27.6976 49.4644C27.8138 49.6039 27.9069 49.7551 27.9999 49.9063C28.0929 50.0574 28.1976 50.1969 28.3022 50.3365C28.372 50.4179 28.4417 50.4993 28.5115 50.569C28.5813 50.6388 28.6627 50.7086 28.7441 50.7667C28.7673 50.7783 28.7906 50.8016 28.8022 50.8365C28.8138 50.8714 28.8371 50.9063 28.8487 50.9528C28.8603 50.9993 28.8836 51.0342 28.8952 51.069C28.9069 51.1039 28.9301 51.1388 28.9534 51.1621C29.0696 51.2435 29.1743 51.3132 29.2789 51.383C29.3836 51.4528 29.4766 51.5225 29.5813 51.5923C29.6278 51.6272 29.6859 51.6504 29.7557 51.6737C29.8255 51.697 29.8836 51.7202 29.9417 51.7551C29.9999 51.79 30.0464 51.8249 30.0929 51.8714C30.1394 51.9179 30.151 51.9644 30.151 52.0342C30.151 52.1039 30.1278 52.1388 30.0696 52.1621C30.0115 52.1853 29.9534 52.1853 29.8952 52.1853H29.2324C29.1394 52.1388 29.0464 52.1156 28.9534 52.1156C28.8603 52.1156 28.7557 52.1156 28.6394 52.0923C28.6162 52.0923 28.5813 52.0807 28.5464 52.0574C28.5115 52.0342 28.465 52.0225 28.4301 51.9993C28.3952 51.976 28.3487 51.9528 28.3138 51.9295C28.2789 51.9063 28.2441 51.883 28.2092 51.8597H28.1859L28.3138 51.8132ZM25.2092 48.2783C25.2092 48.3481 25.2208 48.4063 25.2441 48.4644C25.2673 48.5225 25.3022 48.5574 25.3487 48.5923C25.3952 48.6272 25.4417 48.6504 25.4999 48.6737C25.558 48.6969 25.6162 48.6969 25.6859 48.6969H25.8487C25.8487 48.6969 25.9069 48.6039 25.9883 48.569C26.0696 48.5342 26.1627 48.4993 26.2557 48.476C26.3487 48.4528 26.4534 48.4295 26.5464 48.4062C26.6394 48.383 26.7092 48.3714 26.7557 48.3481C26.8138 48.3249 26.872 48.2783 26.9417 48.2202C27.0115 48.1621 27.058 48.1039 27.1045 48.0574L27.2557 47.7667C27.3022 47.6853 27.3371 47.6039 27.372 47.5225C27.4069 47.4411 27.4185 47.3481 27.4185 47.2551C27.4185 47.2318 27.4185 47.2086 27.4069 47.1853C27.3952 47.1621 27.3836 47.1388 27.372 47.1156C27.3603 47.0923 27.3487 47.069 27.3371 47.0458C27.3255 47.0225 27.3255 46.9876 27.3255 46.9528C27.3487 46.8714 27.3487 46.8249 27.3603 46.8016C27.372 46.7783 27.3603 46.7667 27.3603 46.7551V46.7086C27.3603 46.7086 27.3487 46.6737 27.3138 46.6504C27.2789 46.6272 27.2673 46.6039 27.2673 46.5923C27.1976 46.4644 27.1162 46.3481 27.0231 46.2551C26.9301 46.1621 26.8255 46.0923 26.7092 46.0458C26.5929 45.9993 26.4766 45.9528 26.3371 45.9295C26.1976 45.9063 26.058 45.8946 25.9069 45.8946C25.8952 45.8946 25.872 45.8946 25.8255 45.8946C25.7789 45.8946 25.7441 45.9063 25.6976 45.9179C25.651 45.9295 25.6045 45.9295 25.5696 45.9411C25.5348 45.9528 25.5115 45.9528 25.4999 45.9644C25.4999 45.9644 25.4883 45.976 25.4766 45.9993C25.465 46.0225 25.4534 46.0342 25.4417 46.0458C25.4301 46.0574 25.4185 46.0807 25.4069 46.0923L25.3836 46.1272V46.2551C25.3836 46.4179 25.372 46.5807 25.3371 46.7318C25.3022 46.883 25.2673 47.0458 25.2324 47.2086L25.1743 47.3016L25.2673 47.4179C25.2673 47.4179 25.2673 47.4644 25.2789 47.5109C25.2906 47.5574 25.2906 47.5923 25.3022 47.6272V47.6853C25.3022 47.6853 25.2906 47.6853 25.2789 47.7086C25.2673 47.7318 25.2789 47.7318 25.2789 47.7435C25.2789 47.7435 25.2789 47.7667 25.2789 47.79C25.2789 47.8132 25.2906 47.8249 25.3022 47.8365L25.2092 48.2435V48.2783Z" fill="white"/>
<path d="M30.2673 51.7086C30.2673 51.7086 30.2906 51.6039 30.3371 51.569C30.3836 51.5342 30.4301 51.4993 30.4999 51.476C30.5696 51.4528 30.6278 51.4411 30.6859 51.4295C30.7441 51.4179 30.8022 51.4179 30.8487 51.4179H31.2208C31.2208 51.4179 31.2789 51.3946 31.3255 51.3714C31.372 51.3481 31.4069 51.3132 31.4534 51.2783C31.4999 51.2435 31.5348 51.1969 31.558 51.1504C31.5813 51.1039 31.6045 51.0574 31.6162 51.0109C31.6162 50.9528 31.6278 50.883 31.6278 50.8016C31.6278 50.7435 31.6278 50.6853 31.6162 50.6156L31.6743 50.5109C31.6278 50.3597 31.6045 50.197 31.5929 50.0458C31.5813 49.8946 31.5696 49.7435 31.5696 49.5923C31.5696 49.5574 31.5696 49.5225 31.5696 49.476C31.5696 49.4295 31.5696 49.383 31.5929 49.3365C31.6162 49.29 31.6045 49.2435 31.6162 49.1969C31.6278 49.1504 31.6394 49.1156 31.6394 49.0807V49.0458C31.6394 49.0458 31.6743 49.0109 31.6743 48.9993C31.6743 48.976 31.6976 48.9528 31.7092 48.9411C31.7092 48.9295 31.7208 48.9063 31.7324 48.8946C31.7441 48.883 31.7324 48.8597 31.7324 48.8597C31.7324 48.8365 31.7208 48.8132 31.6976 48.8016C31.6743 48.79 31.651 48.7783 31.6394 48.7783C31.6394 48.6737 31.6394 48.5807 31.651 48.476C31.6627 48.3714 31.651 48.2783 31.651 48.1737C31.651 48.069 31.651 47.976 31.651 47.8714C31.651 47.7667 31.651 47.6737 31.6394 47.569C31.6278 47.5225 31.6162 47.4993 31.6162 47.476C31.6162 47.4528 31.6162 47.4295 31.6162 47.3946L31.651 47.1272L31.6162 46.6388C31.6162 46.6388 31.6045 46.5574 31.5696 46.5109C31.5348 46.4644 31.4999 46.4179 31.4534 46.383C31.4069 46.3481 31.372 46.3016 31.3255 46.2783C31.2789 46.2551 31.2441 46.2318 31.2208 46.2318H30.8952L30.8603 46.2086H30.8371C30.8371 46.2086 30.8255 46.1853 30.8138 46.1853C30.7673 46.1737 30.7208 46.1621 30.6743 46.1504C30.6278 46.1388 30.5696 46.1272 30.5231 46.1156C30.4766 46.1039 30.4417 46.069 30.4069 46.0342C30.372 45.9993 30.3603 45.9528 30.3603 45.883C30.3603 45.8249 30.3603 45.79 30.3836 45.7551C30.4069 45.7202 30.4185 45.7086 30.4534 45.697C30.4883 45.6853 30.5115 45.6737 30.558 45.6737C30.6045 45.6737 30.651 45.6737 30.6976 45.6737C30.7789 45.6737 30.8603 45.6737 30.9301 45.6737C30.9999 45.6737 31.0696 45.697 31.1278 45.7435H31.1743C31.1743 45.7435 31.1976 45.7318 31.2208 45.7318H31.3022C31.4417 45.7318 31.5929 45.7318 31.7557 45.7667C31.9185 45.8016 32.058 45.8016 32.1859 45.8132L32.4417 45.8597C32.4417 45.8597 32.5231 45.8597 32.558 45.8365C32.5929 45.8132 32.6394 45.8132 32.6859 45.79C32.7324 45.7667 32.7789 45.7551 32.8138 45.7435C32.8487 45.7318 32.8952 45.7202 32.9417 45.7202C32.9766 45.7202 32.9999 45.7202 33.0231 45.7435C33.0464 45.7667 33.0813 45.7667 33.1278 45.7667C33.1394 45.7667 33.1627 45.7667 33.1743 45.7435C33.1859 45.7202 33.2092 45.7202 33.2441 45.7202C33.2789 45.7202 33.3022 45.7202 33.3138 45.7202C33.3255 45.7202 33.3487 45.7318 33.3603 45.7667H33.5348C33.5929 45.7667 33.6627 45.7667 33.7324 45.7318C33.8022 45.697 33.872 45.697 33.9417 45.697C33.9883 45.697 34.0231 45.697 34.0464 45.697C34.0696 45.697 34.1045 45.7202 34.151 45.7551L34.965 45.8016C34.965 45.8016 35.0464 45.8016 35.0696 45.8132C35.1045 45.8132 35.1278 45.8132 35.1627 45.8249C35.1976 45.8365 35.2208 45.8249 35.2441 45.8365C35.2557 45.8365 35.2789 45.8365 35.3022 45.8365C35.3255 45.8365 35.3487 45.8365 35.3603 45.8597C35.372 45.883 35.3952 45.883 35.4069 45.8946C35.4185 45.9063 35.4301 45.9295 35.4301 45.9528C35.4301 45.976 35.4534 46.0225 35.4534 46.0923C35.4534 46.1621 35.465 46.2202 35.4766 46.29C35.4883 46.3597 35.4883 46.4295 35.4999 46.4876C35.5115 46.5458 35.4999 46.5923 35.4999 46.6156C35.5115 46.7202 35.5231 46.8249 35.5348 46.9295C35.5464 47.0342 35.5464 47.1388 35.5464 47.2435H35.4766C35.4069 47.2435 35.3603 47.197 35.3138 47.0923C35.2906 47.0574 35.2673 47.0342 35.2557 47.0225C35.2441 47.0109 35.2324 46.9993 35.2324 46.976C35.1859 46.9179 35.151 46.8597 35.1045 46.79C35.058 46.7202 35.0231 46.6621 34.9883 46.5923C34.9534 46.5225 34.9185 46.476 34.8952 46.4295C34.872 46.383 34.8487 46.3481 34.8371 46.3249C34.8022 46.3132 34.7673 46.3016 34.7208 46.29C34.6743 46.2783 34.6394 46.2783 34.6045 46.2667C34.5696 46.2551 34.5348 46.2435 34.4999 46.2318C34.465 46.2202 34.4417 46.1969 34.4185 46.1621C34.3952 46.1156 34.3487 46.0923 34.2789 46.0923C34.2557 46.0923 34.2324 46.0923 34.2324 46.0923C34.2208 46.0923 34.1976 46.0923 34.1743 46.0923C34.151 46.0923 34.1278 46.0923 34.1045 46.0923C34.058 46.0923 33.9999 46.0923 33.9534 46.0923C33.9069 46.0923 33.8603 46.0923 33.8255 46.0923C33.8022 46.0923 33.7906 46.0923 33.7789 46.0923C33.7673 46.0923 33.7673 46.0923 33.7441 46.0923H33.7092C33.6394 46.069 33.5813 46.069 33.5115 46.0574C33.4417 46.0458 33.3836 46.0574 33.3138 46.0574C33.2441 46.0574 33.1859 46.0574 33.1162 46.0574C33.0464 46.0574 32.9883 46.0574 32.9185 46.0807C32.8952 46.0807 32.872 46.1039 32.8487 46.1156C32.8255 46.1272 32.7906 46.1504 32.7673 46.1853C32.7441 46.2202 32.7208 46.2318 32.6976 46.2667C32.6743 46.3016 32.6627 46.3249 32.651 46.3481C32.6278 46.4528 32.6162 46.569 32.6045 46.697C32.5929 46.8249 32.6045 46.9528 32.6045 47.0923V47.569C32.6045 47.569 32.558 47.6388 32.558 47.6737C32.558 47.7086 32.558 47.7551 32.558 47.8016V47.9644C32.558 48.0342 32.558 48.1039 32.558 48.1737C32.558 48.2435 32.5696 48.3132 32.5929 48.383C32.6162 48.4528 32.6394 48.5109 32.6743 48.5807C32.7092 48.6504 32.7557 48.697 32.8138 48.7551L33.5464 48.7783C33.5464 48.7783 33.6627 48.7783 33.7092 48.7435C33.7208 48.7435 33.7441 48.7435 33.7673 48.7318C33.7906 48.7202 33.8138 48.7318 33.8255 48.7318H33.9999C33.9999 48.7318 34.0929 48.7318 34.1394 48.6853C34.1627 48.6853 34.1859 48.6737 34.2208 48.6504C34.2557 48.6272 34.2789 48.6156 34.3138 48.5923C34.3487 48.569 34.372 48.5458 34.4069 48.5225C34.4417 48.4993 34.4534 48.476 34.465 48.4644C34.4883 48.4295 34.4999 48.3714 34.5231 48.29C34.5464 48.2086 34.5696 48.1272 34.6045 48.0458C34.6394 47.9644 34.6627 47.8946 34.6976 47.8249C34.7324 47.7551 34.7673 47.7318 34.8138 47.7318C34.8487 47.7318 34.8952 47.7551 34.9185 47.8132V48.2318C34.9185 48.2318 34.9185 48.3016 34.9185 48.3365C34.9185 48.3714 34.8952 48.4063 34.872 48.4644L34.8138 48.5342L34.8371 48.6853C34.8371 48.6853 34.8371 48.7318 34.8371 48.79C34.8371 48.8481 34.8487 48.9179 34.8603 48.9993C34.872 49.0807 34.872 49.1504 34.8836 49.2318C34.8952 49.3132 34.8836 49.383 34.8836 49.4295L34.8603 49.5923C34.8603 49.5923 34.8603 49.6853 34.8836 49.7202C34.9069 49.7551 34.9069 49.79 34.9069 49.8249C34.9069 49.9063 34.8952 49.976 34.8603 50.0342C34.8255 50.0923 34.779 50.1156 34.6976 50.1156C34.6627 50.1156 34.6278 50.1156 34.6045 50.0923C34.5813 50.069 34.5696 50.0574 34.558 50.0458C34.5464 50.0342 34.5464 49.9993 34.5348 49.976C34.5231 49.9528 34.5348 49.9295 34.5348 49.8946V49.8365C34.5348 49.8365 34.5348 49.8016 34.5348 49.79L34.4069 49.569V49.4295C34.4069 49.4295 34.372 49.3481 34.3022 49.3132C34.2324 49.2783 34.151 49.2435 34.058 49.2086C33.965 49.1737 33.8487 49.1504 33.7324 49.1272C33.6162 49.1039 33.4999 49.0807 33.3836 49.069C33.2673 49.0574 33.1627 49.0342 33.0696 49.0225C32.9766 49.0109 32.9069 49.0109 32.872 49.0109C32.8138 49.0109 32.7673 49.0225 32.7324 49.0574C32.6976 49.0923 32.651 49.1388 32.6278 49.1853C32.6045 49.2318 32.5813 49.29 32.558 49.3481C32.5348 49.4063 32.5348 49.4528 32.5231 49.4993V49.8597L32.5813 50.5574V50.9528C32.5813 51.0225 32.6162 51.0923 32.6627 51.1621C32.7092 51.2318 32.7673 51.29 32.8371 51.3481C32.9069 51.4063 32.9766 51.4528 33.058 51.4876C33.1394 51.5225 33.2092 51.5458 33.2673 51.5458L33.5929 51.569L33.6743 51.6039H34.1627C34.2208 51.6039 34.2789 51.6039 34.3487 51.6039C34.4185 51.6039 34.4766 51.6039 34.5348 51.6039C34.5929 51.6039 34.6743 51.6039 34.7557 51.5807L35.1162 51.4411C35.1162 51.4411 35.2208 51.3597 35.2906 51.3016C35.3603 51.2435 35.4301 51.1737 35.4999 51.1039C35.5696 51.0342 35.6278 50.9644 35.6859 50.8946C35.7441 50.8249 35.7906 50.7667 35.8138 50.7202C35.8255 50.7202 35.8487 50.6853 35.8603 50.6504C35.872 50.6156 35.8952 50.569 35.9069 50.5225C35.9185 50.476 35.9534 50.4411 35.9766 50.4063C35.9999 50.3714 36.0348 50.3597 36.0696 50.3597C36.1045 50.3597 36.1278 50.3714 36.1394 50.4063C36.151 50.4411 36.1627 50.4644 36.1627 50.4876L36.0813 50.7783C36.0348 50.9411 35.9883 51.0923 35.9534 51.2551C35.9185 51.4179 35.8836 51.5807 35.872 51.7435C35.8138 51.8365 35.7324 51.8946 35.6278 51.9179C35.5231 51.9411 35.4301 51.9528 35.3255 51.9528H35.2208C35.2208 51.9528 35.1627 51.9528 35.1278 51.9528L35.0348 51.976C35.0348 51.976 34.9766 51.976 34.965 51.976C34.9534 51.976 34.9301 51.9644 34.9185 51.9528L34.872 51.9295C34.872 51.9295 34.8371 51.9295 34.8138 51.9295L34.5231 51.9644L34.372 51.9295L33.6743 51.9876C33.4534 51.9876 33.2324 51.9876 33.0115 51.9644C32.7906 51.9411 32.558 51.9411 32.3255 51.9411L31.7441 51.9993L31.3371 51.976C31.3371 51.976 31.2324 51.976 31.1743 51.9993C31.1162 52.0225 31.0696 52.0225 31.0231 52.0458C30.9766 52.069 30.9301 52.069 30.8836 52.0923C30.8371 52.1156 30.7906 52.1156 30.7557 52.1156C30.7092 52.1156 30.651 52.1156 30.5929 52.0923C30.5348 52.069 30.4766 52.0574 30.4185 52.0225C30.3603 51.9876 30.3255 51.9528 30.2789 51.9063C30.2324 51.8597 30.2208 51.8132 30.2208 51.7435L30.2673 51.7086Z" fill="white"/>
<path d="M36.7092 51.7086C36.7092 51.7086 36.7324 51.6039 36.7789 51.569C36.8255 51.5342 36.872 51.4993 36.9417 51.476C37.0115 51.4528 37.0696 51.4411 37.1278 51.4295C37.1859 51.4179 37.2441 51.4179 37.2906 51.4179H37.6627C37.6627 51.4179 37.7208 51.3946 37.7673 51.3714C37.8138 51.3481 37.8487 51.3132 37.8952 51.2783C37.9417 51.2435 37.9766 51.1969 37.9999 51.1504C38.0231 51.1039 38.0464 51.0574 38.058 51.0109C38.058 50.9528 38.0696 50.883 38.0696 50.8016C38.0696 50.7435 38.0696 50.6853 38.058 50.6156L38.1162 50.5109C38.0696 50.3597 38.0464 50.197 38.0348 50.0458C38.0231 49.8946 38.0115 49.7435 38.0115 49.5923C38.0115 49.5574 38.0115 49.5225 38.0115 49.476C38.0115 49.4295 38.0115 49.383 38.0348 49.3365C38.058 49.29 38.0464 49.2435 38.058 49.1969C38.0696 49.1504 38.0813 49.1156 38.0813 49.0807V49.0458C38.0813 49.0458 38.1162 49.0109 38.1162 48.9993C38.1162 48.976 38.1394 48.9528 38.151 48.9411C38.151 48.9295 38.1627 48.9063 38.1743 48.8946C38.1859 48.883 38.1743 48.8597 38.1743 48.8597C38.1743 48.8365 38.1627 48.8132 38.1394 48.8016C38.1162 48.79 38.0929 48.7783 38.0813 48.7783C38.0813 48.6737 38.0813 48.5807 38.0929 48.476C38.1045 48.3714 38.0929 48.2783 38.0929 48.1737C38.0929 48.069 38.0929 47.976 38.0929 47.8714C38.0929 47.7667 38.0929 47.6737 38.0813 47.569C38.0696 47.5225 38.058 47.4993 38.058 47.476C38.058 47.4528 38.058 47.4295 38.058 47.3946L38.0929 47.1272L38.058 46.6388C38.058 46.6388 38.0464 46.5574 38.0115 46.5109C37.9766 46.4644 37.9417 46.4179 37.8952 46.383C37.8487 46.3481 37.8138 46.3016 37.7673 46.2783C37.7208 46.2551 37.6859 46.2318 37.6627 46.2318H37.3371L37.3022 46.2086H37.2789C37.2789 46.2086 37.2673 46.1853 37.2557 46.1853C37.2092 46.1737 37.1627 46.1621 37.1162 46.1504C37.0696 46.1388 37.0115 46.1272 36.965 46.1156C36.9185 46.1039 36.8836 46.069 36.8487 46.0342C36.8138 45.9993 36.8022 45.9528 36.8022 45.883C36.8022 45.8249 36.8022 45.79 36.8255 45.7551C36.8487 45.7202 36.8603 45.7086 36.8952 45.697C36.9301 45.6853 36.9534 45.6737 36.9999 45.6737C37.0464 45.6737 37.0929 45.6737 37.1394 45.6737C37.2208 45.6737 37.3022 45.6737 37.372 45.6737C37.4417 45.6737 37.5115 45.697 37.5696 45.7435H37.6162C37.6162 45.7435 37.6394 45.7318 37.6627 45.7318H37.7441C37.8836 45.7318 38.0348 45.7318 38.1976 45.7667C38.3603 45.8016 38.4999 45.8016 38.6278 45.8132L38.8836 45.8597C38.8836 45.8597 38.965 45.8597 38.9999 45.8365C39.0348 45.8132 39.0813 45.8132 39.1278 45.79C39.1743 45.7667 39.2208 45.7551 39.2557 45.7435C39.2906 45.7318 39.3371 45.7202 39.3836 45.7202C39.4185 45.7202 39.4417 45.7202 39.465 45.7435C39.4883 45.7667 39.5231 45.7667 39.5696 45.7667C39.5813 45.7667 39.6045 45.7667 39.6162 45.7435C39.6278 45.7202 39.651 45.7202 39.6859 45.7202C39.7208 45.7202 39.7441 45.7202 39.7557 45.7202C39.7673 45.7202 39.7906 45.7318 39.8022 45.7667H39.9766C40.0348 45.7667 40.1045 45.7667 40.1743 45.7318C40.2441 45.697 40.3138 45.697 40.3836 45.697C40.4301 45.697 40.465 45.697 40.4883 45.697C40.5115 45.697 40.5464 45.7202 40.5929 45.7551L41.4069 45.8016C41.4069 45.8016 41.4883 45.8016 41.5115 45.8132C41.5464 45.8132 41.5696 45.8132 41.6045 45.8249C41.6394 45.8365 41.6627 45.8249 41.6859 45.8365C41.6976 45.8365 41.7208 45.8365 41.7441 45.8365C41.7673 45.8365 41.7906 45.8365 41.8022 45.8597C41.8138 45.883 41.8371 45.883 41.8487 45.8946C41.8603 45.9063 41.872 45.9295 41.872 45.9528C41.872 45.976 41.8952 46.0225 41.8952 46.0923C41.8952 46.1621 41.9069 46.2202 41.9185 46.29C41.9301 46.3597 41.9301 46.4295 41.9417 46.4876C41.9534 46.5458 41.9417 46.5923 41.9417 46.6156C41.9534 46.7202 41.965 46.8249 41.9766 46.9295C41.9883 47.0342 41.9883 47.1388 41.9883 47.2435H41.9185C41.8487 47.2435 41.8022 47.197 41.7557 47.0923C41.7324 47.0574 41.7092 47.0342 41.6976 47.0225C41.6859 47.0109 41.6743 46.9993 41.6743 46.976C41.6278 46.9179 41.5929 46.8597 41.5464 46.79C41.4999 46.7202 41.465 46.6621 41.4301 46.5923C41.3952 46.5225 41.3603 46.476 41.3371 46.4295C41.3138 46.383 41.2906 46.3481 41.2789 46.3249C41.2441 46.3132 41.2092 46.3016 41.1627 46.29C41.1162 46.2783 41.0813 46.2783 41.0464 46.2667C41.0115 46.2551 40.9766 46.2435 40.9417 46.2318C40.9069 46.2202 40.8836 46.1969 40.8603 46.1621C40.8371 46.1156 40.7906 46.0923 40.7208 46.0923C40.6976 46.0923 40.6743 46.0923 40.6743 46.0923C40.6627 46.0923 40.6394 46.0923 40.6162 46.0923C40.5929 46.0923 40.5696 46.0923 40.5464 46.0923C40.4999 46.0923 40.4417 46.0923 40.3952 46.0923C40.3487 46.0923 40.3022 46.0923 40.2673 46.0923C40.2441 46.0923 40.2324 46.0923 40.2208 46.0923C40.2092 46.0923 40.2092 46.0923 40.1859 46.0923H40.151C40.0813 46.069 40.0231 46.069 39.9534 46.0574C39.8836 46.0458 39.8255 46.0574 39.7557 46.0574C39.6859 46.0574 39.6278 46.0574 39.558 46.0574C39.4883 46.0574 39.4301 46.0574 39.3603 46.0807C39.3371 46.0807 39.3138 46.1039 39.2906 46.1156C39.2673 46.1272 39.2324 46.1504 39.2092 46.1853C39.1859 46.2202 39.1627 46.2318 39.1394 46.2667C39.1162 46.3016 39.1045 46.3249 39.0929 46.3481C39.0696 46.4528 39.058 46.569 39.0464 46.697C39.0348 46.8249 39.0464 46.9528 39.0464 47.0923V47.569C39.0464 47.569 38.9999 47.6388 38.9999 47.6737C38.9999 47.7086 38.9999 47.7551 38.9999 47.8016V47.9644C38.9999 48.0342 38.9999 48.1039 38.9999 48.1737C38.9999 48.2435 39.0115 48.3132 39.0348 48.383C39.058 48.4528 39.0813 48.5109 39.1162 48.5807C39.151 48.6504 39.1976 48.697 39.2557 48.7551L39.9883 48.7783C39.9883 48.7783 40.1045 48.7783 40.151 48.7435C40.1627 48.7435 40.1859 48.7435 40.2092 48.7318C40.2324 48.7202 40.2557 48.7318 40.2673 48.7318H40.4417C40.4417 48.7318 40.5348 48.7318 40.5813 48.6853C40.6045 48.6853 40.6278 48.6737 40.6627 48.6504C40.6976 48.6272 40.7208 48.6156 40.7557 48.5923C40.7906 48.569 40.8138 48.5458 40.8487 48.5225C40.8836 48.4993 40.8952 48.476 40.9069 48.4644C40.9301 48.4295 40.9417 48.3714 40.965 48.29C40.9883 48.2086 41.0115 48.1272 41.0464 48.0458C41.0813 47.9644 41.1045 47.8946 41.1394 47.8249C41.1743 47.7551 41.2092 47.7318 41.2557 47.7318C41.2906 47.7318 41.3371 47.7551 41.3603 47.8132V48.2318C41.3603 48.2318 41.3603 48.3016 41.3603 48.3365C41.3603 48.3714 41.3371 48.4063 41.3138 48.4644L41.2557 48.5342L41.2789 48.6853C41.2789 48.6853 41.2789 48.7318 41.2789 48.79C41.2789 48.8481 41.2906 48.9179 41.3022 48.9993C41.3138 49.0807 41.3138 49.1504 41.3255 49.2318C41.3371 49.3132 41.3255 49.383 41.3255 49.4295L41.3022 49.5923C41.3022 49.5923 41.3022 49.6853 41.3255 49.7202C41.3487 49.7551 41.3487 49.79 41.3487 49.8249C41.3487 49.9063 41.3371 49.976 41.3022 50.0342C41.2673 50.0923 41.2208 50.1156 41.1394 50.1156C41.1045 50.1156 41.0696 50.1156 41.0464 50.0923C41.0231 50.069 41.0115 50.0574 40.9999 50.0458C40.9883 50.0342 40.9883 49.9993 40.9766 49.976C40.965 49.9528 40.9766 49.9295 40.9766 49.8946V49.8365C40.9766 49.8365 40.9766 49.8016 40.9766 49.79L40.8487 49.569V49.4295C40.8487 49.4295 40.8138 49.3481 40.7441 49.3132C40.6743 49.2783 40.5929 49.2435 40.4999 49.2086C40.4069 49.1737 40.2906 49.1504 40.1743 49.1272C40.058 49.1039 39.9417 49.0807 39.8255 49.069C39.7092 49.0574 39.6045 49.0342 39.5115 49.0225C39.4185 49.0109 39.3487 49.0109 39.3138 49.0109C39.2557 49.0109 39.2092 49.0225 39.1743 49.0574C39.1394 49.0923 39.0929 49.1388 39.0696 49.1853C39.0464 49.2318 39.0231 49.29 38.9999 49.3481C38.9766 49.4063 38.9766 49.4528 38.965 49.4993V49.8597L39.0231 50.5574V50.9528C39.0231 51.0225 39.058 51.0923 39.1045 51.1621C39.151 51.2318 39.2092 51.29 39.2789 51.3481C39.3487 51.4063 39.4185 51.4528 39.4999 51.4876C39.5813 51.5225 39.651 51.5458 39.7092 51.5458L40.0348 51.569L40.1162 51.6039H40.6045C40.6627 51.6039 40.7208 51.6039 40.7906 51.6039C40.8603 51.6039 40.9185 51.6039 40.9766 51.6039C41.0348 51.6039 41.1162 51.6039 41.1976 51.5807L41.558 51.4411C41.558 51.4411 41.6627 51.3597 41.7324 51.3016C41.8022 51.2435 41.872 51.1737 41.9417 51.1039C42.0115 51.0342 42.0696 50.9644 42.1278 50.8946C42.1859 50.8249 42.2324 50.7667 42.2557 50.7202C42.2673 50.7202 42.2906 50.6853 42.3022 50.6504C42.3138 50.6156 42.3371 50.569 42.3487 50.5225C42.3603 50.476 42.3952 50.4411 42.4185 50.4063C42.4417 50.3714 42.4766 50.3597 42.5115 50.3597C42.5464 50.3597 42.5696 50.3714 42.5813 50.4063C42.5929 50.4411 42.6045 50.4644 42.6045 50.4876L42.5231 50.7783C42.4766 50.9411 42.4301 51.0923 42.3952 51.2551C42.3603 51.4179 42.3255 51.5807 42.3138 51.7435C42.2557 51.8365 42.1743 51.8946 42.0696 51.9179C41.965 51.9411 41.872 51.9528 41.7673 51.9528H41.6627C41.6627 51.9528 41.6045 51.9528 41.5696 51.9528L41.4766 51.976C41.4766 51.976 41.4185 51.976 41.4069 51.976C41.3952 51.976 41.372 51.9644 41.3603 51.9528L41.3138 51.9295C41.3138 51.9295 41.2789 51.9295 41.2557 51.9295L40.965 51.9644L40.8138 51.9295L40.1162 51.9876C39.8952 51.9876 39.6743 51.9876 39.4534 51.9644C39.2324 51.9411 38.9999 51.9411 38.7673 51.9411L38.1859 51.9993L37.7789 51.976C37.7789 51.976 37.6743 51.976 37.6162 51.9993C37.558 52.0225 37.5115 52.0225 37.465 52.0458C37.4185 52.069 37.372 52.069 37.3255 52.0923C37.2789 52.1156 37.2324 52.1156 37.1976 52.1156C37.151 52.1156 37.0929 52.1156 37.0348 52.0923C36.9766 52.069 36.9185 52.0574 36.8603 52.0225C36.8022 51.9876 36.7673 51.9528 36.7208 51.9063C36.6743 51.8597 36.6627 51.8132 36.6627 51.7435L36.7092 51.7086Z" fill="white"/>
<path d="M43.0813 19.0109L51.6976 10.3946L50.1045 8.8016L41.4883 17.4179C42.058 17.9179 42.5929 18.4528 43.0813 19.0109Z" fill="#E5281E"/>
<path d="M18.5115 17.4062L9.89523 8.78997L8.3022 10.383L16.9185 18.9993C17.4185 18.4295 17.9534 17.8946 18.5115 17.4062Z" fill="#E5281E"/>
<path d="M32.9069 6.28997C32.6394 6.28997 32.4185 6.5109 32.4185 6.77834V10.5574C32.4185 11.8365 31.4883 12.9062 30.2673 13.1272V11.383C30.2673 11.1156 30.0464 10.8946 29.7789 10.8946C29.5115 10.8946 29.2906 11.1156 29.2906 11.383V13.1272C28.0696 12.9062 27.1394 11.8481 27.1394 10.5574V6.77834C27.1394 6.5109 26.9185 6.28997 26.651 6.28997C26.3836 6.28997 26.1627 6.5109 26.1627 6.77834V25.4876C26.1627 27.3016 27.5231 28.8132 29.2906 29.0342V34.0342C29.2906 34.3016 29.5115 34.5225 29.7789 34.5225C30.0464 34.5225 30.2673 34.3016 30.2673 34.0342V29.0342C32.0231 28.8132 33.3952 27.3016 33.3952 25.4876V6.77834C33.3952 6.5109 33.1743 6.28997 32.9069 6.28997ZM29.2906 16.8481C28.0696 16.6272 27.1394 15.569 27.1394 14.2783V12.9993C27.6976 13.5923 28.4417 13.9876 29.2906 14.0923V16.8481ZM29.2906 20.5807C28.0696 20.3597 27.1394 19.3016 27.1394 18.0109V16.7318C27.6976 17.3249 28.4417 17.7202 29.2906 17.8249V20.5807ZM29.2906 24.3132C28.0696 24.0923 27.1394 23.0342 27.1394 21.7435V20.4644C27.6976 21.0574 28.4417 21.4528 29.2906 21.5574V24.3132ZM27.1394 25.4876V24.2086C27.6976 24.8016 28.4417 25.197 29.2906 25.3016V28.0458C28.0696 27.8249 27.1394 26.7667 27.1394 25.476V25.4876ZM32.4185 25.4876C32.4185 26.7667 31.4883 27.8365 30.2673 28.0574V25.3132C31.1045 25.2086 31.8603 24.8016 32.4185 24.2202V25.4993V25.4876ZM32.4185 21.7086V21.7435C32.4185 23.0225 31.4883 24.0923 30.2673 24.3132V21.569C31.1045 21.4644 31.8603 21.0574 32.4185 20.476V21.7202V21.7086ZM32.4185 17.976V18.0109C32.4185 19.29 31.4883 20.3597 30.2673 20.5807V17.8365C31.1045 17.7318 31.8603 17.3249 32.4185 16.7435V17.9876V17.976ZM32.4185 14.2435V14.2783C32.4185 15.5574 31.4883 16.6272 30.2673 16.8481V14.1039C31.1045 13.9993 31.8603 13.5923 32.4185 13.0109V14.2551V14.2435Z" fill="#E5281E"/>
</svg>
