<svg width="27" height="12" viewBox="0 0 27 12" fill="none" xmlns="http://www.w3.org/2000/svg">
<path d="M8.26015 3.09375C8.16398 3.1875 8.0678 3.28125 7.97164 3.375C7.61902 3.6875 7.36259 4.0625 7.26642 4.53125C7.13819 5.1875 7.26642 5.75 7.68314 6.28125C7.87548 6.53125 8.13192 6.75 8.45248 6.875C8.48453 6.875 8.5166 6.90625 8.58071 6.90625C8.54865 7.03125 8.51659 7.125 8.45248 7.21875C8.19603 7.84375 7.84341 8.40625 7.39463 8.875C7.29846 8.96875 7.20231 9.0625 7.10614 9.125C6.78558 9.375 6.40091 9.5 5.98418 9.375C5.75979 9.3125 5.56745 9.25 5.34306 9.1875C5.11867 9.125 4.89426 9.0625 4.66987 9.0625C4.38137 9.0625 4.12492 9.125 3.86847 9.21875C3.67614 9.28125 3.48381 9.375 3.25942 9.40625C2.93886 9.46875 2.65035 9.375 2.3939 9.21875C2.13746 9.03125 1.91305 8.8125 1.72072 8.5625C1.27193 7.90625 0.919331 7.21875 0.694939 6.46875C0.502603 5.78125 0.438483 5.09375 0.566707 4.40625C0.662875 3.78125 0.887275 3.25 1.33606 2.78125C1.78484 2.3125 2.36185 2.125 3.03502 2.1875C3.35558 2.21875 3.67614 2.3125 3.9967 2.40625C4.12493 2.4375 4.25315 2.46875 4.38138 2.5C4.57371 2.5625 4.76605 2.53125 4.95838 2.46875C5.21483 2.40625 5.47127 2.3125 5.72772 2.25C6.11239 2.125 6.49706 2.09375 6.91379 2.1875C7.42669 2.28125 7.84342 2.5625 8.16398 2.9375C8.16398 2.96875 8.19604 3.03125 8.26015 3.09375C8.26015 3.0625 8.22809 3.0625 8.26015 3.09375Z" fill="#131309"/>
<path d="M6.30473 0C6.30473 0.125 6.33679 0.21875 6.30473 0.3125C6.27267 0.875 6.04827 1.34375 5.63154 1.75C5.43921 1.9375 5.24688 2.09375 5.02249 2.1875C4.83015 2.28125 4.60576 2.28125 4.38137 2.3125C4.41343 1.0625 5.0866 0.25 6.30473 0Z" fill="#131309"/>
<path d="M10.9849 1.46875C11.4978 1.375 12.171 1.3125 13.0044 1.3125C14.0623 1.3125 14.7996 1.5625 15.3125 1.96875C15.7612 2.34375 16.0177 2.9375 16.0177 3.625C16.0177 4.34375 15.7933 4.90625 15.3766 5.3125C14.8316 5.90625 13.902 6.1875 12.8762 6.1875C12.5556 6.1875 12.2671 6.1875 12.0427 6.125V9.3125H10.9849V1.46875ZM12.0427 5.3125C12.2671 5.375 12.5556 5.40625 12.9083 5.40625C14.1905 5.40625 14.9598 4.8125 14.9598 3.71875C14.9598 2.65625 14.1905 2.15625 13.0365 2.15625C12.5877 2.15625 12.2351 2.1875 12.0427 2.25V5.3125Z" fill="#131309"/>
<path d="M19.8323 9.34375L19.7362 8.625H19.7041C19.3836 9.0625 18.7424 9.46875 17.909 9.46875C16.7229 9.46875 16.1138 8.65625 16.1138 7.8125C16.1138 6.4375 17.364 5.6875 19.64 5.6875V5.5625C19.64 5.09375 19.5118 4.25 18.2937 4.25C17.7487 4.25 17.1717 4.40625 16.755 4.6875L16.4985 4C16.9794 3.6875 17.6846 3.5 18.4219 3.5C20.217 3.5 20.6658 4.6875 20.6658 5.84375V7.96875C20.6658 8.46875 20.6979 8.9375 20.762 9.34375H19.8323ZM19.6721 6.4375C18.518 6.40625 17.1717 6.625 17.1717 7.71875C17.1717 8.40625 17.6205 8.71875 18.1654 8.71875C18.9348 8.71875 19.4156 8.25 19.5759 7.75C19.6079 7.65625 19.64 7.53125 19.64 7.40625V6.4375H19.6721Z" fill="#131309"/>
<path d="M22.1404 3.625L23.4226 7C23.5509 7.375 23.7111 7.8125 23.8073 8.15625H23.8393C23.9355 7.8125 24.0638 7.375 24.224 6.96875L25.378 3.625H26.5L24.8972 7.71875C24.1279 9.6875 23.6149 10.6875 22.8777 11.3125C22.3648 11.75 21.8198 11.9375 21.5634 12L21.3069 11.125C21.5634 11.0312 21.916 10.875 22.2365 10.625C22.525 10.4062 22.8777 10 23.1341 9.46875C23.1982 9.375 23.2303 9.28125 23.2303 9.21875C23.2303 9.15625 23.1982 9.0625 23.1662 8.9375L20.9864 3.65625H22.1404V3.625Z" fill="#131309"/>
</svg>
