<svg width="65" height="14" viewBox="0 0 65 14" fill="none" xmlns="http://www.w3.org/2000/svg">
<path d="M14.8416 12.0556V6.43162H16.2947V10.8889H18.6007V12.0855L14.8416 12.0556Z" fill="#2D3C69"/>
<path d="M23.3391 10.141C23.3391 10.2009 23.3391 10.2607 23.3391 10.2906C23.3391 10.3504 23.3391 10.3803 23.3391 10.4402H20.3065C20.3065 10.5598 20.3381 10.6496 20.4013 10.7393C20.4645 10.8291 20.5276 10.9188 20.6224 10.9786C20.7172 11.0385 20.8119 11.0983 20.9383 11.1282C21.0647 11.1581 21.1594 11.188 21.2858 11.188C21.5069 11.188 21.6964 11.1581 21.8544 11.0684C22.0123 10.9786 22.1387 10.8889 22.2335 10.7692L23.1811 11.3376C22.9916 11.6068 22.7389 11.8162 22.3914 11.9658C22.0755 12.1154 21.6964 12.1752 21.2858 12.1752C20.9699 12.1752 20.6856 12.1154 20.4013 12.0256C20.117 11.9359 19.8643 11.7863 19.6747 11.6068C19.4536 11.4274 19.2957 11.2179 19.1693 10.9487C19.0429 10.6795 18.9798 10.3803 18.9798 10.0513C18.9798 9.72222 19.0429 9.42308 19.1693 9.18376C19.2957 8.94445 19.4536 8.70513 19.6431 8.52564C19.8327 8.34615 20.0854 8.19658 20.3697 8.10684C20.654 8.01709 20.9383 7.95726 21.2542 7.95726C21.5701 7.95726 21.8544 8.01709 22.1071 8.10684C22.3598 8.19658 22.581 8.34615 22.7705 8.52564C22.96 8.70513 23.0864 8.94444 23.2127 9.21368C23.3075 9.48291 23.3391 9.78205 23.3391 10.141ZM22.0755 9.63248C22.0755 9.42308 22.0123 9.24359 21.8544 9.09402C21.728 8.94444 21.5069 8.88462 21.2226 8.88462C21.0963 8.88462 20.9699 8.91453 20.8435 8.94444C20.7172 8.97436 20.6224 9.03419 20.5592 9.09402C20.4645 9.15385 20.4013 9.24359 20.3697 9.33333C20.3065 9.42308 20.3065 9.51282 20.2749 9.63248H22.0755Z" fill="#2D3C69"/>
<path d="M25.5503 9.0641V10.5897C25.5503 10.7692 25.5819 10.9188 25.6767 11.0085C25.7399 11.0983 25.8978 11.1581 26.0874 11.1581C26.1505 11.1581 26.2137 11.1581 26.3085 11.1282C26.3717 11.1282 26.4348 11.0983 26.498 11.0684L26.5296 12.0256C26.4349 12.0556 26.3085 12.0855 26.1821 12.1154C26.0242 12.1453 25.8978 12.1453 25.7399 12.1453C25.4556 12.1453 25.2345 12.1154 25.0449 12.0556C24.8554 11.9957 24.6974 11.906 24.6027 11.7564C24.4763 11.6368 24.4131 11.4872 24.35 11.3077C24.2868 11.1282 24.2868 10.9487 24.2868 10.7393V9.0641H23.6234V8.10684H24.2868V7.05983H25.6451V8.10684H26.6244V9.0641H25.5503Z" fill="#2D3C69"/>
<path d="M30.9837 9.2735C30.8574 9.18376 30.731 9.09402 30.6046 9.00427C30.4467 8.94444 30.2887 8.91453 30.1308 8.91453C30.0044 8.91453 29.8781 8.94444 29.7833 8.97436C29.6886 9.03419 29.6254 9.09402 29.6254 9.21368C29.6254 9.33333 29.6886 9.39316 29.8149 9.45299C29.9413 9.51282 30.1308 9.54273 30.3835 9.60256C30.5415 9.63248 30.6994 9.69231 30.8574 9.75214C31.0153 9.81197 31.1733 9.90171 31.2996 9.99145C31.426 10.0812 31.5207 10.2009 31.6155 10.3504C31.6787 10.5 31.7419 10.6496 31.7419 10.8291C31.7419 11.0684 31.6787 11.2778 31.5839 11.4573C31.4891 11.6368 31.3312 11.7564 31.1733 11.8761C31.0153 11.9957 30.8258 12.0556 30.6046 12.1154C30.3835 12.1752 30.194 12.1752 29.9729 12.1752C29.6254 12.1752 29.3095 12.1154 28.962 12.0256C28.6461 11.9359 28.3618 11.7564 28.1407 11.5769L28.8988 10.7991C29.0252 10.9188 29.1831 11.0385 29.3411 11.1282C29.5306 11.2179 29.7201 11.2479 29.9097 11.2479C30.036 11.2479 30.1308 11.2179 30.2572 11.1581C30.3519 11.0983 30.4151 11.0085 30.4151 10.8889C30.4151 10.7692 30.3519 10.6795 30.2256 10.6197C30.0992 10.5598 29.8781 10.5 29.5938 10.4402C29.4358 10.4103 29.3095 10.3803 29.1515 10.3205C28.9936 10.2607 28.8672 10.2009 28.7725 10.1111C28.6461 10.0214 28.5513 9.90171 28.4882 9.78205C28.425 9.66239 28.3934 9.48291 28.3934 9.30342C28.3934 9.0641 28.4566 8.8547 28.5513 8.70513C28.6461 8.52564 28.8041 8.40598 28.962 8.28632C29.1199 8.16667 29.3095 8.10684 29.5306 8.04701C29.7517 7.98718 29.9413 7.95726 30.1308 7.95726C30.4467 7.95726 30.7626 8.01709 31.0469 8.10684C31.3312 8.19658 31.6155 8.34615 31.805 8.52564L30.9837 9.2735Z" fill="#2D3C69"/>
<path d="M34.3322 12.0556V6.43162H38.344V7.56838H35.7221V8.6453H38.1861V9.72222H35.7221V10.8889H38.4704V12.0556H34.3322Z" fill="#2D3C69"/>
<path d="M42.1348 12.0556V9.90171C42.1348 9.78205 42.1348 9.69231 42.1032 9.57265C42.0716 9.48291 42.04 9.39316 42.0084 9.30342C41.9768 9.21367 41.9136 9.15385 41.8189 9.12393C41.7241 9.09402 41.6293 9.0641 41.503 9.0641C41.3766 9.0641 41.2818 9.09402 41.1871 9.12393C41.0923 9.18376 41.0291 9.24359 40.9659 9.30342C40.9028 9.39316 40.8712 9.48291 40.8396 9.57265C40.808 9.66239 40.808 9.78205 40.808 9.90171V12.0556H39.4181V8.10684H40.7448V8.6453H40.7764C40.8396 8.55555 40.9028 8.46581 40.9659 8.40598C41.0607 8.31624 41.1555 8.25641 41.2502 8.19658C41.345 8.13675 41.4714 8.07692 41.5977 8.04701C41.7241 8.01709 41.8505 7.98718 42.0084 7.98718C42.2927 7.98718 42.5138 8.04701 42.735 8.13675C42.9245 8.2265 43.0824 8.34615 43.2088 8.49573C43.3351 8.6453 43.4299 8.82479 43.4615 9.00427C43.5247 9.21368 43.5563 9.39316 43.5563 9.60256V12.0556H42.1348Z" fill="#2D3C69"/>
<path d="M47.0627 9.39316C46.9995 9.30342 46.8732 9.21368 46.7468 9.15385C46.6204 9.09402 46.4625 9.0641 46.3361 9.0641C46.1782 9.0641 46.0518 9.09402 45.9571 9.15385C45.8307 9.21368 45.7359 9.2735 45.6412 9.36325C45.5464 9.45299 45.4832 9.57265 45.4516 9.69231C45.3885 9.81197 45.3885 9.93162 45.3885 10.0812C45.3885 10.2308 45.42 10.3504 45.4516 10.4701C45.4832 10.5897 45.5464 10.7094 45.6412 10.7991C45.7359 10.8889 45.8307 10.9786 45.9571 11.0085C46.0834 11.0684 46.2098 11.0983 46.3677 11.0983C46.4941 11.0983 46.652 11.0684 46.7784 11.0085C46.9047 10.9487 47.0311 10.8889 47.1259 10.7991L47.884 11.6966C47.7261 11.8462 47.4734 11.9658 47.2206 12.0556C46.9363 12.1453 46.652 12.2051 46.3361 12.2051C46.0202 12.2051 45.7043 12.1453 45.42 12.0556C45.1357 11.9658 44.883 11.8162 44.6619 11.6368C44.4408 11.4573 44.2828 11.2179 44.1565 10.9786C44.0301 10.7393 43.9669 10.4103 43.9669 10.0812C43.9669 9.75214 44.0301 9.45299 44.1565 9.21368C44.2828 8.94444 44.4408 8.73504 44.6619 8.55556C44.883 8.37607 45.1357 8.2265 45.42 8.13675C45.7043 8.04701 46.0202 7.98718 46.3361 7.98718C46.4941 7.98718 46.652 7.98718 46.7784 8.01709C46.9363 8.04701 47.0627 8.07692 47.2206 8.13675C47.347 8.19658 47.4733 8.2265 47.5997 8.31624C47.7261 8.37607 47.8208 8.46581 47.884 8.52564L47.0627 9.39316Z" fill="#2D3C69"/>
<path d="M51.0745 9.18376C51.0114 9.15385 50.9482 9.15385 50.885 9.15385C50.8218 9.15385 50.7586 9.15385 50.7271 9.15385C50.5375 9.15385 50.3796 9.18376 50.2532 9.24359C50.1269 9.30342 50.0321 9.39316 49.9373 9.48291C49.8741 9.57265 49.811 9.66239 49.7794 9.78205C49.7478 9.90171 49.7162 9.99145 49.7162 10.0513V12.0855H48.3894V8.10684H49.7162V8.67521H49.7478C49.8426 8.46581 50.0005 8.31624 50.19 8.16667C50.3796 8.04701 50.6007 7.98718 50.885 7.98718C50.9482 7.98718 51.0114 7.98718 51.0429 7.98718C51.1061 7.98718 51.1377 7.98718 51.1693 8.01709L51.0745 9.18376Z" fill="#2D3C69"/>
<path d="M54.3282 12.6538C54.2335 12.8632 54.1387 13.0427 54.0439 13.1923C53.9492 13.3419 53.8228 13.4915 53.6649 13.6111C53.5069 13.7308 53.349 13.8205 53.1594 13.8803C52.9699 13.9402 52.7488 13.9701 52.4645 13.9701C52.3381 13.9701 52.2118 13.9701 52.0538 13.9402C51.9274 13.9103 51.8011 13.9103 51.7063 13.8803L51.8643 12.7735C51.9274 12.8034 51.9906 12.8034 52.0854 12.8333C52.1802 12.8333 52.2433 12.8632 52.3065 12.8632C52.5276 12.8632 52.6856 12.8034 52.7804 12.7137C52.8751 12.6239 52.9699 12.5043 53.0331 12.3248L53.1594 11.9957L51.422 8.10684H52.9383L53.886 10.6496H53.9176L54.7389 8.10684H56.192L54.3282 12.6538Z" fill="#2D3C69"/>
<path d="M61.2147 10.0812C61.2147 10.3504 61.1831 10.6197 61.0884 10.8889C60.9936 11.1581 60.8672 11.3675 60.7093 11.547C60.5513 11.7265 60.3302 11.906 60.0775 12.0256C59.8248 12.1453 59.5405 12.2051 59.2246 12.2051C58.9719 12.2051 58.7192 12.1453 58.498 12.0556C58.2769 11.9658 58.0874 11.8162 57.961 11.6667H57.9294V14H56.5395V8.10684H57.8347V8.58547H57.8662C57.9926 8.4359 58.1821 8.28632 58.4033 8.16667C58.6244 8.04701 58.9087 7.98718 59.193 7.98718C59.5089 7.98718 59.7616 8.04701 60.0143 8.16667C60.267 8.28632 60.4566 8.4359 60.6461 8.61538C60.8041 8.79487 60.962 9.03419 61.0252 9.2735C61.1515 9.54274 61.2147 9.78205 61.2147 10.0812ZM59.888 10.0812C59.888 9.96154 59.8564 9.84188 59.8248 9.72222C59.7932 9.60256 59.73 9.48291 59.6352 9.39316C59.5405 9.30342 59.4457 9.21368 59.3194 9.15385C59.193 9.09402 59.0666 9.0641 58.8771 9.0641C58.7192 9.0641 58.5928 9.09402 58.4664 9.15385C58.3401 9.21368 58.2453 9.30342 58.1505 9.39316C58.0558 9.48291 57.9926 9.60256 57.961 9.72222C57.8978 9.84188 57.8978 9.96154 57.8978 10.0812C57.8978 10.2009 57.9294 10.3205 57.961 10.4402C58.0242 10.5598 58.0874 10.6795 58.1505 10.7692C58.2453 10.859 58.3401 10.9487 58.4664 11.0085C58.5928 11.0684 58.7192 11.0983 58.8771 11.0983C59.035 11.0983 59.193 11.0684 59.3194 11.0085C59.4457 10.9487 59.5405 10.859 59.6352 10.7692C59.73 10.6795 59.7932 10.5598 59.8248 10.4402C59.8564 10.3205 59.888 10.2009 59.888 10.0812Z" fill="#2D3C69"/>
<path d="M63.426 9.0641V10.5897C63.426 10.7692 63.4576 10.9188 63.5523 11.0085C63.6155 11.0983 63.7735 11.1581 63.963 11.1581C64.0262 11.1581 64.0893 11.1581 64.1841 11.1282C64.2473 11.1282 64.3105 11.0983 64.3736 11.0684L64.4052 12.0256C64.3105 12.0556 64.1841 12.0855 64.0578 12.1154C63.8998 12.1453 63.7735 12.1453 63.6155 12.1453C63.3312 12.1453 63.1101 12.1154 62.9205 12.0556C62.731 11.9957 62.5731 11.906 62.4783 11.7564C62.3519 11.6368 62.2888 11.4872 62.2256 11.3077C62.1624 11.1282 62.1624 10.9487 62.1624 10.7393V9.0641H61.499V8.10684H62.1624V7.05983H63.5207V8.10684H64.5V9.0641H63.426Z" fill="#2D3C69"/>
<path d="M27.7932 6.31197C27.3825 6.31197 27.0666 6.5812 27.0666 6.94017C27.0666 7.32906 27.3509 7.56838 27.73 7.56838C27.7616 7.56838 27.7932 7.56838 27.8248 7.56838C27.7616 7.83761 27.4773 8.04701 27.193 8.07692H27.1298V8.67521H27.193C27.5089 8.6453 27.8564 8.49573 28.0775 8.28633C28.3934 8.01709 28.5513 7.59829 28.5513 7.11966C28.5829 6.67094 28.267 6.31197 27.7932 6.31197Z" fill="#2D3C69"/>
<path d="M9.15548 6.46154H7.63919V5.71367C7.63919 5.11538 7.13376 4.63675 6.50198 4.63675C5.87019 4.63675 5.36476 5.11538 5.36476 5.71367V6.46154H3.84847V5.71367C3.84847 4.33761 5.04887 3.20086 6.50198 3.20086C7.95508 3.20086 9.15548 4.33761 9.15548 5.71367V6.46154Z" fill="#F6A122"/>
<path d="M9.75568 6.46154H3.21668C2.93238 6.46154 2.71125 6.67094 2.71125 6.94017V11.5171C2.71125 11.7863 2.93238 11.9957 3.21668 11.9957H9.75568C10.04 11.9957 10.2611 11.7863 10.2611 11.5171V6.94017C10.2611 6.67094 10.04 6.46154 9.75568 6.46154ZM6.81787 9.45299V10.0812C6.81787 10.2607 6.65992 10.3803 6.50197 10.3803C6.34403 10.3803 6.18608 10.2308 6.18608 10.0812V9.45299C5.99655 9.33333 5.8386 9.12393 5.8386 8.88462C5.8386 8.52564 6.15449 8.25641 6.50197 8.25641C6.88105 8.25641 7.16535 8.55556 7.16535 8.88462C7.16535 9.15385 7.03899 9.33333 6.81787 9.45299Z" fill="#2D3C69"/>
<path d="M2.55331 5.7735H0.97384C0.721125 5.7735 0.5 5.5641 0.5 5.32479C0.5 5.08547 0.721125 4.87607 0.97384 4.87607H2.55331C2.80602 4.87607 3.02715 5.08547 3.02715 5.32479C3.02715 5.5641 2.80602 5.7735 2.55331 5.7735Z" fill="#F6A122"/>
<path d="M3.65893 3.41026C3.56417 3.41026 3.43781 3.38034 3.37463 3.32051L2.14265 2.33333C1.95311 2.18376 1.92152 1.91453 2.07947 1.70513C2.23741 1.52564 2.52172 1.49573 2.74284 1.6453L3.97483 2.60256C4.16436 2.75214 4.19595 3.02137 4.03801 3.23077C3.94324 3.35043 3.81688 3.41026 3.65893 3.41026Z" fill="#F6A122"/>
<path d="M6.50197 2.39316C6.24926 2.39316 6.02813 2.18376 6.02813 1.94444V0.448718C6.02813 0.209402 6.24926 0 6.50197 0C6.75469 0 6.97581 0.209402 6.97581 0.448718V1.94444C6.94423 2.18376 6.75469 2.39316 6.50197 2.39316Z" fill="#F6A122"/>
<path d="M9.31343 3.41026C9.18707 3.41026 9.06071 3.35043 8.96594 3.26068C8.808 3.0812 8.83959 2.81197 9.02912 2.63248L10.2611 1.67521C10.4506 1.52564 10.7349 1.55556 10.9245 1.73504C11.114 1.91453 11.0508 2.18376 10.8613 2.36325L9.62932 3.32051C9.50296 3.38034 9.40819 3.41026 9.31343 3.41026Z" fill="#F6A122"/>
<path d="M11.9985 5.7735H10.4191C10.1663 5.7735 9.94521 5.5641 9.94521 5.32479C9.94521 5.08547 10.1663 4.87607 10.4191 4.87607H11.9985C12.2512 4.87607 12.4724 5.08547 12.4724 5.32479C12.4724 5.5641 12.2512 5.7735 11.9985 5.7735Z" fill="#F6A122"/>
</svg>
